G04*
G04 #@! TF.GenerationSoftware,Altium Limited,Altium Designer,22.1.2 (22)*
G04*
G04 Layer_Color=255*
%FSLAX44Y44*%
%MOMM*%
G71*
G04*
G04 #@! TF.SameCoordinates,9944FDB8-61BE-4AD3-83C2-270689105BE0*
G04*
G04*
G04 #@! TF.FilePolarity,Positive*
G04*
G01*
G75*
%ADD22O,3.2000X2.2000*%
%ADD23C,1.3000*%
%ADD24R,1.3000X1.3000*%
%ADD25C,3.5000*%
%ADD26O,2.2000X3.2000*%
%ADD28R,4.2400X3.8100*%
%ADD29R,0.5657X0.5400*%
%ADD30R,1.5200X1.7800*%
%ADD31R,1.5200X1.6500*%
%ADD32R,0.5400X0.5657*%
%ADD33R,1.0000X1.1000*%
%ADD34R,2.5000X1.0000*%
%ADD35R,2.5000X1.2000*%
%ADD36R,6.5000X6.0000*%
%ADD37R,1.0000X2.5000*%
%ADD38R,1.2000X2.5000*%
%ADD39R,6.0000X6.5000*%
D22*
X309578Y541020D02*
D03*
X214582D02*
D03*
X119586D02*
D03*
X309372Y60960D02*
D03*
X214376D02*
D03*
X119380D02*
D03*
D23*
X422910Y324480D02*
D03*
Y304480D02*
D03*
Y284480D02*
D03*
D24*
Y264480D02*
D03*
D25*
X419100Y568960D02*
D03*
Y26670D02*
D03*
X26670Y568960D02*
D03*
Y26670D02*
D03*
D26*
X59780Y396090D02*
D03*
Y301094D02*
D03*
Y206098D02*
D03*
D28*
X228501Y156210D02*
D03*
X292199D02*
D03*
X228501Y445770D02*
D03*
X292199D02*
D03*
D29*
X429778Y236220D02*
D03*
X421122D02*
D03*
X429778Y227330D02*
D03*
X421122D02*
D03*
X429778Y369570D02*
D03*
X421122D02*
D03*
X429778Y378460D02*
D03*
X421122D02*
D03*
D30*
X273120Y262890D02*
D03*
X363220D02*
D03*
X361880Y375920D02*
D03*
X271780D02*
D03*
D31*
X273120Y237490D02*
D03*
Y212090D02*
D03*
X363220Y237490D02*
D03*
Y212090D02*
D03*
X361880Y325120D02*
D03*
Y350520D02*
D03*
X271780Y325120D02*
D03*
Y350520D02*
D03*
D32*
X381000Y268488D02*
D03*
Y259832D02*
D03*
Y396758D02*
D03*
Y388102D02*
D03*
D33*
X408494Y232520D02*
D03*
Y214520D02*
D03*
X384494Y223520D02*
D03*
X407224Y373490D02*
D03*
Y355490D02*
D03*
X383224Y364490D02*
D03*
D34*
X232410Y303270D02*
D03*
Y334270D02*
D03*
D35*
X232870Y355600D02*
D03*
Y401320D02*
D03*
D36*
X163370Y378460D02*
D03*
D37*
X242830Y201930D02*
D03*
X211830D02*
D03*
D38*
X135890Y158290D02*
D03*
X181610D02*
D03*
D39*
X158750Y227790D02*
D03*
M02*
