G04*
G04 #@! TF.GenerationSoftware,Altium Limited,Altium Designer,22.1.2 (22)*
G04*
G04 Layer_Color=16711935*
%FSLAX44Y44*%
%MOMM*%
G71*
G04*
G04 #@! TF.SameCoordinates,9944FDB8-61BE-4AD3-83C2-270689105BE0*
G04*
G04*
G04 #@! TF.FilePolarity,Negative*
G04*
G01*
G75*
%ADD14O,3.4032X2.4032*%
%ADD15C,1.5032*%
%ADD16R,1.5032X1.5032*%
%ADD17C,3.7032*%
%ADD18O,2.4032X3.4032*%
%ADD19C,1.0032*%
%ADD28R,4.2400X3.8100*%
%ADD44R,5.9932X8.2003*%
%ADD45R,8.2003X5.9932*%
%ADD46R,0.6673X0.6416*%
%ADD47R,1.7232X1.9832*%
%ADD48R,1.7232X1.8532*%
%ADD49R,0.6416X0.6673*%
%ADD50R,1.2032X1.3032*%
%ADD51R,2.7032X1.2032*%
%ADD52R,2.6000X1.3000*%
%ADD53R,6.6000X6.1000*%
%ADD54R,1.2032X2.7032*%
%ADD55R,1.3000X2.6000*%
%ADD56R,6.1000X6.6000*%
D14*
X309578Y541020D02*
D03*
X214582D02*
D03*
X119586D02*
D03*
X309372Y60960D02*
D03*
X214376D02*
D03*
X119380D02*
D03*
D15*
X422910Y324480D02*
D03*
Y304480D02*
D03*
Y284480D02*
D03*
D16*
Y264480D02*
D03*
D17*
X419100Y568960D02*
D03*
Y26670D02*
D03*
X26670Y568960D02*
D03*
Y26670D02*
D03*
D18*
X59780Y396090D02*
D03*
Y301094D02*
D03*
Y206098D02*
D03*
D19*
X147002Y269240D02*
D03*
X159385D02*
D03*
X134620D02*
D03*
X171768D02*
D03*
X184150D02*
D03*
X121920Y403860D02*
D03*
Y391478D02*
D03*
Y354330D02*
D03*
Y366712D02*
D03*
Y379095D02*
D03*
D28*
X228501Y156210D02*
D03*
X292199D02*
D03*
X228501Y445770D02*
D03*
X292199D02*
D03*
D44*
X158757Y240310D02*
D03*
D45*
X150850Y378467D02*
D03*
D46*
X429778Y236220D02*
D03*
X421122D02*
D03*
X429778Y227330D02*
D03*
X421122D02*
D03*
X429778Y369570D02*
D03*
X421122D02*
D03*
X429778Y378460D02*
D03*
X421122D02*
D03*
D47*
X273120Y262890D02*
D03*
X363220D02*
D03*
X361880Y375920D02*
D03*
X271780D02*
D03*
D48*
X273120Y237490D02*
D03*
Y212090D02*
D03*
X363220Y237490D02*
D03*
Y212090D02*
D03*
X361880Y325120D02*
D03*
Y350520D02*
D03*
X271780Y325120D02*
D03*
Y350520D02*
D03*
D49*
X381000Y268488D02*
D03*
Y259832D02*
D03*
Y396758D02*
D03*
Y388102D02*
D03*
D50*
X408494Y232520D02*
D03*
Y214520D02*
D03*
X384494Y223520D02*
D03*
X407224Y373490D02*
D03*
Y355490D02*
D03*
X383224Y364490D02*
D03*
D51*
X232410Y303270D02*
D03*
Y334270D02*
D03*
D52*
X232870Y355600D02*
D03*
Y401320D02*
D03*
D53*
X163370Y378460D02*
D03*
D54*
X242830Y201930D02*
D03*
X211830D02*
D03*
D55*
X135890Y158290D02*
D03*
X181610D02*
D03*
D56*
X158750Y227790D02*
D03*
M02*
