G04*
G04 #@! TF.GenerationSoftware,Altium Limited,Altium Designer,22.1.2 (22)*
G04*
G04 Layer_Color=32896*
%FSLAX44Y44*%
%MOMM*%
G71*
G04*
G04 #@! TF.SameCoordinates,9944FDB8-61BE-4AD3-83C2-270689105BE0*
G04*
G04*
G04 #@! TF.FilePolarity,Positive*
G04*
G01*
G75*
%ADD10C,0.2540*%
%ADD41C,0.5000*%
%ADD57C,0.4000*%
%ADD58C,0.0500*%
%ADD59C,0.3000*%
%ADD60C,0.2000*%
%ADD61C,0.1000*%
D10*
X260350Y166370D02*
G03*
X260350Y156210I0J-5080D01*
G01*
Y146050D02*
G03*
X260350Y156210I0J5080D01*
G01*
Y455930D02*
G03*
X260350Y445770I0J-5080D01*
G01*
Y435610D02*
G03*
X260350Y445770I0J5080D01*
G01*
X314350Y177364D02*
Y183210D01*
X308350D02*
X314350D01*
X206350Y129210D02*
Y135056D01*
Y129210D02*
X314350D01*
Y135056D01*
X206350Y183210D02*
X311350D01*
X206350Y177364D02*
Y183210D01*
X314350Y466924D02*
Y472770D01*
X308350D02*
X314350D01*
X206350Y418770D02*
Y424616D01*
Y418770D02*
X314350D01*
Y424616D01*
X206350Y472770D02*
X311350D01*
X206350Y466924D02*
Y472770D01*
X152370Y411460D02*
X196681D01*
X152370Y345460D02*
X196681D01*
X213371Y351740D02*
X218060D01*
Y359241D01*
X213371D02*
X218060D01*
X218058Y397460D02*
Y404960D01*
X213370D02*
X218058D01*
X213370Y397460D02*
X218058D01*
X196681Y345460D02*
X213370D01*
Y411460D01*
X196681D02*
X213370D01*
X191750Y194479D02*
Y238790D01*
X125750Y194479D02*
Y238790D01*
X132030Y173100D02*
Y177789D01*
Y173100D02*
X139531D01*
Y177789D01*
X177750Y173102D02*
X185250D01*
Y177790D01*
X177750Y173102D02*
Y177790D01*
X125750D02*
Y194479D01*
Y177790D02*
X191750D01*
Y194479D01*
D41*
X383416Y278130D02*
G03*
X383416Y278130I-2000J0D01*
G01*
X382076Y391160D02*
G03*
X382076Y391160I-2000J0D01*
G01*
D57*
X223619Y413461D02*
G03*
X223619Y413461I-1999J0D01*
G01*
X195750Y169540D02*
G03*
X195750Y169540I-1999J0D01*
G01*
D58*
X417068Y232504D02*
X424248D01*
X417068D02*
Y240030D01*
X424248D01*
X426398D02*
X433578D01*
Y232504D02*
Y240030D01*
X426398Y232504D02*
X433578D01*
X384716Y255778D02*
Y262958D01*
X377190Y255778D02*
X384716D01*
X377190D02*
Y262958D01*
Y265108D02*
Y272288D01*
X384716D01*
Y265108D02*
Y272288D01*
X417068Y223614D02*
X424248D01*
X417068D02*
Y231140D01*
X424248D01*
X426398D02*
X433578D01*
Y223614D02*
Y231140D01*
X426398Y223614D02*
X433578D01*
X218410Y340770D02*
X246410D01*
Y296770D02*
Y340770D01*
X218410Y296770D02*
Y340770D01*
Y296770D02*
X246410D01*
X384716Y384048D02*
Y391228D01*
X377190Y384048D02*
X384716D01*
X377190D02*
Y391228D01*
Y393378D02*
Y400558D01*
X384716D01*
Y393378D02*
Y400558D01*
X417068Y365854D02*
X424248D01*
X417068D02*
Y373380D01*
X424248D01*
X426398D02*
X433578D01*
Y365854D02*
Y373380D01*
X426398Y365854D02*
X433578D01*
X417068Y374744D02*
X424248D01*
X417068D02*
Y382270D01*
X424248D01*
X426398D02*
X433578D01*
Y374744D02*
Y382270D01*
X426398Y374744D02*
X433578D01*
X205330Y187930D02*
Y215930D01*
X249330D01*
X205330Y187930D02*
X249330D01*
Y215930D01*
D59*
X261528Y190890D02*
Y283890D01*
X374812D01*
Y190890D02*
Y283890D01*
X261528Y190890D02*
X374812D01*
X260188Y303920D02*
X373472D01*
Y396920D01*
X260188D02*
X373472D01*
X260188Y303920D02*
Y396920D01*
D60*
X378714Y240030D02*
X415544D01*
Y207010D02*
Y240030D01*
X378714Y207010D02*
X415544D01*
X378714D02*
Y240030D01*
X377444Y381000D02*
X414274D01*
Y347980D02*
Y381000D01*
X377444Y347980D02*
X414274D01*
X377444D02*
Y381000D01*
D61*
X311374Y195498D02*
X314706D01*
Y192999D01*
X313040D01*
X314706D01*
Y190500D01*
X309708Y195498D02*
Y190500D01*
Y192999D01*
X306375D01*
Y195498D01*
Y190500D01*
X304709D02*
X303043D01*
X303876D01*
Y195498D01*
X304709Y194665D01*
X311374Y485058D02*
X314706D01*
Y482559D01*
X313040D01*
X314706D01*
Y480060D01*
X309708Y485058D02*
Y480060D01*
Y482559D01*
X306375D01*
Y485058D01*
Y480060D01*
X301377D02*
X304709D01*
X301377Y483392D01*
Y484225D01*
X302210Y485058D01*
X303876D01*
X304709Y484225D01*
M02*
