G04*
G04 #@! TF.GenerationSoftware,Altium Limited,Altium Designer,22.1.2 (22)*
G04*
G04 Layer_Color=32768*
%FSLAX44Y44*%
%MOMM*%
G71*
G04*
G04 #@! TF.SameCoordinates,9944FDB8-61BE-4AD3-83C2-270689105BE0*
G04*
G04*
G04 #@! TF.FilePolarity,Positive*
G04*
G01*
G75*
%ADD61C,0.1000*%
%ADD62C,0.0800*%
G36*
X312250Y130710D02*
X312250Y130959D01*
X312601Y131311D01*
X313099Y131311D01*
X313451Y130960D01*
X313451Y130711D01*
X313451Y130463D01*
X313099Y130110D01*
X312602Y130110D01*
X312250Y130461D01*
X312250Y130710D01*
D01*
D02*
G37*
G36*
Y420270D02*
X312250Y420519D01*
X312601Y420871D01*
X313099Y420871D01*
X313451Y420520D01*
X313451Y420271D01*
X313451Y420023D01*
X313099Y419670D01*
X312602Y419670D01*
X312250Y420021D01*
X312250Y420270D01*
D01*
D02*
G37*
D61*
X255350Y156210D02*
X265350D01*
X260350Y151210D02*
Y161210D01*
X305170Y237490D02*
X318170D01*
X331170D01*
X318170Y224490D02*
Y237490D01*
Y250490D01*
X316830Y350520D02*
Y363520D01*
Y337520D02*
Y350520D01*
X329830D01*
X303830D02*
X316830D01*
X232410Y313770D02*
Y323770D01*
X227410Y318770D02*
X237410D01*
X255350Y445770D02*
X265350D01*
X260350Y440770D02*
Y450770D01*
X194818Y378460D02*
X201422D01*
X198120Y375412D02*
Y381508D01*
X222330Y201930D02*
X232330D01*
X227330Y196930D02*
Y206930D01*
X158750Y189738D02*
Y196342D01*
X155702Y193040D02*
X161798D01*
D62*
X425450Y234547D02*
Y237905D01*
X423771Y236226D02*
X427129D01*
X379315Y264160D02*
X382673D01*
X380994Y262481D02*
Y265839D01*
X425450Y225657D02*
Y229015D01*
X423771Y227336D02*
X427129D01*
X379315Y392430D02*
X382673D01*
X380994Y390751D02*
Y394109D01*
X425450Y367897D02*
Y371255D01*
X423771Y369576D02*
X427129D01*
X425450Y376787D02*
Y380145D01*
X423771Y378466D02*
X427129D01*
M02*
