G04*
G04 #@! TF.GenerationSoftware,Altium Limited,Altium Designer,22.1.2 (22)*
G04*
G04 Layer_Physical_Order=1*
G04 Layer_Color=255*
%FSLAX44Y44*%
%MOMM*%
G71*
G04*
G04 #@! TF.SameCoordinates,9944FDB8-61BE-4AD3-83C2-270689105BE0*
G04*
G04*
G04 #@! TF.FilePolarity,Positive*
G04*
G01*
G75*
%ADD20R,8.4328X5.9932*%
%ADD21R,5.9932X8.4328*%
%ADD22O,3.2000X2.2000*%
%ADD23C,1.3000*%
%ADD24R,1.3000X1.3000*%
%ADD25C,3.5000*%
%ADD26O,2.2000X3.2000*%
%ADD27C,0.8000*%
G36*
X248920Y501650D02*
X162560D01*
X162560Y557530D01*
X85090D01*
Y463550D01*
X43180D01*
Y361950D01*
Y344170D01*
X100330D01*
Y259080D01*
X44450D01*
Y218480D01*
X43998Y217635D01*
X43026Y214431D01*
X42698Y211098D01*
Y201098D01*
X43026Y197765D01*
X43998Y194561D01*
X44450Y193715D01*
Y138707D01*
X44173Y138430D01*
X86083D01*
Y44450D01*
X110243D01*
X111047Y44206D01*
X114380Y43878D01*
X124380D01*
X127713Y44206D01*
X128517Y44450D01*
X171450D01*
Y114300D01*
X258135D01*
Y9078D01*
X43971D01*
X43485Y10251D01*
X44924Y11690D01*
X47495Y15539D01*
X49267Y19815D01*
X50170Y24355D01*
Y28984D01*
X49267Y33525D01*
X47495Y37801D01*
X44924Y41650D01*
X41650Y44924D01*
X37801Y47495D01*
X33525Y49267D01*
X28984Y50170D01*
X24355D01*
X24287Y50156D01*
X9078D01*
Y361950D01*
X8890D01*
Y540832D01*
X9078Y541020D01*
X49530D01*
Y563428D01*
D01*
Y574492D01*
Y590922D01*
X248920D01*
Y501650D01*
D02*
G37*
%LPC*%
G36*
X64780Y318678D02*
Y306094D01*
X73437D01*
X72972Y309629D01*
X71607Y312922D01*
X69437Y315751D01*
X66608Y317921D01*
X64780Y318678D01*
D02*
G37*
G36*
X54780Y318678D02*
X52952Y317921D01*
X50123Y315751D01*
X47953Y312922D01*
X46589Y309629D01*
X46123Y306094D01*
X54780D01*
Y318678D01*
D02*
G37*
G36*
X73437Y296094D02*
X64780D01*
Y283510D01*
X66608Y284267D01*
X69437Y286437D01*
X71607Y289266D01*
X72972Y292559D01*
X73437Y296094D01*
Y296094D01*
D02*
G37*
G36*
X54780D02*
X46123D01*
Y296094D01*
X46589Y292559D01*
X47953Y289266D01*
X50123Y286437D01*
X52952Y284267D01*
X54780Y283510D01*
Y296094D01*
D02*
G37*
G36*
X219376Y74617D02*
Y65960D01*
X231961D01*
X231203Y67788D01*
X229033Y70617D01*
X226204Y72787D01*
X222911Y74152D01*
X219376Y74617D01*
D02*
G37*
G36*
X209376D02*
X205841Y74152D01*
X202548Y72787D01*
X199719Y70617D01*
X197549Y67788D01*
X196791Y65960D01*
X209376D01*
Y74617D01*
D02*
G37*
G36*
X231961Y55960D02*
X219376D01*
Y47303D01*
X222911Y47769D01*
X226204Y49133D01*
X229033Y51303D01*
X231203Y54132D01*
X231961Y55960D01*
D02*
G37*
G36*
X209376D02*
X196791D01*
X197549Y54132D01*
X199719Y51303D01*
X202548Y49133D01*
X205841Y47769D01*
X209376Y47303D01*
Y55960D01*
D02*
G37*
%LPD*%
D20*
X152654Y378467D02*
D03*
D21*
X158757Y238506D02*
D03*
D22*
X309578Y541020D02*
D03*
X214582D02*
D03*
X119586D02*
D03*
X309372Y60960D02*
D03*
X214376D02*
D03*
X119380D02*
D03*
D23*
X422910Y324480D02*
D03*
Y304480D02*
D03*
Y284480D02*
D03*
D24*
Y264480D02*
D03*
D25*
X419100Y568960D02*
D03*
Y26670D02*
D03*
X26670Y568960D02*
D03*
Y26670D02*
D03*
D26*
X59780Y396090D02*
D03*
Y301094D02*
D03*
Y206098D02*
D03*
D27*
X147002Y269240D02*
D03*
X159385D02*
D03*
X134620D02*
D03*
X171768D02*
D03*
X184150D02*
D03*
X121920Y403860D02*
D03*
Y391478D02*
D03*
Y354330D02*
D03*
Y366712D02*
D03*
Y379095D02*
D03*
M02*
