G04*
G04 #@! TF.GenerationSoftware,Altium Limited,Altium Designer,22.1.2 (22)*
G04*
G04 Layer_Physical_Order=4*
G04 Layer_Color=16711680*
%FSLAX44Y44*%
%MOMM*%
G71*
G04*
G04 #@! TF.SameCoordinates,3838BCBC-00D1-4DD7-A04C-D2A3F2F04191*
G04*
G04*
G04 #@! TF.FilePolarity,Positive*
G04*
G01*
G75*
%ADD70C,0.3810*%
%ADD71C,0.2500*%
%ADD73C,3.5000*%
%ADD74C,1.5000*%
%ADD75R,1.5000X1.5000*%
%ADD76R,1.2700X2.2860*%
%ADD77C,2.0000*%
%ADD78R,2.0000X2.0000*%
%ADD79R,1.1500X1.1500*%
%ADD80C,1.1500*%
%ADD81O,2.2000X3.2000*%
%ADD82R,1.3000X1.3000*%
%ADD83C,1.3000*%
%ADD84C,1.6000*%
%ADD85R,1.6000X1.6000*%
%ADD86R,1.1500X1.1500*%
%ADD87C,0.6000*%
%ADD88C,1.0000*%
%ADD89C,0.8000*%
G36*
X4880422Y432562D02*
X4858752D01*
X4858648Y432698D01*
X4855707Y434955D01*
X4852282Y436373D01*
X4848606Y436857D01*
Y436813D01*
X201407Y436814D01*
X200509Y436932D01*
Y436976D01*
X196833Y436492D01*
X193408Y435073D01*
X190467Y432816D01*
X190272Y432562D01*
X9078D01*
Y517353D01*
X10251Y517788D01*
X10348Y517791D01*
X17303Y510835D01*
X17303Y510835D01*
X18818Y509673D01*
X20581Y508943D01*
X22474Y508694D01*
X22474Y508694D01*
X34490D01*
Y503506D01*
X59490D01*
Y528506D01*
X60682Y528694D01*
X165928D01*
X165928Y528694D01*
X167821Y528943D01*
X169584Y529673D01*
X171099Y530835D01*
X269130Y628867D01*
X270400Y628340D01*
Y626957D01*
X271014Y624668D01*
X272198Y622616D01*
X273874Y620940D01*
X275926Y619755D01*
X278215Y619142D01*
X280585D01*
X281113Y619284D01*
X282011Y619165D01*
X282011Y619165D01*
X309106D01*
X309446Y617896D01*
X308058Y617094D01*
X306196Y615232D01*
X304880Y612952D01*
X304198Y610409D01*
Y607775D01*
X304540Y606499D01*
X304318Y606208D01*
X303320Y605410D01*
X301040Y606726D01*
X298497Y607408D01*
X295864D01*
X293320Y606726D01*
X291040Y605410D01*
X289178Y603548D01*
X287862Y601268D01*
X287180Y598725D01*
Y596091D01*
X287862Y593548D01*
X289178Y591268D01*
X291040Y589406D01*
X293320Y588089D01*
X295864Y587408D01*
X298497D01*
X301040Y588089D01*
X303320Y589406D01*
X304385Y590471D01*
X305523Y590447D01*
X306390Y589444D01*
X306378Y589349D01*
X306378Y589349D01*
Y560324D01*
X306378Y560324D01*
X306627Y558431D01*
X307357Y556668D01*
X308519Y555153D01*
X346365Y517307D01*
X346365Y517307D01*
X347880Y516145D01*
X349644Y515415D01*
X351536Y515165D01*
X351536Y515165D01*
X380898D01*
X381334Y513538D01*
X382650Y511258D01*
X384512Y509396D01*
X386792Y508079D01*
X389336Y507398D01*
X391969D01*
X394512Y508079D01*
X396792Y509396D01*
X398654Y511258D01*
X399971Y513538D01*
X400652Y516082D01*
Y518714D01*
X399971Y521258D01*
X398654Y523538D01*
X396792Y525400D01*
X394512Y526716D01*
X391969Y527398D01*
X390994D01*
X390743Y527649D01*
X389228Y528811D01*
X387465Y529541D01*
X385572Y529791D01*
X385572Y529790D01*
X354565D01*
X321003Y563353D01*
Y572039D01*
X322176Y572525D01*
X345598Y549104D01*
X345598Y549103D01*
X347112Y547941D01*
X348876Y547211D01*
X350769Y546962D01*
X350769Y546962D01*
X440155D01*
X470715Y516401D01*
X470314Y514905D01*
Y512271D01*
X470996Y509728D01*
X472312Y507448D01*
X474174Y505586D01*
X476454Y504269D01*
X478998Y503588D01*
X481631D01*
X484174Y504269D01*
X486454Y505586D01*
X488316Y507448D01*
X489633Y509728D01*
X490314Y512271D01*
Y514905D01*
X489633Y517448D01*
X488316Y519728D01*
X486454Y521590D01*
X485273Y522272D01*
X484432Y523367D01*
X484432Y523367D01*
X448355Y559445D01*
X446840Y560607D01*
X445077Y561338D01*
X443184Y561587D01*
X443184Y561587D01*
X353797D01*
X330293Y585091D01*
X329737Y587166D01*
X328553Y589218D01*
X326877Y590894D01*
X326461Y591134D01*
X326754Y592228D01*
Y594598D01*
X326665Y594930D01*
X327438Y595938D01*
X961936D01*
X1041036Y516837D01*
Y515174D01*
X1041018Y515156D01*
X1039702Y512876D01*
X1039020Y510332D01*
Y507700D01*
X1039702Y505156D01*
X1041018Y502876D01*
X1042880Y501014D01*
X1045160Y499697D01*
X1047704Y499016D01*
X1050337D01*
X1052880Y499697D01*
X1055160Y501014D01*
X1057022Y502876D01*
X1058339Y505156D01*
X1059020Y507700D01*
Y510332D01*
X1058339Y512876D01*
X1057022Y515156D01*
X1056333Y515846D01*
Y519195D01*
X1056333Y519195D01*
X1056084Y521088D01*
X1055353Y522851D01*
X1054191Y524366D01*
X1054191Y524366D01*
X977951Y600606D01*
X978437Y601780D01*
X1035831D01*
X1124110Y513500D01*
Y512271D01*
X1124792Y509728D01*
X1126108Y507448D01*
X1127970Y505586D01*
X1130250Y504269D01*
X1132794Y503588D01*
X1135427D01*
X1137970Y504269D01*
X1140250Y505586D01*
X1142112Y507448D01*
X1143429Y509728D01*
X1144110Y512271D01*
Y514905D01*
X1143429Y517448D01*
X1142112Y519728D01*
X1140250Y521590D01*
X1137970Y522906D01*
X1135427Y523588D01*
X1134706D01*
X1044031Y614263D01*
X1042516Y615425D01*
X1040753Y616155D01*
X1038860Y616405D01*
X1038860Y616404D01*
X659197D01*
X658812Y617674D01*
X660440Y618762D01*
X662668Y620991D01*
X664231Y623330D01*
X665271Y623466D01*
X665703Y623393D01*
X667940Y621156D01*
X670800Y619505D01*
X673989Y618650D01*
X674370D01*
Y631190D01*
X675640D01*
Y632460D01*
X688180D01*
Y632841D01*
X687326Y636030D01*
X685675Y638890D01*
X683438Y641127D01*
X683364Y641559D01*
X683500Y642599D01*
X685839Y644162D01*
X688068Y646391D01*
X689819Y649011D01*
X691025Y651923D01*
X691640Y655014D01*
Y658166D01*
X691025Y661257D01*
X689819Y664169D01*
X688068Y666789D01*
X685839Y669018D01*
X685651Y669144D01*
X686019Y670359D01*
X1552913D01*
X1553080Y669090D01*
X1551636Y668702D01*
X1549356Y667386D01*
X1547494Y665524D01*
X1546178Y663244D01*
X1545496Y660701D01*
Y658067D01*
X1546178Y655524D01*
X1547494Y653244D01*
X1549254Y651484D01*
X1549730Y650335D01*
X1550892Y648820D01*
X1584252Y615460D01*
X1584252Y615460D01*
X1617127Y582585D01*
X1617127Y582585D01*
X1618642Y581423D01*
X1620405Y580693D01*
X1622298Y580443D01*
X1622298Y580443D01*
X1732045D01*
X1807624Y504865D01*
Y503890D01*
X1808306Y501346D01*
X1809622Y499066D01*
X1811484Y497204D01*
X1813764Y495887D01*
X1816308Y495206D01*
X1818941D01*
X1821484Y495887D01*
X1823764Y497204D01*
X1825626Y499066D01*
X1826943Y501346D01*
X1827624Y503890D01*
Y506522D01*
X1826943Y509066D01*
X1825626Y511346D01*
X1823764Y513208D01*
X1821484Y514524D01*
X1818941Y515206D01*
X1817966D01*
X1743233Y589938D01*
X1743719Y591111D01*
X1816119D01*
X1889920Y517310D01*
Y516335D01*
X1890602Y513792D01*
X1891918Y511512D01*
X1893780Y509650D01*
X1896060Y508334D01*
X1898604Y507652D01*
X1901237D01*
X1903780Y508334D01*
X1906060Y509650D01*
X1907922Y511512D01*
X1909239Y513792D01*
X1909920Y516335D01*
Y518969D01*
X1909239Y521512D01*
X1907922Y523792D01*
X1906060Y525654D01*
X1903780Y526970D01*
X1901237Y527652D01*
X1900262D01*
X1824319Y603595D01*
X1822804Y604757D01*
X1821041Y605487D01*
X1819148Y605737D01*
X1819148Y605737D01*
X1678159D01*
X1607343Y676552D01*
X1607829Y677726D01*
X2192039D01*
X2327819Y541945D01*
X2327819Y541945D01*
X2329334Y540783D01*
X2331098Y540053D01*
X2332990Y539803D01*
X2332990Y539804D01*
X2729249D01*
X2733962Y535090D01*
Y534115D01*
X2734644Y531572D01*
X2735960Y529292D01*
X2737822Y527430D01*
X2740102Y526114D01*
X2742646Y525432D01*
X2745279D01*
X2747822Y526114D01*
X2750102Y527430D01*
X2751964Y529292D01*
X2753281Y531572D01*
X2753962Y534115D01*
Y536749D01*
X2753281Y539292D01*
X2751964Y541572D01*
X2750102Y543434D01*
X2747822Y544751D01*
X2745279Y545432D01*
X2744304D01*
X2737449Y552287D01*
X2735934Y553449D01*
X2734171Y554179D01*
X2732278Y554429D01*
X2732278Y554428D01*
X2336019D01*
X2200239Y690209D01*
X2198724Y691371D01*
X2196961Y692101D01*
X2195068Y692351D01*
X2195068Y692350D01*
X490220D01*
X490220Y692351D01*
X488327Y692101D01*
X486564Y691371D01*
X485049Y690209D01*
X485049Y690209D01*
X474458Y679617D01*
X473442Y680397D01*
X473969Y681310D01*
X474582Y683599D01*
Y685969D01*
X473969Y688258D01*
X472784Y690310D01*
X471108Y691986D01*
X469056Y693171D01*
X466767Y693784D01*
X464397D01*
X462108Y693171D01*
X460056Y691986D01*
X458380Y690310D01*
X457196Y688258D01*
X456639Y686183D01*
X454701Y684245D01*
X391524D01*
Y684399D01*
X390911Y686688D01*
X389726Y688740D01*
X388050Y690416D01*
X385998Y691601D01*
X383709Y692214D01*
X381339D01*
X379050Y691601D01*
X376998Y690416D01*
X375322Y688740D01*
X374137Y686688D01*
X373524Y684399D01*
Y684245D01*
X323047D01*
X307118Y700174D01*
X307603Y701348D01*
X315412D01*
X316140Y700086D01*
X317816Y698410D01*
X319868Y697225D01*
X322157Y696612D01*
X324527D01*
X326816Y697225D01*
X328868Y698410D01*
X330544Y700086D01*
X331729Y702138D01*
X332342Y704427D01*
Y706797D01*
X331729Y709086D01*
X330544Y711138D01*
X328868Y712814D01*
X326816Y713999D01*
X324527Y714612D01*
X324280D01*
X323784Y714993D01*
X322020Y715723D01*
X320128Y715973D01*
X320127Y715973D01*
X240792D01*
X240792Y715973D01*
X238899Y715723D01*
X237136Y714993D01*
X235621Y713831D01*
X203175Y681385D01*
X201916Y681550D01*
X201258Y682690D01*
X199582Y684366D01*
X197530Y685551D01*
X195241Y686164D01*
X192871D01*
X190582Y685551D01*
X188530Y684366D01*
X186854Y682690D01*
X185669Y680638D01*
X185056Y678349D01*
Y675979D01*
X185669Y673690D01*
X186854Y671638D01*
X188530Y669962D01*
X189670Y669304D01*
X189836Y668045D01*
X162833Y641042D01*
X46990D01*
X46990Y641043D01*
X45097Y640793D01*
X43334Y640063D01*
X41819Y638901D01*
X41819Y638901D01*
X10347Y607429D01*
X10251Y607431D01*
X9078Y607867D01*
X9078Y696218D01*
X10347Y696344D01*
X10423Y695963D01*
X12195Y691687D01*
X14766Y687838D01*
X18040Y684564D01*
X21889Y681993D01*
X26165Y680221D01*
X30705Y679318D01*
X35335D01*
X39875Y680221D01*
X44152Y681993D01*
X48000Y684564D01*
X51274Y687838D01*
X53846Y691687D01*
X55617Y695963D01*
X56520Y700503D01*
Y705133D01*
X55617Y709673D01*
X53846Y713949D01*
X51274Y717798D01*
X48000Y721072D01*
X44152Y723643D01*
X39875Y725415D01*
X35335Y726318D01*
X30705D01*
X26165Y725415D01*
X21889Y723643D01*
X18040Y721072D01*
X14766Y717798D01*
X12195Y713949D01*
X10423Y709673D01*
X10347Y709293D01*
X9078Y709417D01*
Y732348D01*
X4880422D01*
X4880422Y432562D01*
D02*
G37*
G36*
X287164Y699601D02*
X287778Y697312D01*
X288962Y695260D01*
X290638Y693584D01*
X292690Y692399D01*
X294765Y691843D01*
X314369Y672240D01*
X307602Y665472D01*
X306578D01*
X304718Y666547D01*
X302429Y667160D01*
X300059D01*
X297770Y666547D01*
X295718Y665362D01*
X294042Y663686D01*
X292857Y661634D01*
X292244Y659345D01*
Y656975D01*
X292770Y655013D01*
X292103Y653743D01*
X276352D01*
X276352Y653743D01*
X274459Y653493D01*
X272696Y652763D01*
X271181Y651601D01*
X271181Y651601D01*
X162899Y543319D01*
X57202D01*
X56993Y543681D01*
X54668Y546006D01*
X56993Y548331D01*
X58638Y551181D01*
X59490Y554360D01*
Y557652D01*
X58638Y560831D01*
X56993Y563681D01*
X54665Y566008D01*
X52480Y567270D01*
Y568737D01*
X52541Y568772D01*
X54224Y570455D01*
X55414Y572517D01*
X56009Y574736D01*
X46990D01*
X37971D01*
X38566Y572517D01*
X39756Y570455D01*
X41439Y568772D01*
X41501Y568737D01*
Y567270D01*
X39315Y566008D01*
X36988Y563681D01*
X35342Y560831D01*
X34490Y557652D01*
Y554360D01*
X35342Y551181D01*
X36988Y548331D01*
X39312Y546006D01*
X36988Y543681D01*
X35342Y540831D01*
X34490Y537652D01*
Y534360D01*
X35342Y531181D01*
X36251Y529606D01*
X35616Y528506D01*
X34490D01*
Y523319D01*
X25503D01*
X22807Y526015D01*
Y599205D01*
X50019Y626418D01*
X165862D01*
X165862Y626417D01*
X167755Y626667D01*
X169518Y627397D01*
X171033Y628559D01*
X240540Y698067D01*
X241744Y697474D01*
Y695537D01*
X242358Y693248D01*
X243542Y691196D01*
X245218Y689520D01*
X247270Y688335D01*
X249559Y687722D01*
X251929D01*
X254218Y688335D01*
X256270Y689520D01*
X257946Y691196D01*
X259131Y693248D01*
X259744Y695537D01*
Y697907D01*
X259163Y700078D01*
X259227Y700465D01*
X259736Y701348D01*
X287164D01*
Y699601D01*
D02*
G37*
G36*
X457931Y663090D02*
X435059Y640219D01*
X343197D01*
X339943Y643473D01*
X338428Y644635D01*
X336665Y645365D01*
X334772Y645615D01*
X334772Y645614D01*
X320050D01*
X319564Y646788D01*
X322201Y649425D01*
X324276Y649981D01*
X326328Y651166D01*
X328004Y652842D01*
X329189Y654894D01*
X329802Y657183D01*
Y659553D01*
X329189Y661842D01*
X328524Y662993D01*
X329257Y664264D01*
X457445D01*
X457931Y663090D01*
D02*
G37*
G36*
X571977Y676552D02*
X529215Y633791D01*
X450974D01*
X450488Y634964D01*
X493249Y677726D01*
X571491D01*
X571977Y676552D01*
D02*
G37*
G36*
X614829Y669144D02*
X614641Y669018D01*
X612412Y666789D01*
X610661Y664169D01*
X609455Y661257D01*
X608840Y658166D01*
Y655014D01*
X609455Y651923D01*
X610661Y649011D01*
X611129Y648310D01*
X610531Y647190D01*
X608840D01*
Y616404D01*
X321028D01*
X320338Y617094D01*
X318950Y617896D01*
X319290Y619165D01*
X532244D01*
X532244Y619165D01*
X534137Y619415D01*
X535900Y620145D01*
X537415Y621307D01*
X586467Y670359D01*
X614461D01*
X614829Y669144D01*
D02*
G37*
G36*
X1666971Y596242D02*
X1666485Y595069D01*
X1625327D01*
X1594594Y625801D01*
X1594594Y625802D01*
X1594594Y625802D01*
X1564827Y655569D01*
X1565496Y658067D01*
Y660701D01*
X1564815Y663244D01*
X1563498Y665524D01*
X1561636Y667386D01*
X1559356Y668702D01*
X1557912Y669090D01*
X1558079Y670359D01*
X1592853D01*
X1666971Y596242D01*
D02*
G37*
G36*
X4880422Y9078D02*
X9078D01*
X9078Y406146D01*
X4880422D01*
X4880422Y9078D01*
D02*
G37*
%LPC*%
G36*
X195495Y730868D02*
X193125D01*
X190836Y730255D01*
X188784Y729070D01*
X187108Y727394D01*
X185924Y725342D01*
X185310Y723053D01*
Y720683D01*
X185924Y718394D01*
X187108Y716342D01*
X188784Y714666D01*
X190836Y713481D01*
X193125Y712868D01*
X195495D01*
X197784Y713481D01*
X199836Y714666D01*
X201512Y716342D01*
X202697Y718394D01*
X203310Y720683D01*
Y723053D01*
X202697Y725342D01*
X201512Y727394D01*
X199836Y729070D01*
X197784Y730255D01*
X195495Y730868D01*
D02*
G37*
G36*
X201591Y708516D02*
X199221D01*
X196932Y707903D01*
X194880Y706718D01*
X193204Y705042D01*
X192020Y702990D01*
X191406Y700701D01*
Y698331D01*
X192020Y696042D01*
X193204Y693990D01*
X194880Y692314D01*
X196932Y691129D01*
X199221Y690516D01*
X201591D01*
X203880Y691129D01*
X205932Y692314D01*
X207608Y693990D01*
X208793Y696042D01*
X209406Y698331D01*
Y700701D01*
X208793Y702990D01*
X207608Y705042D01*
X205932Y706718D01*
X203880Y707903D01*
X201591Y708516D01*
D02*
G37*
G36*
X107865Y715120D02*
X105495D01*
X103206Y714507D01*
X101154Y713322D01*
X99478Y711646D01*
X98294Y709594D01*
X97680Y707305D01*
Y704935D01*
X98294Y702646D01*
X99478Y700594D01*
X99540Y700532D01*
X99224Y700216D01*
X98040Y698164D01*
X97426Y695875D01*
Y693505D01*
X98040Y691216D01*
X99224Y689164D01*
X100900Y687488D01*
X102952Y686303D01*
X105241Y685690D01*
X107611D01*
X109900Y686303D01*
X111952Y687488D01*
X113628Y689164D01*
X114813Y691216D01*
X115426Y693505D01*
Y695875D01*
X114813Y698164D01*
X113628Y700216D01*
X113566Y700278D01*
X113882Y700594D01*
X115067Y702646D01*
X115680Y704935D01*
Y707305D01*
X115067Y709594D01*
X113882Y711646D01*
X112206Y713322D01*
X110154Y714507D01*
X107865Y715120D01*
D02*
G37*
G36*
X4847111Y726318D02*
X4842481D01*
X4837941Y725415D01*
X4833665Y723643D01*
X4829816Y721072D01*
X4826542Y717798D01*
X4823971Y713949D01*
X4822199Y709673D01*
X4821296Y705133D01*
Y700503D01*
X4822199Y695963D01*
X4823971Y691687D01*
X4826542Y687838D01*
X4829816Y684564D01*
X4833665Y681993D01*
X4837941Y680221D01*
X4842481Y679318D01*
X4847111D01*
X4851651Y680221D01*
X4855927Y681993D01*
X4859776Y684564D01*
X4863050Y687838D01*
X4865621Y691687D01*
X4867393Y695963D01*
X4868296Y700503D01*
Y705133D01*
X4867393Y709673D01*
X4865621Y713949D01*
X4863050Y717798D01*
X4859776Y721072D01*
X4855927Y723643D01*
X4851651Y725415D01*
X4847111Y726318D01*
D02*
G37*
G36*
X114258Y666769D02*
X111888D01*
X109599Y666156D01*
X107547Y664971D01*
X105871Y663296D01*
X104686Y661243D01*
X104073Y658954D01*
Y656584D01*
X104686Y654296D01*
X105871Y652243D01*
X107547Y650568D01*
X109599Y649383D01*
X111888Y648769D01*
X114258D01*
X116547Y649383D01*
X118599Y650568D01*
X119828Y651796D01*
X121474Y650150D01*
X123526Y648965D01*
X125815Y648352D01*
X128185D01*
X130474Y648965D01*
X132526Y650150D01*
X134202Y651826D01*
X135387Y653878D01*
X136000Y656167D01*
Y658537D01*
X135387Y660826D01*
X134202Y662878D01*
X132526Y664554D01*
X130474Y665739D01*
X128185Y666352D01*
X125815D01*
X123526Y665739D01*
X121474Y664554D01*
X120245Y663325D01*
X118599Y664971D01*
X116547Y666156D01*
X114258Y666769D01*
D02*
G37*
G36*
X688180Y629920D02*
X676910D01*
Y618650D01*
X677291D01*
X680480Y619505D01*
X683340Y621156D01*
X685675Y623490D01*
X687326Y626350D01*
X688180Y629539D01*
Y629920D01*
D02*
G37*
G36*
X393615Y586134D02*
X391245D01*
X388956Y585521D01*
X386904Y584336D01*
X385228Y582660D01*
X384044Y580608D01*
X383430Y578319D01*
Y575949D01*
X384044Y573660D01*
X385228Y571608D01*
X386904Y569932D01*
X388956Y568747D01*
X391245Y568134D01*
X393615D01*
X395904Y568747D01*
X397956Y569932D01*
X399632Y571608D01*
X400817Y573660D01*
X401430Y575949D01*
Y578319D01*
X400817Y580608D01*
X399632Y582660D01*
X397956Y584336D01*
X395904Y585521D01*
X393615Y586134D01*
D02*
G37*
G36*
X226229Y575466D02*
X223859D01*
X221570Y574853D01*
X219518Y573668D01*
X217842Y571992D01*
X216658Y569940D01*
X216044Y567651D01*
Y565281D01*
X216658Y562992D01*
X217842Y560940D01*
X219518Y559264D01*
X221570Y558079D01*
X223859Y557466D01*
X226229D01*
X228518Y558079D01*
X230570Y559264D01*
X232246Y560940D01*
X233431Y562992D01*
X234044Y565281D01*
Y567651D01*
X233431Y569940D01*
X232246Y571992D01*
X230570Y573668D01*
X228518Y574853D01*
X226229Y575466D01*
D02*
G37*
G36*
X250151Y553068D02*
X247781D01*
X245492Y552455D01*
X243440Y551270D01*
X241764Y549594D01*
X240579Y547542D01*
X239966Y545253D01*
Y542883D01*
X240579Y540594D01*
X241764Y538542D01*
X243440Y536866D01*
X245492Y535681D01*
X247781Y535068D01*
X250151D01*
X252440Y535681D01*
X254492Y536866D01*
X256168Y538542D01*
X257353Y540594D01*
X257966Y542883D01*
Y545253D01*
X257353Y547542D01*
X256168Y549594D01*
X254492Y551270D01*
X252440Y552455D01*
X250151Y553068D01*
D02*
G37*
G36*
X2163873Y674210D02*
X2161240D01*
X2158696Y673529D01*
X2156416Y672212D01*
X2154554Y670350D01*
X2153238Y668070D01*
X2152556Y665527D01*
Y662894D01*
X2153238Y660350D01*
X2154554Y658070D01*
X2156416Y656208D01*
X2158696Y654892D01*
X2160538Y654398D01*
X2303979Y510957D01*
X2303979Y510957D01*
X2305494Y509795D01*
X2307257Y509065D01*
X2309150Y508815D01*
X2309150Y508815D01*
X2652805D01*
X2653494Y508126D01*
X2655774Y506810D01*
X2658318Y506128D01*
X2660951D01*
X2663494Y506810D01*
X2665774Y508126D01*
X2667636Y509988D01*
X2668953Y512268D01*
X2669634Y514812D01*
Y517444D01*
X2668953Y519988D01*
X2667636Y522268D01*
X2665774Y524130D01*
X2663494Y525447D01*
X2660951Y526128D01*
X2658318D01*
X2655774Y525447D01*
X2653494Y524130D01*
X2652805Y523441D01*
X2312179D01*
X2172556Y663063D01*
Y665527D01*
X2171875Y668070D01*
X2170558Y670350D01*
X2168696Y672212D01*
X2166416Y673529D01*
X2163873Y674210D01*
D02*
G37*
G36*
X3308904Y574134D02*
X3306271D01*
X3303728Y573452D01*
X3301448Y572136D01*
X3299586Y570274D01*
X3298269Y567994D01*
X3297588Y565451D01*
Y562817D01*
X3298269Y560274D01*
X3299586Y557994D01*
X3301448Y556132D01*
X3303728Y554815D01*
X3306271Y554134D01*
X3307246D01*
X3312213Y549167D01*
Y530606D01*
X3312213Y530606D01*
X3312462Y528713D01*
X3313193Y526950D01*
X3314355Y525435D01*
X3331373Y508417D01*
X3331373Y508417D01*
X3332888Y507255D01*
X3334651Y506525D01*
X3336544Y506275D01*
X3336544Y506275D01*
X3408410D01*
X3408506Y505918D01*
X3409822Y503638D01*
X3411684Y501776D01*
X3413964Y500460D01*
X3416508Y499778D01*
X3419141D01*
X3421684Y500460D01*
X3423964Y501776D01*
X3425826Y503638D01*
X3427143Y505918D01*
X3427824Y508461D01*
Y511095D01*
X3427143Y513638D01*
X3425826Y515918D01*
X3423964Y517780D01*
X3421684Y519096D01*
X3419141Y519778D01*
X3417856D01*
X3417670Y519921D01*
X3415907Y520651D01*
X3414014Y520901D01*
X3414014Y520900D01*
X3339573D01*
X3326838Y533635D01*
Y552196D01*
X3326589Y554089D01*
X3325859Y555852D01*
X3324697Y557367D01*
X3324697Y557367D01*
X3317588Y564476D01*
Y565451D01*
X3316906Y567994D01*
X3315590Y570274D01*
X3313728Y572136D01*
X3311448Y573452D01*
X3308904Y574134D01*
D02*
G37*
G36*
X2843831Y703674D02*
X2841198D01*
X2838654Y702992D01*
X2836374Y701676D01*
X2834512Y699814D01*
X2833195Y697534D01*
X2832514Y694990D01*
Y692357D01*
X2833195Y689814D01*
X2834512Y687534D01*
X2836374Y685672D01*
X2838654Y684355D01*
X2841198Y683674D01*
X2842173D01*
X2895509Y630337D01*
X2895509Y630337D01*
X2897024Y629175D01*
X2898788Y628445D01*
X2900680Y628195D01*
X2900680Y628195D01*
X3417081D01*
X3496364Y548913D01*
Y515846D01*
X3495674Y515156D01*
X3494358Y512876D01*
X3493676Y510332D01*
Y507700D01*
X3494358Y505156D01*
X3495674Y502876D01*
X3497536Y501014D01*
X3499816Y499697D01*
X3502360Y499016D01*
X3504992D01*
X3507536Y499697D01*
X3509816Y501014D01*
X3511678Y502876D01*
X3512994Y505156D01*
X3513676Y507700D01*
Y510332D01*
X3512994Y512876D01*
X3511678Y515156D01*
X3510988Y515846D01*
Y551942D01*
X3510988Y551942D01*
X3510739Y553835D01*
X3510009Y555598D01*
X3508847Y557113D01*
X3508847Y557113D01*
X3425281Y640679D01*
X3423766Y641841D01*
X3422003Y642571D01*
X3420110Y642821D01*
X3420110Y642821D01*
X2903709D01*
X2852514Y694016D01*
Y694990D01*
X2851833Y697534D01*
X2850516Y699814D01*
X2848654Y701676D01*
X2846374Y702992D01*
X2843831Y703674D01*
D02*
G37*
G36*
X360803Y510904D02*
X358433D01*
X356144Y510291D01*
X354092Y509106D01*
X352416Y507430D01*
X351231Y505378D01*
X350618Y503089D01*
Y500719D01*
X351231Y498430D01*
X352416Y496378D01*
X354092Y494702D01*
X356144Y493517D01*
X358433Y492904D01*
X360803D01*
X363092Y493517D01*
X365144Y494702D01*
X366820Y496378D01*
X368005Y498430D01*
X368618Y500719D01*
Y503089D01*
X368005Y505378D01*
X366820Y507430D01*
X365144Y509106D01*
X363092Y510291D01*
X360803Y510904D01*
D02*
G37*
G36*
X301413Y475898D02*
X299043D01*
X296754Y475285D01*
X294702Y474100D01*
X293026Y472424D01*
X291842Y470372D01*
X291228Y468083D01*
Y465713D01*
X291842Y463424D01*
X293026Y461372D01*
X294702Y459696D01*
X296754Y458511D01*
X299043Y457898D01*
X301413D01*
X303702Y458511D01*
X305754Y459696D01*
X307430Y461372D01*
X308615Y463424D01*
X309228Y465713D01*
Y468083D01*
X308615Y470372D01*
X307430Y472424D01*
X305754Y474100D01*
X303702Y475285D01*
X301413Y475898D01*
D02*
G37*
G36*
X140970Y615918D02*
Y608946D01*
X147942D01*
X147425Y610876D01*
X146334Y612766D01*
X144790Y614310D01*
X142900Y615401D01*
X140970Y615918D01*
D02*
G37*
G36*
X138430Y615918D02*
X136500Y615401D01*
X134610Y614310D01*
X133066Y612766D01*
X131975Y610876D01*
X131458Y608946D01*
X138430D01*
Y615918D01*
D02*
G37*
G36*
X147942Y606406D02*
X140970D01*
Y599434D01*
X142900Y599951D01*
X144790Y601042D01*
X146334Y602586D01*
X147425Y604476D01*
X147942Y606406D01*
D02*
G37*
G36*
X138430D02*
X131458D01*
X131975Y604476D01*
X133066Y602586D01*
X134610Y601042D01*
X136500Y599951D01*
X138430Y599434D01*
Y606406D01*
D02*
G37*
G36*
X48260Y585025D02*
Y577276D01*
X56009D01*
X55414Y579495D01*
X54224Y581557D01*
X52541Y583240D01*
X50479Y584430D01*
X48260Y585025D01*
D02*
G37*
G36*
X45720D02*
X43501Y584430D01*
X41439Y583240D01*
X39756Y581557D01*
X38566Y579495D01*
X37971Y577276D01*
X45720D01*
Y585025D01*
D02*
G37*
G36*
X151450Y594426D02*
X127950D01*
Y570926D01*
X151450D01*
Y594426D01*
D02*
G37*
G36*
X3433243Y403954D02*
X3430610D01*
X3428066Y403273D01*
X3425786Y401956D01*
X3423924Y400094D01*
X3422608Y397814D01*
X3421926Y395271D01*
Y392637D01*
X3422608Y390094D01*
X3423924Y387814D01*
X3425786Y385952D01*
X3428066Y384636D01*
X3430610Y383954D01*
X3433243D01*
X3435786Y384636D01*
X3438066Y385952D01*
X3439928Y387814D01*
X3441245Y390094D01*
X3441926Y392637D01*
Y395271D01*
X3441245Y397814D01*
X3439928Y400094D01*
X3438066Y401956D01*
X3435786Y403273D01*
X3433243Y403954D01*
D02*
G37*
G36*
X2675682Y402054D02*
X2673050D01*
X2670506Y401373D01*
X2668226Y400056D01*
X2666364Y398194D01*
X2665048Y395914D01*
X2664366Y393371D01*
Y390738D01*
X2665048Y388194D01*
X2666364Y385914D01*
X2668226Y384052D01*
X2670506Y382736D01*
X2673050Y382054D01*
X2675682D01*
X2678226Y382736D01*
X2680506Y384052D01*
X2682368Y385914D01*
X2683684Y388194D01*
X2684366Y390738D01*
Y393371D01*
X2683684Y395914D01*
X2682368Y398194D01*
X2680506Y400056D01*
X2678226Y401373D01*
X2675682Y402054D01*
D02*
G37*
G36*
X4225347Y399786D02*
X4222714D01*
X4220170Y399104D01*
X4217890Y397788D01*
X4216028Y395926D01*
X4214712Y393646D01*
X4214030Y391102D01*
Y388469D01*
X4214712Y385926D01*
X4216028Y383646D01*
X4217890Y381784D01*
X4220170Y380467D01*
X4222714Y379786D01*
X4225347D01*
X4227890Y380467D01*
X4230170Y381784D01*
X4232032Y383646D01*
X4233349Y385926D01*
X4234030Y388469D01*
Y391102D01*
X4233349Y393646D01*
X4232032Y395926D01*
X4230170Y397788D01*
X4227890Y399104D01*
X4225347Y399786D01*
D02*
G37*
G36*
X411273Y397858D02*
X408639D01*
X406096Y397177D01*
X403816Y395860D01*
X401954Y393998D01*
X400638Y391718D01*
X399956Y389174D01*
Y386541D01*
X400638Y383998D01*
X401954Y381718D01*
X403816Y379856D01*
X406096Y378540D01*
X408639Y377858D01*
X411273D01*
X413816Y378540D01*
X416096Y379856D01*
X417958Y381718D01*
X419274Y383998D01*
X419956Y386541D01*
Y389174D01*
X419274Y391718D01*
X417958Y393998D01*
X416096Y395860D01*
X413816Y397177D01*
X411273Y397858D01*
D02*
G37*
G36*
X1832148Y393794D02*
X1829516D01*
X1826972Y393112D01*
X1824692Y391796D01*
X1822830Y389934D01*
X1821514Y387654D01*
X1820832Y385111D01*
Y382477D01*
X1821514Y379934D01*
X1822830Y377654D01*
X1824692Y375792D01*
X1826972Y374476D01*
X1829516Y373794D01*
X1832148D01*
X1834692Y374476D01*
X1836972Y375792D01*
X1838834Y377654D01*
X1840150Y379934D01*
X1840832Y382477D01*
Y385111D01*
X1840150Y387654D01*
X1838834Y389934D01*
X1836972Y391796D01*
X1834692Y393112D01*
X1832148Y393794D01*
D02*
G37*
G36*
X4321199Y367134D02*
X4318566D01*
X4316022Y366453D01*
X4313742Y365136D01*
X4311880Y363274D01*
X4310669Y361176D01*
X4309979Y361025D01*
X4309267Y361063D01*
X4308730Y361994D01*
X4306868Y363856D01*
X4304588Y365173D01*
X4302044Y365854D01*
X4299412D01*
X4296868Y365173D01*
X4294588Y363856D01*
X4292726Y361994D01*
X4291410Y359714D01*
X4290728Y357170D01*
Y354538D01*
X4291410Y351994D01*
X4292726Y349714D01*
X4294588Y347852D01*
X4296868Y346535D01*
X4299412Y345854D01*
X4302044D01*
X4304588Y346535D01*
X4306868Y347852D01*
X4308730Y349714D01*
X4309941Y351812D01*
X4310631Y351963D01*
X4311343Y351925D01*
X4311880Y350994D01*
X4313742Y349132D01*
X4316022Y347816D01*
X4318566Y347134D01*
X4321199D01*
X4323742Y347816D01*
X4326022Y349132D01*
X4327884Y350994D01*
X4329201Y353274D01*
X4329882Y355818D01*
Y358451D01*
X4329201Y360994D01*
X4327884Y363274D01*
X4326022Y365136D01*
X4323742Y366453D01*
X4321199Y367134D01*
D02*
G37*
G36*
X1065201Y378300D02*
X1062568D01*
X1060024Y377618D01*
X1057744Y376302D01*
X1055882Y374440D01*
X1054566Y372160D01*
X1053884Y369617D01*
Y366983D01*
X1054566Y364440D01*
X1055882Y362160D01*
X1057744Y360298D01*
X1060024Y358982D01*
X1062568Y358300D01*
X1065201D01*
X1067744Y358982D01*
X1070024Y360298D01*
X1071886Y362160D01*
X1073203Y364440D01*
X1073884Y366983D01*
Y369617D01*
X1073203Y372160D01*
X1071886Y374440D01*
X1070024Y376302D01*
X1067744Y377618D01*
X1065201Y378300D01*
D02*
G37*
G36*
X2644816Y376024D02*
X2642184D01*
X2639640Y375343D01*
X2637360Y374026D01*
X2635498Y372164D01*
X2634182Y369884D01*
X2633500Y367341D01*
Y364708D01*
X2634182Y362164D01*
X2635498Y359884D01*
X2637360Y358022D01*
X2639640Y356706D01*
X2642184Y356024D01*
X2644816D01*
X2647360Y356706D01*
X2649640Y358022D01*
X2651502Y359884D01*
X2652818Y362164D01*
X2653500Y364708D01*
Y367341D01*
X2652818Y369884D01*
X2651502Y372164D01*
X2649640Y374026D01*
X2647360Y375343D01*
X2644816Y376024D01*
D02*
G37*
G36*
X1804971Y374490D02*
X1802337D01*
X1799794Y373809D01*
X1797514Y372492D01*
X1795652Y370630D01*
X1794335Y368350D01*
X1793654Y365807D01*
Y363173D01*
X1794335Y360630D01*
X1795652Y358350D01*
X1797514Y356488D01*
X1799794Y355172D01*
X1802337Y354490D01*
X1804971D01*
X1807514Y355172D01*
X1809794Y356488D01*
X1811656Y358350D01*
X1812973Y360630D01*
X1813654Y363173D01*
Y365807D01*
X1812973Y368350D01*
X1811656Y370630D01*
X1809794Y372492D01*
X1807514Y373809D01*
X1804971Y374490D01*
D02*
G37*
G36*
X1032557Y372092D02*
X1029924D01*
X1027380Y371411D01*
X1025100Y370094D01*
X1023238Y368232D01*
X1021922Y365952D01*
X1021240Y363409D01*
Y360776D01*
X1021922Y358232D01*
X1023238Y355952D01*
X1025100Y354090D01*
X1027380Y352774D01*
X1029924Y352092D01*
X1032557D01*
X1035100Y352774D01*
X1037380Y354090D01*
X1039242Y355952D01*
X1040559Y358232D01*
X1041240Y360776D01*
Y363409D01*
X1040559Y365952D01*
X1039242Y368232D01*
X1037380Y370094D01*
X1035100Y371411D01*
X1032557Y372092D01*
D02*
G37*
G36*
X387397Y371838D02*
X384764D01*
X382220Y371157D01*
X379940Y369840D01*
X378078Y367979D01*
X376762Y365698D01*
X376080Y363155D01*
Y360522D01*
X376762Y357979D01*
X378078Y355698D01*
X379940Y353836D01*
X382220Y352520D01*
X384764Y351838D01*
X387397D01*
X389940Y352520D01*
X392220Y353836D01*
X394082Y355698D01*
X395399Y357979D01*
X396080Y360522D01*
Y363155D01*
X395399Y365698D01*
X394082Y367979D01*
X392220Y369840D01*
X389940Y371157D01*
X387397Y371838D01*
D02*
G37*
G36*
X601640Y369664D02*
X599007D01*
X596464Y368983D01*
X594184Y367666D01*
X592322Y365804D01*
X591005Y363524D01*
X590324Y360980D01*
Y358348D01*
X591005Y355804D01*
X592322Y353524D01*
X594184Y351662D01*
X596464Y350345D01*
X599007Y349664D01*
X601640D01*
X604184Y350345D01*
X606464Y351662D01*
X608326Y353524D01*
X609642Y355804D01*
X610324Y358348D01*
Y360980D01*
X609642Y363524D01*
X608326Y365804D01*
X606464Y367666D01*
X604184Y368983D01*
X601640Y369664D01*
D02*
G37*
G36*
X1897823Y369156D02*
X1895190D01*
X1892647Y368475D01*
X1890366Y367158D01*
X1888504Y365296D01*
X1887188Y363016D01*
X1886507Y360472D01*
Y357840D01*
X1887188Y355296D01*
X1888504Y353016D01*
X1890366Y351154D01*
X1892647Y349837D01*
X1895190Y349156D01*
X1897823D01*
X1900366Y349837D01*
X1902647Y351154D01*
X1904508Y353016D01*
X1905825Y355296D01*
X1906506Y357840D01*
Y360472D01*
X1905825Y363016D01*
X1904508Y365296D01*
X1902647Y367158D01*
X1900366Y368475D01*
X1897823Y369156D01*
D02*
G37*
G36*
X492420Y368394D02*
X489787D01*
X487244Y367713D01*
X484964Y366396D01*
X483102Y364534D01*
X481785Y362254D01*
X481104Y359711D01*
Y357077D01*
X481785Y354534D01*
X483102Y352254D01*
X484964Y350392D01*
X487244Y349076D01*
X489787Y348394D01*
X492420D01*
X494964Y349076D01*
X497244Y350392D01*
X499106Y352254D01*
X500422Y354534D01*
X501104Y357077D01*
Y359711D01*
X500422Y362254D01*
X499106Y364534D01*
X497244Y366396D01*
X494964Y367713D01*
X492420Y368394D01*
D02*
G37*
G36*
X2037606Y367886D02*
X2034973D01*
X2032430Y367205D01*
X2030150Y365888D01*
X2028288Y364026D01*
X2026971Y361746D01*
X2026290Y359202D01*
Y356570D01*
X2026971Y354026D01*
X2028288Y351746D01*
X2030150Y349884D01*
X2032430Y348568D01*
X2034973Y347886D01*
X2037606D01*
X2040150Y348568D01*
X2042430Y349884D01*
X2044292Y351746D01*
X2045608Y354026D01*
X2046290Y356570D01*
Y359202D01*
X2045608Y361746D01*
X2044292Y364026D01*
X2042430Y365888D01*
X2040150Y367205D01*
X2037606Y367886D01*
D02*
G37*
G36*
X2010853D02*
X2008220D01*
X2005677Y367205D01*
X2003396Y365888D01*
X2001534Y364026D01*
X2000218Y361746D01*
X1999536Y359202D01*
Y356570D01*
X2000218Y354026D01*
X2001534Y351746D01*
X2003396Y349884D01*
X2005677Y348568D01*
X2008220Y347886D01*
X2010853D01*
X2013396Y348568D01*
X2015677Y349884D01*
X2017538Y351746D01*
X2018855Y354026D01*
X2019536Y356570D01*
Y359202D01*
X2018855Y361746D01*
X2017538Y364026D01*
X2015677Y365888D01*
X2013396Y367205D01*
X2010853Y367886D01*
D02*
G37*
G36*
X1919496D02*
X1916863D01*
X1914320Y367205D01*
X1912040Y365888D01*
X1910178Y364026D01*
X1908861Y361746D01*
X1908180Y359202D01*
Y356570D01*
X1908861Y354026D01*
X1910178Y351746D01*
X1912040Y349884D01*
X1914320Y348568D01*
X1916863Y347886D01*
X1919496D01*
X1922040Y348568D01*
X1924320Y349884D01*
X1926182Y351746D01*
X1927498Y354026D01*
X1928180Y356570D01*
Y359202D01*
X1927498Y361746D01*
X1926182Y364026D01*
X1924320Y365888D01*
X1922040Y367205D01*
X1919496Y367886D01*
D02*
G37*
G36*
X4415847Y367368D02*
X4413214D01*
X4410670Y366686D01*
X4408390Y365370D01*
X4406528Y363508D01*
X4405212Y361228D01*
X4404530Y358684D01*
Y356051D01*
X4405212Y353508D01*
X4406528Y351228D01*
X4408390Y349366D01*
X4410670Y348049D01*
X4413214Y347368D01*
X4415847D01*
X4418390Y348049D01*
X4420670Y349366D01*
X4422532Y351228D01*
X4423849Y353508D01*
X4424530Y356051D01*
Y358684D01*
X4423849Y361228D01*
X4422532Y363508D01*
X4420670Y365370D01*
X4418390Y366686D01*
X4415847Y367368D01*
D02*
G37*
G36*
X1243509Y367124D02*
X1240876D01*
X1238332Y366442D01*
X1236052Y365126D01*
X1234190Y363264D01*
X1232874Y360984D01*
X1232192Y358441D01*
Y355807D01*
X1232874Y353264D01*
X1234190Y350984D01*
X1236052Y349122D01*
X1238332Y347805D01*
X1240876Y347124D01*
X1243509D01*
X1246052Y347805D01*
X1248332Y349122D01*
X1250194Y350984D01*
X1251511Y353264D01*
X1252192Y355807D01*
Y358441D01*
X1251511Y360984D01*
X1250194Y363264D01*
X1248332Y365126D01*
X1246052Y366442D01*
X1243509Y367124D01*
D02*
G37*
G36*
X468931Y364838D02*
X466297D01*
X463754Y364156D01*
X461474Y362840D01*
X459612Y360978D01*
X458296Y358698D01*
X457614Y356155D01*
Y353521D01*
X458296Y350978D01*
X459612Y348698D01*
X461474Y346836D01*
X463754Y345519D01*
X466297Y344838D01*
X468931D01*
X471474Y345519D01*
X473754Y346836D01*
X475616Y348698D01*
X476932Y350978D01*
X477614Y353521D01*
Y356155D01*
X476932Y358698D01*
X475616Y360978D01*
X473754Y362840D01*
X471474Y364156D01*
X468931Y364838D01*
D02*
G37*
G36*
X4437173Y364594D02*
X4434539D01*
X4431996Y363913D01*
X4429716Y362596D01*
X4427854Y360734D01*
X4426537Y358454D01*
X4425856Y355911D01*
Y353278D01*
X4426537Y350734D01*
X4427854Y348454D01*
X4429716Y346592D01*
X4431996Y345276D01*
X4434539Y344594D01*
X4437173D01*
X4439716Y345276D01*
X4441996Y346592D01*
X4443858Y348454D01*
X4445175Y350734D01*
X4445856Y353278D01*
Y355911D01*
X4445175Y358454D01*
X4443858Y360734D01*
X4441996Y362596D01*
X4439716Y363913D01*
X4437173Y364594D01*
D02*
G37*
G36*
X2735129Y363182D02*
X2732496D01*
X2729952Y362500D01*
X2727672Y361184D01*
X2725810Y359322D01*
X2724494Y357042D01*
X2723812Y354498D01*
Y351865D01*
X2724494Y349322D01*
X2725810Y347042D01*
X2727672Y345180D01*
X2729952Y343863D01*
X2732496Y343182D01*
X2735129D01*
X2737672Y343863D01*
X2739952Y345180D01*
X2741814Y347042D01*
X2743131Y349322D01*
X2743812Y351865D01*
Y354498D01*
X2743131Y357042D01*
X2741814Y359322D01*
X2739952Y361184D01*
X2737672Y362500D01*
X2735129Y363182D01*
D02*
G37*
G36*
X2774084Y362928D02*
X2771452D01*
X2768908Y362246D01*
X2766628Y360930D01*
X2764766Y359068D01*
X2763450Y356788D01*
X2762768Y354244D01*
Y351611D01*
X2763450Y349068D01*
X2764766Y346788D01*
X2766628Y344926D01*
X2768908Y343609D01*
X2771452Y342928D01*
X2774084D01*
X2776628Y343609D01*
X2778908Y344926D01*
X2780770Y346788D01*
X2782086Y349068D01*
X2782768Y351611D01*
Y354244D01*
X2782086Y356788D01*
X2780770Y359068D01*
X2778908Y360930D01*
X2776628Y362246D01*
X2774084Y362928D01*
D02*
G37*
G36*
X3424099Y362816D02*
X3421466D01*
X3418922Y362135D01*
X3416642Y360818D01*
X3414780Y358956D01*
X3413464Y356676D01*
X3412782Y354133D01*
Y351500D01*
X3413464Y348956D01*
X3414780Y346676D01*
X3416642Y344814D01*
X3418922Y343498D01*
X3421466Y342816D01*
X3424099D01*
X3426642Y343498D01*
X3428922Y344814D01*
X3430784Y346676D01*
X3432101Y348956D01*
X3432782Y351500D01*
Y354133D01*
X3432101Y356676D01*
X3430784Y358956D01*
X3428922Y360818D01*
X3426642Y362135D01*
X3424099Y362816D01*
D02*
G37*
G36*
X573578Y361912D02*
X570946D01*
X568402Y361230D01*
X566122Y359914D01*
X564260Y358052D01*
X562943Y355772D01*
X562262Y353228D01*
Y350595D01*
X562943Y348052D01*
X564260Y345772D01*
X566122Y343910D01*
X568402Y342593D01*
X570946Y341912D01*
X573578D01*
X576122Y342593D01*
X578402Y343910D01*
X580264Y345772D01*
X581581Y348052D01*
X582262Y350595D01*
Y353228D01*
X581581Y355772D01*
X580264Y358052D01*
X578402Y359914D01*
X576122Y361230D01*
X573578Y361912D01*
D02*
G37*
G36*
X2883200Y360642D02*
X2880568D01*
X2878024Y359960D01*
X2875744Y358644D01*
X2873882Y356782D01*
X2872566Y354502D01*
X2871884Y351958D01*
Y349325D01*
X2872566Y346782D01*
X2873882Y344502D01*
X2875744Y342640D01*
X2878024Y341323D01*
X2880568Y340642D01*
X2883200D01*
X2885744Y341323D01*
X2888024Y342640D01*
X2889886Y344502D01*
X2891202Y346782D01*
X2891884Y349325D01*
Y351958D01*
X2891202Y354502D01*
X2889886Y356782D01*
X2888024Y358644D01*
X2885744Y359960D01*
X2883200Y360642D01*
D02*
G37*
G36*
X3648607Y360388D02*
X3645974D01*
X3643430Y359706D01*
X3641150Y358390D01*
X3639288Y356528D01*
X3637971Y354248D01*
X3637290Y351704D01*
Y349071D01*
X3637971Y346528D01*
X3639288Y344248D01*
X3641150Y342386D01*
X3643430Y341069D01*
X3645974Y340388D01*
X3648607D01*
X3651150Y341069D01*
X3653430Y342386D01*
X3655292Y344248D01*
X3656609Y346528D01*
X3657290Y349071D01*
Y351704D01*
X3656609Y354248D01*
X3655292Y356528D01*
X3653430Y358390D01*
X3651150Y359706D01*
X3648607Y360388D01*
D02*
G37*
G36*
X4214669Y360012D02*
X4212036D01*
X4209492Y359330D01*
X4207212Y358014D01*
X4205350Y356152D01*
X4204034Y353872D01*
X4203352Y351329D01*
Y348695D01*
X4204034Y346152D01*
X4205350Y343872D01*
X4207212Y342010D01*
X4209492Y340694D01*
X4212036Y340012D01*
X4214669D01*
X4217212Y340694D01*
X4219492Y342010D01*
X4221354Y343872D01*
X4222671Y346152D01*
X4223352Y348695D01*
Y351329D01*
X4222671Y353872D01*
X4221354Y356152D01*
X4219492Y358014D01*
X4217212Y359330D01*
X4214669Y360012D01*
D02*
G37*
G36*
X3491033Y359626D02*
X3488400D01*
X3485856Y358944D01*
X3483576Y357628D01*
X3481714Y355766D01*
X3480398Y353486D01*
X3479716Y350942D01*
Y348309D01*
X3480398Y345766D01*
X3481714Y343486D01*
X3483576Y341624D01*
X3485856Y340307D01*
X3488400Y339626D01*
X3491033D01*
X3493576Y340307D01*
X3495856Y341624D01*
X3497718Y343486D01*
X3499035Y345766D01*
X3499716Y348309D01*
Y350942D01*
X3499035Y353486D01*
X3497718Y355766D01*
X3495856Y357628D01*
X3493576Y358944D01*
X3491033Y359626D01*
D02*
G37*
G36*
X3534561Y359372D02*
X3531927D01*
X3529384Y358690D01*
X3527104Y357374D01*
X3525242Y355512D01*
X3523925Y353232D01*
X3523244Y350688D01*
Y348055D01*
X3523925Y345512D01*
X3525242Y343232D01*
X3527104Y341370D01*
X3529384Y340053D01*
X3531927Y339372D01*
X3534561D01*
X3537104Y340053D01*
X3539384Y341370D01*
X3541246Y343232D01*
X3542563Y345512D01*
X3543244Y348055D01*
Y350688D01*
X3542563Y353232D01*
X3541246Y355512D01*
X3539384Y357374D01*
X3537104Y358690D01*
X3534561Y359372D01*
D02*
G37*
G36*
X2841555Y358102D02*
X2838922D01*
X2836378Y357420D01*
X2834098Y356104D01*
X2832236Y354242D01*
X2830920Y351962D01*
X2830238Y349418D01*
Y346785D01*
X2830920Y344242D01*
X2832236Y341962D01*
X2834098Y340100D01*
X2836378Y338783D01*
X2838922Y338102D01*
X2841555D01*
X2844098Y338783D01*
X2846378Y340100D01*
X2848240Y341962D01*
X2849557Y344242D01*
X2850238Y346785D01*
Y349418D01*
X2849557Y351962D01*
X2848240Y354242D01*
X2846378Y356104D01*
X2844098Y357420D01*
X2841555Y358102D01*
D02*
G37*
G36*
X3609651Y357594D02*
X3607018D01*
X3604474Y356912D01*
X3602194Y355596D01*
X3600332Y353734D01*
X3599016Y351454D01*
X3598334Y348910D01*
Y346277D01*
X3599016Y343734D01*
X3600332Y341454D01*
X3602194Y339592D01*
X3604474Y338275D01*
X3607018Y337594D01*
X3609651D01*
X3612194Y338275D01*
X3614474Y339592D01*
X3616336Y341454D01*
X3617653Y343734D01*
X3618334Y346277D01*
Y348910D01*
X3617653Y351454D01*
X3616336Y353734D01*
X3614474Y355596D01*
X3612194Y356912D01*
X3609651Y357594D01*
D02*
G37*
G36*
X1273857Y357086D02*
X1271224D01*
X1268680Y356404D01*
X1266400Y355088D01*
X1264538Y353226D01*
X1263222Y350946D01*
X1262540Y348402D01*
Y345769D01*
X1263222Y343226D01*
X1264538Y340946D01*
X1266400Y339084D01*
X1268680Y337767D01*
X1271224Y337086D01*
X1273857D01*
X1276400Y337767D01*
X1278680Y339084D01*
X1280542Y340946D01*
X1281859Y343226D01*
X1282540Y345769D01*
Y348402D01*
X1281859Y350946D01*
X1280542Y353226D01*
X1278680Y355088D01*
X1276400Y356404D01*
X1273857Y357086D01*
D02*
G37*
G36*
X78232Y354024D02*
Y336804D01*
X90619D01*
Y340534D01*
X90154Y344069D01*
X88789Y347362D01*
X86619Y350191D01*
X83790Y352361D01*
X80497Y353726D01*
X78232Y354024D01*
D02*
G37*
G36*
X75692Y354024D02*
X73427Y353726D01*
X70134Y352361D01*
X67305Y350191D01*
X65135Y347362D01*
X63770Y344069D01*
X63305Y340534D01*
Y336804D01*
X75692D01*
Y354024D01*
D02*
G37*
G36*
X257875Y345978D02*
X254189D01*
X250628Y345024D01*
X247436Y343181D01*
X244829Y340574D01*
X242986Y337382D01*
X242199Y334442D01*
X240884D01*
X240454Y336046D01*
X239066Y338450D01*
X237104Y340412D01*
X234700Y341800D01*
X232020Y342518D01*
X231902D01*
Y331978D01*
Y321438D01*
X232020D01*
X234700Y322156D01*
X237104Y323544D01*
X239066Y325506D01*
X240454Y327910D01*
X240884Y329514D01*
X242199D01*
X242986Y326574D01*
X244829Y323382D01*
X247436Y320775D01*
X250628Y318932D01*
X254189Y317978D01*
X257875D01*
X261436Y318932D01*
X264628Y320775D01*
X267235Y323382D01*
X269078Y326574D01*
X270032Y330135D01*
Y333821D01*
X269078Y337382D01*
X267235Y340574D01*
X264628Y343181D01*
X261436Y345024D01*
X257875Y345978D01*
D02*
G37*
G36*
X1120441Y354292D02*
X1117807D01*
X1115264Y353610D01*
X1112984Y352294D01*
X1111122Y350432D01*
X1109806Y348152D01*
X1109124Y345608D01*
Y342975D01*
X1109806Y340432D01*
X1111122Y338152D01*
X1112984Y336290D01*
X1115264Y334973D01*
X1117807Y334292D01*
X1120441D01*
X1122984Y334973D01*
X1125264Y336290D01*
X1127126Y338152D01*
X1128443Y340432D01*
X1129124Y342975D01*
Y345608D01*
X1128443Y348152D01*
X1127126Y350432D01*
X1125264Y352294D01*
X1122984Y353610D01*
X1120441Y354292D01*
D02*
G37*
G36*
X1162963Y352768D02*
X1160330D01*
X1157786Y352086D01*
X1155506Y350770D01*
X1153644Y348908D01*
X1152328Y346628D01*
X1151646Y344084D01*
Y341451D01*
X1152328Y338908D01*
X1153644Y336628D01*
X1155506Y334766D01*
X1157786Y333449D01*
X1160330Y332768D01*
X1162963D01*
X1165506Y333449D01*
X1167786Y334766D01*
X1169648Y336628D01*
X1170965Y338908D01*
X1171646Y341451D01*
Y344084D01*
X1170965Y346628D01*
X1169648Y348908D01*
X1167786Y350770D01*
X1165506Y352086D01*
X1162963Y352768D01*
D02*
G37*
G36*
X219232Y345978D02*
X191232D01*
Y317978D01*
X219232D01*
Y328893D01*
X220502Y329060D01*
X220810Y327910D01*
X222198Y325506D01*
X224160Y323544D01*
X226564Y322156D01*
X229244Y321438D01*
X229362D01*
Y331978D01*
Y342518D01*
X229244D01*
X226564Y341800D01*
X224160Y340412D01*
X222198Y338450D01*
X220810Y336046D01*
X220502Y334896D01*
X219232Y335063D01*
Y345978D01*
D02*
G37*
G36*
X90619Y334264D02*
X78232D01*
Y317044D01*
X80497Y317342D01*
X83790Y318707D01*
X86619Y320877D01*
X88789Y323706D01*
X90154Y326999D01*
X90619Y330534D01*
Y334264D01*
D02*
G37*
G36*
X75692D02*
X63305D01*
Y330534D01*
X63770Y326999D01*
X65135Y323706D01*
X67305Y320877D01*
X70134Y318707D01*
X73427Y317342D01*
X75692Y317044D01*
Y334264D01*
D02*
G37*
G36*
X280585Y295512D02*
X278215D01*
X275926Y294899D01*
X273874Y293714D01*
X272198Y292038D01*
X271014Y289986D01*
X270595Y288423D01*
X270506Y288361D01*
X269196Y288108D01*
X267908Y289396D01*
X265856Y290581D01*
X263567Y291194D01*
X261197D01*
X258908Y290581D01*
X256856Y289396D01*
X255180Y287720D01*
X253995Y285668D01*
X253382Y283379D01*
Y281009D01*
X253995Y278720D01*
X255180Y276668D01*
X256856Y274992D01*
X258908Y273807D01*
X261197Y273194D01*
X262756D01*
X263096Y271924D01*
X261682Y271108D01*
X260006Y269432D01*
X258822Y267380D01*
X258208Y265091D01*
Y262721D01*
X258822Y260432D01*
X260006Y258380D01*
X261682Y256704D01*
X263734Y255519D01*
X266023Y254906D01*
X268393D01*
X270682Y255519D01*
X272734Y256704D01*
X274410Y258380D01*
X274629Y258760D01*
X294852D01*
Y282260D01*
X288669D01*
X287919Y283530D01*
X288400Y285327D01*
Y287697D01*
X287787Y289986D01*
X286602Y292038D01*
X284926Y293714D01*
X282874Y294899D01*
X280585Y295512D01*
D02*
G37*
G36*
X233426Y280784D02*
Y273812D01*
X240398D01*
X239881Y275742D01*
X238790Y277632D01*
X237246Y279176D01*
X235356Y280267D01*
X233426Y280784D01*
D02*
G37*
G36*
X230886D02*
X228956Y280267D01*
X227066Y279176D01*
X225522Y277632D01*
X224431Y275742D01*
X223914Y273812D01*
X230886D01*
Y280784D01*
D02*
G37*
G36*
X4593647Y292852D02*
X4591014D01*
X4588470Y292170D01*
X4586190Y290854D01*
X4584328Y288992D01*
X4583012Y286712D01*
X4582330Y284168D01*
Y281535D01*
X4583012Y278992D01*
X4584328Y276712D01*
X4586190Y274850D01*
X4588470Y273533D01*
X4591014Y272852D01*
X4593647D01*
X4596190Y273533D01*
X4598470Y274850D01*
X4600332Y276712D01*
X4601649Y278992D01*
X4602330Y281535D01*
Y284168D01*
X4601649Y286712D01*
X4600332Y288992D01*
X4598470Y290854D01*
X4596190Y292170D01*
X4593647Y292852D01*
D02*
G37*
G36*
X309372Y278752D02*
Y271780D01*
X316344D01*
X315827Y273710D01*
X314736Y275600D01*
X313192Y277144D01*
X311302Y278235D01*
X309372Y278752D01*
D02*
G37*
G36*
X306832D02*
X304902Y278235D01*
X303012Y277144D01*
X301469Y275600D01*
X300377Y273710D01*
X299860Y271780D01*
X306832D01*
Y278752D01*
D02*
G37*
G36*
X1452164Y291056D02*
X1449532D01*
X1446988Y290375D01*
X1444708Y289058D01*
X1442846Y287196D01*
X1441530Y284916D01*
X1440848Y282373D01*
Y279740D01*
X1441530Y277196D01*
X1442846Y274916D01*
X1444708Y273054D01*
X1446988Y271738D01*
X1449532Y271056D01*
X1452164D01*
X1454708Y271738D01*
X1456988Y273054D01*
X1458850Y274916D01*
X1460166Y277196D01*
X1460848Y279740D01*
Y282373D01*
X1460166Y284916D01*
X1458850Y287196D01*
X1456988Y289058D01*
X1454708Y290375D01*
X1452164Y291056D01*
D02*
G37*
G36*
X123439Y268500D02*
X93342D01*
X93341Y268499D01*
X91261Y268499D01*
X90666Y268381D01*
X90059Y268380D01*
X85979Y267563D01*
X85419Y267330D01*
X84824Y267210D01*
X80984Y265608D01*
X80480Y265270D01*
X79921Y265035D01*
X76470Y262710D01*
X76318Y262557D01*
X73629Y262292D01*
X70425Y261320D01*
X67472Y259741D01*
X64883Y257617D01*
X62759Y255028D01*
X61180Y252075D01*
X60208Y248871D01*
X59880Y245538D01*
Y235538D01*
X60208Y232205D01*
X61180Y229001D01*
X62759Y226048D01*
X64883Y223459D01*
X66433Y222187D01*
X67431Y125582D01*
X67455Y123249D01*
X67537Y122856D01*
X67515Y122456D01*
X68168Y117834D01*
X68300Y117455D01*
X68330Y117056D01*
X69577Y112557D01*
X69757Y112199D01*
X69838Y111806D01*
X71658Y107508D01*
X71883Y107176D01*
X72015Y106798D01*
X74377Y102771D01*
X74643Y102472D01*
X74822Y102113D01*
X77686Y98427D01*
X77989Y98164D01*
X78214Y97832D01*
X81531Y94549D01*
X81866Y94327D01*
X82132Y94027D01*
X85847Y91201D01*
X86207Y91026D01*
X86510Y90763D01*
X90560Y88442D01*
X90941Y88315D01*
X91274Y88093D01*
X95591Y86318D01*
X95985Y86241D01*
X96345Y86064D01*
X100856Y84864D01*
X101256Y84838D01*
X101636Y84709D01*
X106264Y84104D01*
X106664Y84131D01*
X107058Y84052D01*
X123190D01*
X123190Y84052D01*
X125338Y84052D01*
X125733Y84131D01*
X126136Y84105D01*
X130395Y84665D01*
X130777Y84795D01*
X131179Y84822D01*
X135328Y85933D01*
X135690Y86112D01*
X136086Y86190D01*
X140054Y87834D01*
X140390Y88058D01*
X140772Y88188D01*
X144492Y90336D01*
X144795Y90602D01*
X145157Y90780D01*
X148565Y93395D01*
X148831Y93698D01*
X149166Y93923D01*
X152204Y96960D01*
X152428Y97295D01*
X152731Y97561D01*
X155346Y100969D01*
X155524Y101331D01*
X155790Y101634D01*
X157938Y105354D01*
X158068Y105736D01*
X158292Y106072D01*
X159936Y110040D01*
X160014Y110436D01*
X160193Y110798D01*
X161304Y114947D01*
X161331Y115349D01*
X161461Y115731D01*
X162021Y119990D01*
X161995Y120393D01*
X162074Y120788D01*
X162074Y122936D01*
Y135824D01*
X163344Y136164D01*
X163654Y135626D01*
X165198Y134082D01*
X167088Y132991D01*
X169018Y132474D01*
Y140716D01*
Y148958D01*
X167088Y148441D01*
X165198Y147350D01*
X163654Y145806D01*
X163344Y145268D01*
X162074Y145608D01*
X162074Y227584D01*
X162074Y227584D01*
Y229865D01*
X161995Y230261D01*
X162021Y230663D01*
X161426Y235186D01*
X161296Y235568D01*
X161270Y235971D01*
X160089Y240377D01*
X159911Y240739D01*
X159832Y241134D01*
X158086Y245349D01*
X157862Y245684D01*
X157732Y246067D01*
X155452Y250017D01*
X155185Y250320D01*
X155007Y250682D01*
X152230Y254301D01*
X151927Y254567D01*
X151702Y254903D01*
X148477Y258128D01*
X148141Y258353D01*
X147875Y258656D01*
X144256Y261433D01*
X143895Y261611D01*
X143591Y261877D01*
X139641Y264158D01*
X139258Y264288D01*
X138923Y264512D01*
X134709Y266258D01*
X134313Y266337D01*
X133951Y266515D01*
X129545Y267696D01*
X129142Y267722D01*
X128760Y267852D01*
X124237Y268447D01*
X123835Y268421D01*
X123439Y268500D01*
D02*
G37*
G36*
X3011339Y288026D02*
X3008705D01*
X3006162Y287344D01*
X3003882Y286028D01*
X3002020Y284166D01*
X3000703Y281886D01*
X3000022Y279342D01*
Y276709D01*
X3000703Y274166D01*
X3002020Y271886D01*
X3003882Y270024D01*
X3006162Y268708D01*
X3008705Y268026D01*
X3011339D01*
X3013882Y268708D01*
X3016162Y270024D01*
X3018024Y271886D01*
X3019341Y274166D01*
X3020022Y276709D01*
Y279342D01*
X3019341Y281886D01*
X3018024Y284166D01*
X3016162Y286028D01*
X3013882Y287344D01*
X3011339Y288026D01*
D02*
G37*
G36*
X646344Y285764D02*
X643711D01*
X641168Y285082D01*
X638888Y283766D01*
X637026Y281904D01*
X635709Y279624D01*
X635028Y277080D01*
Y274447D01*
X635709Y271904D01*
X637026Y269624D01*
X638888Y267762D01*
X641168Y266446D01*
X643711Y265764D01*
X646344D01*
X648888Y266446D01*
X651168Y267762D01*
X653030Y269624D01*
X654346Y271904D01*
X655028Y274447D01*
Y277080D01*
X654346Y279624D01*
X653030Y281904D01*
X651168Y283766D01*
X648888Y285082D01*
X646344Y285764D01*
D02*
G37*
G36*
X240398Y271272D02*
X233426D01*
Y264300D01*
X235356Y264817D01*
X237246Y265908D01*
X238790Y267452D01*
X239881Y269342D01*
X240398Y271272D01*
D02*
G37*
G36*
X230886D02*
X223914D01*
X224431Y269342D01*
X225522Y267452D01*
X227066Y265908D01*
X228956Y264817D01*
X230886Y264300D01*
Y271272D01*
D02*
G37*
G36*
X3796960Y282946D02*
X3794327D01*
X3791784Y282264D01*
X3789504Y280948D01*
X3787642Y279086D01*
X3786325Y276806D01*
X3785644Y274263D01*
Y271630D01*
X3786325Y269086D01*
X3787642Y266806D01*
X3789504Y264944D01*
X3791784Y263627D01*
X3794327Y262946D01*
X3796960D01*
X3799504Y263627D01*
X3801784Y264944D01*
X3803646Y266806D01*
X3804962Y269086D01*
X3805644Y271630D01*
Y274263D01*
X3804962Y276806D01*
X3803646Y279086D01*
X3801784Y280948D01*
X3799504Y282264D01*
X3796960Y282946D01*
D02*
G37*
G36*
X2217588Y282796D02*
X2214955D01*
X2212412Y282115D01*
X2210132Y280798D01*
X2208270Y278936D01*
X2206953Y276656D01*
X2206272Y274112D01*
Y271479D01*
X2206953Y268936D01*
X2208270Y266656D01*
X2210132Y264794D01*
X2212412Y263477D01*
X2214955Y262796D01*
X2217588D01*
X2220132Y263477D01*
X2222412Y264794D01*
X2224274Y266656D01*
X2225590Y268936D01*
X2226272Y271479D01*
Y274112D01*
X2225590Y276656D01*
X2224274Y278936D01*
X2222412Y280798D01*
X2220132Y282115D01*
X2217588Y282796D01*
D02*
G37*
G36*
X316344Y269240D02*
X309372D01*
Y262268D01*
X311302Y262785D01*
X313192Y263876D01*
X314736Y265420D01*
X315827Y267310D01*
X316344Y269240D01*
D02*
G37*
G36*
X306832D02*
X299860D01*
X300377Y267310D01*
X301469Y265420D01*
X303012Y263876D01*
X304902Y262785D01*
X306832Y262268D01*
Y269240D01*
D02*
G37*
G36*
X218906Y284292D02*
X195406D01*
Y260792D01*
X218906D01*
Y284292D01*
D02*
G37*
G36*
X3084501Y271102D02*
X3081868D01*
X3079325Y270420D01*
X3077044Y269104D01*
X3075182Y267242D01*
X3073866Y264962D01*
X3073184Y262418D01*
Y259785D01*
X3073866Y257242D01*
X3075182Y254962D01*
X3077044Y253100D01*
X3079325Y251783D01*
X3081868Y251102D01*
X3084501D01*
X3087044Y251783D01*
X3089324Y253100D01*
X3091186Y254962D01*
X3092503Y257242D01*
X3093184Y259785D01*
Y262418D01*
X3092503Y264962D01*
X3091186Y267242D01*
X3089324Y269104D01*
X3087044Y270420D01*
X3084501Y271102D01*
D02*
G37*
G36*
X717983Y270604D02*
X715350D01*
X712806Y269923D01*
X710526Y268606D01*
X708664Y266744D01*
X707348Y264464D01*
X706666Y261921D01*
Y259287D01*
X707348Y256744D01*
X708664Y254464D01*
X710526Y252602D01*
X712806Y251285D01*
X715350Y250604D01*
X717983D01*
X720526Y251285D01*
X722806Y252602D01*
X724668Y254464D01*
X725985Y256744D01*
X726666Y259287D01*
Y261921D01*
X725985Y264464D01*
X724668Y266744D01*
X722806Y268606D01*
X720526Y269923D01*
X717983Y270604D01*
D02*
G37*
G36*
X3870377Y268308D02*
X3867744D01*
X3865201Y267626D01*
X3862920Y266310D01*
X3861058Y264448D01*
X3859742Y262168D01*
X3859060Y259624D01*
Y256991D01*
X3859742Y254448D01*
X3861058Y252168D01*
X3862920Y250306D01*
X3865201Y248989D01*
X3867744Y248308D01*
X3870377D01*
X3872920Y248989D01*
X3875201Y250306D01*
X3877062Y252168D01*
X3878379Y254448D01*
X3879060Y256991D01*
Y259624D01*
X3878379Y262168D01*
X3877062Y264448D01*
X3875201Y266310D01*
X3872920Y267626D01*
X3870377Y268308D01*
D02*
G37*
G36*
X4655612Y267282D02*
X4652979D01*
X4650436Y266600D01*
X4648156Y265284D01*
X4646294Y263422D01*
X4644977Y261141D01*
X4644296Y258598D01*
Y255965D01*
X4644977Y253422D01*
X4646294Y251142D01*
X4648156Y249280D01*
X4650436Y247963D01*
X4652979Y247282D01*
X4655612D01*
X4658156Y247963D01*
X4660436Y249280D01*
X4662298Y251142D01*
X4663615Y253422D01*
X4664296Y255965D01*
Y258598D01*
X4663615Y261141D01*
X4662298Y263422D01*
X4660436Y265284D01*
X4658156Y266600D01*
X4655612Y267282D01*
D02*
G37*
G36*
X1515035Y266530D02*
X1512402D01*
X1509859Y265848D01*
X1507578Y264532D01*
X1505716Y262670D01*
X1504400Y260390D01*
X1503718Y257846D01*
Y255213D01*
X1504400Y252670D01*
X1505716Y250390D01*
X1507578Y248528D01*
X1509859Y247211D01*
X1512402Y246530D01*
X1515035D01*
X1517578Y247211D01*
X1519858Y248528D01*
X1521720Y250390D01*
X1523037Y252670D01*
X1523718Y255213D01*
Y257846D01*
X1523037Y260390D01*
X1521720Y262670D01*
X1519858Y264532D01*
X1517578Y265848D01*
X1515035Y266530D01*
D02*
G37*
G36*
X2296085Y266276D02*
X2293452D01*
X2290909Y265594D01*
X2288628Y264278D01*
X2286766Y262416D01*
X2285450Y260136D01*
X2284768Y257592D01*
Y254959D01*
X2285450Y252416D01*
X2286766Y250136D01*
X2288628Y248274D01*
X2290909Y246957D01*
X2293452Y246276D01*
X2296085D01*
X2298628Y246957D01*
X2300908Y248274D01*
X2302770Y250136D01*
X2304087Y252416D01*
X2304768Y254959D01*
Y257592D01*
X2304087Y260136D01*
X2302770Y262416D01*
X2300908Y264278D01*
X2298628Y265594D01*
X2296085Y266276D01*
D02*
G37*
G36*
X4541566Y248506D02*
X4538933D01*
X4536390Y247824D01*
X4534110Y246508D01*
X4532248Y244646D01*
X4530931Y242366D01*
X4530250Y239823D01*
Y237190D01*
X4530931Y234646D01*
X4532248Y232366D01*
X4534110Y230504D01*
X4536390Y229188D01*
X4538933Y228506D01*
X4541566D01*
X4544110Y229188D01*
X4546390Y230504D01*
X4548252Y232366D01*
X4549568Y234646D01*
X4550250Y237190D01*
Y239823D01*
X4549568Y242366D01*
X4548252Y244646D01*
X4546390Y246508D01*
X4544110Y247824D01*
X4541566Y248506D01*
D02*
G37*
G36*
X4593128Y248252D02*
X4590496D01*
X4587952Y247570D01*
X4585672Y246254D01*
X4583810Y244392D01*
X4582494Y242112D01*
X4581812Y239569D01*
Y236936D01*
X4582494Y234392D01*
X4583810Y232112D01*
X4585672Y230250D01*
X4587952Y228934D01*
X4590496Y228252D01*
X4593128D01*
X4595672Y228934D01*
X4597952Y230250D01*
X4599814Y232112D01*
X4601130Y234392D01*
X4601812Y236936D01*
Y239569D01*
X4601130Y242112D01*
X4599814Y244392D01*
X4597952Y246254D01*
X4595672Y247570D01*
X4593128Y248252D01*
D02*
G37*
G36*
X1388156Y247744D02*
X1385524D01*
X1382980Y247062D01*
X1380700Y245746D01*
X1378838Y243884D01*
X1377522Y241604D01*
X1376840Y239060D01*
Y236427D01*
X1377522Y233884D01*
X1378838Y231604D01*
X1380700Y229742D01*
X1382980Y228426D01*
X1385524Y227744D01*
X1388156D01*
X1390700Y228426D01*
X1392980Y229742D01*
X1394842Y231604D01*
X1396158Y233884D01*
X1396840Y236427D01*
Y239060D01*
X1396158Y241604D01*
X1394842Y243884D01*
X1392980Y245746D01*
X1390700Y247062D01*
X1388156Y247744D01*
D02*
G37*
G36*
X3017688Y247500D02*
X3015056D01*
X3012512Y246819D01*
X3010232Y245502D01*
X3008370Y243640D01*
X3007054Y241360D01*
X3006372Y238817D01*
Y236184D01*
X3007054Y233640D01*
X3008370Y231360D01*
X3010232Y229498D01*
X3012512Y228182D01*
X3015056Y227500D01*
X3017688D01*
X3020232Y228182D01*
X3022512Y229498D01*
X3024374Y231360D01*
X3025690Y233640D01*
X3026372Y236184D01*
Y238817D01*
X3025690Y241360D01*
X3024374Y243640D01*
X3022512Y245502D01*
X3020232Y246819D01*
X3017688Y247500D01*
D02*
G37*
G36*
X2775758Y244442D02*
X2773126D01*
X2770582Y243761D01*
X2768302Y242444D01*
X2766440Y240582D01*
X2765124Y238302D01*
X2764442Y235758D01*
Y233125D01*
X2765124Y230582D01*
X2766440Y228302D01*
X2768302Y226440D01*
X2770582Y225124D01*
X2773126Y224442D01*
X2775758D01*
X2778302Y225124D01*
X2780582Y226440D01*
X2782444Y228302D01*
X2783760Y230582D01*
X2784442Y233125D01*
Y235758D01*
X2783760Y238302D01*
X2782444Y240582D01*
X2780582Y242444D01*
X2778302Y243761D01*
X2775758Y244442D01*
D02*
G37*
G36*
X1204261Y243708D02*
X1201628D01*
X1199084Y243027D01*
X1196804Y241710D01*
X1194942Y239848D01*
X1193626Y237568D01*
X1192944Y235025D01*
Y232392D01*
X1193626Y229848D01*
X1194942Y227568D01*
X1196804Y225706D01*
X1199084Y224390D01*
X1201628Y223708D01*
X1204261D01*
X1206804Y224390D01*
X1209084Y225706D01*
X1210946Y227568D01*
X1212263Y229848D01*
X1212944Y232392D01*
Y235025D01*
X1212263Y237568D01*
X1210946Y239848D01*
X1209084Y241710D01*
X1206804Y243027D01*
X1204261Y243708D01*
D02*
G37*
G36*
X1990645Y243426D02*
X1988011D01*
X1985468Y242745D01*
X1983188Y241428D01*
X1981326Y239566D01*
X1980009Y237286D01*
X1979328Y234743D01*
Y232110D01*
X1980009Y229566D01*
X1981326Y227286D01*
X1983188Y225424D01*
X1985468Y224107D01*
X1988011Y223426D01*
X1990645D01*
X1993188Y224107D01*
X1995468Y225424D01*
X1997330Y227286D01*
X1998647Y229566D01*
X1999328Y232110D01*
Y234743D01*
X1998647Y237286D01*
X1997330Y239566D01*
X1995468Y241428D01*
X1993188Y242745D01*
X1990645Y243426D01*
D02*
G37*
G36*
X404669Y243050D02*
X402035D01*
X399492Y242369D01*
X397212Y241052D01*
X395350Y239190D01*
X394034Y236910D01*
X393352Y234367D01*
Y231734D01*
X394034Y229190D01*
X395350Y226910D01*
X397212Y225048D01*
X399492Y223732D01*
X402035Y223050D01*
X404669D01*
X407212Y223732D01*
X409492Y225048D01*
X411354Y226910D01*
X412671Y229190D01*
X413352Y231734D01*
Y234367D01*
X412671Y236910D01*
X411354Y239190D01*
X409492Y241052D01*
X407212Y242369D01*
X404669Y243050D01*
D02*
G37*
G36*
X1445174Y242674D02*
X1442541D01*
X1439998Y241993D01*
X1437718Y240676D01*
X1435856Y238814D01*
X1434539Y236534D01*
X1433858Y233991D01*
Y231358D01*
X1434539Y228814D01*
X1435856Y226534D01*
X1437718Y224672D01*
X1439998Y223356D01*
X1442541Y222674D01*
X1445174D01*
X1447718Y223356D01*
X1449998Y224672D01*
X1451860Y226534D01*
X1453176Y228814D01*
X1453858Y231358D01*
Y233991D01*
X1453176Y236534D01*
X1451860Y238814D01*
X1449998Y240676D01*
X1447718Y241993D01*
X1445174Y242674D01*
D02*
G37*
G36*
X584368Y242664D02*
X581735D01*
X579192Y241982D01*
X576912Y240666D01*
X575050Y238804D01*
X573733Y236524D01*
X573052Y233981D01*
Y231348D01*
X573733Y228804D01*
X575050Y226524D01*
X576912Y224662D01*
X579192Y223346D01*
X581735Y222664D01*
X584368D01*
X586912Y223346D01*
X589192Y224662D01*
X591054Y226524D01*
X592370Y228804D01*
X593052Y231348D01*
Y233981D01*
X592370Y236524D01*
X591054Y238804D01*
X589192Y240666D01*
X586912Y241982D01*
X584368Y242664D01*
D02*
G37*
G36*
X4381557Y242296D02*
X4378924D01*
X4376380Y241614D01*
X4374100Y240298D01*
X4372238Y238436D01*
X4370922Y236156D01*
X4370240Y233612D01*
Y230979D01*
X4370922Y228436D01*
X4372238Y226156D01*
X4374100Y224294D01*
X4376380Y222977D01*
X4378924Y222296D01*
X4381557D01*
X4384100Y222977D01*
X4386380Y224294D01*
X4388242Y226156D01*
X4389559Y228436D01*
X4390240Y230979D01*
Y233612D01*
X4389559Y236156D01*
X4388242Y238436D01*
X4386380Y240298D01*
X4384100Y241614D01*
X4381557Y242296D01*
D02*
G37*
G36*
X3801278Y241404D02*
X3798645D01*
X3796102Y240723D01*
X3793822Y239406D01*
X3791960Y237544D01*
X3790643Y235264D01*
X3789962Y232721D01*
Y230088D01*
X3790643Y227544D01*
X3791960Y225264D01*
X3793822Y223402D01*
X3796102Y222086D01*
X3798645Y221404D01*
X3801278D01*
X3803822Y222086D01*
X3806102Y223402D01*
X3807964Y225264D01*
X3809280Y227544D01*
X3809962Y230088D01*
Y232721D01*
X3809280Y235264D01*
X3807964Y237544D01*
X3806102Y239406D01*
X3803822Y240723D01*
X3801278Y241404D01*
D02*
G37*
G36*
X2231437Y241282D02*
X2228804D01*
X2226260Y240601D01*
X2223980Y239284D01*
X2222118Y237423D01*
X2220802Y235142D01*
X2220120Y232599D01*
Y229966D01*
X2220802Y227423D01*
X2222118Y225142D01*
X2223980Y223280D01*
X2226260Y221964D01*
X2228804Y221282D01*
X2231437D01*
X2233980Y221964D01*
X2236260Y223280D01*
X2238122Y225142D01*
X2239439Y227423D01*
X2240120Y229966D01*
Y232599D01*
X2239439Y235142D01*
X2238122Y237423D01*
X2236260Y239284D01*
X2233980Y240601D01*
X2231437Y241282D01*
D02*
G37*
G36*
X3750885Y240030D02*
X3748252D01*
X3745709Y239349D01*
X3743428Y238032D01*
X3741566Y236170D01*
X3740250Y233890D01*
X3739568Y231347D01*
Y228713D01*
X3740250Y226170D01*
X3741566Y223890D01*
X3743428Y222028D01*
X3745709Y220711D01*
X3748252Y220030D01*
X3750885D01*
X3753428Y220711D01*
X3755708Y222028D01*
X3757570Y223890D01*
X3758887Y226170D01*
X3759568Y228713D01*
Y231347D01*
X3758887Y233890D01*
X3757570Y236170D01*
X3755708Y238032D01*
X3753428Y239349D01*
X3750885Y240030D01*
D02*
G37*
G36*
X3580431Y239362D02*
X3577798D01*
X3575254Y238680D01*
X3572974Y237364D01*
X3571112Y235502D01*
X3569796Y233222D01*
X3569114Y230679D01*
Y228046D01*
X3569796Y225502D01*
X3571112Y223222D01*
X3572974Y221360D01*
X3575254Y220044D01*
X3577798Y219362D01*
X3580431D01*
X3582974Y220044D01*
X3585254Y221360D01*
X3587116Y223222D01*
X3588433Y225502D01*
X3589114Y228046D01*
Y230679D01*
X3588433Y233222D01*
X3587116Y235502D01*
X3585254Y237364D01*
X3582974Y238680D01*
X3580431Y239362D01*
D02*
G37*
G36*
X4433871Y238346D02*
X4431237D01*
X4428694Y237665D01*
X4426414Y236348D01*
X4424552Y234486D01*
X4423235Y232206D01*
X4422554Y229662D01*
Y227029D01*
X4423235Y224486D01*
X4424552Y222206D01*
X4426414Y220344D01*
X4428694Y219028D01*
X4431237Y218346D01*
X4433871D01*
X4436414Y219028D01*
X4438694Y220344D01*
X4440556Y222206D01*
X4441873Y224486D01*
X4442554Y227029D01*
Y229662D01*
X4441873Y232206D01*
X4440556Y234486D01*
X4438694Y236348D01*
X4436414Y237665D01*
X4433871Y238346D01*
D02*
G37*
G36*
X2967295Y237998D02*
X2964662D01*
X2962119Y237316D01*
X2959838Y236000D01*
X2957976Y234138D01*
X2956660Y231858D01*
X2955978Y229315D01*
Y226681D01*
X2956660Y224138D01*
X2957976Y221858D01*
X2959838Y219996D01*
X2962119Y218680D01*
X2964662Y217998D01*
X2967295D01*
X2969838Y218680D01*
X2972119Y219996D01*
X2973980Y221858D01*
X2975297Y224138D01*
X2975978Y226681D01*
Y229315D01*
X2975297Y231858D01*
X2973980Y234138D01*
X2972119Y236000D01*
X2969838Y237316D01*
X2967295Y237998D01*
D02*
G37*
G36*
X2048303Y237980D02*
X2045670D01*
X2043126Y237299D01*
X2040846Y235982D01*
X2038984Y234121D01*
X2037668Y231840D01*
X2036986Y229297D01*
Y226664D01*
X2037668Y224121D01*
X2038984Y221840D01*
X2040846Y219978D01*
X2043126Y218662D01*
X2045670Y217980D01*
X2048303D01*
X2050846Y218662D01*
X2053126Y219978D01*
X2054988Y221840D01*
X2056305Y224121D01*
X2056986Y226664D01*
Y229297D01*
X2056305Y231840D01*
X2054988Y234121D01*
X2053126Y235982D01*
X2050846Y237299D01*
X2048303Y237980D01*
D02*
G37*
G36*
X1264459Y237726D02*
X1261826D01*
X1259282Y237045D01*
X1257002Y235728D01*
X1255140Y233867D01*
X1253824Y231586D01*
X1253142Y229043D01*
Y226410D01*
X1253824Y223867D01*
X1255140Y221586D01*
X1257002Y219724D01*
X1259282Y218408D01*
X1261826Y217726D01*
X1264459D01*
X1267002Y218408D01*
X1269282Y219724D01*
X1271144Y221586D01*
X1272461Y223867D01*
X1273142Y226410D01*
Y229043D01*
X1272461Y231586D01*
X1271144Y233867D01*
X1269282Y235728D01*
X1267002Y237045D01*
X1264459Y237726D01*
D02*
G37*
G36*
X463088Y237462D02*
X460456D01*
X457912Y236781D01*
X455632Y235464D01*
X453770Y233602D01*
X452453Y231322D01*
X451772Y228779D01*
Y226146D01*
X452453Y223602D01*
X453770Y221322D01*
X455632Y219460D01*
X457912Y218144D01*
X460456Y217462D01*
X463088D01*
X465632Y218144D01*
X467912Y219460D01*
X469774Y221322D01*
X471091Y223602D01*
X471772Y226146D01*
Y228779D01*
X471091Y231322D01*
X469774Y233602D01*
X467912Y235464D01*
X465632Y236781D01*
X463088Y237462D01*
D02*
G37*
G36*
X2856023Y236710D02*
X2853390D01*
X2850846Y236029D01*
X2848566Y234712D01*
X2846704Y232850D01*
X2845388Y230570D01*
X2844706Y228027D01*
Y225394D01*
X2845388Y222850D01*
X2846704Y220570D01*
X2848566Y218708D01*
X2850846Y217392D01*
X2853390Y216710D01*
X2856023D01*
X2858566Y217392D01*
X2860846Y218708D01*
X2862708Y220570D01*
X2864025Y222850D01*
X2864706Y225394D01*
Y228027D01*
X2864025Y230570D01*
X2862708Y232850D01*
X2860846Y234712D01*
X2858566Y236029D01*
X2856023Y236710D01*
D02*
G37*
G36*
X652572Y234922D02*
X649939D01*
X647396Y234241D01*
X645116Y232924D01*
X643254Y231062D01*
X641937Y228782D01*
X641256Y226239D01*
Y223606D01*
X641937Y221062D01*
X643254Y218782D01*
X645116Y216920D01*
X647396Y215604D01*
X649939Y214922D01*
X652572D01*
X655116Y215604D01*
X657396Y216920D01*
X659258Y218782D01*
X660574Y221062D01*
X661256Y223606D01*
Y226239D01*
X660574Y228782D01*
X659258Y231062D01*
X657396Y232924D01*
X655116Y234241D01*
X652572Y234922D01*
D02*
G37*
G36*
X3642407Y233774D02*
X3639774D01*
X3637230Y233092D01*
X3634950Y231776D01*
X3633088Y229914D01*
X3631772Y227634D01*
X3631090Y225091D01*
Y222458D01*
X3631772Y219914D01*
X3633088Y217634D01*
X3634950Y215772D01*
X3637230Y214456D01*
X3639774Y213774D01*
X3642407D01*
X3644950Y214456D01*
X3647230Y215772D01*
X3649092Y217634D01*
X3650409Y219914D01*
X3651090Y222458D01*
Y225091D01*
X3650409Y227634D01*
X3649092Y229914D01*
X3647230Y231776D01*
X3644950Y233092D01*
X3642407Y233774D01*
D02*
G37*
G36*
X235820Y205854D02*
Y198882D01*
X242792D01*
X242275Y200812D01*
X241184Y202702D01*
X239640Y204246D01*
X237750Y205337D01*
X235820Y205854D01*
D02*
G37*
G36*
X233280D02*
X231350Y205337D01*
X229460Y204246D01*
X227917Y202702D01*
X226825Y200812D01*
X226308Y198882D01*
X233280D01*
Y205854D01*
D02*
G37*
G36*
X4639507Y217508D02*
X4636873D01*
X4634330Y216826D01*
X4632050Y215510D01*
X4630188Y213648D01*
X4628871Y211368D01*
X4628190Y208824D01*
Y206191D01*
X4628871Y203648D01*
X4630188Y201368D01*
X4632050Y199506D01*
X4634330Y198189D01*
X4636873Y197508D01*
X4639507D01*
X4642050Y198189D01*
X4644330Y199506D01*
X4646192Y201368D01*
X4647509Y203648D01*
X4648190Y206191D01*
Y208824D01*
X4647509Y211368D01*
X4646192Y213648D01*
X4644330Y215510D01*
X4642050Y216826D01*
X4639507Y217508D01*
D02*
G37*
G36*
X3054547Y210274D02*
X3051913D01*
X3049370Y209592D01*
X3047090Y208276D01*
X3045228Y206414D01*
X3043912Y204134D01*
X3043230Y201590D01*
Y198957D01*
X3043912Y196414D01*
X3045228Y194134D01*
X3047090Y192272D01*
X3049370Y190955D01*
X3051913Y190274D01*
X3054547D01*
X3057090Y190955D01*
X3059370Y192272D01*
X3061232Y194134D01*
X3062549Y196414D01*
X3063230Y198957D01*
Y201590D01*
X3062549Y204134D01*
X3061232Y206414D01*
X3059370Y208276D01*
X3057090Y209592D01*
X3054547Y210274D01*
D02*
G37*
G36*
X242792Y196342D02*
X235820D01*
Y189370D01*
X237750Y189887D01*
X239640Y190978D01*
X241184Y192522D01*
X242275Y194412D01*
X242792Y196342D01*
D02*
G37*
G36*
X233280D02*
X226308D01*
X226825Y194412D01*
X227917Y192522D01*
X229460Y190978D01*
X231350Y189887D01*
X233280Y189370D01*
Y196342D01*
D02*
G37*
G36*
X3839407Y207988D02*
X3836774D01*
X3834230Y207306D01*
X3831950Y205990D01*
X3830088Y204128D01*
X3828772Y201848D01*
X3828090Y199304D01*
Y196671D01*
X3827468Y195860D01*
X3765127D01*
Y192400D01*
X3758748D01*
Y178430D01*
Y164460D01*
X3765127D01*
Y161000D01*
X3829827D01*
Y190312D01*
X3831097Y190839D01*
X3831950Y189986D01*
X3834230Y188669D01*
X3836774Y187988D01*
X3839407D01*
X3841950Y188669D01*
X3844230Y189986D01*
X3846092Y191848D01*
X3847409Y194128D01*
X3848090Y196671D01*
Y199304D01*
X3847409Y201848D01*
X3846092Y204128D01*
X3844230Y205990D01*
X3841950Y207306D01*
X3839407Y207988D01*
D02*
G37*
G36*
X221300Y209362D02*
X197800D01*
Y185862D01*
X221300D01*
Y209362D01*
D02*
G37*
G36*
X2262575Y205194D02*
X2259942D01*
X2257398Y204512D01*
X2255118Y203196D01*
X2253256Y201334D01*
X2251940Y199054D01*
X2251258Y196510D01*
Y193877D01*
X2251940Y191334D01*
X2253256Y189054D01*
X2255118Y187192D01*
X2257398Y185875D01*
X2259942Y185194D01*
X2262575D01*
X2265118Y185875D01*
X2267398Y187192D01*
X2269260Y189054D01*
X2270577Y191334D01*
X2271258Y193877D01*
Y196510D01*
X2270577Y199054D01*
X2269260Y201334D01*
X2267398Y203196D01*
X2265118Y204512D01*
X2262575Y205194D01*
D02*
G37*
G36*
X1474158Y201384D02*
X1471526D01*
X1468982Y200702D01*
X1466702Y199386D01*
X1464840Y197524D01*
X1463524Y195244D01*
X1462842Y192700D01*
Y190067D01*
X1463524Y187524D01*
X1464840Y185244D01*
X1466702Y183382D01*
X1468982Y182065D01*
X1471526Y181384D01*
X1474158D01*
X1476702Y182065D01*
X1478982Y183382D01*
X1480844Y185244D01*
X1482160Y187524D01*
X1482842Y190067D01*
Y192700D01*
X1482160Y195244D01*
X1480844Y197524D01*
X1478982Y199386D01*
X1476702Y200702D01*
X1474158Y201384D01*
D02*
G37*
G36*
X676702Y200500D02*
X674070D01*
X671526Y199818D01*
X669246Y198502D01*
X667384Y196640D01*
X666068Y194360D01*
X665386Y191817D01*
Y189184D01*
X666068Y186640D01*
X667384Y184360D01*
X669246Y182498D01*
X671526Y181182D01*
X674070Y180500D01*
X676702D01*
X679246Y181182D01*
X681526Y182498D01*
X683388Y184360D01*
X684705Y186640D01*
X685386Y189184D01*
Y191817D01*
X684705Y194360D01*
X683388Y196640D01*
X681526Y198502D01*
X679246Y199818D01*
X676702Y200500D01*
D02*
G37*
G36*
X2246391Y197384D02*
X2181691D01*
Y193924D01*
X2175312D01*
Y179954D01*
Y165984D01*
X2181691D01*
Y162524D01*
X2246391D01*
Y197384D01*
D02*
G37*
G36*
X2166392D02*
X2121692D01*
Y193924D01*
X2115312D01*
Y179954D01*
Y165984D01*
X2121692D01*
Y162524D01*
X2166392D01*
Y165984D01*
X2172772D01*
Y179954D01*
Y193924D01*
X2166392D01*
Y197384D01*
D02*
G37*
G36*
X2106392D02*
X2081692D01*
Y193924D01*
X2075312D01*
Y179954D01*
Y165984D01*
X2081692D01*
Y162524D01*
X2106392D01*
Y165984D01*
X2112772D01*
Y179954D01*
Y193924D01*
X2106392D01*
Y197384D01*
D02*
G37*
G36*
X2066392D02*
X1981693D01*
Y162524D01*
X2066392D01*
Y165984D01*
X2072772D01*
Y179954D01*
Y193924D01*
X2066392D01*
Y197384D01*
D02*
G37*
G36*
X655799Y197130D02*
X591100D01*
Y193670D01*
X584720D01*
Y179700D01*
Y165730D01*
X591100D01*
Y162270D01*
X655799D01*
Y197130D01*
D02*
G37*
G36*
X575800D02*
X531100D01*
Y193670D01*
X524720D01*
Y179700D01*
Y165730D01*
X531100D01*
Y162270D01*
X575800D01*
Y165730D01*
X582180D01*
Y179700D01*
Y193670D01*
X575800D01*
Y197130D01*
D02*
G37*
G36*
X515800D02*
X491100D01*
Y193670D01*
X484720D01*
Y179700D01*
Y165730D01*
X491100D01*
Y162270D01*
X515800D01*
Y165730D01*
X522180D01*
Y179700D01*
Y193670D01*
X515800D01*
Y197130D01*
D02*
G37*
G36*
X475800D02*
X391101D01*
Y162270D01*
X475800D01*
Y165730D01*
X482180D01*
Y179700D01*
Y193670D01*
X475800D01*
Y197130D01*
D02*
G37*
G36*
X4619513Y196114D02*
X4554814D01*
Y192654D01*
X4548434D01*
Y178684D01*
Y164714D01*
X4554814D01*
Y161254D01*
X4619513D01*
Y196114D01*
D02*
G37*
G36*
X4539514D02*
X4494814D01*
Y192654D01*
X4488434D01*
Y178684D01*
Y164714D01*
X4494814D01*
Y161254D01*
X4539514D01*
Y164714D01*
X4545894D01*
Y178684D01*
Y192654D01*
X4539514D01*
Y196114D01*
D02*
G37*
G36*
X4479514D02*
X4454814D01*
Y192654D01*
X4448434D01*
Y178684D01*
Y164714D01*
X4454814D01*
Y161254D01*
X4479514D01*
Y164714D01*
X4485894D01*
Y178684D01*
Y192654D01*
X4479514D01*
Y196114D01*
D02*
G37*
G36*
X4439514D02*
X4354815D01*
Y161254D01*
X4439514D01*
Y164714D01*
X4445894D01*
Y178684D01*
Y192654D01*
X4439514D01*
Y196114D01*
D02*
G37*
G36*
X3042719D02*
X2978019D01*
Y192654D01*
X2971640D01*
Y178684D01*
Y164714D01*
X2978019D01*
Y161254D01*
X3042719D01*
Y196114D01*
D02*
G37*
G36*
X2962720D02*
X2918020D01*
Y192654D01*
X2911640D01*
Y178684D01*
Y164714D01*
X2918020D01*
Y161254D01*
X2962720D01*
Y164714D01*
X2969100D01*
Y178684D01*
Y192654D01*
X2962720D01*
Y196114D01*
D02*
G37*
G36*
X2902720D02*
X2878020D01*
Y192654D01*
X2871640D01*
Y178684D01*
Y164714D01*
X2878020D01*
Y161254D01*
X2902720D01*
Y164714D01*
X2909100D01*
Y178684D01*
Y192654D01*
X2902720D01*
Y196114D01*
D02*
G37*
G36*
X2862720D02*
X2778021D01*
Y161254D01*
X2862720D01*
Y164714D01*
X2869100D01*
Y178684D01*
Y192654D01*
X2862720D01*
Y196114D01*
D02*
G37*
G36*
X1452547D02*
X1387847D01*
Y192654D01*
X1381468D01*
Y178684D01*
Y164714D01*
X1387847D01*
Y161254D01*
X1452547D01*
Y196114D01*
D02*
G37*
G36*
X1372548D02*
X1327848D01*
Y192654D01*
X1321468D01*
Y178684D01*
Y164714D01*
X1327848D01*
Y161254D01*
X1372548D01*
Y164714D01*
X1378928D01*
Y178684D01*
Y192654D01*
X1372548D01*
Y196114D01*
D02*
G37*
G36*
X1312548D02*
X1287848D01*
Y192654D01*
X1281468D01*
Y178684D01*
Y164714D01*
X1287848D01*
Y161254D01*
X1312548D01*
Y164714D01*
X1318928D01*
Y178684D01*
Y192654D01*
X1312548D01*
Y196114D01*
D02*
G37*
G36*
X1272548D02*
X1187849D01*
Y161254D01*
X1272548D01*
Y164714D01*
X1278928D01*
Y178684D01*
Y192654D01*
X1272548D01*
Y196114D01*
D02*
G37*
G36*
X3749828Y195860D02*
X3705128D01*
Y192400D01*
X3698748D01*
Y178430D01*
Y164460D01*
X3705128D01*
Y161000D01*
X3749828D01*
Y164460D01*
X3756208D01*
Y178430D01*
Y192400D01*
X3749828D01*
Y195860D01*
D02*
G37*
G36*
X3689828D02*
X3665128D01*
Y192400D01*
X3658748D01*
Y178430D01*
Y164460D01*
X3665128D01*
Y161000D01*
X3689828D01*
Y164460D01*
X3696208D01*
Y178430D01*
Y192400D01*
X3689828D01*
Y195860D01*
D02*
G37*
G36*
X3649828D02*
X3565129D01*
Y161000D01*
X3649828D01*
Y164460D01*
X3656208D01*
Y178430D01*
Y192400D01*
X3649828D01*
Y195860D01*
D02*
G37*
G36*
X2403854Y158494D02*
X2371854D01*
Y156803D01*
X2370734Y156205D01*
X2370033Y156673D01*
X2367121Y157879D01*
X2364030Y158494D01*
X2360878D01*
X2357787Y157879D01*
X2354875Y156673D01*
X2352255Y154922D01*
X2350616Y153283D01*
X2349754Y152835D01*
X2348893Y153283D01*
X2347254Y154922D01*
X2344633Y156673D01*
X2341721Y157879D01*
X2338630Y158494D01*
X2335478D01*
X2332387Y157879D01*
X2329475Y156673D01*
X2326855Y154922D01*
X2325216Y153283D01*
X2324354Y152835D01*
X2323493Y153283D01*
X2321853Y154922D01*
X2319233Y156673D01*
X2316321Y157879D01*
X2313230Y158494D01*
X2310078D01*
X2306987Y157879D01*
X2304075Y156673D01*
X2301455Y154922D01*
X2299226Y152693D01*
X2297475Y150073D01*
X2296269Y147161D01*
X2295654Y144070D01*
Y140918D01*
X2296269Y137827D01*
X2297475Y134915D01*
X2299226Y132295D01*
X2301455Y130066D01*
X2304075Y128315D01*
X2306987Y127109D01*
X2310078Y126494D01*
X2313230D01*
X2316321Y127109D01*
X2319233Y128315D01*
X2321853Y130066D01*
X2323493Y131705D01*
X2324354Y132153D01*
X2325216Y131705D01*
X2326855Y130066D01*
X2329475Y128315D01*
X2332387Y127109D01*
X2335478Y126494D01*
X2338630D01*
X2341721Y127109D01*
X2344633Y128315D01*
X2347254Y130066D01*
X2348893Y131705D01*
X2349754Y132153D01*
X2350616Y131705D01*
X2352255Y130066D01*
X2354875Y128315D01*
X2357787Y127109D01*
X2360878Y126494D01*
X2364030D01*
X2367121Y127109D01*
X2370033Y128315D01*
X2370734Y128783D01*
X2371854Y128185D01*
Y126494D01*
X2403854D01*
Y158494D01*
D02*
G37*
G36*
X3987290Y157478D02*
X3955290D01*
Y155787D01*
X3954170Y155189D01*
X3953469Y155657D01*
X3950557Y156863D01*
X3947466Y157478D01*
X3944314D01*
X3941223Y156863D01*
X3938311Y155657D01*
X3935691Y153906D01*
X3934052Y152267D01*
X3933190Y151819D01*
X3932328Y152267D01*
X3930689Y153906D01*
X3928069Y155657D01*
X3925157Y156863D01*
X3922066Y157478D01*
X3918914D01*
X3915823Y156863D01*
X3912911Y155657D01*
X3910291Y153906D01*
X3908652Y152267D01*
X3907790Y151819D01*
X3906929Y152267D01*
X3905290Y153906D01*
X3902669Y155657D01*
X3899757Y156863D01*
X3896666Y157478D01*
X3893514D01*
X3890423Y156863D01*
X3887511Y155657D01*
X3884891Y153906D01*
X3882662Y151677D01*
X3880911Y149057D01*
X3879705Y146145D01*
X3879090Y143054D01*
Y139902D01*
X3879705Y136811D01*
X3880911Y133899D01*
X3882662Y131279D01*
X3884891Y129050D01*
X3887511Y127299D01*
X3890423Y126093D01*
X3893514Y125478D01*
X3896666D01*
X3899757Y126093D01*
X3902669Y127299D01*
X3905290Y129050D01*
X3906929Y130689D01*
X3907790Y131137D01*
X3908652Y130689D01*
X3910291Y129050D01*
X3912911Y127299D01*
X3915823Y126093D01*
X3918914Y125478D01*
X3922066D01*
X3925157Y126093D01*
X3928069Y127299D01*
X3930689Y129050D01*
X3932328Y130689D01*
X3933190Y131137D01*
X3934052Y130689D01*
X3935691Y129050D01*
X3938311Y127299D01*
X3941223Y126093D01*
X3944314Y125478D01*
X3947466D01*
X3950557Y126093D01*
X3953469Y127299D01*
X3954170Y127767D01*
X3955290Y127169D01*
Y125478D01*
X3987290D01*
Y157478D01*
D02*
G37*
G36*
X3199636Y156970D02*
X3167636D01*
Y155279D01*
X3166516Y154681D01*
X3165815Y155149D01*
X3162903Y156355D01*
X3159812Y156970D01*
X3156660D01*
X3153569Y156355D01*
X3150657Y155149D01*
X3148037Y153398D01*
X3146398Y151759D01*
X3145536Y151311D01*
X3144675Y151759D01*
X3143036Y153398D01*
X3140415Y155149D01*
X3137503Y156355D01*
X3134412Y156970D01*
X3131260D01*
X3128169Y156355D01*
X3125257Y155149D01*
X3122637Y153398D01*
X3120998Y151759D01*
X3120136Y151311D01*
X3119275Y151759D01*
X3117635Y153398D01*
X3115015Y155149D01*
X3112103Y156355D01*
X3109012Y156970D01*
X3105860D01*
X3102769Y156355D01*
X3099857Y155149D01*
X3097237Y153398D01*
X3095008Y151169D01*
X3093257Y148549D01*
X3092051Y145637D01*
X3091436Y142546D01*
Y139394D01*
X3092051Y136303D01*
X3093257Y133391D01*
X3095008Y130771D01*
X3097237Y128542D01*
X3099857Y126791D01*
X3102769Y125585D01*
X3105860Y124970D01*
X3109012D01*
X3112103Y125585D01*
X3115015Y126791D01*
X3117635Y128542D01*
X3119275Y130181D01*
X3120136Y130629D01*
X3120998Y130181D01*
X3122637Y128542D01*
X3125257Y126791D01*
X3128169Y125585D01*
X3131260Y124970D01*
X3134412D01*
X3137503Y125585D01*
X3140415Y126791D01*
X3143036Y128542D01*
X3144675Y130181D01*
X3145536Y130629D01*
X3146398Y130181D01*
X3148037Y128542D01*
X3150657Y126791D01*
X3153569Y125585D01*
X3156660Y124970D01*
X3159812D01*
X3162903Y125585D01*
X3165815Y126791D01*
X3166516Y127259D01*
X3167636Y126661D01*
Y124970D01*
X3199636D01*
Y156970D01*
D02*
G37*
G36*
X1609088D02*
X1577088D01*
Y155279D01*
X1575968Y154681D01*
X1575267Y155149D01*
X1572355Y156355D01*
X1569264Y156970D01*
X1566112D01*
X1563021Y156355D01*
X1560109Y155149D01*
X1557489Y153398D01*
X1555850Y151759D01*
X1554988Y151311D01*
X1554127Y151759D01*
X1552487Y153398D01*
X1549867Y155149D01*
X1546955Y156355D01*
X1543864Y156970D01*
X1540712D01*
X1537621Y156355D01*
X1534709Y155149D01*
X1532089Y153398D01*
X1530450Y151759D01*
X1529588Y151311D01*
X1528727Y151759D01*
X1527088Y153398D01*
X1524467Y155149D01*
X1521555Y156355D01*
X1518464Y156970D01*
X1515312D01*
X1512221Y156355D01*
X1509309Y155149D01*
X1506689Y153398D01*
X1504460Y151169D01*
X1502709Y148549D01*
X1501503Y145637D01*
X1500888Y142546D01*
Y139394D01*
X1501503Y136303D01*
X1502709Y133391D01*
X1504460Y130771D01*
X1506689Y128542D01*
X1509309Y126791D01*
X1512221Y125585D01*
X1515312Y124970D01*
X1518464D01*
X1521555Y125585D01*
X1524467Y126791D01*
X1527088Y128542D01*
X1528727Y130181D01*
X1529588Y130629D01*
X1530450Y130181D01*
X1532089Y128542D01*
X1534709Y126791D01*
X1537621Y125585D01*
X1540712Y124970D01*
X1543864D01*
X1546955Y125585D01*
X1549867Y126791D01*
X1552487Y128542D01*
X1554127Y130181D01*
X1554988Y130629D01*
X1555850Y130181D01*
X1557489Y128542D01*
X1560109Y126791D01*
X1563021Y125585D01*
X1566112Y124970D01*
X1569264D01*
X1572355Y125585D01*
X1575267Y126791D01*
X1575968Y127259D01*
X1577088Y126661D01*
Y124970D01*
X1609088D01*
Y156970D01*
D02*
G37*
G36*
X813306D02*
X781306D01*
Y155279D01*
X780186Y154681D01*
X779485Y155149D01*
X776573Y156355D01*
X773482Y156970D01*
X770330D01*
X767239Y156355D01*
X764327Y155149D01*
X761707Y153398D01*
X760068Y151759D01*
X759206Y151311D01*
X758345Y151759D01*
X756705Y153398D01*
X754085Y155149D01*
X751173Y156355D01*
X748082Y156970D01*
X744930D01*
X741839Y156355D01*
X738927Y155149D01*
X736307Y153398D01*
X734668Y151759D01*
X733806Y151311D01*
X732945Y151759D01*
X731305Y153398D01*
X728685Y155149D01*
X725773Y156355D01*
X722682Y156970D01*
X719530D01*
X716439Y156355D01*
X713527Y155149D01*
X710907Y153398D01*
X708678Y151169D01*
X706927Y148549D01*
X705721Y145637D01*
X705106Y142546D01*
Y139394D01*
X705721Y136303D01*
X706927Y133391D01*
X708678Y130771D01*
X710907Y128542D01*
X713527Y126791D01*
X716439Y125585D01*
X719530Y124970D01*
X722682D01*
X725773Y125585D01*
X728685Y126791D01*
X731305Y128542D01*
X732945Y130181D01*
X733806Y130629D01*
X734668Y130181D01*
X736307Y128542D01*
X738927Y126791D01*
X741839Y125585D01*
X744930Y124970D01*
X748082D01*
X751173Y125585D01*
X754085Y126791D01*
X756705Y128542D01*
X758345Y130181D01*
X759206Y130629D01*
X760068Y130181D01*
X761707Y128542D01*
X764327Y126791D01*
X767239Y125585D01*
X770330Y124970D01*
X773482D01*
X776573Y125585D01*
X779485Y126791D01*
X780186Y127259D01*
X781306Y126661D01*
Y124970D01*
X813306D01*
Y156970D01*
D02*
G37*
G36*
X4776722Y156208D02*
X4744722D01*
Y154517D01*
X4743602Y153919D01*
X4742901Y154387D01*
X4739989Y155593D01*
X4736898Y156208D01*
X4733746D01*
X4730655Y155593D01*
X4727743Y154387D01*
X4725123Y152636D01*
X4723484Y150997D01*
X4722622Y150549D01*
X4721761Y150997D01*
X4720121Y152636D01*
X4717501Y154387D01*
X4714589Y155593D01*
X4711498Y156208D01*
X4708346D01*
X4705255Y155593D01*
X4702343Y154387D01*
X4699723Y152636D01*
X4698083Y150997D01*
X4697222Y150549D01*
X4696360Y150997D01*
X4694721Y152636D01*
X4692101Y154387D01*
X4689189Y155593D01*
X4686098Y156208D01*
X4682946D01*
X4679855Y155593D01*
X4676943Y154387D01*
X4674323Y152636D01*
X4672094Y150407D01*
X4670343Y147787D01*
X4669137Y144875D01*
X4668522Y141784D01*
Y138632D01*
X4669137Y135541D01*
X4670343Y132629D01*
X4672094Y130009D01*
X4674323Y127780D01*
X4676943Y126029D01*
X4679855Y124823D01*
X4682946Y124208D01*
X4686098D01*
X4689189Y124823D01*
X4692101Y126029D01*
X4694721Y127780D01*
X4696360Y129419D01*
X4697222Y129867D01*
X4698083Y129419D01*
X4699723Y127780D01*
X4702343Y126029D01*
X4705255Y124823D01*
X4708346Y124208D01*
X4711498D01*
X4714589Y124823D01*
X4717501Y126029D01*
X4720121Y127780D01*
X4721761Y129419D01*
X4722622Y129867D01*
X4723484Y129419D01*
X4725123Y127780D01*
X4727743Y126029D01*
X4730655Y124823D01*
X4733746Y124208D01*
X4736898D01*
X4739989Y124823D01*
X4742901Y126029D01*
X4743602Y126497D01*
X4744722Y125899D01*
Y124208D01*
X4776722D01*
Y156208D01*
D02*
G37*
G36*
X320346Y160008D02*
X320294D01*
Y151238D01*
X329064D01*
Y151290D01*
X328380Y153843D01*
X327058Y156133D01*
X325189Y158002D01*
X322899Y159324D01*
X320346Y160008D01*
D02*
G37*
G36*
X317754D02*
X317702D01*
X315149Y159324D01*
X312859Y158002D01*
X310990Y156133D01*
X309668Y153843D01*
X308984Y151290D01*
Y151238D01*
X317754D01*
Y160008D01*
D02*
G37*
G36*
X1113588Y159900D02*
X1113536D01*
Y151130D01*
X1122306D01*
Y151182D01*
X1121622Y153735D01*
X1120300Y156025D01*
X1118431Y157894D01*
X1116141Y159216D01*
X1113588Y159900D01*
D02*
G37*
G36*
X1110996D02*
X1110944D01*
X1108391Y159216D01*
X1106101Y157894D01*
X1104232Y156025D01*
X1102910Y153735D01*
X1102226Y151182D01*
Y151130D01*
X1110996D01*
Y159900D01*
D02*
G37*
G36*
X3492298Y158630D02*
X3492246D01*
Y149860D01*
X3501016D01*
Y149912D01*
X3500332Y152465D01*
X3499010Y154755D01*
X3497141Y156624D01*
X3494851Y157946D01*
X3492298Y158630D01*
D02*
G37*
G36*
X3489706D02*
X3489654D01*
X3487101Y157946D01*
X3484811Y156624D01*
X3482942Y154755D01*
X3481620Y152465D01*
X3480936Y149912D01*
Y149860D01*
X3489706D01*
Y158630D01*
D02*
G37*
G36*
X4281730Y158484D02*
X4281678D01*
Y149714D01*
X4290448D01*
Y149766D01*
X4289764Y152319D01*
X4288442Y154609D01*
X4286573Y156478D01*
X4284283Y157800D01*
X4281730Y158484D01*
D02*
G37*
G36*
X4279138D02*
X4279086D01*
X4276533Y157800D01*
X4274243Y156478D01*
X4272374Y154609D01*
X4271052Y152319D01*
X4270368Y149766D01*
Y149714D01*
X4279138D01*
Y158484D01*
D02*
G37*
G36*
X1908608Y158376D02*
X1908556D01*
Y149606D01*
X1917326D01*
Y149658D01*
X1916642Y152211D01*
X1915320Y154501D01*
X1913451Y156370D01*
X1911161Y157692D01*
X1908608Y158376D01*
D02*
G37*
G36*
X1906016D02*
X1905964D01*
X1903411Y157692D01*
X1901121Y156370D01*
X1899252Y154501D01*
X1897930Y152211D01*
X1897246Y149658D01*
Y149606D01*
X1906016D01*
Y158376D01*
D02*
G37*
G36*
X2705152Y156960D02*
X2705100D01*
Y148190D01*
X2713870D01*
Y148242D01*
X2713186Y150795D01*
X2711864Y153085D01*
X2709995Y154954D01*
X2707705Y156276D01*
X2705152Y156960D01*
D02*
G37*
G36*
X2702560D02*
X2702508D01*
X2699955Y156276D01*
X2697665Y154954D01*
X2695796Y153085D01*
X2694474Y150795D01*
X2693790Y148242D01*
Y148190D01*
X2702560D01*
Y156960D01*
D02*
G37*
G36*
X171558Y148958D02*
Y141986D01*
X178530D01*
X178013Y143916D01*
X176922Y145806D01*
X175378Y147350D01*
X173488Y148441D01*
X171558Y148958D01*
D02*
G37*
G36*
X2232931Y153924D02*
X2225311D01*
Y141224D01*
X2232931D01*
Y153924D01*
D02*
G37*
G36*
X642339Y153670D02*
X634719D01*
Y140970D01*
X642339D01*
Y153670D01*
D02*
G37*
G36*
X4606053Y152654D02*
X4598434D01*
Y139954D01*
X4606053D01*
Y152654D01*
D02*
G37*
G36*
X1439087D02*
X1431467D01*
Y139954D01*
X1439087D01*
Y152654D01*
D02*
G37*
G36*
X3029260D02*
X3021639D01*
Y139954D01*
X3029260D01*
Y152654D01*
D02*
G37*
G36*
X329064Y148698D02*
X320294D01*
Y139928D01*
X320346D01*
X322899Y140612D01*
X325189Y141934D01*
X327058Y143803D01*
X328380Y146093D01*
X329064Y148646D01*
Y148698D01*
D02*
G37*
G36*
X317754D02*
X308984D01*
Y148646D01*
X309668Y146093D01*
X310990Y143803D01*
X312859Y141934D01*
X315149Y140612D01*
X317702Y139928D01*
X317754D01*
Y148698D01*
D02*
G37*
G36*
X1122306Y148590D02*
X1113536D01*
Y139820D01*
X1113588D01*
X1116141Y140504D01*
X1118431Y141826D01*
X1120300Y143695D01*
X1121622Y145985D01*
X1122306Y148538D01*
Y148590D01*
D02*
G37*
G36*
X1110996D02*
X1102226D01*
Y148538D01*
X1102910Y145985D01*
X1104232Y143695D01*
X1106101Y141826D01*
X1108391Y140504D01*
X1110944Y139820D01*
X1110996D01*
Y148590D01*
D02*
G37*
G36*
X3816367Y152400D02*
X3808748D01*
Y139700D01*
X3816367D01*
Y152400D01*
D02*
G37*
G36*
X3501016Y147320D02*
X3492246D01*
Y138550D01*
X3492298D01*
X3494851Y139234D01*
X3497141Y140556D01*
X3499010Y142425D01*
X3500332Y144715D01*
X3501016Y147268D01*
Y147320D01*
D02*
G37*
G36*
X3489706D02*
X3480936D01*
Y147268D01*
X3481620Y144715D01*
X3482942Y142425D01*
X3484811Y140556D01*
X3487101Y139234D01*
X3489654Y138550D01*
X3489706D01*
Y147320D01*
D02*
G37*
G36*
X4290448Y147174D02*
X4281678D01*
Y138404D01*
X4281730D01*
X4284283Y139088D01*
X4286573Y140410D01*
X4288442Y142279D01*
X4289764Y144569D01*
X4290448Y147122D01*
Y147174D01*
D02*
G37*
G36*
X4279138D02*
X4270368D01*
Y147122D01*
X4271052Y144569D01*
X4272374Y142279D01*
X4274243Y140410D01*
X4276533Y139088D01*
X4279086Y138404D01*
X4279138D01*
Y147174D01*
D02*
G37*
G36*
X1917326Y147066D02*
X1908556D01*
Y138296D01*
X1908608D01*
X1911161Y138980D01*
X1913451Y140302D01*
X1915320Y142171D01*
X1916642Y144461D01*
X1917326Y147014D01*
Y147066D01*
D02*
G37*
G36*
X1906016D02*
X1897246D01*
Y147014D01*
X1897930Y144461D01*
X1899252Y142171D01*
X1901121Y140302D01*
X1903411Y138980D01*
X1905964Y138296D01*
X1906016D01*
Y147066D01*
D02*
G37*
G36*
X2713870Y145650D02*
X2705100D01*
Y136880D01*
X2705152D01*
X2707705Y137564D01*
X2709995Y138886D01*
X2711864Y140755D01*
X2713186Y143045D01*
X2713870Y145598D01*
Y145650D01*
D02*
G37*
G36*
X2702560D02*
X2693790D01*
Y145598D01*
X2694474Y143045D01*
X2695796Y140755D01*
X2697665Y138886D01*
X2699955Y137564D01*
X2702508Y136880D01*
X2702560D01*
Y145650D01*
D02*
G37*
G36*
X178530Y139446D02*
X171558D01*
Y132474D01*
X173488Y132991D01*
X175378Y134082D01*
X176922Y135626D01*
X178013Y137516D01*
X178530Y139446D01*
D02*
G37*
G36*
X3849925Y148684D02*
X3847292D01*
X3844748Y148003D01*
X3842468Y146686D01*
X3840606Y144824D01*
X3839290Y142544D01*
X3838608Y140000D01*
Y137367D01*
X3839290Y134824D01*
X3840606Y132544D01*
X3842468Y130682D01*
X3844748Y129366D01*
X3847292Y128684D01*
X3849925D01*
X3852468Y129366D01*
X3854748Y130682D01*
X3856610Y132544D01*
X3857927Y134824D01*
X3858608Y137367D01*
Y140000D01*
X3857927Y142544D01*
X3856610Y144824D01*
X3854748Y146686D01*
X3852468Y148003D01*
X3849925Y148684D01*
D02*
G37*
G36*
X672131Y147922D02*
X669498D01*
X666954Y147240D01*
X664674Y145924D01*
X662812Y144062D01*
X661496Y141782D01*
X660814Y139239D01*
Y136606D01*
X661496Y134062D01*
X662812Y131782D01*
X664674Y129920D01*
X666954Y128603D01*
X669498Y127922D01*
X672131D01*
X674674Y128603D01*
X676954Y129920D01*
X678816Y131782D01*
X680133Y134062D01*
X680814Y136606D01*
Y139239D01*
X680133Y141782D01*
X678816Y144062D01*
X676954Y145924D01*
X674674Y147240D01*
X672131Y147922D01*
D02*
G37*
G36*
X1471977Y147386D02*
X1469344D01*
X1466800Y146704D01*
X1464520Y145388D01*
X1462658Y143526D01*
X1461342Y141246D01*
X1460660Y138702D01*
Y136069D01*
X1461342Y133526D01*
X1462658Y131246D01*
X1464520Y129384D01*
X1466800Y128067D01*
X1469344Y127386D01*
X1471977D01*
X1474520Y128067D01*
X1476800Y129384D01*
X1478662Y131246D01*
X1479979Y133526D01*
X1480660Y136069D01*
Y138702D01*
X1479979Y141246D01*
X1478662Y143526D01*
X1476800Y145388D01*
X1474520Y146704D01*
X1471977Y147386D01*
D02*
G37*
G36*
X39370Y133464D02*
Y126492D01*
X46342D01*
X45825Y128422D01*
X44734Y130312D01*
X43190Y131856D01*
X41300Y132947D01*
X39370Y133464D01*
D02*
G37*
G36*
X36830Y133464D02*
X34900Y132947D01*
X33010Y131856D01*
X31467Y130312D01*
X30375Y128422D01*
X29858Y126492D01*
X36830D01*
Y133464D01*
D02*
G37*
G36*
X2232931Y138684D02*
X2225311D01*
Y125984D01*
X2232931D01*
Y138684D01*
D02*
G37*
G36*
X642339Y138430D02*
X634719D01*
Y125730D01*
X642339D01*
Y138430D01*
D02*
G37*
G36*
X2266234Y145128D02*
X2263602D01*
X2261058Y144446D01*
X2258778Y143130D01*
X2256916Y141268D01*
X2255600Y138988D01*
X2254918Y136445D01*
Y133812D01*
X2255600Y131268D01*
X2256916Y128988D01*
X2258778Y127126D01*
X2261058Y125809D01*
X2263602Y125128D01*
X2266234D01*
X2268778Y125809D01*
X2271058Y127126D01*
X2272920Y128988D01*
X2274236Y131268D01*
X2274918Y133812D01*
Y136445D01*
X2274236Y138988D01*
X2272920Y141268D01*
X2271058Y143130D01*
X2268778Y144446D01*
X2266234Y145128D01*
D02*
G37*
G36*
X4606053Y137414D02*
X4598434D01*
Y124714D01*
X4606053D01*
Y137414D01*
D02*
G37*
G36*
X3029260Y137414D02*
X3021639D01*
Y124714D01*
X3029260D01*
Y137414D01*
D02*
G37*
G36*
X1439087Y137414D02*
X1431467D01*
Y124714D01*
X1439087D01*
Y137414D01*
D02*
G37*
G36*
X3060746Y144488D02*
X3058113D01*
X3055570Y143806D01*
X3053290Y142490D01*
X3051428Y140628D01*
X3050111Y138348D01*
X3049430Y135804D01*
Y133171D01*
X3050111Y130628D01*
X3051428Y128348D01*
X3053290Y126486D01*
X3055570Y125169D01*
X3058113Y124488D01*
X3060746D01*
X3063290Y125169D01*
X3065570Y126486D01*
X3067432Y128348D01*
X3068748Y130628D01*
X3069430Y133171D01*
Y135804D01*
X3068748Y138348D01*
X3067432Y140628D01*
X3065570Y142490D01*
X3063290Y143806D01*
X3060746Y144488D01*
D02*
G37*
G36*
X3816367Y137160D02*
X3808748D01*
Y124460D01*
X3816367D01*
Y137160D01*
D02*
G37*
G36*
X4640616Y142946D02*
X4637983D01*
X4635440Y142265D01*
X4633160Y140948D01*
X4631298Y139086D01*
X4629981Y136806D01*
X4629300Y134263D01*
Y131630D01*
X4629981Y129086D01*
X4631298Y126806D01*
X4633160Y124944D01*
X4635440Y123628D01*
X4637983Y122946D01*
X4640616D01*
X4643160Y123628D01*
X4645440Y124944D01*
X4647302Y126806D01*
X4648618Y129086D01*
X4649300Y131630D01*
Y134263D01*
X4648618Y136806D01*
X4647302Y139086D01*
X4645440Y140948D01*
X4643160Y142265D01*
X4640616Y142946D01*
D02*
G37*
G36*
X2216391Y157384D02*
X2171691D01*
Y153924D01*
X2165312D01*
Y139954D01*
Y125984D01*
X2171691D01*
Y122524D01*
X2216391D01*
Y125984D01*
X2222771D01*
Y139954D01*
Y153924D01*
X2216391D01*
Y157384D01*
D02*
G37*
G36*
X625799Y157130D02*
X581100D01*
Y153670D01*
X574720D01*
Y139700D01*
Y125730D01*
X581100D01*
Y122270D01*
X625799D01*
Y125730D01*
X632179D01*
Y139700D01*
Y153670D01*
X625799D01*
Y157130D01*
D02*
G37*
G36*
X4589514Y156114D02*
X4544814D01*
Y152654D01*
X4538434D01*
Y138684D01*
Y124714D01*
X4544814D01*
Y121254D01*
X4589514D01*
Y124714D01*
X4595894D01*
Y138684D01*
Y152654D01*
X4589514D01*
Y156114D01*
D02*
G37*
G36*
X3012719D02*
X2968020D01*
Y152654D01*
X2961640D01*
Y138684D01*
Y124714D01*
X2968020D01*
Y121254D01*
X3012719D01*
Y124714D01*
X3019099D01*
Y138684D01*
Y152654D01*
X3012719D01*
Y156114D01*
D02*
G37*
G36*
X1422547D02*
X1377847D01*
Y152654D01*
X1371468D01*
Y138684D01*
Y124714D01*
X1377847D01*
Y121254D01*
X1422547D01*
Y124714D01*
X1428927D01*
Y138684D01*
Y152654D01*
X1422547D01*
Y156114D01*
D02*
G37*
G36*
X3799827Y155860D02*
X3755128D01*
Y152400D01*
X3748748D01*
Y138430D01*
Y124460D01*
X3755128D01*
Y121000D01*
X3799827D01*
Y124460D01*
X3806208D01*
Y138430D01*
Y152400D01*
X3799827D01*
Y155860D01*
D02*
G37*
G36*
X4847111Y167772D02*
X4842481D01*
X4837941Y166869D01*
X4833665Y165097D01*
X4829816Y162526D01*
X4826542Y159252D01*
X4823971Y155403D01*
X4822199Y151127D01*
X4821296Y146587D01*
Y141958D01*
X4822199Y137417D01*
X4823971Y133141D01*
X4826542Y129292D01*
X4829816Y126018D01*
X4833665Y123447D01*
X4837941Y121675D01*
X4842481Y120772D01*
X4847111D01*
X4851651Y121675D01*
X4855927Y123447D01*
X4859776Y126018D01*
X4863050Y129292D01*
X4865621Y133141D01*
X4867393Y137417D01*
X4868296Y141958D01*
Y146587D01*
X4867393Y151127D01*
X4865621Y155403D01*
X4863050Y159252D01*
X4859776Y162526D01*
X4855927Y165097D01*
X4851651Y166869D01*
X4847111Y167772D01*
D02*
G37*
G36*
X36830Y123952D02*
X29858D01*
X30375Y122022D01*
X31467Y120132D01*
X33010Y118588D01*
X34900Y117497D01*
X36830Y116980D01*
Y123952D01*
D02*
G37*
G36*
X46342D02*
X39370D01*
Y116980D01*
X41300Y117497D01*
X43190Y118588D01*
X44734Y120132D01*
X45825Y122022D01*
X46342Y123952D01*
D02*
G37*
G36*
X332524Y138468D02*
X305524D01*
Y111468D01*
X332524D01*
Y138468D01*
D02*
G37*
G36*
X1125766Y138360D02*
X1098766D01*
Y111360D01*
X1125766D01*
Y138360D01*
D02*
G37*
G36*
X4293908Y136944D02*
X4266908D01*
Y109944D01*
X4293908D01*
Y136944D01*
D02*
G37*
G36*
X1920786Y136836D02*
X1893786D01*
Y109836D01*
X1920786D01*
Y136836D01*
D02*
G37*
G36*
X2717330Y135420D02*
X2690330D01*
Y108420D01*
X2717330D01*
Y135420D01*
D02*
G37*
G36*
X239550Y155326D02*
X234921D01*
X230381Y154423D01*
X226105Y152651D01*
X222256Y150080D01*
X218982Y146806D01*
X216411Y142957D01*
X214639Y138681D01*
X213736Y134141D01*
Y129511D01*
X214639Y124971D01*
X216411Y120695D01*
X218982Y116846D01*
X222256Y113572D01*
X226105Y111001D01*
X230381Y109229D01*
X234921Y108326D01*
X239550D01*
X244091Y109229D01*
X248367Y111001D01*
X252216Y113572D01*
X255490Y116846D01*
X258061Y120695D01*
X259833Y124971D01*
X260736Y129511D01*
Y134141D01*
X259833Y138681D01*
X258061Y142957D01*
X255490Y146806D01*
X252216Y150080D01*
X248367Y152651D01*
X244091Y154423D01*
X239550Y155326D01*
D02*
G37*
G36*
X388413Y333850D02*
X385780D01*
X383236Y333168D01*
X380956Y331852D01*
X379094Y329990D01*
X377778Y327710D01*
X377096Y325167D01*
Y324618D01*
X353772Y301294D01*
X352505Y299643D01*
X351709Y297720D01*
X351437Y295656D01*
Y163322D01*
X351709Y161258D01*
X352505Y159335D01*
X353772Y157684D01*
X404318Y107138D01*
X405970Y105871D01*
X407892Y105075D01*
X409956Y104803D01*
X464566D01*
X466630Y105075D01*
X468553Y105871D01*
X470204Y107138D01*
X479088Y116022D01*
X480355Y117674D01*
X481152Y119597D01*
X481423Y121660D01*
Y122270D01*
X565800D01*
Y125730D01*
X572180D01*
Y139700D01*
Y153670D01*
X565800D01*
Y157130D01*
X401118D01*
Y134549D01*
X399945Y134063D01*
X367383Y166625D01*
Y292353D01*
X389051Y314021D01*
X390956Y314531D01*
X393236Y315848D01*
X395098Y317710D01*
X396415Y319990D01*
X397096Y322533D01*
Y325167D01*
X396415Y327710D01*
X395098Y329990D01*
X393236Y331852D01*
X390956Y333168D01*
X388413Y333850D01*
D02*
G37*
G36*
X4203493Y332326D02*
X4200860D01*
X4198316Y331645D01*
X4196036Y330328D01*
X4194174Y328466D01*
X4192858Y326186D01*
X4192176Y323643D01*
Y321009D01*
X4192858Y318466D01*
X4194174Y316186D01*
X4194203Y316157D01*
Y296418D01*
X4194474Y294354D01*
X4195271Y292431D01*
X4196538Y290780D01*
X4321711Y165607D01*
Y144272D01*
X4321983Y142208D01*
X4322779Y140285D01*
X4324046Y138634D01*
X4356050Y106630D01*
X4357701Y105363D01*
X4359625Y104566D01*
X4361688Y104295D01*
X4431792D01*
X4433856Y104566D01*
X4435779Y105363D01*
X4437430Y106630D01*
X4442802Y112002D01*
X4444069Y113653D01*
X4444866Y115576D01*
X4445137Y117640D01*
Y121254D01*
X4529514D01*
Y124714D01*
X4535894D01*
Y138684D01*
Y152654D01*
X4529514D01*
Y156114D01*
X4364832D01*
Y122196D01*
X4363562Y121670D01*
X4337657Y147575D01*
Y168910D01*
X4337386Y170974D01*
X4336589Y172897D01*
X4335322Y174548D01*
X4210149Y299721D01*
Y316157D01*
X4210178Y316186D01*
X4211495Y318466D01*
X4212176Y321009D01*
Y323643D01*
X4211495Y326186D01*
X4210178Y328466D01*
X4208316Y330328D01*
X4206036Y331645D01*
X4203493Y332326D01*
D02*
G37*
G36*
X1779063Y330040D02*
X1776430D01*
X1773886Y329358D01*
X1771606Y328042D01*
X1769744Y326180D01*
X1768428Y323900D01*
X1767746Y321357D01*
Y318724D01*
X1768428Y316180D01*
X1769744Y313900D01*
X1769773Y313871D01*
Y310388D01*
X1770045Y308324D01*
X1770841Y306401D01*
X1772108Y304750D01*
X1971498Y105360D01*
X1973150Y104093D01*
X1975072Y103296D01*
X1977136Y103025D01*
X2050034D01*
X2052098Y103296D01*
X2054021Y104093D01*
X2055672Y105360D01*
X2069680Y119368D01*
X2070947Y121019D01*
X2071570Y122524D01*
X2156392D01*
Y125984D01*
X2162772D01*
Y139954D01*
Y153924D01*
X2156392D01*
Y157384D01*
X1991710D01*
Y122524D01*
X2048625D01*
X2049111Y121351D01*
X2046732Y118971D01*
X1980439D01*
X1785719Y313691D01*
Y313871D01*
X1785748Y313900D01*
X1787065Y316180D01*
X1787746Y318724D01*
Y321357D01*
X1787065Y323900D01*
X1785748Y326180D01*
X1783886Y328042D01*
X1781606Y329358D01*
X1779063Y330040D01*
D02*
G37*
G36*
X2623867Y340200D02*
X2621234D01*
X2618690Y339519D01*
X2616410Y338202D01*
X2614548Y336340D01*
X2613232Y334060D01*
X2612550Y331516D01*
Y328884D01*
X2613232Y326340D01*
X2614548Y324060D01*
X2614577Y324031D01*
Y260350D01*
X2614849Y258286D01*
X2615645Y256363D01*
X2616912Y254712D01*
X2768042Y103582D01*
X2769694Y102315D01*
X2771617Y101518D01*
X2773680Y101247D01*
X2852928D01*
X2854992Y101518D01*
X2856915Y102315D01*
X2858566Y103582D01*
X2866008Y111024D01*
X2867275Y112676D01*
X2868072Y114599D01*
X2868344Y116662D01*
Y121254D01*
X2952720D01*
Y124714D01*
X2959100D01*
Y138684D01*
Y152654D01*
X2952720D01*
Y156114D01*
X2788038D01*
Y121254D01*
X2852397D01*
Y119965D01*
X2849626Y117193D01*
X2776983D01*
X2630523Y263653D01*
Y324031D01*
X2630552Y324060D01*
X2631869Y326340D01*
X2632550Y328884D01*
Y331516D01*
X2631869Y334060D01*
X2630552Y336340D01*
X2628690Y338202D01*
X2626410Y339519D01*
X2623867Y340200D01*
D02*
G37*
G36*
X3412283Y338930D02*
X3409650D01*
X3407106Y338248D01*
X3404826Y336932D01*
X3402964Y335070D01*
X3401648Y332790D01*
X3400966Y330247D01*
Y327613D01*
X3401648Y325070D01*
X3402964Y322790D01*
X3402993Y322761D01*
Y289814D01*
X3403264Y287750D01*
X3404061Y285827D01*
X3405328Y284176D01*
X3504974Y184530D01*
Y139065D01*
X3505101Y138101D01*
X3503953Y137090D01*
X3477476D01*
Y110090D01*
X3504476D01*
Y135540D01*
X3505746Y135793D01*
X3506042Y135078D01*
X3507309Y133427D01*
X3543504Y97232D01*
X3545156Y95965D01*
X3547079Y95169D01*
X3549142Y94897D01*
X3630676D01*
X3632740Y95169D01*
X3634663Y95965D01*
X3636314Y97232D01*
X3653116Y114034D01*
X3654383Y115686D01*
X3655180Y117608D01*
X3655451Y119672D01*
Y121000D01*
X3739828D01*
Y124460D01*
X3746208D01*
Y138430D01*
Y152400D01*
X3739828D01*
Y155860D01*
X3575146D01*
Y121000D01*
X3635871D01*
X3636357Y119827D01*
X3627373Y110843D01*
X3552445D01*
X3520920Y142368D01*
Y187833D01*
X3520648Y189897D01*
X3519852Y191820D01*
X3518585Y193471D01*
X3418939Y293117D01*
Y322761D01*
X3418968Y322790D01*
X3420285Y325070D01*
X3420966Y327613D01*
Y330247D01*
X3420285Y332790D01*
X3418968Y335070D01*
X3417106Y336932D01*
X3414826Y338248D01*
X3412283Y338930D01*
D02*
G37*
G36*
X1032049Y329278D02*
X1029416D01*
X1026872Y328596D01*
X1024592Y327280D01*
X1022730Y325418D01*
X1021414Y323138D01*
X1020732Y320594D01*
Y317962D01*
X1021414Y315418D01*
X1022730Y313138D01*
X1022759Y313109D01*
Y281383D01*
X1023031Y279320D01*
X1023827Y277397D01*
X1025094Y275745D01*
X1204877Y95962D01*
X1206529Y94695D01*
X1208452Y93898D01*
X1210515Y93627D01*
X1264158D01*
X1266222Y93898D01*
X1268145Y94695D01*
X1269796Y95962D01*
X1275836Y102002D01*
X1277103Y103653D01*
X1277900Y105576D01*
X1278171Y107640D01*
Y121254D01*
X1362548D01*
Y124714D01*
X1368928D01*
Y138684D01*
Y152654D01*
X1362548D01*
Y156114D01*
X1197866D01*
Y127184D01*
X1196693Y126698D01*
X1038705Y284686D01*
Y313109D01*
X1038734Y313138D01*
X1040051Y315418D01*
X1040732Y317962D01*
Y320594D01*
X1040051Y323138D01*
X1038734Y325418D01*
X1036872Y327280D01*
X1034592Y328596D01*
X1032049Y329278D01*
D02*
G37*
G36*
X65436Y69436D02*
X62803D01*
X60260Y68755D01*
X57980Y67438D01*
X56118Y65576D01*
X55571Y64629D01*
X54648Y63792D01*
X27648D01*
Y36792D01*
X54648D01*
Y53301D01*
X55918Y53642D01*
X56118Y53296D01*
X57980Y51434D01*
X60260Y50118D01*
X62803Y49436D01*
X65436D01*
X67980Y50118D01*
X70260Y51434D01*
X72122Y53296D01*
X73438Y55576D01*
X74120Y58120D01*
Y60753D01*
X73438Y63296D01*
X72122Y65576D01*
X70260Y67438D01*
X67980Y68755D01*
X65436Y69436D01*
D02*
G37*
G36*
X42470Y34932D02*
X42418D01*
Y26162D01*
X51188D01*
Y26214D01*
X50504Y28767D01*
X49182Y31057D01*
X47313Y32926D01*
X45023Y34248D01*
X42470Y34932D01*
D02*
G37*
G36*
X39878D02*
X39826D01*
X37273Y34248D01*
X34983Y32926D01*
X33114Y31057D01*
X31792Y28767D01*
X31108Y26214D01*
Y26162D01*
X39878D01*
Y34932D01*
D02*
G37*
G36*
X51188Y23622D02*
X42418D01*
Y14852D01*
X42470D01*
X45023Y15536D01*
X47313Y16858D01*
X49182Y18727D01*
X50504Y21017D01*
X51188Y23570D01*
Y23622D01*
D02*
G37*
G36*
X39878D02*
X31108D01*
Y23570D01*
X31792Y21017D01*
X33114Y18727D01*
X34983Y16858D01*
X37273Y15536D01*
X39826Y14852D01*
X39878D01*
Y23622D01*
D02*
G37*
%LPD*%
G36*
X127961Y261786D02*
X132367Y260606D01*
X136582Y258860D01*
X140532Y256579D01*
X144151Y253803D01*
X147377Y250577D01*
X150154Y246958D01*
X152434Y243008D01*
X154180Y238793D01*
X155361Y234387D01*
X155956Y229865D01*
Y227584D01*
X155956Y227584D01*
X155956Y122936D01*
X155956Y120788D01*
X155395Y116530D01*
X154284Y112381D01*
X152640Y108413D01*
X150492Y104693D01*
X147878Y101285D01*
X144841Y98248D01*
X141433Y95634D01*
X137713Y93486D01*
X133745Y91842D01*
X129596Y90731D01*
X125338Y90170D01*
X123190Y90170D01*
X123190Y90170D01*
X107058D01*
X102429Y90775D01*
X97918Y91976D01*
X93601Y93751D01*
X89550Y96071D01*
X85835Y98897D01*
X82517Y102180D01*
X79653Y105866D01*
X77291Y109893D01*
X75472Y114191D01*
X74225Y118690D01*
X73572Y123312D01*
X73548Y125645D01*
Y125645D01*
X72355Y241178D01*
X72333Y243258D01*
X73109Y247347D01*
X74671Y251204D01*
X76961Y254679D01*
X79888Y257637D01*
X83340Y259962D01*
X87180Y261565D01*
X91261Y262382D01*
X93342Y262382D01*
X93342Y262382D01*
X123439D01*
X127961Y261786D01*
D02*
G37*
G36*
X1262225Y110943D02*
X1260855Y109573D01*
X1213818D01*
X1203310Y120081D01*
X1203797Y121254D01*
X1262225D01*
Y110943D01*
D02*
G37*
D70*
X1210515Y101600D02*
X1264158D01*
X1030732Y281383D02*
Y319278D01*
Y281383D02*
X1210515Y101600D01*
X1777746Y310388D02*
X1977136Y110998D01*
X2050034D01*
X1777746Y310388D02*
Y320040D01*
X4202176Y296418D02*
X4329684Y168910D01*
X4202176Y296418D02*
Y322326D01*
X4329684Y144272D02*
Y168910D01*
Y144272D02*
X4361688Y112268D01*
X4431792D01*
X4437164Y117640D01*
Y138684D01*
X3410966Y289814D02*
Y328930D01*
X3512947Y139065D02*
Y187833D01*
Y139065D02*
X3549142Y102870D01*
X3410966Y289814D02*
X3512947Y187833D01*
X3549142Y102870D02*
X3630676D01*
X3647478Y119672D01*
Y138430D01*
X2622550Y260350D02*
Y330200D01*
Y260350D02*
X2773680Y109220D01*
X2852928D01*
X2860370Y116662D02*
Y138684D01*
X2852928Y109220D02*
X2860370Y116662D01*
X2064042Y125006D02*
Y139954D01*
X2050034Y110998D02*
X2064042Y125006D01*
X1270198Y107640D02*
Y138684D01*
X1264158Y101600D02*
X1270198Y107640D01*
X359410Y295656D02*
X387096Y323342D01*
Y323850D01*
X359410Y163322D02*
Y295656D01*
X409956Y112776D02*
X464566D01*
X359410Y163322D02*
X409956Y112776D01*
X473450Y121660D02*
Y139700D01*
X464566Y112776D02*
X473450Y121660D01*
D71*
X282011Y626478D02*
X532244D01*
X279400Y628142D02*
X280347D01*
X282011Y626478D01*
X532244D02*
X583438Y677672D01*
X3414014Y513588D02*
X3417824Y509778D01*
X3336544Y513588D02*
X3414014D01*
X3319526Y530606D02*
X3336544Y513588D01*
X3319526Y530606D02*
Y552196D01*
X3307588Y564134D02*
X3319526Y552196D01*
X3420110Y635508D02*
X3503676Y551942D01*
Y509016D02*
Y551942D01*
X2900680Y635508D02*
X3420110D01*
X2842514Y693674D02*
X2900680Y635508D01*
X2332990Y547116D02*
X2732278D01*
X2743962Y535432D01*
X2309150Y516128D02*
X2659634D01*
X2162556Y662722D02*
X2309150Y516128D01*
X1819148Y598424D02*
X1899920Y517652D01*
X1675130Y598424D02*
X1819148D01*
X1556063Y653991D02*
Y658817D01*
Y653991D02*
X1589423Y620631D01*
Y620631D02*
Y620631D01*
X1555496Y659384D02*
X1556063Y658817D01*
X1589423Y620631D02*
X1622298Y587756D01*
X1735074D01*
X1817624Y505206D01*
X1134110Y513588D02*
Y513842D01*
X1038860Y609092D02*
X1134110Y513842D01*
X314198Y609092D02*
X1038860D01*
X964965Y603250D02*
X1049020Y519195D01*
X318707Y603250D02*
X964965D01*
X1049020Y509016D02*
Y519195D01*
X320128Y708660D02*
X323176Y705612D01*
X323342D01*
X240792Y708660D02*
X320128D01*
X324047Y671576D02*
X466598D01*
X310631Y658160D02*
X324047Y671576D01*
X438088Y632906D02*
X490220Y685038D01*
X2195068D01*
X340168Y632906D02*
X438088D01*
X457730Y676932D02*
X465582Y684784D01*
X320018Y676932D02*
X457730D01*
X296164Y700786D02*
X320018Y676932D01*
X301244Y658160D02*
X310631D01*
X46990Y633730D02*
X165862D01*
X240792Y708660D01*
X15494Y602234D02*
X46990Y633730D01*
X15494Y522986D02*
Y602234D01*
X22474Y516006D02*
X46990D01*
X15494Y522986D02*
X22474Y516006D01*
X46990Y536006D02*
X165928D01*
X276352Y646430D01*
X308864D01*
X320802Y658368D01*
X289814Y638302D02*
X334772D01*
X340168Y632906D01*
X297688Y597916D02*
X313373D01*
X297180Y597408D02*
X297688Y597916D01*
X385572Y522478D02*
X390522Y517528D01*
X351536Y522478D02*
X385572D01*
X479262Y514640D02*
Y518196D01*
X443184Y554274D02*
X479262Y518196D01*
Y514640D02*
X480314Y513588D01*
X313373Y597916D02*
X318707Y603250D01*
X321351Y583692D02*
X350769Y554274D01*
X443184D01*
X313690Y560324D02*
Y589349D01*
X317754Y593413D01*
X313690Y560324D02*
X351536Y522478D01*
X2162556Y662722D02*
Y664210D01*
X1595882Y677672D02*
X1675130Y598424D01*
X583438Y677672D02*
X1595882D01*
X2195068Y685038D02*
X2332990Y547116D01*
D73*
X237236Y131826D02*
D03*
X4844796Y144272D02*
D03*
Y702818D02*
D03*
X33020D02*
D03*
D74*
X2703830Y146920D02*
D03*
X3490976Y148590D02*
D03*
X1907286Y148336D02*
D03*
X1112266Y149860D02*
D03*
X319024Y149968D02*
D03*
X4280408Y148444D02*
D03*
X41148Y24892D02*
D03*
D75*
X2703830Y121920D02*
D03*
X3490976Y123590D02*
D03*
X1907286Y123336D02*
D03*
X1112266Y124860D02*
D03*
X319024Y124968D02*
D03*
X4280408Y123444D02*
D03*
X41148Y50292D02*
D03*
D76*
X3030370Y178684D02*
D03*
X3020370Y138684D02*
D03*
X3010370Y178684D02*
D03*
X3000370Y138684D02*
D03*
X2990370Y178684D02*
D03*
X2980370Y138684D02*
D03*
X2970370Y178684D02*
D03*
X2960370Y138684D02*
D03*
X2950370Y178684D02*
D03*
X2940370Y138684D02*
D03*
X2930370Y178684D02*
D03*
X2920370Y138684D02*
D03*
X2910370Y178684D02*
D03*
X2900370Y138684D02*
D03*
X2890370Y178684D02*
D03*
X2880370Y138684D02*
D03*
X2870370Y178684D02*
D03*
X2860370Y138684D02*
D03*
X2850370Y178684D02*
D03*
X2840371Y138684D02*
D03*
X2830371Y178684D02*
D03*
X2820371Y138684D02*
D03*
X2810371Y178684D02*
D03*
X2790371D02*
D03*
X2800388Y138684D02*
D03*
X3817477Y178430D02*
D03*
X3807477Y138430D02*
D03*
X3797477Y178430D02*
D03*
X3787477Y138430D02*
D03*
X3777477Y178430D02*
D03*
X3767477Y138430D02*
D03*
X3757478Y178430D02*
D03*
X3747478Y138430D02*
D03*
X3737478Y178430D02*
D03*
X3727478Y138430D02*
D03*
X3717478Y178430D02*
D03*
X3707478Y138430D02*
D03*
X3697478Y178430D02*
D03*
X3687478Y138430D02*
D03*
X3677478Y178430D02*
D03*
X3667478Y138430D02*
D03*
X3657478Y178430D02*
D03*
X3647478Y138430D02*
D03*
X3637478Y178430D02*
D03*
X3627479Y138430D02*
D03*
X3617479Y178430D02*
D03*
X3607479Y138430D02*
D03*
X3597479Y178430D02*
D03*
X3577479D02*
D03*
X3587496Y138430D02*
D03*
X1440197Y178684D02*
D03*
X1430197Y138684D02*
D03*
X1420197Y178684D02*
D03*
X1410197Y138684D02*
D03*
X1400197Y178684D02*
D03*
X1390197Y138684D02*
D03*
X1380198Y178684D02*
D03*
X1370198Y138684D02*
D03*
X1360198Y178684D02*
D03*
X1350198Y138684D02*
D03*
X1340198Y178684D02*
D03*
X1330198Y138684D02*
D03*
X1320198Y178684D02*
D03*
X1310198Y138684D02*
D03*
X1300198Y178684D02*
D03*
X1290198Y138684D02*
D03*
X1280198Y178684D02*
D03*
X1270198Y138684D02*
D03*
X1260198Y178684D02*
D03*
X1250199Y138684D02*
D03*
X1240199Y178684D02*
D03*
X1230199Y138684D02*
D03*
X1220199Y178684D02*
D03*
X1200199D02*
D03*
X1210216Y138684D02*
D03*
X2234041Y179954D02*
D03*
X2224041Y139954D02*
D03*
X2214041Y179954D02*
D03*
X2204041Y139954D02*
D03*
X2194041Y179954D02*
D03*
X2184041Y139954D02*
D03*
X2174042Y179954D02*
D03*
X2164042Y139954D02*
D03*
X2154042Y179954D02*
D03*
X2144042Y139954D02*
D03*
X2134042Y179954D02*
D03*
X2124042Y139954D02*
D03*
X2114042Y179954D02*
D03*
X2104042Y139954D02*
D03*
X2094042Y179954D02*
D03*
X2084042Y139954D02*
D03*
X2074042Y179954D02*
D03*
X2064042Y139954D02*
D03*
X2054042Y179954D02*
D03*
X2044043Y139954D02*
D03*
X2034043Y179954D02*
D03*
X2024043Y139954D02*
D03*
X2014043Y179954D02*
D03*
X1994043D02*
D03*
X2004060Y139954D02*
D03*
X623449Y179700D02*
D03*
X643449D02*
D03*
X633449Y139700D02*
D03*
X613449D02*
D03*
X603449Y179700D02*
D03*
X593450Y139700D02*
D03*
X583450Y179700D02*
D03*
X573450Y139700D02*
D03*
X563450Y179700D02*
D03*
X553450Y139700D02*
D03*
X543450Y179700D02*
D03*
X533450Y139700D02*
D03*
X523450Y179700D02*
D03*
X513450Y139700D02*
D03*
X503450Y179700D02*
D03*
X493450Y139700D02*
D03*
X483450Y179700D02*
D03*
X473450Y139700D02*
D03*
X463450Y179700D02*
D03*
X453451Y139700D02*
D03*
X443451Y179700D02*
D03*
X433451Y139700D02*
D03*
X423451Y179700D02*
D03*
X403451D02*
D03*
X413468Y139700D02*
D03*
X4377182Y138684D02*
D03*
X4367165Y178684D02*
D03*
X4387165D02*
D03*
X4397165Y138684D02*
D03*
X4407165Y178684D02*
D03*
X4417165Y138684D02*
D03*
X4427164Y178684D02*
D03*
X4437164Y138684D02*
D03*
X4447164Y178684D02*
D03*
X4457164Y138684D02*
D03*
X4467164Y178684D02*
D03*
X4477164Y138684D02*
D03*
X4487164Y178684D02*
D03*
X4497164Y138684D02*
D03*
X4507164Y178684D02*
D03*
X4517164Y138684D02*
D03*
X4527164Y178684D02*
D03*
X4537164Y138684D02*
D03*
X4547164Y178684D02*
D03*
X4557163Y138684D02*
D03*
X4567163Y178684D02*
D03*
X4577163Y138684D02*
D03*
X4587163Y178684D02*
D03*
X4597163Y138684D02*
D03*
X4607163Y178684D02*
D03*
D77*
X3107436Y140970D02*
D03*
X3132836D02*
D03*
X3158236D02*
D03*
X3895090Y141478D02*
D03*
X3920490D02*
D03*
X3945890D02*
D03*
X1516888Y140970D02*
D03*
X1542288D02*
D03*
X1567688D02*
D03*
X2311654Y142494D02*
D03*
X2337054D02*
D03*
X2362454D02*
D03*
X721106Y140970D02*
D03*
X746506D02*
D03*
X771906D02*
D03*
X4735322Y140208D02*
D03*
X4709922D02*
D03*
X4684522D02*
D03*
X624840Y656590D02*
D03*
X650240Y631190D02*
D03*
Y656590D02*
D03*
X675640Y631190D02*
D03*
Y656590D02*
D03*
D78*
X3183636Y140970D02*
D03*
X3971290Y141478D02*
D03*
X1593088Y140970D02*
D03*
X2387854Y142494D02*
D03*
X797306Y140970D02*
D03*
X4760722Y140208D02*
D03*
X624840Y631190D02*
D03*
D79*
X209550Y197612D02*
D03*
X207156Y272542D02*
D03*
X88100Y125222D02*
D03*
X145288Y140716D02*
D03*
X283102Y270510D02*
D03*
D80*
X234550Y197612D02*
D03*
X232156Y272542D02*
D03*
X38100Y125222D02*
D03*
X170288Y140716D02*
D03*
X308102Y270510D02*
D03*
X139700Y607676D02*
D03*
D81*
X76962Y335534D02*
D03*
Y240538D02*
D03*
D82*
X46990Y516006D02*
D03*
D83*
Y536006D02*
D03*
Y556006D02*
D03*
Y576006D02*
D03*
D84*
X256032Y331978D02*
D03*
X230632D02*
D03*
D85*
X205232D02*
D03*
D86*
X139700Y582676D02*
D03*
D87*
X550418Y626618D02*
D03*
X502158Y651002D02*
D03*
X594106Y640334D02*
D03*
X493776Y644398D02*
D03*
X4492752Y293116D02*
D03*
X4520438Y293370D02*
D03*
X4506722Y293116D02*
D03*
X4466844D02*
D03*
X4480560Y293370D02*
D03*
X4452874Y293116D02*
D03*
X3703574D02*
D03*
X3731260Y293370D02*
D03*
X3717544Y293116D02*
D03*
X3677666D02*
D03*
X3691382Y293370D02*
D03*
X3663696Y293116D02*
D03*
X2916682D02*
D03*
X2944368Y293370D02*
D03*
X2930652Y293116D02*
D03*
X2890774D02*
D03*
X2904490Y293370D02*
D03*
X2876804Y293116D02*
D03*
X118872Y96012D02*
D03*
X119380Y104140D02*
D03*
X262382Y282194D02*
D03*
X267208Y263906D02*
D03*
X279400Y286512D02*
D03*
X119176Y114678D02*
D03*
X138430Y102362D02*
D03*
X129794Y108966D02*
D03*
X108458Y96774D02*
D03*
X98806Y99314D02*
D03*
X109220Y107950D02*
D03*
X127508Y97790D02*
D03*
X2079498Y293116D02*
D03*
X2107184Y293370D02*
D03*
X2093468Y293116D02*
D03*
X2133346D02*
D03*
X2147062Y293370D02*
D03*
X2119376Y293116D02*
D03*
X2833370Y451912D02*
D03*
X2647188Y449320D02*
D03*
X2722118Y455961D02*
D03*
X99568Y613618D02*
D03*
X346202Y653796D02*
D03*
X345694Y588518D02*
D03*
X1989328Y452151D02*
D03*
X1804924Y443022D02*
D03*
X1876552Y449626D02*
D03*
X380746Y442768D02*
D03*
X455422Y446578D02*
D03*
X564134Y446832D02*
D03*
X1035812Y440482D02*
D03*
X1108964Y447848D02*
D03*
X1218692Y449372D02*
D03*
X273304Y659130D02*
D03*
X293370Y515666D02*
D03*
X273766Y588264D02*
D03*
X93772Y721360D02*
D03*
X67714Y699262D02*
D03*
X67310Y656844D02*
D03*
X70104Y676402D02*
D03*
X344170Y470454D02*
D03*
X329184Y470708D02*
D03*
X315214Y466390D02*
D03*
X208834Y494792D02*
D03*
X248966Y528828D02*
D03*
X211074Y566720D02*
D03*
X210312Y622508D02*
D03*
X283464Y726902D02*
D03*
X268224Y727410D02*
D03*
X396748Y683722D02*
D03*
X423118Y593598D02*
D03*
X488188Y293116D02*
D03*
X515874Y293370D02*
D03*
X502158Y293116D02*
D03*
X542036D02*
D03*
X555752Y293370D02*
D03*
X528066Y293116D02*
D03*
X1325626Y293116D02*
D03*
X1353312Y293370D02*
D03*
X1339596Y293116D02*
D03*
X1299718D02*
D03*
X1313434Y293370D02*
D03*
X1285748Y293116D02*
D03*
X359618Y501904D02*
D03*
X466598Y671576D02*
D03*
X465582Y684784D02*
D03*
X317754Y593413D02*
D03*
X321351Y583692D02*
D03*
X323342Y705612D02*
D03*
X296164Y700786D02*
D03*
X301244Y658160D02*
D03*
X320802Y658368D02*
D03*
X289814Y638302D02*
D03*
X279400Y628142D02*
D03*
X194056Y677164D02*
D03*
X194310Y721868D02*
D03*
X200406Y699516D02*
D03*
X106426Y694690D02*
D03*
X106680Y706120D02*
D03*
X113073Y657769D02*
D03*
X127000Y657352D02*
D03*
X300228Y466898D02*
D03*
X248966Y544068D02*
D03*
X225044Y566466D02*
D03*
X250744Y696722D02*
D03*
X382524Y683214D02*
D03*
X392430Y577134D02*
D03*
D88*
X4830841Y326396D02*
D03*
X4800841Y266396D02*
D03*
X4830841Y206396D02*
D03*
X4800841Y146396D02*
D03*
X4830841Y86396D02*
D03*
X4800841Y26396D02*
D03*
X4770841Y326396D02*
D03*
X4740841Y266396D02*
D03*
X4770841Y206396D02*
D03*
X4710841Y326396D02*
D03*
X4680841Y266396D02*
D03*
X4710841Y206396D02*
D03*
X4530841Y326396D02*
D03*
X4470841D02*
D03*
X4440841Y26396D02*
D03*
X4380841Y266396D02*
D03*
X4410841Y86396D02*
D03*
X4380841Y26396D02*
D03*
X4350841Y326396D02*
D03*
X4320841Y266396D02*
D03*
X4350841Y86396D02*
D03*
X4320841Y26396D02*
D03*
X4290840Y86396D02*
D03*
X4260841Y26396D02*
D03*
X4230840Y326396D02*
D03*
Y206396D02*
D03*
X4200840Y146396D02*
D03*
X4230840Y86396D02*
D03*
X4200840Y26396D02*
D03*
X4140840Y266396D02*
D03*
X4170840Y206396D02*
D03*
X4140840Y146396D02*
D03*
X4170840Y86396D02*
D03*
X4140840Y26396D02*
D03*
X4110840Y326396D02*
D03*
X4080840Y266396D02*
D03*
X4110840Y206396D02*
D03*
X4080840Y146396D02*
D03*
X4110840Y86396D02*
D03*
X4080840Y26396D02*
D03*
X4050840Y326396D02*
D03*
X4020840Y266396D02*
D03*
X4050840Y206396D02*
D03*
X4020840Y146396D02*
D03*
X4050840Y86396D02*
D03*
X4020840Y26396D02*
D03*
X3990840Y326396D02*
D03*
X3960840Y266396D02*
D03*
X3990840Y206396D02*
D03*
X3930840Y326396D02*
D03*
X3900840Y266396D02*
D03*
X3930840Y206396D02*
D03*
X3870840D02*
D03*
X3750840Y326396D02*
D03*
X3690840D02*
D03*
X3630840D02*
D03*
X3600840Y26396D02*
D03*
X3570840Y326396D02*
D03*
X3540840Y266396D02*
D03*
Y26396D02*
D03*
X3510840Y326396D02*
D03*
Y86396D02*
D03*
X3480840Y26396D02*
D03*
X3450840Y326396D02*
D03*
Y206396D02*
D03*
X3420840Y146396D02*
D03*
X3450840Y86396D02*
D03*
X3420840Y26396D02*
D03*
X3360840Y266396D02*
D03*
X3390840Y206396D02*
D03*
X3360840Y146396D02*
D03*
X3390840Y86396D02*
D03*
X3360840Y26396D02*
D03*
X3330840Y326396D02*
D03*
X3300840Y266396D02*
D03*
X3330840Y206396D02*
D03*
X3300840Y146396D02*
D03*
X3330840Y86396D02*
D03*
X3300840Y26396D02*
D03*
X3270840Y326396D02*
D03*
X3240840Y266396D02*
D03*
X3270840Y206396D02*
D03*
X3240840Y146396D02*
D03*
X3270840Y86396D02*
D03*
X3240840Y26396D02*
D03*
X3210840Y326396D02*
D03*
X3180840Y266396D02*
D03*
X3210840Y206396D02*
D03*
X3150840Y326396D02*
D03*
X3120840Y266396D02*
D03*
X3150840Y206396D02*
D03*
X3090840D02*
D03*
X2970840Y326396D02*
D03*
X2910840D02*
D03*
X2820840Y26396D02*
D03*
X2790840Y326396D02*
D03*
X2760840Y266396D02*
D03*
Y26396D02*
D03*
X2700840Y266396D02*
D03*
X2730840Y86396D02*
D03*
X2700840Y26396D02*
D03*
X2670840Y326396D02*
D03*
X2640840Y146396D02*
D03*
X2670840Y86396D02*
D03*
X2640840Y26396D02*
D03*
X2580840Y266396D02*
D03*
X2610840Y206396D02*
D03*
X2580840Y146396D02*
D03*
X2610840Y86396D02*
D03*
X2580840Y26396D02*
D03*
X2550840Y326396D02*
D03*
X2520840Y266396D02*
D03*
X2550840Y206396D02*
D03*
X2520840Y146396D02*
D03*
X2550840Y86396D02*
D03*
X2520840Y26396D02*
D03*
X2490840Y326396D02*
D03*
X2460840Y266396D02*
D03*
X2490840Y206396D02*
D03*
X2460840Y146396D02*
D03*
X2490840Y86396D02*
D03*
X2460840Y26396D02*
D03*
X2430840Y326396D02*
D03*
X2400840Y266396D02*
D03*
X2430840Y206396D02*
D03*
Y86396D02*
D03*
X2400840Y26396D02*
D03*
X2370840Y326396D02*
D03*
X2340840Y266396D02*
D03*
X2370840Y206396D02*
D03*
X2310840Y326396D02*
D03*
Y206396D02*
D03*
X2190840Y326396D02*
D03*
X2130840D02*
D03*
X2070840D02*
D03*
X2040840Y266396D02*
D03*
Y26396D02*
D03*
X1980840Y266396D02*
D03*
X2010840Y86396D02*
D03*
X1980840Y26396D02*
D03*
X1950840Y326396D02*
D03*
X1920840Y266396D02*
D03*
X1950840Y86396D02*
D03*
X1920840Y26396D02*
D03*
X1860840Y146396D02*
D03*
X1890840Y86396D02*
D03*
X1860840Y26396D02*
D03*
X1830840Y326396D02*
D03*
Y206396D02*
D03*
X1800840Y146396D02*
D03*
X1830840Y86396D02*
D03*
X1800840Y26396D02*
D03*
X1740840Y266396D02*
D03*
X1770840Y206396D02*
D03*
X1740840Y146396D02*
D03*
X1770840Y86396D02*
D03*
X1740840Y26396D02*
D03*
X1710840Y326396D02*
D03*
X1680840Y266396D02*
D03*
X1710840Y206396D02*
D03*
X1680840Y146396D02*
D03*
X1710840Y86396D02*
D03*
X1680840Y26396D02*
D03*
X1650840Y326396D02*
D03*
X1620840Y266396D02*
D03*
X1650840Y206396D02*
D03*
Y86396D02*
D03*
X1620840Y26396D02*
D03*
X1590840Y326396D02*
D03*
X1560840Y266396D02*
D03*
X1590840Y206396D02*
D03*
X1530840Y326396D02*
D03*
Y206396D02*
D03*
X1410840Y326396D02*
D03*
X1380840Y266396D02*
D03*
X1350840Y326396D02*
D03*
X1290840D02*
D03*
X1260840Y26396D02*
D03*
X1200840Y266396D02*
D03*
Y26396D02*
D03*
X1140840Y266396D02*
D03*
X1170840Y86396D02*
D03*
X1140840Y26396D02*
D03*
X1080840Y266396D02*
D03*
Y146396D02*
D03*
X1110840Y86396D02*
D03*
X1080840Y26396D02*
D03*
X1050840Y206396D02*
D03*
X1020840Y146396D02*
D03*
X1050840Y86396D02*
D03*
X1020840Y26396D02*
D03*
X960840Y266396D02*
D03*
X990840Y206396D02*
D03*
X960840Y146396D02*
D03*
X990840Y86396D02*
D03*
X960840Y26396D02*
D03*
X930840Y326396D02*
D03*
X900840Y266396D02*
D03*
X930840Y206396D02*
D03*
X900840Y146396D02*
D03*
X930840Y86396D02*
D03*
X900840Y26396D02*
D03*
X870840Y326396D02*
D03*
X840840Y266396D02*
D03*
X870840Y206396D02*
D03*
X840840Y146396D02*
D03*
X870840Y86396D02*
D03*
X840840Y26396D02*
D03*
X810840Y326396D02*
D03*
X780840Y266396D02*
D03*
X810840Y206396D02*
D03*
X750840Y326396D02*
D03*
Y206396D02*
D03*
X480840Y26396D02*
D03*
X450840Y86396D02*
D03*
X420840Y26396D02*
D03*
X390840Y86396D02*
D03*
X360840Y26396D02*
D03*
X330840Y326396D02*
D03*
Y206396D02*
D03*
Y86396D02*
D03*
X300840Y26396D02*
D03*
X270840Y206396D02*
D03*
Y86396D02*
D03*
X240840Y26396D02*
D03*
X210840Y86396D02*
D03*
X180840Y26396D02*
D03*
X150840Y326396D02*
D03*
X4800841Y686396D02*
D03*
X4830841Y626396D02*
D03*
X4800841Y566396D02*
D03*
X4830841Y506396D02*
D03*
X4740841Y686396D02*
D03*
X4770841Y626396D02*
D03*
X4740841Y566396D02*
D03*
X4770841Y506396D02*
D03*
X4680841Y686396D02*
D03*
X4710841Y626396D02*
D03*
X4680841Y566396D02*
D03*
X4710841Y506396D02*
D03*
X4620841Y686396D02*
D03*
X4650841Y626396D02*
D03*
X4620841Y566396D02*
D03*
X4650841Y506396D02*
D03*
X4560841Y686396D02*
D03*
X4590841Y626396D02*
D03*
X4560841Y566396D02*
D03*
X4590841Y506396D02*
D03*
X4500841Y686396D02*
D03*
X4530841Y626396D02*
D03*
X4500841Y566396D02*
D03*
X4530841Y506396D02*
D03*
X4440841Y686396D02*
D03*
X4470841Y626396D02*
D03*
X4440841Y566396D02*
D03*
X4470841Y506396D02*
D03*
X4380841Y686396D02*
D03*
X4410841Y626396D02*
D03*
X4380841Y566396D02*
D03*
X4320841Y686396D02*
D03*
X4350841Y626396D02*
D03*
Y506396D02*
D03*
X4260841Y686396D02*
D03*
X4200840D02*
D03*
X4140840D02*
D03*
X4170840Y506396D02*
D03*
X4080840Y686396D02*
D03*
X4110840Y506396D02*
D03*
X4020840Y686396D02*
D03*
X4050840Y506396D02*
D03*
X3960840Y686396D02*
D03*
X3990840Y506396D02*
D03*
X3900840Y686396D02*
D03*
X3930840Y506396D02*
D03*
X3840840Y686396D02*
D03*
X3870840Y506396D02*
D03*
X3780840Y686396D02*
D03*
X3810840Y506396D02*
D03*
X3720840Y686396D02*
D03*
X3750840Y506396D02*
D03*
X3660840Y686396D02*
D03*
X3690840Y506396D02*
D03*
X3600840Y686396D02*
D03*
X3570840Y506396D02*
D03*
X3480840Y686396D02*
D03*
X3450840Y506396D02*
D03*
X3360840Y686396D02*
D03*
Y566396D02*
D03*
X3300840Y686396D02*
D03*
X3240840D02*
D03*
Y566396D02*
D03*
X3270840Y506396D02*
D03*
X3180840Y686396D02*
D03*
Y566396D02*
D03*
X3210840Y506396D02*
D03*
X3120840Y686396D02*
D03*
Y566396D02*
D03*
X3150840Y506396D02*
D03*
X3060840Y686396D02*
D03*
Y566396D02*
D03*
X3090840Y506396D02*
D03*
X3000840Y686396D02*
D03*
Y566396D02*
D03*
X3030840Y506396D02*
D03*
X2940840Y686396D02*
D03*
X2970840Y506396D02*
D03*
X2880840Y566396D02*
D03*
X2910840Y506396D02*
D03*
X2790840D02*
D03*
X2700840Y686396D02*
D03*
X2640840D02*
D03*
X2580840D02*
D03*
X2520840D02*
D03*
X2460840D02*
D03*
X2400840D02*
D03*
X2340840D02*
D03*
X2280840D02*
D03*
X2250840Y506396D02*
D03*
X2190840D02*
D03*
X2130840D02*
D03*
X2070840D02*
D03*
X1770840D02*
D03*
X1710840D02*
D03*
X1650840D02*
D03*
X1590840D02*
D03*
X1530840D02*
D03*
X1470840D02*
D03*
X1410840D02*
D03*
X1350840D02*
D03*
X1290840D02*
D03*
X1170840D02*
D03*
X990840D02*
D03*
X930840D02*
D03*
X870840D02*
D03*
X810840D02*
D03*
X750840D02*
D03*
X690840D02*
D03*
X630840D02*
D03*
X510840D02*
D03*
X450840D02*
D03*
X150840D02*
D03*
X90840D02*
D03*
D89*
X3007002Y221112D02*
D03*
X401574Y617982D02*
D03*
X4305300Y140716D02*
D03*
X4312788Y149098D02*
D03*
X64120Y59436D02*
D03*
X125354Y23876D02*
D03*
X335138Y387096D02*
D03*
X340736Y368554D02*
D03*
X386080Y361838D02*
D03*
X409956Y387858D02*
D03*
X401320Y349222D02*
D03*
X430784Y362580D02*
D03*
X467614Y354838D02*
D03*
X491104Y358394D02*
D03*
X518056Y347086D02*
D03*
X543052Y359918D02*
D03*
X600324Y359664D02*
D03*
X615950Y337872D02*
D03*
X572262Y351912D02*
D03*
X461772Y227462D02*
D03*
X448056Y234066D02*
D03*
X415290Y226954D02*
D03*
X403352Y233050D02*
D03*
X349626Y151384D02*
D03*
X347980Y141478D02*
D03*
X670814Y137922D02*
D03*
X645028Y275764D02*
D03*
X691896Y252090D02*
D03*
X716666Y260604D02*
D03*
X569590Y214376D02*
D03*
X583052Y232664D02*
D03*
X604266Y265054D02*
D03*
X698124Y222758D02*
D03*
X651256Y224922D02*
D03*
X675386Y190500D02*
D03*
X684276Y174752D02*
D03*
X977138Y389382D02*
D03*
X978154Y367792D02*
D03*
X1031240Y362092D02*
D03*
X1052830Y344246D02*
D03*
X1063884Y368300D02*
D03*
X1083818Y360294D02*
D03*
X1119124Y344292D02*
D03*
X1161646Y342768D02*
D03*
X1187836Y350774D02*
D03*
X1197102Y364104D02*
D03*
X1242192Y357124D02*
D03*
X1272540Y347086D02*
D03*
X1172718Y150622D02*
D03*
X2759456Y146304D02*
D03*
X2762890Y136144D02*
D03*
X1934464Y141732D02*
D03*
X1966722Y144780D02*
D03*
X1144524Y142494D02*
D03*
X1263142Y227726D02*
D03*
X1251966Y233708D02*
D03*
X1215898Y227726D02*
D03*
X1202944Y233708D02*
D03*
X1488804Y270580D02*
D03*
X1513718Y256530D02*
D03*
X1450848Y281056D02*
D03*
X1500104Y221140D02*
D03*
X1369822Y219202D02*
D03*
X1386840Y237744D02*
D03*
X1427480Y229870D02*
D03*
X1405738Y266003D02*
D03*
X1443858Y232674D02*
D03*
X1472842Y191384D02*
D03*
X1484376Y172494D02*
D03*
X1470660Y137386D02*
D03*
X2774442Y234442D02*
D03*
X1918180Y357886D02*
D03*
X1803654Y364490D02*
D03*
X1989328Y233426D02*
D03*
X2004314Y229870D02*
D03*
X2294768Y256276D02*
D03*
X2266044Y273120D02*
D03*
X2216272Y272796D02*
D03*
X2193798Y264546D02*
D03*
X2168652Y227584D02*
D03*
X2215642Y226954D02*
D03*
X2230120Y231282D02*
D03*
X2275820Y222411D02*
D03*
X2261258Y195194D02*
D03*
X2278888Y167922D02*
D03*
X2264918Y135128D02*
D03*
X2046986Y227980D02*
D03*
X2034794Y231780D02*
D03*
X2073026Y361696D02*
D03*
X2009536Y357886D02*
D03*
X1969262Y360426D02*
D03*
X1953288Y357886D02*
D03*
X1896507Y359156D02*
D03*
X1850390Y362326D02*
D03*
X1830832Y383794D02*
D03*
X1754754Y388620D02*
D03*
X1759266Y369638D02*
D03*
X1822704Y347952D02*
D03*
X2036290Y357886D02*
D03*
X2587498Y395478D02*
D03*
X2674366Y392054D02*
D03*
X2643500Y366024D02*
D03*
X2673604Y354302D02*
D03*
X2895600Y349880D02*
D03*
X2881884Y350642D02*
D03*
X2840238Y348102D02*
D03*
X2810764Y366898D02*
D03*
X2796822Y363982D02*
D03*
X2733812Y353182D02*
D03*
X2772768Y352928D02*
D03*
X2854706Y226710D02*
D03*
X2843276Y232438D02*
D03*
X2788920Y226456D02*
D03*
X3010022Y278026D02*
D03*
X3056602Y277246D02*
D03*
X3083184Y261102D02*
D03*
X3069316Y226982D02*
D03*
X3073908Y166906D02*
D03*
X3059430Y134488D02*
D03*
X3053230Y200274D02*
D03*
X3016372Y237500D02*
D03*
X2956278Y210058D02*
D03*
X2965978Y227998D02*
D03*
X2986024Y262006D02*
D03*
X3670046Y360934D02*
D03*
X3647290Y350388D02*
D03*
X3608334Y347594D02*
D03*
X3570478Y365882D02*
D03*
X3533244Y349372D02*
D03*
X3546244D02*
D03*
X3489716Y349626D02*
D03*
X3458210Y363596D02*
D03*
X3363336Y371348D02*
D03*
X3355706Y391668D02*
D03*
X3431926Y393954D02*
D03*
X3443732Y361188D02*
D03*
X3422782Y352816D02*
D03*
X3547496Y134516D02*
D03*
X3525388Y147274D02*
D03*
X3589528Y226202D02*
D03*
X3579114Y229362D02*
D03*
X3617082Y221384D02*
D03*
X3641090Y223774D02*
D03*
X3743706Y212598D02*
D03*
X3862832Y171224D02*
D03*
X3848608Y138684D02*
D03*
X3793132Y201036D02*
D03*
X3749568Y230030D02*
D03*
X3770630Y263276D02*
D03*
X3795644Y272946D02*
D03*
X3842512Y252090D02*
D03*
X3869060Y258308D02*
D03*
X3799962Y231404D02*
D03*
X3838090Y197988D02*
D03*
X3853263Y224536D02*
D03*
X4319882Y357134D02*
D03*
X4651512Y168806D02*
D03*
X4639300Y132946D02*
D03*
X4654296Y257282D02*
D03*
X4630410Y247142D02*
D03*
X4592330Y282852D02*
D03*
X4535678Y223774D02*
D03*
X4540250Y238506D02*
D03*
X4591812Y238252D02*
D03*
X4638190Y207508D02*
D03*
X4640428Y223416D02*
D03*
X4582170Y225552D02*
D03*
X4558548Y264414D02*
D03*
X4432554Y228346D02*
D03*
X4418340Y232296D02*
D03*
X4395978Y226568D02*
D03*
X4380240Y232296D02*
D03*
X4462536Y369824D02*
D03*
X4435856Y354594D02*
D03*
X4414530Y357368D02*
D03*
X4372864Y359156D02*
D03*
X4358894Y354076D02*
D03*
X4300728Y355854D02*
D03*
X4252966Y359156D02*
D03*
X4234434Y355600D02*
D03*
X4224030Y389786D02*
D03*
X4146794Y387614D02*
D03*
X4156092Y361514D02*
D03*
X4213352Y350012D02*
D03*
X3417824Y509778D02*
D03*
X3307588Y564134D02*
D03*
X3503676Y509016D02*
D03*
X2743962Y535432D02*
D03*
X4202176Y322326D02*
D03*
X3410966Y328930D02*
D03*
X2622550Y330200D02*
D03*
X1777746Y320040D02*
D03*
X1030732Y319278D02*
D03*
X387096Y323850D02*
D03*
X2659634Y516128D02*
D03*
X2842514Y693674D02*
D03*
X701294Y697738D02*
D03*
X1134110Y513588D02*
D03*
X1049020Y509016D02*
D03*
X297180Y597408D02*
D03*
X390652Y517398D02*
D03*
X480314Y513588D02*
D03*
X314198Y609092D02*
D03*
X1817624Y505206D02*
D03*
X1899920Y517652D02*
D03*
X1555496Y659384D02*
D03*
X2162556Y664210D02*
D03*
M02*
