M48
;Layer_Color=9474304
;FILE_FORMAT=4:4
METRIC,LZ
;TYPE=PLATED
T1F00S00C0.4000
T2F00S00C0.6000
T3F00S00C0.7500
T4F00S00C0.8500
T5F00S00C0.9000
T6F00S00C1.0000
T7F00S00C1.1000
T9F00S00C3.0000
%
T01
X0006412Y00059436
X00098806Y00099314
X00108458Y00096774
X00118872Y00096012
X0011938Y0010414
X00127508Y0009779
X0013843Y00102362
X00125354Y00023876
X043053Y00140716
X04312788Y00149098
X0438024Y00232296
X04395978Y00226568
X0441834Y00232296
X04432554Y00228346
X04452874Y00293116
X04466844
X0448056Y0029337
X04492752Y00293116
X04506722
X04520438Y0029337
X04558548Y00264414
X0454025Y00238506
X04535678Y00223774
X0458217Y00225552
X04591812Y00238252
X0459233Y00282852
X0463041Y00247142
X04640428Y00223416
X0463819Y00207508
X04651512Y00168806
X046393Y00132946
X04654296Y00257282
X04462536Y00369824
X04435856Y00354594
X0441453Y00357368
X04372864Y00359156
X04358894Y00354076
X04319882Y00357134
X04300728Y00355854
X04252966Y00359156
X04234434Y003556
X04213352Y00350012
X04202176Y00322326
X04156092Y00361514
X04146794Y00387614
X0422403Y00389786
X0386906Y00258308
X03842512Y0025209
X03853263Y00224536
X0383809Y00197988
X03793132Y00201036
X03799962Y00231404
X03795644Y00272946
X0377063Y00263276
X03749568Y0023003
X03743706Y00212598
X0373126Y0029337
X03717544Y00293116
X03703574
X03691382Y0029337
X03677666Y00293116
X03663696
X0364729Y00350388
X03670046Y00360934
X03608334Y00347594
X03570478Y00365882
X03546244Y00349372
X03533244
X03489716Y00349626
X03579114Y00229362
X03589528Y00226202
X03617082Y00221384
X0364109Y00223774
X03547496Y00134516
X03525388Y00147274
X03848608Y00138684
X03862832Y00171224
X0345821Y00363596
X03443732Y00361188
X03422782Y00352816
X03410966Y0032893
X03431926Y00393954
X03355706Y00391668
X03363336Y00371348
X03083184Y00261102
X03073908Y00166906
X0305943Y00134488
X0305323Y00200274
X03069316Y00226982
X03056602Y00277246
X03010022Y00278026
X02986024Y00262006
X02965978Y00227998
X02956278Y00210058
X03007002Y00221112
X03016372Y002375
X02944368Y0029337
X02930652Y00293116
X02916682
X0290449Y0029337
X02890774Y00293116
X02876804
X02881884Y00350642
X028956Y0034988
X02840238Y00348102
X02810764Y00366898
X02796822Y00363982
X02772768Y00352928
X02733812Y00353182
X02673604Y00354302
X02674366Y00392054
X02722118Y00455961
X0283337Y00451912
X02843276Y00232438
X02854706Y0022671
X0278892Y00226456
X02774442Y00234442
X02759456Y00146304
X0276289Y00136144
X0262255Y003302
X026435Y00366024
X02587498Y00395478
X02647188Y0044932
X02294768Y00256276
X0227582Y00222411
X02278888Y00167922
X02261258Y00195194
X02264918Y00135128
X0223012Y00231282
X02215642Y00226954
X02216272Y00272796
X02193798Y00264546
X02168652Y00227584
X02147062Y0029337
X02133346Y00293116
X02119376
X02107184Y0029337
X02093468Y00293116
X02079498
X02073026Y00361696
X0203629Y00357886
X02009536
X01969262Y00360426
X01953288Y00357886
X0191818
X01896507Y00359156
X01989328Y00452151
X01989328Y00233426
X02004314Y0022987
X02034794Y0023178
X02046986Y0022798
X01966722Y0014478
X01934464Y00141732
X02266044Y0027312
X0185039Y00362326
X01830832Y00383794
X01822704Y00347952
X01803654Y0036449
X01759266Y00369638
X01754754Y0038862
X01777746Y0032004
X01804924Y00443022
X01876552Y00449626
X01513718Y0025653
X01488804Y0027058
X01500104Y0022114
X01484376Y00172494
X01472842Y00191384
X0147066Y00137386
X01443858Y00232674
X0142748Y0022987
X0138684Y00237744
X01369822Y00219202
X01405738Y00266003
X01450848Y00281056
X01353312Y0029337
X01339596Y00293116
X01325626
X01313434Y0029337
X01299718Y00293116
X01285748
X0127254Y00347086
X01242192Y00357124
X01197102Y00364104
X01187836Y00350774
X01161646Y00342768
X01119124Y00344292
X01108964Y00447848
X01218692Y00449372
X01215898Y00227726
X01202944Y00233708
X01251966Y00233708
X01263142Y00227726
X01172718Y00150622
X01144524Y00142494
X01083818Y00360294
X01063884Y003683
X0105283Y00344246
X0103124Y00362092
X01030732Y00319278
X00978154Y00367792
X00977138Y00389382
X01035812Y00440482
X00716666Y00260604
X00691896Y0025209
X00698124Y00222758
X00651256Y00224922
X00645028Y00275764
X00604266Y00265054
X00583052Y00232664
X0056959Y00214376
X00555752Y0029337
X00542036Y00293116
X00528066
X00515874Y0029337
X00502158Y00293116
X00488188
X00491104Y00358394
X00467614Y00354838
X00430784Y0036258
X0040132Y00349222
X0038608Y00361838
X00387096Y0032385
X00409956Y00387858
X00335138Y00387096
X00340736Y00368554
X0034417Y00470454
X00329184Y00470708
X00315214Y0046639
X00300228Y00466898
X00380746Y00442768
X00455422Y00446578
X00564134Y00446832
X00572262Y00351912
X00600324Y00359664
X0061595Y00337872
X00543052Y00359918
X00518056Y00347086
X00461772Y00227462
X00448056Y00234066
X0041529Y00226954
X00403352Y0023305
X00349626Y00151384
X0034798Y00141478
X00670814Y00137922
X00684276Y00174752
X00675386Y001905
X00267208Y00263906
X00262382Y00282194
X002794Y00286512
X00208834Y00494792
X00129794Y00108966
X00119176Y00114678
X0010922Y0010795
X00099568Y00613618
X00113073Y00657769
X00127Y00657352
X00106426Y0069469
X0010668Y0070612
X00093772Y0072136
X00067714Y00699262
X00070104Y00676402
X0006731Y00656844
X00194056Y00677164
X00200406Y00699516
X0019431Y00721868
X00268224Y0072741
X00283464Y00726902
X00250744Y00696722
X00273304Y0065913
X002794Y00628142
X00289814Y00638302
X00273766Y00588264
X00248966Y00544068
Y00528828
X00225044Y00566466
X00211074Y0056672
X00210312Y00622508
X0029718Y00597408
X00317754Y00593413
X00321351Y00583692
X00345694Y00588518
X00314198Y00609092
X00320802Y00658368
X00301244Y0065816
X00296164Y00700786
X00323342Y00705612
X00346202Y00653796
X00382524Y00683214
X00396748Y00683722
X00465582Y00684784
X00466598Y00671576
X00493776Y00644398
X00502158Y00651002
X00550418Y00626618
X00594106Y00640334
X00401574Y00617982
X00423118Y00593598
X0039243Y00577134
X00390652Y00517398
X00359618Y00501904
X0029337Y00515666
X00480314Y00513588
X00701294Y00697738
X0104902Y00509016
X0113411Y00513588
X01555496Y00659384
X01817624Y00505206
X0189992Y00517652
X02162556Y0066421
X02659634Y00516128
X02743962Y00535432
X02842514Y00693674
X03307588Y00564134
X03417824Y00509778
X03503676Y00509016
T02
X0018084Y00026396
X0024084
X0027084Y00086396
X0021084
X0033084
X0039084
X0045084
X0042084Y00026396
X0048084
X0036084
X0030084
X0084084
X0090084
X0096084
X0102084
X0108084
X0105084Y00086396
X0099084
X0093084
X0087084
X0111084
X0117084
X0114084Y00026396
X0120084
X0126084
X0162084
X0168084
X0174084
X0180084
X0186084
X0183084Y00086396
X0177084
X0171084
X0165084
X0189084
X0195084
X0201084
X0198084Y00026396
X0204084
X0192084
X0240084
X0246084
X0252084
X0258084
X0264084
X0267084Y00086396
X0261084
X0255084
X0249084
X0243084
X0273084
X0270084Y00026396
X0276084
X0282084
X0324084
X0330084
X0336084
X0342084
X0345084Y00086396
X0339084
X0333084
X0327084
X0351084
X0348084Y00026396
X0354084
X0360084
X0402084
X0408084
X0414084
X0420084
X0423084Y00086396
X0417084
X0411084
X0405084
X0429084
X04350841
X04410841
X04380841Y00026396
X04440841
X04320841
X04260841
X04800841
X04830841Y00086396
X04800841Y00146396
X04830841Y00206396
X04770841
X04710841
X04680841Y00266396
X04740841
X04800841
X04830841Y00326396
X04770841
X04710841
X04530841
X04470841
X04350841
X04320841Y00266396
X04380841
X0423084Y00326396
Y00206396
X0417084
X0411084
X0405084
X0399084
X0393084
X0387084
X0390084Y00266396
X0396084
X0402084
X0408084
X0414084
X0411084Y00326396
X0405084
X0399084
X0393084
X0402084Y00146396
X0408084
X0414084
X0420084
X0375084Y00326396
X0369084
X0363084
X0357084
X0351084
X0354084Y00266396
X0345084Y00326396
Y00206396
X0339084
X0333084
X0327084
X0321084
X0315084
X0309084
X0312084Y00266396
X0318084
X0324084
X0330084
X0336084
X0333084Y00326396
X0327084
X0321084
X0315084
X0324084Y00146396
X0330084
X0336084
X0342084
X0297084Y00326396
X0291084
X0279084
X0276084Y00266396
X0270084
X0267084Y00326396
X0255084
X0249084
X0243084
X0237084
X0231084
X0234084Y00266396
X0240084
X0246084
X0252084
X0258084
X0261084Y00206396
X0255084
X0249084
X0243084
X0237084
X0231084
X0246084Y00146396
X0252084
X0258084
X0264084
X0219084Y00326396
X0213084
X0207084
X0204084Y00266396
X0198084
X0192084
X0195084Y00326396
X0183084
Y00206396
X0177084
X0171084
X0165084
X0159084
X0153084
X0156084Y00266396
X0162084
X0168084
X0174084
X0171084Y00326396
X0165084
X0159084
X0153084
X0168084Y00146396
X0174084
X0180084
X0186084
X0138084Y00266396
X0141084Y00326396
X0135084
X0129084
X0120084Y00266396
X0114084
X0108084
X0105084Y00206396
X0099084
X0093084
X0087084
X0081084
X0075084
X0078084Y00266396
X0084084
X0090084
X0096084
X0093084Y00326396
X0087084
X0081084
X0075084
X0084084Y00146396
X0090084
X0096084
X0102084
X0108084
X0033084Y00206396
Y00326396
X0027084Y00206396
X0015084Y00326396
Y00506396
X0009084
X0045084
X0051084
X0063084
X0069084
X0075084
X0081084
X0087084
X0093084
X0099084
X0117084
X0129084
X0135084
X0141084
X0147084
X0153084
X0159084
X0165084
X0171084
X0177084
X0207084
X0213084
X0219084
X0225084
X0228084Y00686396
X0234084
X0240084
X0246084
X0252084
X0258084
X0264084
X0270084
X0294084
X0300084
X0306084
Y00566396
X0300084
X0303084Y00506396
X0297084
X0291084
X0288084Y00566396
X0279084Y00506396
X0309084
X0315084
X0321084
X0327084
X0324084Y00566396
X0318084
X0312084
Y00686396
X0318084
X0324084
X0330084
X0336084
Y00566396
X0345084Y00506396
X0357084
X0369084
X0375084
X0381084
X0378084Y00686396
X0384084
X0372084
X0366084
X0360084
X0348084
X0390084
X0396084
X0402084
X0408084
X0414084
X0420084
X0417084Y00506396
X0411084
X0405084
X0399084
X0393084
X0387084
X04350841
X04380841Y00566396
X04440841
X04500841
X04560841
X04620841
X04650841Y00626396
X04590841
X04530841
X04470841
X04410841
X04350841
X04320841Y00686396
X04380841
X04440841
X04500841
X04560841
X04620841
X04650841Y00506396
X04590841
X04530841
X04470841
X04260841Y00686396
X04680841
X04740841
X04800841
X04830841Y00626396
X04770841
X04710841
X04680841Y00566396
X04740841
X04800841
X04830841Y00506396
X04770841
X04710841
T03
X00308102Y0027051
X00283102
X00232156Y00272542
X00207156
X0020955Y00197612
X0023455
X00170288Y00140716
X00145288
X000881Y00125222
X000381
X001397Y00582676
Y00607676
T04
X0004699Y00516006
Y00536006
Y00556006
Y00576006
T05
X00041148Y00024892
Y00050292
X04684522Y00140208
X04709922
X04735322
X04760722
X04597164Y00138684
X04577164
X04557164
X04537164
X04517164
X04497164
X04477164
X04457164
X04437164
X04417165
X04397165
X04377182
X04387165Y00178684
X04367165
X04407165
X04427164
X04447164
X04467164
X04487164
X04507164
X04527164
X04547164
X04567164
X04587164
X04607164
X04280408Y00148444
Y00123444
X0397129Y00141478
X0394589
X0392049
X0389509
X03807478Y0013843
X03787478
X03767478
X03747478
X03727478
X03707478
X03687478
X03667478
X03647478
X03627479
X03607479
X03587496
X03597479Y0017843
X03617479
X03637478
X03657478
X03677478
X03697478
X03717478
X03737478
X03757478
X03777478
X03797478
X03817478
X03577479
X03490976Y0014859
Y0012359
X03183636Y0014097
X03158236
X03132836
X03107436
X0302037Y00138684
X0300037
X0298037
X0296037
X0294037
X0292037
X0290037
X0288037
X0286037
X0284037
X0282037
X02800388
X02810371Y00178684
X0283037
X0285037
X0287037
X0289037
X0291037
X0293037
X0295037
X0297037
X0299037
X0301037
X0303037
X02790371
X0270383Y0014692
Y0012192
X02387854Y00142494
X02362454
X02337054
X02311654
X02224042Y00139954
X02204042
X02184042
X02164042
X02144042
X02124042
X02104042
X02084042
X02064042
X02044043
X02024043
X0200406
X02014043Y00179954
X02034043
X02054042
X02074042
X02094042
X02114042
X02134042
X02154042
X02174042
X02194042
X02214042
X02234042
X01994043
X01907286Y00148336
Y00123336
X01593088Y0014097
X01567688
X01542288
X01516888
X01430198Y00138684
X01410198
X01390198
X01370198
X01350198
X01330198
X01310198
X01290198
X01270198
X01250199
X01230199
X01210216
X01220199Y00178684
X01240199
X01260198
X01280198
X01300198
X01320198
X01340198
X01360198
X01380198
X01400198
X01420198
X01440198
X01200199
X01112266Y0014986
Y0012486
X00797306Y0014097
X00771906
X00746506
X00721106
X0063345Y001397
X0061345
X0059345
X0057345
X0055345
X0053345
X0051345
X0049345
X0047345
X00453451
X00433451
X00413468
X00423451Y001797
X00443451
X0046345
X0048345
X0050345
X0052345
X0054345
X0056345
X0058345
X0060345
X0062345
X0064345
X00403451
X00319024Y00149968
Y00124968
T06
X0062484Y0063119
Y0065659
X0065024
Y0063119
X0067564
Y0065659
T07
X00205232Y00331978
X00230632
X00256032
T09
X04844796Y00144272
X00237236Y00131826
X0003302Y00702818
X04844796
M30
