G04*
G04 #@! TF.GenerationSoftware,Altium Limited,Altium Designer,22.1.2 (22)*
G04*
G04 Layer_Color=32768*
%FSLAX44Y44*%
%MOMM*%
G71*
G04*
G04 #@! TF.SameCoordinates,4D44D42E-6B78-4795-B483-0482AABC26DA*
G04*
G04*
G04 #@! TF.FilePolarity,Positive*
G04*
G01*
G75*
%ADD65C,0.1000*%
D65*
X246460Y503280D02*
X256460D01*
X251460Y498280D02*
Y508280D01*
X271780Y497920D02*
Y507920D01*
X266780Y502920D02*
X276780D01*
X457520Y397069D02*
Y404689D01*
Y412309D01*
X447360Y404689D02*
X457520D01*
X466410D01*
X463870Y46160D02*
Y53780D01*
Y61400D01*
X453710Y53780D02*
X463870D01*
X472760D01*
X461640Y306510D02*
Y314130D01*
Y321750D01*
X451480Y314130D02*
X461640D01*
X470530D01*
X462910Y220539D02*
Y228159D01*
Y235779D01*
X452750Y228159D02*
X462910D01*
X471800D01*
X455930Y485140D02*
Y492760D01*
Y500380D01*
X445770Y492760D02*
X455930D01*
X464820D01*
X462920Y132520D02*
Y140140D01*
Y147760D01*
X452760Y140140D02*
X462920D01*
X471810D01*
X241300Y322660D02*
Y332660D01*
X236300Y327660D02*
X246300D01*
X226140Y503280D02*
X236140D01*
X231140Y498280D02*
Y508280D01*
X253720Y469900D02*
X263720D01*
X258720Y464900D02*
Y474900D01*
X315400Y184150D02*
X325400D01*
X320400Y179150D02*
Y189150D01*
X315400Y204470D02*
X325400D01*
X320400Y199470D02*
Y209470D01*
X323850Y307420D02*
Y317420D01*
X318850Y312420D02*
X328850D01*
X302260Y307420D02*
Y317420D01*
X297260Y312420D02*
X307260D01*
X304520Y351790D02*
X314520D01*
X309520Y346790D02*
Y356790D01*
X317580Y153670D02*
X327580D01*
X322580Y148670D02*
Y158670D01*
X260790Y229870D02*
X270790D01*
X265790Y224870D02*
Y234870D01*
X244280Y151130D02*
X254280D01*
X249280Y146130D02*
Y156130D01*
X182880Y466530D02*
Y476530D01*
X177880Y471530D02*
X187880D01*
X124540Y364490D02*
X134540D01*
X129540Y359490D02*
Y369490D01*
X146130Y364490D02*
X156130D01*
X151130Y359490D02*
Y369490D01*
X137160Y470340D02*
Y480340D01*
X132160Y475340D02*
X142160D01*
X185500Y201930D02*
X195500D01*
X190500Y196930D02*
Y206930D01*
X163910Y193040D02*
X173910D01*
X168910Y188040D02*
Y198040D01*
X292180Y232770D02*
X302180D01*
X297180Y227770D02*
Y237770D01*
M02*
