G04*
G04 #@! TF.GenerationSoftware,Altium Limited,Altium Designer,22.1.2 (22)*
G04*
G04 Layer_Color=255*
%FSLAX44Y44*%
%MOMM*%
G71*
G04*
G04 #@! TF.SameCoordinates,4D44D42E-6B78-4795-B483-0482AABC26DA*
G04*
G04*
G04 #@! TF.FilePolarity,Positive*
G04*
G01*
G75*
%ADD19R,1.3500X0.9500*%
%ADD20R,1.4000X2.0000*%
%ADD21R,1.0000X0.7500*%
%ADD22R,1.7240X1.9200*%
%ADD23R,2.1500X3.2500*%
%ADD24R,2.1500X0.9000*%
%ADD25R,1.1750X0.4900*%
%ADD26R,1.1570X0.4900*%
%ADD27R,0.9500X1.3500*%
%ADD28R,2.1000X3.3000*%
%ADD29R,1.5000X0.6000*%
%ADD30R,1.0000X0.8000*%
%ADD31R,3.4000X1.5000*%
%ADD32R,3.0000X1.5000*%
%ADD33O,2.6550X0.5600*%
%ADD54C,1.3000*%
D19*
X251460Y512530D02*
D03*
Y494030D02*
D03*
X271780Y512170D02*
D03*
Y493670D02*
D03*
X231140Y512530D02*
D03*
Y494030D02*
D03*
X323850Y303170D02*
D03*
Y321670D02*
D03*
X302260Y303170D02*
D03*
Y321670D02*
D03*
X182880Y480780D02*
D03*
Y462280D02*
D03*
X129540Y355240D02*
D03*
Y373740D02*
D03*
X151130Y355240D02*
D03*
Y373740D02*
D03*
X137160Y484590D02*
D03*
Y466090D02*
D03*
X190500Y211180D02*
D03*
Y192680D02*
D03*
X168910Y202290D02*
D03*
Y183790D02*
D03*
X297180Y242020D02*
D03*
Y223520D02*
D03*
D20*
X497520Y432189D02*
D03*
X477520D02*
D03*
X437520D02*
D03*
X417520D02*
D03*
Y377190D02*
D03*
X437520D02*
D03*
X477520D02*
D03*
X497520D02*
D03*
X503870Y81280D02*
D03*
X483870D02*
D03*
X443870D02*
D03*
X423870D02*
D03*
Y26281D02*
D03*
X443870D02*
D03*
X483870D02*
D03*
X503870D02*
D03*
X501640Y341630D02*
D03*
X481640D02*
D03*
X441640D02*
D03*
X421640D02*
D03*
Y286631D02*
D03*
X441640D02*
D03*
X481640D02*
D03*
X501640D02*
D03*
X502910Y255659D02*
D03*
X482910D02*
D03*
X442910D02*
D03*
X422910D02*
D03*
Y200660D02*
D03*
X442910D02*
D03*
X482910D02*
D03*
X502910D02*
D03*
X495930Y520260D02*
D03*
X475930D02*
D03*
X435930D02*
D03*
X415930D02*
D03*
Y465261D02*
D03*
X435930D02*
D03*
X475930D02*
D03*
X495930D02*
D03*
X502920Y167640D02*
D03*
X482920D02*
D03*
X442920D02*
D03*
X422920D02*
D03*
Y112641D02*
D03*
X442920D02*
D03*
X482920D02*
D03*
X502920D02*
D03*
D21*
X244814Y449580D02*
D03*
X268266D02*
D03*
D22*
X189310Y426720D02*
D03*
X234870D02*
D03*
D23*
X212000Y327660D02*
D03*
D24*
X270600Y350560D02*
D03*
Y327660D02*
D03*
Y304760D02*
D03*
D25*
X205633Y457860D02*
D03*
Y476860D02*
D03*
D26*
X228707D02*
D03*
Y467360D02*
D03*
Y457860D02*
D03*
D27*
X249470Y469900D02*
D03*
X267970D02*
D03*
X329650Y184150D02*
D03*
X311150D02*
D03*
X329650Y204470D02*
D03*
X311150D02*
D03*
X318770Y351790D02*
D03*
X300270D02*
D03*
X256540Y229870D02*
D03*
X275040D02*
D03*
X258530Y151130D02*
D03*
X240030D02*
D03*
D28*
X246379Y190500D02*
D03*
D29*
X216379Y210500D02*
D03*
Y200500D02*
D03*
Y190500D02*
D03*
Y180500D02*
D03*
Y170500D02*
D03*
X276379D02*
D03*
X276381Y180500D02*
D03*
Y190500D02*
D03*
Y200500D02*
D03*
X276379Y210500D02*
D03*
D30*
X311080Y144170D02*
D03*
X334080Y153670D02*
D03*
X311080Y163170D02*
D03*
D31*
X25000Y472369D02*
D03*
Y368371D02*
D03*
D32*
X102000Y390370D02*
D03*
Y410370D02*
D03*
Y430370D02*
D03*
Y450370D02*
D03*
D33*
X330125Y60960D02*
D03*
Y73660D02*
D03*
Y86360D02*
D03*
X254075Y60960D02*
D03*
Y73660D02*
D03*
Y86360D02*
D03*
D54*
X118110Y161170D02*
D03*
X92710Y191770D02*
D03*
X118110Y181570D02*
D03*
X92710Y171370D02*
D03*
X118110Y201970D02*
D03*
X92710Y212170D02*
D03*
X69596Y126726D02*
D03*
Y246868D02*
D03*
M02*
