M48
;Layer_Color=9474304
;FILE_FORMAT=4:4
METRIC,LZ
;TYPE=PLATED
T1F00S00C0.2500
T2F00S00C0.6000
T3F00S00C0.9000
T4F00S00C3.0000
%
T01
X0035687Y0005207
X0035814Y0007112
X0035941Y0009144
X0034798Y0016129
X0034599Y0018415
X0034472Y0020447
X0032639Y0022606
X0032385Y0028992
X00323032Y00332934
X004591Y003027
X0051744Y0028575
X0052125Y0025527
Y0020066
Y0016764
X0051998Y0011303
X0052125Y0008128
Y000254
X0046133Y0004235
X0046038Y0012871
X0046037Y00216729
X0051871Y0034036
X00301976Y00332487
X0030226Y0028992
X0029718Y0025527
X0025527Y0024693
X0025091Y003048
X0024964Y0032766
X0018995
X0015113Y0034235
X0018796Y0022479
X0019939
X0020066Y0014732
X0021209Y0015693
X0022678Y0015113
X0025908Y0013534
X00276379Y0015725
X0028575Y0010922
X0018034Y0011049
X0024511Y003556
X0028575Y0036068
X0028067Y0044831
Y004699
X0027178Y0052542
X0025019Y0053014
X0023114
X002032Y0049077
X0018288Y0049403
X0013716Y0049784
Y0045157
X0016328Y0046101
X0016955Y0043307
X0021408Y0046736
X00072229Y00450322
X0007565Y0043053
X0033202Y0035433
X0045498Y00393259
X005149Y0037592
X0051363Y004318
X0051236Y0046482
X005149Y005207
X0045339Y0048133
T02
X00062179Y00061769
X00092179
X00122179
X00152179
X00137179Y0009177
X00107179
Y00271769
X00092179Y00301769
X00062179
X00077179Y00331769
X00047179
Y00511769
X00077179
X00107179
X00317179
X00347179
T03
X0009271Y0017137
Y0019177
Y0021217
X0011811Y0020197
Y0018157
Y0016117
T04
X00069596Y00126726
Y00246868
M30
