G04*
G04 #@! TF.GenerationSoftware,Altium Limited,Altium Designer,22.1.2 (22)*
G04*
G04 Layer_Color=16711935*
%FSLAX44Y44*%
%MOMM*%
G71*
G04*
G04 #@! TF.SameCoordinates,4D44D42E-6B78-4795-B483-0482AABC26DA*
G04*
G04*
G04 #@! TF.FilePolarity,Positive*
G04*
G01*
G75*
%ADD65C,0.1000*%
D65*
X258210Y492780D02*
Y513780D01*
X244710Y492780D02*
Y513780D01*
X258210D01*
X244710Y492780D02*
X258210D01*
X265030Y513420D02*
X278530D01*
X265030Y492420D02*
X278530D01*
Y513420D01*
X265030Y492420D02*
Y513420D01*
X222750Y361210D02*
X259850D01*
X222750Y294110D02*
X259850D01*
X222750D02*
Y361210D01*
X259850Y294110D02*
Y361210D01*
X237890Y492780D02*
Y513780D01*
X224390Y492780D02*
Y513780D01*
X237890D01*
X224390Y492780D02*
X237890D01*
X248220Y463150D02*
Y476650D01*
X269220Y463150D02*
Y476650D01*
X248220D02*
X269220D01*
X248220Y463150D02*
X269220D01*
X330900Y177400D02*
Y190900D01*
X309900Y177400D02*
Y190900D01*
Y177400D02*
X330900D01*
X309900Y190900D02*
X330900D01*
Y197720D02*
Y211220D01*
X309900Y197720D02*
Y211220D01*
Y197720D02*
X330900D01*
X309900Y211220D02*
X330900D01*
X317100Y301920D02*
X330600D01*
X317100Y322920D02*
X330600D01*
X317100Y301920D02*
Y322920D01*
X330600Y301920D02*
Y322920D01*
X295510Y301920D02*
X309010D01*
X295510Y322920D02*
X309010D01*
X295510Y301920D02*
Y322920D01*
X309010Y301920D02*
Y322920D01*
X320020Y345040D02*
Y358540D01*
X299020Y345040D02*
Y358540D01*
Y345040D02*
X320020D01*
X299020Y358540D02*
X320020D01*
X255290Y223120D02*
Y236620D01*
X276290Y223120D02*
Y236620D01*
X255290D02*
X276290D01*
X255290Y223120D02*
X276290D01*
X259780Y144380D02*
Y157880D01*
X238780Y144380D02*
Y157880D01*
Y144380D02*
X259780D01*
X238780Y157880D02*
X259780D01*
X176130Y482030D02*
X189630D01*
X176130Y461030D02*
X189630D01*
Y482030D01*
X176130Y461030D02*
Y482030D01*
X122790Y353990D02*
Y374990D01*
X136290Y353990D02*
Y374990D01*
X122790Y353990D02*
X136290D01*
X122790Y374990D02*
X136290D01*
X144380Y353990D02*
Y374990D01*
X157880Y353990D02*
Y374990D01*
X144380Y353990D02*
X157880D01*
X144380Y374990D02*
X157880D01*
X130410Y485840D02*
X143910D01*
X130410Y464840D02*
X143910D01*
Y485840D01*
X130410Y464840D02*
Y485840D01*
X197250Y191430D02*
Y212430D01*
X183750Y191430D02*
Y212430D01*
X197250D01*
X183750Y191430D02*
X197250D01*
X175660Y182540D02*
Y203540D01*
X162160Y182540D02*
Y203540D01*
X175660D01*
X162160Y182540D02*
X175660D01*
X303930Y222270D02*
Y243270D01*
X290430Y222270D02*
Y243270D01*
X303930D01*
X290430Y222270D02*
X303930D01*
M02*
