G04*
G04 #@! TF.GenerationSoftware,Altium Limited,Altium Designer,22.1.2 (22)*
G04*
G04 Layer_Color=8388736*
%FSLAX44Y44*%
%MOMM*%
G71*
G04*
G04 #@! TF.SameCoordinates,4D44D42E-6B78-4795-B483-0482AABC26DA*
G04*
G04*
G04 #@! TF.FilePolarity,Positive*
G04*
G01*
G75*
%ADD10C,0.2540*%
%ADD11C,0.3000*%
%ADD14C,0.2000*%
%ADD64C,0.6000*%
G36*
X496929Y501761D02*
Y481761D01*
X414929D01*
Y483761D01*
Y503761D01*
X496929D01*
Y501761D01*
D02*
G37*
G36*
X268790Y448880D02*
X262550D01*
Y450440D01*
X268790D01*
Y448880D01*
D02*
G37*
G36*
X247270Y450240D02*
X249630D01*
Y448680D01*
X247270D01*
Y444280D01*
X245710D01*
Y448680D01*
X243390D01*
Y450240D01*
X245710D01*
Y454680D01*
X247270D01*
Y450240D01*
D02*
G37*
G36*
X498519Y413689D02*
Y393690D01*
X416520D01*
Y395690D01*
Y415690D01*
X498519D01*
Y413689D01*
D02*
G37*
G36*
X502639Y323131D02*
Y303131D01*
X420639D01*
Y325131D01*
X502639D01*
Y323131D01*
D02*
G37*
G36*
X503909Y237160D02*
Y217160D01*
X421909D01*
Y239160D01*
X503909D01*
Y237160D01*
D02*
G37*
G36*
X503919Y149141D02*
Y129141D01*
X421920D01*
Y131141D01*
Y151141D01*
X503919D01*
Y149141D01*
D02*
G37*
G36*
X316751Y81460D02*
X315551D01*
Y81760D01*
X315251D01*
Y82060D01*
X314951D01*
Y82660D01*
X314651D01*
Y82960D01*
X314351D01*
Y83560D01*
X314051D01*
Y84160D01*
X313751D01*
Y84460D01*
X313451D01*
Y81460D01*
X312251D01*
Y86260D01*
X313751D01*
Y85660D01*
X314051D01*
Y85360D01*
X314351D01*
Y84760D01*
X314651D01*
Y84460D01*
X314951D01*
Y83860D01*
X315251D01*
Y83560D01*
X315551D01*
Y86260D01*
X316751D01*
Y81460D01*
D02*
G37*
G36*
X310451Y85960D02*
X311051D01*
Y85660D01*
X311351D01*
Y85360D01*
X311651D01*
Y84760D01*
X311951D01*
Y82960D01*
X311651D01*
Y82360D01*
X311351D01*
Y82060D01*
X311051D01*
Y81760D01*
X310451D01*
Y81460D01*
X308351D01*
Y81760D01*
X307751D01*
Y82060D01*
X307451D01*
Y82360D01*
X307151D01*
Y83260D01*
X306851D01*
Y84460D01*
X307151D01*
Y85360D01*
X307451D01*
Y85660D01*
X307751D01*
Y85960D01*
X308351D01*
Y86260D01*
X310451D01*
Y85960D01*
D02*
G37*
G36*
X269551Y81460D02*
X268351D01*
Y85060D01*
X268051D01*
Y84760D01*
X267151D01*
Y85360D01*
X267751D01*
Y85660D01*
X268051D01*
Y85960D01*
X268651D01*
Y86260D01*
X269551D01*
Y81460D01*
D02*
G37*
G36*
Y60560D02*
X269851D01*
Y60260D01*
X270151D01*
Y59060D01*
X269851D01*
Y58760D01*
X269551D01*
Y58460D01*
X269851D01*
Y58160D01*
X270151D01*
Y56660D01*
X269851D01*
Y56360D01*
X269551D01*
Y56060D01*
X267451D01*
Y56360D01*
X267151D01*
Y56960D01*
X268051D01*
Y56660D01*
X268951D01*
Y56960D01*
X269251D01*
Y57860D01*
X268951D01*
Y58160D01*
X267451D01*
Y58760D01*
X268651D01*
Y59060D01*
X268951D01*
Y60260D01*
X268051D01*
Y59960D01*
X267151D01*
Y60560D01*
X267751D01*
Y60860D01*
X269551D01*
Y60560D01*
D02*
G37*
G36*
X504869Y62781D02*
Y42781D01*
X422870D01*
Y44781D01*
Y64781D01*
X504869D01*
Y62781D01*
D02*
G37*
%LPC*%
G36*
X494929Y501761D02*
X416929D01*
Y483761D01*
X494929D01*
Y501761D01*
D02*
G37*
%LPD*%
G36*
X489929Y486761D02*
X473929D01*
Y499761D01*
X489929D01*
Y486761D01*
D02*
G37*
%LPC*%
G36*
X496520Y413689D02*
X418520D01*
Y395690D01*
X496520D01*
Y413689D01*
D02*
G37*
%LPD*%
G36*
X491519Y398690D02*
X475519D01*
Y411689D01*
X491519D01*
Y398690D01*
D02*
G37*
%LPC*%
G36*
X500639Y323131D02*
X422640D01*
Y305131D01*
X500639D01*
Y323131D01*
D02*
G37*
%LPD*%
G36*
X495639Y308131D02*
X479639D01*
Y321131D01*
X495639D01*
Y308131D01*
D02*
G37*
%LPC*%
G36*
X501909Y237160D02*
X423909D01*
Y219160D01*
X501909D01*
Y237160D01*
D02*
G37*
%LPD*%
G36*
X496909Y222160D02*
X480909D01*
Y235159D01*
X496909D01*
Y222160D01*
D02*
G37*
%LPC*%
G36*
X501920Y149141D02*
X423920D01*
Y131141D01*
X501920D01*
Y149141D01*
D02*
G37*
%LPD*%
G36*
X496919Y134141D02*
X480919D01*
Y147141D01*
X496919D01*
Y134141D01*
D02*
G37*
%LPC*%
G36*
X309851Y85660D02*
X308951D01*
Y85360D01*
X308351D01*
Y84760D01*
X308051D01*
Y82960D01*
X308351D01*
Y82360D01*
X308951D01*
Y82060D01*
X309851D01*
Y82360D01*
X310451D01*
Y82960D01*
X310751D01*
Y84760D01*
X310451D01*
Y85360D01*
X309851D01*
Y85660D01*
D02*
G37*
G36*
X502869Y62781D02*
X424870D01*
Y44781D01*
X502869D01*
Y62781D01*
D02*
G37*
%LPD*%
G36*
X497869Y47781D02*
X481869D01*
Y60781D01*
X497869D01*
Y47781D01*
D02*
G37*
D10*
X447520Y424689D02*
X457520Y414689D01*
X467520Y424689D01*
X453870Y73781D02*
X463870Y63781D01*
X473870Y73781D01*
X451640Y334131D02*
X461640Y324131D01*
X471640Y334131D01*
X452910Y248160D02*
X462910Y238160D01*
X472910Y248160D01*
X445929Y512761D02*
X455929Y502761D01*
X465930Y512761D01*
X452920Y160141D02*
X462920Y150141D01*
X472920Y160141D01*
D11*
X221210Y212090D02*
G03*
X221210Y212090I-1500J0D01*
G01*
X306555Y163068D02*
G03*
X306555Y163068I-1501J0D01*
G01*
X247103Y86360D02*
G03*
X247103Y86360I-1501J0D01*
G01*
D14*
X235796Y457860D02*
G03*
X235796Y457860I-1001J0D01*
G01*
D64*
X98574Y457643D02*
G03*
X98574Y457643I-3000J0D01*
G01*
M02*
