G04*
G04 #@! TF.GenerationSoftware,Altium Limited,Altium Designer,22.1.2 (22)*
G04*
G04 Layer_Physical_Order=4*
G04 Layer_Color=16711680*
%FSLAX44Y44*%
%MOMM*%
G71*
G04*
G04 #@! TF.SameCoordinates,4D44D42E-6B78-4795-B483-0482AABC26DA*
G04*
G04*
G04 #@! TF.FilePolarity,Positive*
G04*
G01*
G75*
%ADD50C,0.3500*%
%ADD51C,0.5000*%
%ADD53C,0.3810*%
%ADD54C,1.3000*%
%ADD55C,1.0000*%
%ADD56C,0.5000*%
G36*
X566232Y9078D02*
X9078D01*
Y547182D01*
X566232D01*
Y9078D01*
D02*
G37*
%LPC*%
G36*
X273050Y530349D02*
Y526690D01*
X276709D01*
X276053Y528275D01*
X274635Y529693D01*
X273050Y530349D01*
D02*
G37*
G36*
X270510D02*
X268925Y529693D01*
X267507Y528275D01*
X266851Y526690D01*
X270510D01*
Y530349D01*
D02*
G37*
G36*
X251046Y536640D02*
X249334D01*
X247681Y536197D01*
X246199Y535341D01*
X244989Y534131D01*
X244133Y532649D01*
X243690Y530996D01*
Y529284D01*
X244133Y527631D01*
X244989Y526149D01*
X246199Y524939D01*
X247681Y524083D01*
X249334Y523640D01*
X251046D01*
X252699Y524083D01*
X254181Y524939D01*
X255391Y526149D01*
X256247Y527631D01*
X256690Y529284D01*
Y530996D01*
X256247Y532649D01*
X255391Y534131D01*
X254181Y535341D01*
X252699Y536197D01*
X251046Y536640D01*
D02*
G37*
G36*
X231996D02*
X230284D01*
X228631Y536197D01*
X227149Y535341D01*
X225939Y534131D01*
X225083Y532649D01*
X224640Y530996D01*
Y529284D01*
X225083Y527631D01*
X225939Y526149D01*
X227149Y524939D01*
X228631Y524083D01*
X230284Y523640D01*
X231996D01*
X233649Y524083D01*
X235131Y524939D01*
X236341Y526149D01*
X237197Y527631D01*
X237640Y529284D01*
Y530996D01*
X237197Y532649D01*
X236341Y534131D01*
X235131Y535341D01*
X233649Y536197D01*
X231996Y536640D01*
D02*
G37*
G36*
X516170Y525629D02*
Y521970D01*
X519829D01*
X519173Y523555D01*
X517755Y524973D01*
X516170Y525629D01*
D02*
G37*
G36*
X513630D02*
X512045Y524973D01*
X510627Y523555D01*
X509971Y521970D01*
X513630D01*
Y525629D01*
D02*
G37*
G36*
X276709Y524150D02*
X273050D01*
Y520491D01*
X274635Y521147D01*
X276053Y522565D01*
X276709Y524150D01*
D02*
G37*
G36*
X270510D02*
X266851D01*
X267507Y522565D01*
X268925Y521147D01*
X270510Y520491D01*
Y524150D01*
D02*
G37*
G36*
X519829Y519430D02*
X516170D01*
Y515771D01*
X517755Y516427D01*
X519173Y517845D01*
X519829Y519430D01*
D02*
G37*
G36*
X513630D02*
X509971D01*
X510627Y517845D01*
X512045Y516427D01*
X513630Y515771D01*
Y519430D01*
D02*
G37*
G36*
X138430Y502769D02*
Y499110D01*
X142089D01*
X141433Y500695D01*
X140015Y502113D01*
X138430Y502769D01*
D02*
G37*
G36*
X135890D02*
X134305Y502113D01*
X132887Y500695D01*
X132231Y499110D01*
X135890D01*
Y502769D01*
D02*
G37*
G36*
X184150Y498959D02*
Y495300D01*
X187809D01*
X187153Y496885D01*
X185735Y498303D01*
X184150Y498959D01*
D02*
G37*
G36*
X181610D02*
X180025Y498303D01*
X178607Y496885D01*
X177951Y495300D01*
X181610D01*
Y498959D01*
D02*
G37*
G36*
X142089Y496570D02*
X138430D01*
Y492911D01*
X140015Y493567D01*
X141433Y494985D01*
X142089Y496570D01*
D02*
G37*
G36*
X135890D02*
X132231D01*
X132887Y494985D01*
X134305Y493567D01*
X135890Y492911D01*
Y496570D01*
D02*
G37*
G36*
X187809Y492760D02*
X184150D01*
Y489101D01*
X185735Y489757D01*
X187153Y491175D01*
X187809Y492760D01*
D02*
G37*
G36*
X181610D02*
X177951D01*
X178607Y491175D01*
X180025Y489757D01*
X181610Y489101D01*
Y492760D01*
D02*
G37*
G36*
X204056Y497270D02*
X202344D01*
X200691Y496827D01*
X199209Y495971D01*
X197999Y494761D01*
X197143Y493279D01*
X196700Y491626D01*
Y489914D01*
X197143Y488261D01*
X197999Y486779D01*
X199209Y485569D01*
X200691Y484713D01*
X202344Y484270D01*
X204056D01*
X205709Y484713D01*
X207191Y485569D01*
X208401Y486779D01*
X209257Y488261D01*
X209700Y489914D01*
Y491626D01*
X209257Y493279D01*
X208401Y494761D01*
X207191Y495971D01*
X205709Y496827D01*
X204056Y497270D01*
D02*
G37*
G36*
X454246Y487830D02*
X452534D01*
X450881Y487387D01*
X450818Y487351D01*
X361737D01*
X359433Y486892D01*
X357479Y485587D01*
X197456Y325564D01*
X196965Y325731D01*
X196317Y326220D01*
X196339Y326389D01*
X196450Y326804D01*
Y327234D01*
X196506Y327660D01*
X196450Y328086D01*
Y328516D01*
X196339Y328931D01*
X196283Y329357D01*
X196118Y329754D01*
X196007Y330169D01*
X195792Y330541D01*
X195628Y330938D01*
X195366Y331279D01*
X195151Y331651D01*
X194847Y331955D01*
X194586Y332296D01*
X194245Y332557D01*
X193941Y332861D01*
X193569Y333076D01*
X193228Y333338D01*
X192831Y333502D01*
X192459Y333717D01*
X192044Y333828D01*
X191647Y333993D01*
X191221Y334049D01*
X190806Y334160D01*
X190376D01*
X189950Y334216D01*
X168536D01*
X155766Y346986D01*
X155425Y347247D01*
X155121Y347551D01*
X154749Y347766D01*
X154408Y348028D01*
X154011Y348192D01*
X153639Y348407D01*
X153224Y348518D01*
X152827Y348683D01*
X152401Y348739D01*
X151986Y348850D01*
X151556D01*
X151130Y348906D01*
X150704Y348850D01*
X150274D01*
X149859Y348739D01*
X149433Y348683D01*
X149036Y348518D01*
X148621Y348407D01*
X148249Y348192D01*
X147852Y348028D01*
X147511Y347766D01*
X147139Y347551D01*
X146835Y347247D01*
X146494Y346986D01*
X146233Y346645D01*
X145929Y346341D01*
X145714Y345969D01*
X145452Y345628D01*
X145288Y345231D01*
X145073Y344859D01*
X144962Y344444D01*
X144797Y344047D01*
X144741Y343621D01*
X144630Y343206D01*
Y342776D01*
X144574Y342350D01*
X144630Y341924D01*
Y341494D01*
X144741Y341079D01*
X144797Y340653D01*
X144962Y340256D01*
X145073Y339841D01*
X145288Y339469D01*
X145452Y339072D01*
X145714Y338731D01*
X145929Y338359D01*
X146233Y338055D01*
X146494Y337714D01*
X161184Y323024D01*
X162542Y321982D01*
X164123Y321327D01*
X165820Y321104D01*
X189950D01*
X190376Y321160D01*
X190806D01*
X191221Y321271D01*
X191390Y321293D01*
X191879Y320645D01*
X192046Y320154D01*
X94463Y222571D01*
X94092Y222670D01*
X91328D01*
X88657Y221954D01*
X86263Y220572D01*
X84308Y218617D01*
X82926Y216223D01*
X82210Y213552D01*
Y210788D01*
X82926Y208117D01*
X84308Y205723D01*
X86263Y203768D01*
X88160Y202673D01*
Y201268D01*
X86263Y200172D01*
X84308Y198217D01*
X82926Y195823D01*
X82210Y193152D01*
Y190388D01*
X82926Y187717D01*
X84308Y185323D01*
X86263Y183368D01*
X88160Y182272D01*
Y180868D01*
X86263Y179772D01*
X84308Y177817D01*
X82926Y175423D01*
X82210Y172752D01*
Y169988D01*
X82926Y167317D01*
X84308Y164923D01*
X86263Y162968D01*
X86847Y162631D01*
Y157480D01*
X87294Y155237D01*
X88565Y153335D01*
X103805Y138095D01*
X105707Y136824D01*
X107950Y136377D01*
X133350D01*
X135594Y136824D01*
X137495Y138095D01*
X234186Y234785D01*
X356364D01*
X454518Y136631D01*
Y131556D01*
X454323Y131219D01*
X453880Y129566D01*
Y127854D01*
X454323Y126201D01*
X455179Y124719D01*
X456389Y123509D01*
X457871Y122653D01*
X459525Y122210D01*
X461236D01*
X462889Y122653D01*
X464371Y123509D01*
X465582Y124719D01*
X466437Y126201D01*
X466880Y127854D01*
Y129566D01*
X466437Y131219D01*
X466243Y131556D01*
Y139060D01*
X465797Y141303D01*
X464526Y143205D01*
X362938Y244793D01*
X361035Y246064D01*
X358792Y246511D01*
X260310D01*
Y247932D01*
X259543Y249785D01*
X258125Y251203D01*
X256540Y251859D01*
Y246930D01*
X254000D01*
Y251859D01*
X252415Y251203D01*
X250997Y249785D01*
X250230Y247932D01*
Y246511D01*
X231758D01*
X229515Y246064D01*
X227612Y244793D01*
X227612Y244793D01*
X207160Y224341D01*
X205890Y224867D01*
Y225646D01*
X205447Y227299D01*
X204591Y228781D01*
X203381Y229991D01*
X201899Y230847D01*
X200246Y231290D01*
X198534D01*
X196881Y230847D01*
X195399Y229991D01*
X194505Y229097D01*
X193245Y229175D01*
X192810Y230239D01*
X219598Y257027D01*
X289988D01*
X290680Y256126D01*
Y254414D01*
X291123Y252761D01*
X291979Y251279D01*
X293189Y250069D01*
X294671Y249213D01*
X296324Y248770D01*
X298036D01*
X299689Y249213D01*
X301171Y250069D01*
X302381Y251279D01*
X303237Y252761D01*
X303680Y254414D01*
Y256126D01*
X304372Y257027D01*
X383652D01*
X470387Y170292D01*
Y59994D01*
X458771Y48378D01*
X457339Y47551D01*
X456129Y46341D01*
X455273Y44859D01*
X454830Y43206D01*
Y41494D01*
X455273Y39841D01*
X456129Y38359D01*
X457339Y37149D01*
X458821Y36293D01*
X460475Y35850D01*
X462186D01*
X463839Y36293D01*
X465321Y37149D01*
X466532Y38359D01*
X467387Y39841D01*
X467596Y40621D01*
X480396Y53420D01*
X481666Y55322D01*
X482113Y57566D01*
Y172720D01*
X481666Y174963D01*
X480396Y176866D01*
X390225Y267036D01*
X388324Y268306D01*
X386080Y268753D01*
X217170D01*
X214926Y268306D01*
X214138Y269307D01*
X218368Y273537D01*
X409052D01*
X454507Y228081D01*
Y219574D01*
X454313Y219238D01*
X453870Y217585D01*
Y215873D01*
X454313Y214220D01*
X455169Y212738D01*
X456379Y211528D01*
X457861Y210672D01*
X459514Y210229D01*
X461226D01*
X462879Y210672D01*
X464361Y211528D01*
X465572Y212738D01*
X466427Y214220D01*
X466870Y215873D01*
Y217585D01*
X466427Y219238D01*
X466233Y219574D01*
Y230510D01*
X465787Y232753D01*
X464516Y234655D01*
X464516Y234655D01*
X415625Y283545D01*
X413723Y284816D01*
X411480Y285263D01*
X328116D01*
X327590Y286533D01*
X328123Y287065D01*
X328779Y288650D01*
X318921D01*
X319577Y287065D01*
X320110Y286533D01*
X319584Y285263D01*
X306526D01*
X306000Y286533D01*
X306533Y287065D01*
X307189Y288650D01*
X297331D01*
X297987Y287065D01*
X298520Y286533D01*
X297994Y285263D01*
X215940D01*
X215940Y285263D01*
X213697Y284816D01*
X211795Y283545D01*
X211795Y283545D01*
X129880Y201631D01*
X128610Y202157D01*
Y203352D01*
X127894Y206023D01*
X127717Y206330D01*
X244747Y323360D01*
X245649Y322459D01*
X247131Y321603D01*
X248784Y321160D01*
X250496D01*
X252149Y321603D01*
X253631Y322459D01*
X254841Y323669D01*
X255697Y325151D01*
X256140Y326804D01*
Y328516D01*
X255697Y330169D01*
X254841Y331651D01*
X253940Y332553D01*
X278714Y357327D01*
X280301Y357118D01*
X280549Y356689D01*
X281759Y355479D01*
X283241Y354623D01*
X284894Y354180D01*
X286606D01*
X288259Y354623D01*
X289741Y355479D01*
X290951Y356689D01*
X291807Y358171D01*
X292250Y359824D01*
Y361536D01*
X291807Y363189D01*
X290951Y364671D01*
X289741Y365881D01*
X289312Y366129D01*
X289103Y367716D01*
X308783Y387396D01*
X452135D01*
X452471Y387202D01*
X454124Y386759D01*
X455836D01*
X457489Y387202D01*
X458971Y388058D01*
X460182Y389268D01*
X461037Y390750D01*
X461480Y392403D01*
Y394115D01*
X461037Y395768D01*
X460182Y397250D01*
X458971Y398460D01*
X457489Y399316D01*
X455836Y399759D01*
X454124D01*
X452471Y399316D01*
X452135Y399121D01*
X310012D01*
X309526Y400295D01*
X338978Y429747D01*
X457312D01*
X471657Y415402D01*
Y323548D01*
X456967Y308858D01*
X456591Y308757D01*
X455109Y307901D01*
X453899Y306691D01*
X453043Y305209D01*
X452600Y303556D01*
Y301844D01*
X453043Y300191D01*
X453899Y298709D01*
X455109Y297499D01*
X456591Y296643D01*
X458244Y296200D01*
X459956D01*
X461609Y296643D01*
X463091Y297499D01*
X464301Y298709D01*
X465157Y300191D01*
X465258Y300567D01*
X481665Y316974D01*
X481665Y316975D01*
X482936Y318876D01*
X483383Y321120D01*
X483383Y321120D01*
Y417830D01*
X482936Y420074D01*
X481665Y421976D01*
X481665Y421976D01*
X463885Y439756D01*
X461983Y441026D01*
X459740Y441473D01*
X336550D01*
X334306Y441026D01*
X332405Y439756D01*
X251755Y359106D01*
X250496Y359272D01*
X250311Y359591D01*
X249412Y360491D01*
X364231Y475309D01*
X450818D01*
X450881Y475273D01*
X452534Y474830D01*
X454246D01*
X455899Y475273D01*
X457381Y476129D01*
X458591Y477339D01*
X459447Y478821D01*
X459890Y480474D01*
Y482186D01*
X459447Y483839D01*
X458591Y485321D01*
X457381Y486531D01*
X455899Y487387D01*
X454246Y487830D01*
D02*
G37*
G36*
X215350Y472289D02*
Y468630D01*
X219009D01*
X218353Y470215D01*
X216935Y471633D01*
X215350Y472289D01*
D02*
G37*
G36*
X212810D02*
X211225Y471633D01*
X209807Y470215D01*
X209151Y468630D01*
X212810D01*
Y472289D01*
D02*
G37*
G36*
X513630Y469749D02*
Y466090D01*
X517289D01*
X516633Y467675D01*
X515215Y469093D01*
X513630Y469749D01*
D02*
G37*
G36*
X511090D02*
X509505Y469093D01*
X508087Y467675D01*
X507431Y466090D01*
X511090D01*
Y469749D01*
D02*
G37*
G36*
X281526Y476400D02*
X279814D01*
X278161Y475957D01*
X276679Y475101D01*
X275469Y473891D01*
X274613Y472409D01*
X274170Y470756D01*
Y469044D01*
X274613Y467391D01*
X275469Y465909D01*
X276679Y464699D01*
X278161Y463843D01*
X279814Y463400D01*
X281526D01*
X283179Y463843D01*
X284661Y464699D01*
X285871Y465909D01*
X286727Y467391D01*
X287170Y469044D01*
Y470756D01*
X286727Y472409D01*
X285871Y473891D01*
X284661Y475101D01*
X283179Y475957D01*
X281526Y476400D01*
D02*
G37*
G36*
X219009Y466090D02*
X215350D01*
Y462431D01*
X216935Y463087D01*
X218353Y464505D01*
X219009Y466090D01*
D02*
G37*
G36*
X212810D02*
X209151D01*
X209807Y464505D01*
X211225Y463087D01*
X212810Y462431D01*
Y466090D01*
D02*
G37*
G36*
X517289Y463550D02*
X513630D01*
Y459891D01*
X515215Y460547D01*
X516633Y461965D01*
X517289Y463550D01*
D02*
G37*
G36*
X511090D02*
X507431D01*
X508087Y461965D01*
X509505Y460547D01*
X511090Y459891D01*
Y463550D01*
D02*
G37*
G36*
X164136Y467510D02*
X162424D01*
X160771Y467067D01*
X159289Y466211D01*
X158079Y465001D01*
X157223Y463519D01*
X156780Y461866D01*
Y460154D01*
X157223Y458501D01*
X158079Y457019D01*
X159289Y455809D01*
X160771Y454953D01*
X162424Y454510D01*
X164136D01*
X165789Y454953D01*
X167271Y455809D01*
X168481Y457019D01*
X169337Y458501D01*
X169780Y460154D01*
Y461866D01*
X169337Y463519D01*
X168481Y465001D01*
X167271Y466211D01*
X165789Y467067D01*
X164136Y467510D01*
D02*
G37*
G36*
X73499Y455251D02*
Y451592D01*
X77158D01*
X76502Y453177D01*
X75084Y454595D01*
X73499Y455251D01*
D02*
G37*
G36*
X70959D02*
X69374Y454595D01*
X67956Y453177D01*
X67300Y451592D01*
X70959D01*
Y455251D01*
D02*
G37*
G36*
X77158Y449052D02*
X73499D01*
Y445393D01*
X75084Y446049D01*
X76502Y447467D01*
X77158Y449052D01*
D02*
G37*
G36*
X70959D02*
X67300D01*
X67956Y447467D01*
X69374Y446049D01*
X70959Y445393D01*
Y449052D01*
D02*
G37*
G36*
X138016Y458070D02*
X136304D01*
X134651Y457627D01*
X133169Y456771D01*
X131959Y455561D01*
X131103Y454079D01*
X130660Y452426D01*
Y450714D01*
X131103Y449061D01*
X131959Y447579D01*
X133169Y446369D01*
X134651Y445513D01*
X136304Y445070D01*
X138016D01*
X139669Y445513D01*
X141151Y446369D01*
X142361Y447579D01*
X143217Y449061D01*
X143660Y450714D01*
Y452426D01*
X143217Y454079D01*
X142361Y455561D01*
X141151Y456771D01*
X139669Y457627D01*
X138016Y458070D01*
D02*
G37*
G36*
X281526Y454810D02*
X279814D01*
X278161Y454367D01*
X276679Y453511D01*
X275469Y452301D01*
X274613Y450819D01*
X274170Y449166D01*
Y447454D01*
X274613Y445801D01*
X275469Y444319D01*
X276679Y443109D01*
X278161Y442253D01*
X279814Y441810D01*
X281526D01*
X283179Y442253D01*
X284661Y443109D01*
X285871Y444319D01*
X286727Y445801D01*
X287170Y447454D01*
Y449166D01*
X286727Y450819D01*
X285871Y452301D01*
X284661Y453511D01*
X283179Y454367D01*
X281526Y454810D01*
D02*
G37*
G36*
X514900Y436729D02*
Y433070D01*
X518559D01*
X517903Y434655D01*
X516485Y436073D01*
X514900Y436729D01*
D02*
G37*
G36*
X512360D02*
X510775Y436073D01*
X509357Y434655D01*
X508701Y433070D01*
X512360D01*
Y436729D01*
D02*
G37*
G36*
X518559Y430530D02*
X514900D01*
Y426871D01*
X516485Y427527D01*
X517903Y428945D01*
X518559Y430530D01*
D02*
G37*
G36*
X512360D02*
X508701D01*
X509357Y428945D01*
X510775Y427527D01*
X512360Y426871D01*
Y430530D01*
D02*
G37*
G36*
X170406Y439570D02*
X168694D01*
X167041Y439127D01*
X165559Y438271D01*
X164349Y437061D01*
X163493Y435579D01*
X163050Y433926D01*
Y432214D01*
X163493Y430561D01*
X164349Y429079D01*
X165559Y427869D01*
X167041Y427013D01*
X168694Y426570D01*
X170406D01*
X172059Y427013D01*
X173541Y427869D01*
X174751Y429079D01*
X175607Y430561D01*
X176050Y432214D01*
Y433926D01*
X175607Y435579D01*
X174751Y437061D01*
X173541Y438271D01*
X172059Y439127D01*
X170406Y439570D01*
D02*
G37*
G36*
X76506Y437030D02*
X74794D01*
X73141Y436587D01*
X71659Y435731D01*
X70449Y434521D01*
X69593Y433039D01*
X69150Y431386D01*
Y429674D01*
X69593Y428021D01*
X70449Y426539D01*
X71659Y425329D01*
X73141Y424473D01*
X74794Y424030D01*
X76506D01*
X78159Y424473D01*
X79641Y425329D01*
X80851Y426539D01*
X81707Y428021D01*
X82150Y429674D01*
Y431386D01*
X81707Y433039D01*
X80851Y434521D01*
X79641Y435731D01*
X78159Y436587D01*
X76506Y437030D01*
D02*
G37*
G36*
X516170Y380849D02*
Y377190D01*
X519829D01*
X519173Y378775D01*
X517755Y380193D01*
X516170Y380849D01*
D02*
G37*
G36*
X513630D02*
X512045Y380193D01*
X510627Y378775D01*
X509971Y377190D01*
X513630D01*
Y380849D01*
D02*
G37*
G36*
X519829Y374650D02*
X516170D01*
Y370991D01*
X517755Y371647D01*
X519173Y373065D01*
X519829Y374650D01*
D02*
G37*
G36*
X513630D02*
X509971D01*
X510627Y373065D01*
X512045Y371647D01*
X513630Y370991D01*
Y374650D01*
D02*
G37*
G36*
X333290Y359259D02*
Y355600D01*
X336949D01*
X336293Y357185D01*
X334875Y358603D01*
X333290Y359259D01*
D02*
G37*
G36*
X330750D02*
X329165Y358603D01*
X327747Y357185D01*
X327091Y355600D01*
X330750D01*
Y359259D01*
D02*
G37*
G36*
X336949Y353060D02*
X333290D01*
Y349401D01*
X334875Y350057D01*
X336293Y351475D01*
X336949Y353060D01*
D02*
G37*
G36*
X330750D02*
X327091D01*
X327747Y351475D01*
X329165Y350057D01*
X330750Y349401D01*
Y353060D01*
D02*
G37*
G36*
X519980Y345289D02*
Y341630D01*
X523639D01*
X522983Y343215D01*
X521565Y344633D01*
X519980Y345289D01*
D02*
G37*
G36*
X517440D02*
X515855Y344633D01*
X514437Y343215D01*
X513781Y341630D01*
X517440D01*
Y345289D01*
D02*
G37*
G36*
X523639Y339090D02*
X519980D01*
Y335431D01*
X521565Y336087D01*
X522983Y337505D01*
X523639Y339090D01*
D02*
G37*
G36*
X517440D02*
X513781D01*
X514437Y337505D01*
X515855Y336087D01*
X517440Y335431D01*
Y339090D01*
D02*
G37*
G36*
X323887Y339434D02*
X322176D01*
X320523Y338991D01*
X319041Y338135D01*
X317830Y336925D01*
X316975Y335442D01*
X316532Y333789D01*
Y332078D01*
X316975Y330425D01*
X317830Y328942D01*
X319041Y327732D01*
X320523Y326876D01*
X322176Y326433D01*
X323887D01*
X325541Y326876D01*
X327023Y327732D01*
X328233Y328942D01*
X329089Y330425D01*
X329532Y332078D01*
Y333789D01*
X329089Y335442D01*
X328233Y336925D01*
X327023Y338135D01*
X325541Y338991D01*
X323887Y339434D01*
D02*
G37*
G36*
X302831Y338987D02*
X301120D01*
X299467Y338544D01*
X297985Y337688D01*
X296774Y336478D01*
X295919Y334996D01*
X295476Y333343D01*
Y331631D01*
X295919Y329978D01*
X296774Y328496D01*
X297985Y327286D01*
X299467Y326430D01*
X301120Y325987D01*
X302831D01*
X304485Y326430D01*
X305967Y327286D01*
X307177Y328496D01*
X308033Y329978D01*
X308476Y331631D01*
Y333343D01*
X308033Y334996D01*
X307177Y336478D01*
X305967Y337688D01*
X304485Y338544D01*
X302831Y338987D01*
D02*
G37*
G36*
X252180Y309729D02*
Y306070D01*
X255839D01*
X255183Y307655D01*
X253765Y309073D01*
X252180Y309729D01*
D02*
G37*
G36*
X249640D02*
X248055Y309073D01*
X246637Y307655D01*
X245981Y306070D01*
X249640D01*
Y309729D01*
D02*
G37*
G36*
X255839Y303530D02*
X252180D01*
Y299871D01*
X253765Y300527D01*
X255183Y301945D01*
X255839Y303530D01*
D02*
G37*
G36*
X249640D02*
X245981D01*
X246637Y301945D01*
X248055Y300527D01*
X249640Y299871D01*
Y303530D01*
D02*
G37*
G36*
X325120Y294849D02*
Y291190D01*
X328779D01*
X328123Y292775D01*
X326705Y294193D01*
X325120Y294849D01*
D02*
G37*
G36*
X322580D02*
X320995Y294193D01*
X319577Y292775D01*
X318921Y291190D01*
X322580D01*
Y294849D01*
D02*
G37*
G36*
X303530D02*
Y291190D01*
X307189D01*
X306533Y292775D01*
X305115Y294193D01*
X303530Y294849D01*
D02*
G37*
G36*
X300990D02*
X299405Y294193D01*
X297987Y292775D01*
X297331Y291190D01*
X300990D01*
Y294849D01*
D02*
G37*
G36*
X518710Y290679D02*
Y287020D01*
X522369D01*
X521713Y288605D01*
X520295Y290023D01*
X518710Y290679D01*
D02*
G37*
G36*
X516170D02*
X514585Y290023D01*
X513167Y288605D01*
X512511Y287020D01*
X516170D01*
Y290679D01*
D02*
G37*
G36*
X522369Y284480D02*
X518710D01*
Y280821D01*
X520295Y281477D01*
X521713Y282895D01*
X522369Y284480D01*
D02*
G37*
G36*
X516170D02*
X512511D01*
X513167Y282895D01*
X514585Y281477D01*
X516170Y280821D01*
Y284480D01*
D02*
G37*
G36*
X522520Y260199D02*
Y256540D01*
X526179D01*
X525523Y258125D01*
X524105Y259543D01*
X522520Y260199D01*
D02*
G37*
G36*
X519980D02*
X518395Y259543D01*
X516977Y258125D01*
X516321Y256540D01*
X519980D01*
Y260199D01*
D02*
G37*
G36*
X526179Y254000D02*
X522520D01*
Y250341D01*
X524105Y250997D01*
X525523Y252415D01*
X526179Y254000D01*
D02*
G37*
G36*
X519980D02*
X516321D01*
X516977Y252415D01*
X518395Y250997D01*
X519980Y250341D01*
Y254000D01*
D02*
G37*
G36*
X71467Y265868D02*
X67725D01*
X64054Y265138D01*
X60596Y263706D01*
X57484Y261626D01*
X54838Y258980D01*
X52758Y255868D01*
X51326Y252410D01*
X50596Y248739D01*
Y244997D01*
X51326Y241326D01*
X52758Y237868D01*
X54838Y234756D01*
X57484Y232110D01*
X60596Y230030D01*
X64054Y228598D01*
X67725Y227868D01*
X71467D01*
X75138Y228598D01*
X78596Y230030D01*
X81708Y232110D01*
X84354Y234756D01*
X86434Y237868D01*
X87866Y241326D01*
X88596Y244997D01*
Y248739D01*
X87866Y252410D01*
X86434Y255868D01*
X84354Y258980D01*
X81708Y261626D01*
X78596Y263706D01*
X75138Y265138D01*
X71467Y265868D01*
D02*
G37*
G36*
X345990Y209399D02*
Y205740D01*
X349649D01*
X348993Y207325D01*
X347575Y208743D01*
X345990Y209399D01*
D02*
G37*
G36*
X343450D02*
X341865Y208743D01*
X340447Y207325D01*
X339791Y205740D01*
X343450D01*
Y209399D01*
D02*
G37*
G36*
X522520Y205589D02*
Y201930D01*
X526179D01*
X525523Y203515D01*
X524105Y204933D01*
X522520Y205589D01*
D02*
G37*
G36*
X519980D02*
X518395Y204933D01*
X516977Y203515D01*
X516321Y201930D01*
X519980D01*
Y205589D01*
D02*
G37*
G36*
X349649Y203200D02*
X345990D01*
Y199541D01*
X347575Y200197D01*
X348993Y201615D01*
X349649Y203200D01*
D02*
G37*
G36*
X343450D02*
X339791D01*
X340447Y201615D01*
X341865Y200197D01*
X343450Y199541D01*
Y203200D01*
D02*
G37*
G36*
X526179Y199390D02*
X522520D01*
Y195731D01*
X524105Y196387D01*
X525523Y197805D01*
X526179Y199390D01*
D02*
G37*
G36*
X519980D02*
X516321D01*
X516977Y197805D01*
X518395Y196387D01*
X519980Y195731D01*
Y199390D01*
D02*
G37*
G36*
X347260Y189079D02*
Y185420D01*
X350919D01*
X350263Y187005D01*
X348845Y188423D01*
X347260Y189079D01*
D02*
G37*
G36*
X344720D02*
X343135Y188423D01*
X341717Y187005D01*
X341061Y185420D01*
X344720D01*
Y189079D01*
D02*
G37*
G36*
X350919Y182880D02*
X347260D01*
Y179221D01*
X348845Y179877D01*
X350263Y181295D01*
X350919Y182880D01*
D02*
G37*
G36*
X344720D02*
X341061D01*
X341717Y181295D01*
X343135Y179877D01*
X344720Y179221D01*
Y182880D01*
D02*
G37*
G36*
X522520Y172569D02*
Y168910D01*
X526179D01*
X525523Y170495D01*
X524105Y171913D01*
X522520Y172569D01*
D02*
G37*
G36*
X519980D02*
X518395Y171913D01*
X516977Y170495D01*
X516321Y168910D01*
X519980D01*
Y172569D01*
D02*
G37*
G36*
X526179Y166370D02*
X522520D01*
Y162711D01*
X524105Y163367D01*
X525523Y164785D01*
X526179Y166370D01*
D02*
G37*
G36*
X519980D02*
X516321D01*
X516977Y164785D01*
X518395Y163367D01*
X519980Y162711D01*
Y166370D01*
D02*
G37*
G36*
X349250Y166219D02*
Y162560D01*
X352909D01*
X352253Y164145D01*
X350835Y165563D01*
X349250Y166219D01*
D02*
G37*
G36*
X346710D02*
X345125Y165563D01*
X343707Y164145D01*
X343051Y162560D01*
X346710D01*
Y166219D01*
D02*
G37*
G36*
X277649Y162179D02*
Y158520D01*
X281308D01*
X280651Y160105D01*
X279234Y161523D01*
X277649Y162179D01*
D02*
G37*
G36*
X275109D02*
X273524Y161523D01*
X272106Y160105D01*
X271450Y158520D01*
X275109D01*
Y162179D01*
D02*
G37*
G36*
X352909Y160020D02*
X349250D01*
Y156361D01*
X350835Y157017D01*
X352253Y158435D01*
X352909Y160020D01*
D02*
G37*
G36*
X346710D02*
X343051D01*
X343707Y158435D01*
X345125Y157017D01*
X346710Y156361D01*
Y160020D01*
D02*
G37*
G36*
X281308Y155980D02*
X277649D01*
Y152321D01*
X279234Y152977D01*
X280651Y154395D01*
X281308Y155980D01*
D02*
G37*
G36*
X275109D02*
X271450D01*
X272106Y154395D01*
X273524Y152977D01*
X275109Y152321D01*
Y155980D01*
D02*
G37*
G36*
X212946Y163430D02*
X211234D01*
X209581Y162987D01*
X208099Y162131D01*
X206889Y160921D01*
X206033Y159439D01*
X205590Y157786D01*
Y156074D01*
X206033Y154421D01*
X206889Y152939D01*
X208099Y151729D01*
X209581Y150873D01*
X211234Y150430D01*
X212946D01*
X214599Y150873D01*
X216081Y151729D01*
X217291Y152939D01*
X218147Y154421D01*
X218590Y156074D01*
Y157786D01*
X218147Y159439D01*
X217291Y160921D01*
X216081Y162131D01*
X214599Y162987D01*
X212946Y163430D01*
D02*
G37*
G36*
X227636Y157630D02*
X225924D01*
X224271Y157187D01*
X222789Y156331D01*
X221579Y155121D01*
X220723Y153639D01*
X220280Y151986D01*
Y150274D01*
X220723Y148621D01*
X221579Y147139D01*
X222789Y145929D01*
X224271Y145073D01*
X225924Y144630D01*
X227636D01*
X229289Y145073D01*
X230771Y145929D01*
X231981Y147139D01*
X232837Y148621D01*
X233280Y150274D01*
Y151986D01*
X232837Y153639D01*
X231981Y155121D01*
X230771Y156331D01*
X229289Y157187D01*
X227636Y157630D01*
D02*
G37*
G36*
X260350Y140269D02*
Y136610D01*
X264009D01*
X263353Y138195D01*
X261935Y139613D01*
X260350Y140269D01*
D02*
G37*
G36*
X257810D02*
X256225Y139613D01*
X254807Y138195D01*
X254151Y136610D01*
X257810D01*
Y140269D01*
D02*
G37*
G36*
X264009Y134070D02*
X260350D01*
Y130411D01*
X261935Y131067D01*
X263353Y132485D01*
X264009Y134070D01*
D02*
G37*
G36*
X257810D02*
X254151D01*
X254807Y132485D01*
X256225Y131067D01*
X257810Y130411D01*
Y134070D01*
D02*
G37*
G36*
X521250Y117959D02*
Y114300D01*
X524909D01*
X524253Y115885D01*
X522835Y117303D01*
X521250Y117959D01*
D02*
G37*
G36*
X518710D02*
X517125Y117303D01*
X515707Y115885D01*
X515051Y114300D01*
X518710D01*
Y117959D01*
D02*
G37*
G36*
X524909Y111760D02*
X521250D01*
Y108101D01*
X522835Y108757D01*
X524253Y110175D01*
X524909Y111760D01*
D02*
G37*
G36*
X518710D02*
X515051D01*
X515707Y110175D01*
X517125Y108757D01*
X518710Y108101D01*
Y111760D01*
D02*
G37*
G36*
X71467Y145726D02*
X67725D01*
X64054Y144996D01*
X60596Y143563D01*
X57484Y141484D01*
X54838Y138838D01*
X52758Y135726D01*
X51326Y132268D01*
X50596Y128597D01*
Y124855D01*
X51326Y121184D01*
X52758Y117726D01*
X54838Y114614D01*
X57484Y111968D01*
X60596Y109888D01*
X64054Y108456D01*
X67725Y107726D01*
X71467D01*
X75138Y108456D01*
X78596Y109888D01*
X81708Y111968D01*
X84354Y114614D01*
X86434Y117726D01*
X87866Y121184D01*
X88596Y124855D01*
Y128597D01*
X87866Y132268D01*
X86434Y135726D01*
X84354Y138838D01*
X81708Y141484D01*
X78596Y143563D01*
X75138Y144996D01*
X71467Y145726D01*
D02*
G37*
G36*
X201516Y153820D02*
X199804D01*
X198151Y153377D01*
X196669Y152521D01*
X195459Y151311D01*
X194603Y149829D01*
X194160Y148176D01*
Y146464D01*
X194603Y144811D01*
X194639Y144748D01*
Y133304D01*
X177901Y116566D01*
X177831Y116547D01*
X176349Y115691D01*
X175139Y114481D01*
X174283Y112999D01*
X173840Y111346D01*
Y109634D01*
X174283Y107981D01*
X175139Y106499D01*
X176349Y105289D01*
X177831Y104433D01*
X179484Y103990D01*
X181196D01*
X182849Y104433D01*
X184331Y105289D01*
X185541Y106499D01*
X186397Y107981D01*
X186416Y108051D01*
X204917Y126553D01*
X206222Y128506D01*
X206681Y130810D01*
Y144748D01*
X206717Y144811D01*
X207160Y146464D01*
Y148176D01*
X206717Y149829D01*
X205861Y151311D01*
X204651Y152521D01*
X203169Y153377D01*
X201516Y153820D01*
D02*
G37*
G36*
X327246Y232560D02*
X325534D01*
X323881Y232117D01*
X322399Y231261D01*
X321189Y230051D01*
X320333Y228569D01*
X319890Y226916D01*
Y225204D01*
X320333Y223551D01*
X320369Y223488D01*
Y152354D01*
X283311Y115296D01*
X283241Y115277D01*
X281759Y114421D01*
X280549Y113211D01*
X279693Y111729D01*
X279250Y110076D01*
Y108364D01*
X279693Y106711D01*
X280549Y105229D01*
X281759Y104019D01*
X283241Y103163D01*
X284894Y102720D01*
X286606D01*
X288259Y103163D01*
X289741Y104019D01*
X290951Y105229D01*
X291807Y106711D01*
X291826Y106781D01*
X330647Y145603D01*
X331952Y147556D01*
X332411Y149860D01*
Y223488D01*
X332447Y223551D01*
X332890Y225204D01*
Y226916D01*
X332447Y228569D01*
X331591Y230051D01*
X330381Y231261D01*
X328899Y232117D01*
X327246Y232560D01*
D02*
G37*
G36*
X360680Y96369D02*
Y92710D01*
X364339D01*
X363683Y94295D01*
X362265Y95713D01*
X360680Y96369D01*
D02*
G37*
G36*
X358140D02*
X356555Y95713D01*
X355137Y94295D01*
X354481Y92710D01*
X358140D01*
Y96369D01*
D02*
G37*
G36*
X364339Y90170D02*
X360680D01*
Y86511D01*
X362265Y87167D01*
X363683Y88585D01*
X364339Y90170D01*
D02*
G37*
G36*
X358140D02*
X354481D01*
X355137Y88585D01*
X356555Y87167D01*
X358140Y86511D01*
Y90170D01*
D02*
G37*
G36*
X522520Y86209D02*
Y82550D01*
X526179D01*
X525523Y84135D01*
X524105Y85553D01*
X522520Y86209D01*
D02*
G37*
G36*
X519980D02*
X518395Y85553D01*
X516977Y84135D01*
X516321Y82550D01*
X519980D01*
Y86209D01*
D02*
G37*
G36*
X526179Y80010D02*
X522520D01*
Y76351D01*
X524105Y77007D01*
X525523Y78425D01*
X526179Y80010D01*
D02*
G37*
G36*
X519980D02*
X516321D01*
X516977Y78425D01*
X518395Y77007D01*
X519980Y76351D01*
Y80010D01*
D02*
G37*
G36*
X359410Y76049D02*
Y72390D01*
X363069D01*
X362413Y73975D01*
X360995Y75393D01*
X359410Y76049D01*
D02*
G37*
G36*
X356870D02*
X355285Y75393D01*
X353867Y73975D01*
X353211Y72390D01*
X356870D01*
Y76049D01*
D02*
G37*
G36*
X363069Y69850D02*
X359410D01*
Y66191D01*
X360995Y66847D01*
X362413Y68265D01*
X363069Y69850D01*
D02*
G37*
G36*
X356870D02*
X353211D01*
X353867Y68265D01*
X355285Y66847D01*
X356870Y66191D01*
Y69850D01*
D02*
G37*
G36*
X358140Y56999D02*
Y53340D01*
X361799D01*
X361143Y54925D01*
X359725Y56343D01*
X358140Y56999D01*
D02*
G37*
G36*
X355600D02*
X354015Y56343D01*
X352597Y54925D01*
X351941Y53340D01*
X355600D01*
Y56999D01*
D02*
G37*
G36*
X361799Y50800D02*
X358140D01*
Y47141D01*
X359725Y47797D01*
X361143Y49215D01*
X361799Y50800D01*
D02*
G37*
G36*
X355600D02*
X351941D01*
X352597Y49215D01*
X354015Y47797D01*
X355600Y47141D01*
Y50800D01*
D02*
G37*
G36*
X522520Y30329D02*
Y26670D01*
X526179D01*
X525523Y28255D01*
X524105Y29673D01*
X522520Y30329D01*
D02*
G37*
G36*
X519980D02*
X518395Y29673D01*
X516977Y28255D01*
X516321Y26670D01*
X519980D01*
Y30329D01*
D02*
G37*
G36*
X526179Y24130D02*
X522520D01*
Y20471D01*
X524105Y21127D01*
X525523Y22545D01*
X526179Y24130D01*
D02*
G37*
G36*
X519980D02*
X516321D01*
X516977Y22545D01*
X518395Y21127D01*
X519980Y20471D01*
Y24130D01*
D02*
G37*
%LPD*%
G36*
X194467Y220521D02*
X195399Y219589D01*
X196881Y218733D01*
X198534Y218290D01*
X199313D01*
X199839Y217020D01*
X130922Y148103D01*
X110378D01*
X98573Y159908D01*
Y162631D01*
X99157Y162968D01*
X101112Y164923D01*
X102494Y167317D01*
X103210Y169988D01*
Y172752D01*
X102494Y175423D01*
X101112Y177817D01*
X99157Y179772D01*
X97260Y180868D01*
Y182272D01*
X99157Y183368D01*
X101112Y185323D01*
X102494Y187717D01*
X103210Y190388D01*
Y193152D01*
X103035Y193804D01*
X107143Y197912D01*
X108552Y197525D01*
X109708Y195523D01*
X111663Y193568D01*
X113560Y192472D01*
Y191067D01*
X111663Y189972D01*
X109708Y188017D01*
X108326Y185623D01*
X107610Y182952D01*
Y180187D01*
X108326Y177517D01*
X109708Y175123D01*
X111663Y173168D01*
X113560Y172072D01*
Y170667D01*
X111663Y169572D01*
X109708Y167617D01*
X108326Y165223D01*
X107610Y162552D01*
Y159788D01*
X108326Y157117D01*
X109708Y154723D01*
X111663Y152768D01*
X114057Y151385D01*
X116728Y150670D01*
X119492D01*
X122163Y151385D01*
X124557Y152768D01*
X126512Y154723D01*
X127894Y157117D01*
X128610Y159788D01*
Y162552D01*
X127894Y165223D01*
X127858Y165287D01*
X183064Y220493D01*
X183969Y219589D01*
X185451Y218733D01*
X187104Y218290D01*
X188816D01*
X190469Y218733D01*
X191951Y219589D01*
X192883Y220521D01*
X193675Y220689D01*
X194467Y220521D01*
D02*
G37*
G36*
X241119Y350399D02*
X241438Y350214D01*
X241604Y348955D01*
X104480Y211831D01*
X103210Y212357D01*
Y213552D01*
X103054Y214133D01*
X240219Y351298D01*
X241119Y350399D01*
D02*
G37*
D50*
X461330Y42646D02*
X476250Y57566D01*
X386080Y262890D02*
X476250Y172720D01*
Y57566D02*
Y172720D01*
X118110Y201970D02*
Y204541D01*
X121396Y207827D01*
Y208300D01*
X306355Y393259D01*
X121588Y167308D02*
X217170Y262890D01*
X386080D01*
X118110Y163741D02*
X121588Y167219D01*
X118110Y161170D02*
Y163741D01*
X121588Y167219D02*
Y167308D01*
X118110Y181570D02*
X215940Y279400D01*
X411480D01*
X461330Y42350D02*
Y42646D01*
X133350Y142240D02*
X231758Y240648D01*
X358792D01*
X460380Y139060D01*
X411480Y279400D02*
X460370Y230510D01*
X107950Y142240D02*
X133350D01*
X460380Y128710D02*
Y139060D01*
X460370Y216729D02*
Y230510D01*
X92710Y157480D02*
X107950Y142240D01*
X92710Y157480D02*
Y171370D01*
X459100Y302700D02*
X477520Y321120D01*
Y417830D01*
X459740Y435610D02*
X477520Y417830D01*
X92710Y191770D02*
X336550Y435610D01*
X459740D01*
X306355Y393259D02*
X454980D01*
D51*
X165820Y327660D02*
X189950D01*
X151130Y342350D02*
X165820Y327660D01*
D53*
X326390Y149860D02*
Y226060D01*
X92710Y212303D02*
X361737Y481330D01*
X453390D01*
X92710Y212170D02*
Y212303D01*
X180340Y110490D02*
X200660Y130810D01*
Y147320D01*
X285750Y109220D02*
X326390Y149860D01*
D54*
X118110Y161170D02*
D03*
X92710Y191770D02*
D03*
X118110Y181570D02*
D03*
X92710Y171370D02*
D03*
X118110Y201970D02*
D03*
X92710Y212170D02*
D03*
X69596Y126726D02*
D03*
Y246868D02*
D03*
D55*
X347179Y511769D02*
D03*
X317179D02*
D03*
X137179Y91770D02*
D03*
X152179Y61769D02*
D03*
X107179Y511769D02*
D03*
Y271769D02*
D03*
Y91770D02*
D03*
X122179Y61769D02*
D03*
X77179Y511769D02*
D03*
Y331769D02*
D03*
X92179Y301769D02*
D03*
Y61769D02*
D03*
X47179Y511769D02*
D03*
Y331769D02*
D03*
X62179Y301769D02*
D03*
Y61769D02*
D03*
D56*
X151130Y342350D02*
D03*
X187960Y224790D02*
D03*
X199390D02*
D03*
X347980Y161290D02*
D03*
X344720Y204470D02*
D03*
X345990Y184150D02*
D03*
X297180Y255270D02*
D03*
X255270Y246930D02*
D03*
X276379Y157250D02*
D03*
X259080Y135340D02*
D03*
X212090Y156930D02*
D03*
X226780Y151130D02*
D03*
X280670Y469900D02*
D03*
Y448310D02*
D03*
X358140Y71120D02*
D03*
X356870Y52070D02*
D03*
X359410Y91440D02*
D03*
X514900Y520700D02*
D03*
X512360Y464820D02*
D03*
X521250Y25400D02*
D03*
Y81280D02*
D03*
X519980Y113030D02*
D03*
X521250Y167640D02*
D03*
Y200660D02*
D03*
Y255270D02*
D03*
X517440Y285750D02*
D03*
X518710Y340360D02*
D03*
X514900Y375920D02*
D03*
X513630Y431800D02*
D03*
X203200Y490770D02*
D03*
X214080Y467360D02*
D03*
X231140Y530140D02*
D03*
X250190D02*
D03*
X169550Y433070D02*
D03*
X163280Y461010D02*
D03*
X137160Y451570D02*
D03*
X75650Y430530D02*
D03*
X189950Y327660D02*
D03*
X249640D02*
D03*
X332020Y354330D02*
D03*
X285750Y360680D02*
D03*
X245110Y355600D02*
D03*
X301976Y332487D02*
D03*
X323032Y332934D02*
D03*
X323850Y289920D02*
D03*
X302260D02*
D03*
X250910Y304800D02*
D03*
X271780Y525420D02*
D03*
X182880Y494030D02*
D03*
X137160Y497840D02*
D03*
X72229Y450322D02*
D03*
X453390Y481330D02*
D03*
X454980Y393259D02*
D03*
X459100Y302700D02*
D03*
X460370Y216729D02*
D03*
X460380Y128710D02*
D03*
X461330Y42350D02*
D03*
X326390Y226060D02*
D03*
X285750Y109220D02*
D03*
X180340Y110490D02*
D03*
X200660Y147320D02*
D03*
M02*
