M48
;Layer_Color=9474304
;FILE_FORMAT=4:4
METRIC,LZ
;TYPE=PLATED
T1F00S00C0.4000
T2F00S00C0.6000
T3F00S00C0.7500
T4F00S00C0.8500
T5F00S00C0.9000
T6F00S00C1.0000
T7F00S00C1.1000
T8F00S00C1.5000
T9F00S00C2.2000
T10F00S00C3.0000
T11F00S00C4.5000
%
T01
X0200028Y0018288
X020206Y0021463
X0202438Y0029464
X02033428Y00324552
X02048668
X02075338
X02090578
X019825Y0030226
X01942079Y0019446
X01905Y0020278
X0187706Y0021209
X0186055Y0021971
X0158496Y0032512
X01571201Y00325367
X01544531
X01529291
X0148351Y002983
X0145542Y0028321
X0144529Y0020066
X0142621Y0019304
X0138557Y0018923
X0139576Y0016637
X0134874Y0019304
X0133096Y0019812
X0100079Y0017399
X0093348Y0020701
X00897019Y0019685
X0088138Y0019177
X0084839Y002032
X0083696Y00207912
X0094742Y0027559
X0099949Y0029337
X0102489Y0032512
X0104013
X010668
X0108204
X0057785
X0056261Y0032385
X0053594Y0032512
X005207Y0032385
X0050419Y0028067
X004699Y0028702
X0044831Y0021209
X0041529Y0018796
X0039624Y0019177
X0049657Y0017907
X0036322Y0020193
X0033416Y00224272
X003302Y0068834
X003429
X0031496Y0068453
X0028702Y0069596
X0034417Y007239
X0045977Y0071247
X0051819Y007239
X0050673Y0068453
X0054229Y0058801
X00498292Y0047842
X00438292
X0042418Y004826
X0042291Y0051308
X0061102Y0049911
X0061722Y0047879
X00598292Y0047842
X00638292
X00658292
X0067945Y0052451
X007112Y0052705
X0073406Y0051054
X0071755Y004445
X0069977Y0042545
X0067564Y0042037
X0064008Y0038989
X0059817Y0037592
X0057912Y0034163
X0056261
X0053721
X005207
X0093218Y0038989
X0095123Y00393182
X0099949Y0039116
X0102489Y0034163
X0104013
X010668Y0034036
X0108204Y0034163
X0111125Y0036845
X011254Y0036591
X0114176Y0038862
X01142391Y0047842
X01162391
X0112144Y0047752
X01102391Y0047842
X01082391
X01062391
X01042391
X01022391
X01001712Y00479164
X0099568Y0052959
X009779Y0055499
X0095631
X0092967Y0053594
X009144Y005588
X0087249
X0085217Y0054991
X0088773Y0052802
X0091555Y004826
X009284Y0048133
X0105156Y0055372
X0104648Y0057658
X0103062Y0070293
X009538Y0071247
X0081026Y0059309
X01117494Y00498898
X01127676Y00498659
X0118364Y005334
X0121158Y0055118
X0120889Y0050942
X012446Y00515988
X012199Y0044454
X0120284Y0042687
X01180228Y0042037
X0140465Y0046609
X0143262Y0048133
X01506491Y0047842
X01526491
X01546491
X01566491
X0156464Y0057785
X0154813Y0058293
X014859Y0056388
X0146685Y0056515
X0145545Y0054483
X0142494Y0056388
X0140574Y005653
X0139065Y0053721
X01317922Y0056261
X012954Y0058293
X0150749Y0053848
X0150495Y0039751
X0145669Y00395872
X014351Y0039258
X01529291Y00341877
X01544531
X01571201Y00340607
X0153546Y0071755
X01586491Y0047842
X0160655Y0048006
X01626491Y0047842
X01646491
X01666491
X01632727Y00499559
X01622545Y00499798
X01684537Y0051816
X0171196Y0053721
X0172847Y0052451
X0175387Y0051181
X0172339Y0043942
X0170576Y0042687
X01688198Y0041656
X0164719Y0039116
X0163068Y003556
X0161656Y0036972
X01586441Y00341877
X019431Y003937
X0196215Y00397142
X0193554Y0047879
X0192266Y0047864
X0194059Y0054737
X0196088Y0056388
X0189995Y005588
X0187186Y0054371
X018542Y0056515
X0180848Y0056261
X0191389Y0060071
X01998775Y005715
X0197854Y0054752
X0201422Y005334
X0204597Y0055372
X0205613Y0056642
X0203835Y0057912
X0203059Y0047842
X0205059
X0207059
X0209059
X0211059
X0213059
X0215059
X0217059
X02136826Y00499559
X02126644Y00499798
X0219075Y0052451
X0221107Y005334
X0223266Y0052451
X0225806Y0051181
X0223336Y0044454
X0221249Y0042687
X02191148Y0041783
X0215268Y0038989
X0213106Y003683
X0211582
X02090578Y00341062
X02075338Y00339792
X02048668Y00341062
X02033428
X0200914Y0039751
X0201059Y0047842
X0203076Y0071374
X0168786Y0077724
X0152911Y007874
X0147069Y0073152
Y0084582
X0103Y0083439
X0045215Y0088773
X0039246Y0089154
X0040262Y0092075
X0039878Y0080645
X0033782Y0079121
X0032639Y0079375
X0032134Y0084963
X0033785Y0085471
X0034544Y0084201
X0030864Y0084074
X0031118Y0087122
X0027054Y0086868
X0030483Y0091186
X0029594Y0094234
X0037341Y0091948
X0036576Y0089662
X0035814Y00762
X003429Y0073914
X0023002Y0077978
T02
X0199233Y0003899
X0204233
X0209233
X0214233
X0219233
X0224233
X0226733Y0008899
X0231733
X0229233Y0013899
X0224233
X0219233
X0214233
X0209233
X0204233
X0199233
X0201733Y0008899
X0216733
X0221733
Y0018899
X0226733
X0231733
X0229233Y0023899
X0224233
X0219233
X0221733Y0028899
X0226733
X0231733
X0216733Y0018899
X0194233Y0013899
X0189233
X0191733Y0008899
X0196733
X0194233Y0003899
X0189233
X0184233
X0179233
X0174233
X0169233
X0164233
X0159233
X0161733Y0008899
X0166733
X0171733
X0176733
X0179233Y0013899
X0174233
X0169233
X0164233
X0159233
X0166733Y0018899
X0171733
X0176733
X0181733
X0179233Y0023899
X0174233
X0169233
X0164233
X0171733Y0028899
X0176733
X0181733
X0154233Y0013899
X0149233
X0144233
X0146733Y0008899
X0151733
X0154233Y0003899
X0149233
X0144233
X0139233
X0134233
X0129233
X0124233
X0119233
X0121733Y0008899
X0126733
X0129233Y0013899
X0124233
X0119233
X0121733Y0018899
X0126733
X0129233Y0023899
X0124233
X0119233
X0121733Y0028899
X0126733
X0131733
X0136733Y0008899
X0141733
X0116733
X0111733
X0106733
X0109233Y0013899
X0114233
X0116733Y0018899
X0114233Y0023899
X0116733Y0028899
X0114233Y0003899
X0109233
X0104233
X0099233
X0094233
X0089233
X0084233
X0079233
Y0013899
X0081733Y0018899
X0079233Y0023899
X0081733Y0028899
X0089233Y0013899
X0094233
X0099233
X0104233
X0096733Y0008899
X0091733
X0086733
X0076733
X0071733
X0066733
X0061733
X0056733
X0059233Y0013899
X0064233
X0069233
X0074233
X0076733Y0018899
X0071733
X0066733
X0069233Y0023899
X0074233
X0076733Y0028899
X0071733
X0066733
X0064233Y0023899
Y0003899
X0069233
X0074233
X0059233
X0054233
X0049233
X0044233
X0039233
X0041733Y0008899
X0044233Y0013899
X0049233
X0054233
X0039233
X0036733Y0008899
X0034233Y0003899
X0029233
X0024233
X0019233
X0014233
X0009233
X0011733Y0008899
X0016733
X0021733
X0026733
X0024233Y0013899
X0019233
X0014233
X0009233
X0004233
X0006733Y0008899
X0016733Y0018899
X0021733
X0026733
X0031733
X0029233Y0023899
X0031733Y0028899
X0036733
X0026733
X0029233Y0033899
X0034233
X0036733Y0038899
X0031733
X0034233Y0043899
X0029233
X0024233
X0019233
X0014233
X0009233
X0004233
X0003314Y0051181
X0004233Y0053899
X0006733Y0058899
X0011733
X0016733
X0021733
X0026733
X0030353Y00556649
X0035052Y0055753
X00381Y0053467
X0031733Y0048899
X0026733
X0021733
X0016733
X0010668Y00482202
X0014233Y0053899
X0019233
X0024233
X0032893Y0065151
X002921Y0072644
X0020543Y0070612
X0014233Y0068899
X0009233
X0004233
X0043307Y00693031
X0054233Y0068899
X0059233
X0064233
X0069233
X0074233
X0076733Y0058899
X0071733
X00540385Y00554355
X0049911Y0053721
X0045593Y0055753
X0039624
X0040894Y0059944
X0040513Y0048387
X00518292Y0047842
X00538292
X00558292
X00578292
X0061595Y0035941
X0074233Y0033899
X0076733Y0038899
X0049403Y0039243
X0044958Y0039497
X0043053Y0038735
X0081733Y0038899
X0079233Y0033899
X0081733Y0048899
X0083566Y00689221
X0079233Y0068899
X0094107Y00687951
X0101092Y0068072
X0109233Y0068899
X0114233
X0119233
X0124233
X0133985Y00698111
X0144653Y0070092
X0151765Y0068707
X0126733Y0058899
X0121733
X0131733Y0048899
X0134233Y0043899
X0131733Y0038899
X0126733
X0129233Y0033899
X0124233
X0174233
X0179233
X0184233
X0181733Y0038899
X0176733
X0184233Y0043899
X0181733Y0048899
X0176733Y0058899
X0171733
X0174233Y0068899
X0169233
X0164233
X0159233
X0183388Y00695571
X0193929Y0069838
X0201168Y0068834
X0209233Y0068899
X0214233
X0219233
X0224233
X0229233
X0231733Y0058899
X0226733
X0221733
X0231733Y0048899
Y0038899
X0226733
X0229233Y0033899
X0231733Y0073899
X0226733
X0221733
X0216733
X0211733
X0206733
X0209233Y0078899
X0214233
X0219233
X0224233
X0229233
X0231733Y0083899
X0226733
X0221733
X0216733
X0211733
X0206733
X0201733
X0204233Y0088899
X0209233
X0214233
X0219233
X0224233
X0229233
X0199233
Y0078899
X0204233
X0196733Y0083899
X0191733
X0194233Y0088899
X0189233
X0184233
X0179233
X0174233
X0169233
X0164233
X0159233
X0161733Y0073899
X0166733
X0171733
X0176733
X0186733
X0191733
X0156733
X0151733
X0141733
Y0083899
X0136733
X0131733
X0126733
X0121733
X0124233Y0088899
X0129233
X0134233
X0149233
X0154233
X0119233
X0114233
X0109233
X0104233
X0106733Y0083899
X0111733
X0116733
X0091733
X0086733
X0081733
X0084233Y0078899
X0089233
X0094233
X0079233
X0074233
X0069233
X0063627Y0077851
X0062992Y0079629
X0061722Y0081026
X0061733Y0083899
X0066733
X0071733
X0076733
X0045466Y008382
X00421625Y00836945
X0038735Y0083312
X0027305Y008001
X0025273Y0075565
X0025019Y007366
X0021733Y0073899
X0016733
X0011733
Y0083899
X0009525Y0082677
X0009779Y0085725
X0005588Y0086868
Y0088519
X0008255Y0092964
X0010024Y0092983
X0020193Y0091821
Y0089916
X00226487Y00878599
X0024892Y0089662
X0024638Y0091567
X002159Y0083439
X0016733Y0083899
X0019304Y0080137
T03
X0004445Y0018669
Y0021169
X0011303
Y0018669
X0021844Y0025273
Y0027773
X0024768Y0036489
Y0038989
X0016005Y0041148
Y0036148
X0044831Y0051562
X0047331
X0095036Y0051308
X0097536
X0145585Y0051562
X0148085
X0195877Y0051943
X0198377
X001397Y0079375
Y0081875
T04
X0004699Y0072708
Y0074708
Y0076708
Y0078708
T05
X0207902Y0009271
X0210442
X0157991
X0155451
X0102873
X0100333
X0050168
X0047628
X00468292Y0043942
X00488292
X00508292
X00528292
X00548292
X00568292
X00588292
X00608292
X00628292
X00648292
X00668292
X0065786Y0057404
X0063246
X0060706
X0058166
X00448292Y0043942
X00428292
X00932391
X00952391
X00972391
X00992391
X01012391
X01032391
X01052391
X01072391
X01092391
X01112391
X01132391
X01152391
X01172391
X01161471Y0057452
X01136071
X01110671
X01085271
X01436491Y0043942
X01456491
X01476491
X01496491
X01516491
X01536491
X01556491
X01576491
X01596491
X01616491
X01636491
X01656491
X01676491
X01665571Y0057452
X01640171
X01614771
X01589371
X0194059Y0043942
X0196059
X0198059
X0200059
X0202059
X0204059
X0206059
X0208059
X0210059
X0212059
X0214059
X0216059
X0218059
X0216967Y0057452
X0214427
X0211887
X0209347
T06
X0002369Y0035767
Y0040767
X0007369
Y0035767
T07
X0009906Y0028956
X0012446
X0014986
T08
X0053721Y008255
Y008509
Y008763
X0056261Y008636
Y008382
Y008128
T09
X0053721Y008005
T10
X0232918Y0003175
X01840192Y00118122
X01336093
X00831993
X00327894
X0003302Y0003175
X00752158Y00542386
X01256258
X01760357
X02264456
X0233299Y009271
X0003302Y0092964
T11
X00418592Y0033642
X0067945Y0034196
X00922691Y0033642
X01183549Y0034196
X01426791Y0033642
X01687649Y0034196
X0193089Y0033642
X02191748Y0034196
M30
