G04*
G04 #@! TF.GenerationSoftware,Altium Limited,Altium Designer,22.1.2 (22)*
G04*
G04 Layer_Color=16711935*
%FSLAX44Y44*%
%MOMM*%
G71*
G04*
G04 #@! TF.SameCoordinates,E8DC7784-5412-4491-ADA6-3D39AB0E1C33*
G04*
G04*
G04 #@! TF.FilePolarity,Negative*
G04*
G01*
G75*
%ADD68C,2.0000*%
%ADD69C,1.3532*%
%ADD70R,1.3532X1.3532*%
%ADD71C,1.7032*%
%ADD72R,1.7032X1.7032*%
%ADD73R,1.3532X1.3532*%
%ADD74R,1.7000X1.7000*%
%ADD75C,1.7000*%
%ADD76C,1.7272*%
%ADD77C,2.3032*%
%ADD78C,1.5032*%
%ADD79R,1.5032X1.5032*%
%ADD80C,3.7032*%
%ADD81R,5.7192X5.7192*%
%ADD82R,1.6032X2.2032*%
%ADD83C,2.2032*%
%ADD84R,2.2032X2.2032*%
%ADD125R,0.8382X4.4032*%
D68*
X23690Y357670D02*
D03*
Y407670D02*
D03*
X73690Y357670D02*
D03*
Y407670D02*
D03*
D69*
X1983770Y519430D02*
D03*
X1480850Y515620D02*
D03*
X473310D02*
D03*
X44450Y186690D02*
D03*
X113030D02*
D03*
X160050Y411480D02*
D03*
X247680Y389890D02*
D03*
X218440Y252730D02*
D03*
X975360Y513080D02*
D03*
X139700Y818750D02*
D03*
D70*
X1958770Y519430D02*
D03*
X1455850Y515620D02*
D03*
X448310D02*
D03*
X950360Y513080D02*
D03*
D71*
X476280Y92710D02*
D03*
X2079020D02*
D03*
X1554510D02*
D03*
X1003330D02*
D03*
D72*
X501680D02*
D03*
X2104420D02*
D03*
X1579910D02*
D03*
X1028730D02*
D03*
D73*
X44450Y211690D02*
D03*
X113030D02*
D03*
X160050Y361480D02*
D03*
X247680Y364890D02*
D03*
X218440Y277730D02*
D03*
X139700Y793750D02*
D03*
D74*
X99060Y289560D02*
D03*
D75*
X124460D02*
D03*
X149860D02*
D03*
D76*
X537210Y800500D02*
D03*
D77*
X562610Y863600D02*
D03*
Y838200D02*
D03*
X537210Y876300D02*
D03*
Y850900D02*
D03*
Y825500D02*
D03*
X562610Y812800D02*
D03*
D78*
X46990Y787080D02*
D03*
Y767080D02*
D03*
Y747080D02*
D03*
D79*
Y727080D02*
D03*
D80*
X2329180Y31750D02*
D03*
X33020D02*
D03*
Y929640D02*
D03*
X2332990Y927100D02*
D03*
X752158Y542386D02*
D03*
X327894Y118122D02*
D03*
X1256258Y542386D02*
D03*
X831993Y118122D02*
D03*
X1760357Y542386D02*
D03*
X1336093Y118122D02*
D03*
X2264456Y542386D02*
D03*
X1840192Y118122D02*
D03*
D81*
X418592Y336420D02*
D03*
X679450Y341960D02*
D03*
X922691Y336420D02*
D03*
X1183549Y341960D02*
D03*
X1426791Y336420D02*
D03*
X1687649Y341960D02*
D03*
X1930890Y336420D02*
D03*
X2191748Y341960D02*
D03*
D82*
X428292Y439420D02*
D03*
X448292D02*
D03*
X468292D02*
D03*
X488292D02*
D03*
X508292D02*
D03*
X528292D02*
D03*
X548292D02*
D03*
X568292D02*
D03*
X588292D02*
D03*
X608292D02*
D03*
X628292D02*
D03*
X648292D02*
D03*
X668292D02*
D03*
X932391D02*
D03*
X952391D02*
D03*
X972391D02*
D03*
X992391D02*
D03*
X1012391D02*
D03*
X1032391D02*
D03*
X1052391D02*
D03*
X1072391D02*
D03*
X1092391D02*
D03*
X1112391D02*
D03*
X1132391D02*
D03*
X1152391D02*
D03*
X1172391D02*
D03*
X1436491D02*
D03*
X1456491D02*
D03*
X1476491D02*
D03*
X1496491D02*
D03*
X1516491D02*
D03*
X1536491D02*
D03*
X1556491D02*
D03*
X1576491D02*
D03*
X1596491D02*
D03*
X1616491D02*
D03*
X1636491D02*
D03*
X1656491D02*
D03*
X1676491D02*
D03*
X1940590D02*
D03*
X1960590D02*
D03*
X1980590D02*
D03*
X2000590D02*
D03*
X2020590D02*
D03*
X2040590D02*
D03*
X2060590D02*
D03*
X2080590D02*
D03*
X2100590D02*
D03*
X2120590D02*
D03*
X2140590D02*
D03*
X2160590D02*
D03*
X2180590D02*
D03*
D83*
X2169670Y574520D02*
D03*
X2144270D02*
D03*
X2118870D02*
D03*
X607060Y574040D02*
D03*
X632460D02*
D03*
X657860D02*
D03*
X1110671Y574520D02*
D03*
X1136071D02*
D03*
X1161471D02*
D03*
X1614771D02*
D03*
X1640171D02*
D03*
X1665571D02*
D03*
D84*
X2093470D02*
D03*
X581660Y574040D02*
D03*
X1085271Y574520D02*
D03*
X1589371D02*
D03*
D125*
X438292Y478420D02*
D03*
X458292D02*
D03*
X478292D02*
D03*
X498292D02*
D03*
X518292D02*
D03*
X538292D02*
D03*
X558292D02*
D03*
X578292D02*
D03*
X598292D02*
D03*
X618292D02*
D03*
X638292D02*
D03*
X658292D02*
D03*
X942391D02*
D03*
X962391D02*
D03*
X982391D02*
D03*
X1002391D02*
D03*
X1022391D02*
D03*
X1042391D02*
D03*
X1062391D02*
D03*
X1082391D02*
D03*
X1102391D02*
D03*
X1122391D02*
D03*
X1142391D02*
D03*
X1162391D02*
D03*
X1446491D02*
D03*
X1466491D02*
D03*
X1486491D02*
D03*
X1506491D02*
D03*
X1526491D02*
D03*
X1546491D02*
D03*
X1566491D02*
D03*
X1586491D02*
D03*
X1606491D02*
D03*
X1626491D02*
D03*
X1646491D02*
D03*
X1666491D02*
D03*
X1950590D02*
D03*
X1970590D02*
D03*
X1990590D02*
D03*
X2010590D02*
D03*
X2030590D02*
D03*
X2050590D02*
D03*
X2070590D02*
D03*
X2090590D02*
D03*
X2110590D02*
D03*
X2130590D02*
D03*
X2150590D02*
D03*
X2170590D02*
D03*
M02*
