G04*
G04 #@! TF.GenerationSoftware,Altium Limited,Altium Designer,22.1.2 (22)*
G04*
G04 Layer_Color=8421504*
%FSLAX44Y44*%
%MOMM*%
G71*
G04*
G04 #@! TF.SameCoordinates,E8DC7784-5412-4491-ADA6-3D39AB0E1C33*
G04*
G04*
G04 #@! TF.FilePolarity,Positive*
G04*
G01*
G75*
%ADD20O,2.0380X0.5740*%
%ADD21R,1.0000X0.9000*%
%ADD22R,1.1000X1.0000*%
%ADD23R,1.0000X1.1000*%
%ADD24R,0.9000X1.0000*%
%ADD25R,1.6000X1.5000*%
%ADD26R,1.5250X1.7800*%
%ADD27O,0.9000X2.0000*%
%ADD28R,2.0000X1.4000*%
%ADD29R,3.2500X2.3500*%
%ADD30R,1.2500X0.7000*%
%ADD31R,0.7000X1.2500*%
%ADD32R,1.5000X1.6000*%
%ADD33O,2.0000X0.3000*%
%ADD34O,0.3000X2.0000*%
%ADD35R,1.5063X2.3760*%
%ADD36R,1.4700X1.0700*%
%ADD37R,0.6500X1.8000*%
%ADD38R,0.5000X1.6000*%
%ADD39R,1.3500X1.8000*%
%ADD40R,2.1500X0.9000*%
%ADD41R,2.1500X3.2500*%
G36*
X1967390Y701446D02*
Y696440D01*
X1966990Y696040D01*
X1962390D01*
X1961990Y696440D01*
Y701446D01*
X1962390Y701846D01*
X1966990D01*
X1967390Y701446D01*
D02*
G37*
G36*
X1861980D02*
Y696440D01*
X1861580Y696040D01*
X1856980D01*
X1856580Y696440D01*
Y701446D01*
X1856980Y701846D01*
X1861580D01*
X1861980Y701446D01*
D02*
G37*
G36*
X1473360D02*
Y696440D01*
X1472960Y696040D01*
X1468360D01*
X1467960Y696440D01*
Y701446D01*
X1468360Y701846D01*
X1472960D01*
X1473360Y701446D01*
D02*
G37*
G36*
X1367950D02*
Y696440D01*
X1367550Y696040D01*
X1362950D01*
X1362550Y696440D01*
Y701446D01*
X1362950Y701846D01*
X1367550D01*
X1367950Y701446D01*
D02*
G37*
G36*
X357030Y697636D02*
Y692630D01*
X356630Y692230D01*
X352030D01*
X351630Y692630D01*
Y697636D01*
X352030Y698036D01*
X356630D01*
X357030Y697636D01*
D02*
G37*
G36*
X462440Y696366D02*
Y691360D01*
X462040Y690960D01*
X457440D01*
X457040Y691360D01*
Y696366D01*
X457440Y696766D01*
X462040D01*
X462440Y696366D01*
D02*
G37*
G36*
X863760Y695096D02*
Y690090D01*
X863360Y689690D01*
X858760D01*
X858360Y690090D01*
Y695096D01*
X858760Y695496D01*
X863360D01*
X863760Y695096D01*
D02*
G37*
G36*
X1967390Y692940D02*
Y687934D01*
X1966990Y687533D01*
X1962390D01*
X1961990Y687934D01*
Y692940D01*
X1962390Y693340D01*
X1966990D01*
X1967390Y692940D01*
D02*
G37*
G36*
X1861980D02*
Y687934D01*
X1861580Y687533D01*
X1856980D01*
X1856580Y687934D01*
Y692940D01*
X1856980Y693340D01*
X1861580D01*
X1861980Y692940D01*
D02*
G37*
G36*
X1473360D02*
Y687934D01*
X1472960Y687533D01*
X1468360D01*
X1467960Y687934D01*
Y692940D01*
X1468360Y693340D01*
X1472960D01*
X1473360Y692940D01*
D02*
G37*
G36*
X1367950D02*
Y687934D01*
X1367550Y687533D01*
X1362950D01*
X1362550Y687934D01*
Y692940D01*
X1362950Y693340D01*
X1367550D01*
X1367950Y692940D01*
D02*
G37*
G36*
X525940Y692556D02*
Y687550D01*
X525540Y687150D01*
X520940D01*
X520540Y687550D01*
Y692556D01*
X520940Y692956D01*
X525540D01*
X525940Y692556D01*
D02*
G37*
G36*
X969170Y691286D02*
Y686280D01*
X968770Y685880D01*
X964170D01*
X963770Y686280D01*
Y691286D01*
X964170Y691686D01*
X968770D01*
X969170Y691286D01*
D02*
G37*
G36*
X357030Y689130D02*
Y684124D01*
X356630Y683724D01*
X352030D01*
X351630Y684124D01*
Y689130D01*
X352030Y689530D01*
X356630D01*
X357030Y689130D01*
D02*
G37*
G36*
X1538130Y688746D02*
Y683740D01*
X1537730Y683340D01*
X1533130D01*
X1532730Y683740D01*
Y688746D01*
X1533130Y689146D01*
X1537730D01*
X1538130Y688746D01*
D02*
G37*
G36*
X462440Y687860D02*
Y682854D01*
X462040Y682454D01*
X457440D01*
X457040Y682854D01*
Y687860D01*
X457440Y688260D01*
X462040D01*
X462440Y687860D01*
D02*
G37*
G36*
X2033430Y687476D02*
Y682470D01*
X2033030Y682070D01*
X2028430D01*
X2028030Y682470D01*
Y687476D01*
X2028430Y687876D01*
X2033030D01*
X2033430Y687476D01*
D02*
G37*
G36*
X863760Y686590D02*
Y681584D01*
X863360Y681183D01*
X858760D01*
X858360Y681584D01*
Y686590D01*
X858760Y686990D01*
X863360D01*
X863760Y686590D01*
D02*
G37*
G36*
X525940Y684050D02*
Y679044D01*
X525540Y678643D01*
X520940D01*
X520540Y679044D01*
Y684050D01*
X520940Y684450D01*
X525540D01*
X525940Y684050D01*
D02*
G37*
G36*
X1032670Y683148D02*
Y678142D01*
X1032270Y677742D01*
X1027670D01*
X1027270Y678142D01*
Y683148D01*
X1027670Y683548D01*
X1032270D01*
X1032670Y683148D01*
D02*
G37*
G36*
X969170Y682780D02*
Y677774D01*
X968770Y677374D01*
X964170D01*
X963770Y677774D01*
Y682780D01*
X964170Y683180D01*
X968770D01*
X969170Y682780D01*
D02*
G37*
G36*
X1538130Y680240D02*
Y675234D01*
X1537730Y674834D01*
X1533130D01*
X1532730Y675234D01*
Y680240D01*
X1533130Y680640D01*
X1537730D01*
X1538130Y680240D01*
D02*
G37*
G36*
X2033430Y678970D02*
Y673964D01*
X2033030Y673564D01*
X2028430D01*
X2028030Y673964D01*
Y678970D01*
X2028430Y679370D01*
X2033030D01*
X2033430Y678970D01*
D02*
G37*
G36*
X1032670Y674642D02*
Y669635D01*
X1032270Y669235D01*
X1027670D01*
X1027270Y669635D01*
Y674642D01*
X1027670Y675042D01*
X1032270D01*
X1032670Y674642D01*
D02*
G37*
G36*
X518966Y578880D02*
Y574280D01*
X518566Y573880D01*
X513560D01*
X513160Y574280D01*
Y578880D01*
X513560Y579280D01*
X518566D01*
X518966Y578880D01*
D02*
G37*
G36*
X510460D02*
Y574280D01*
X510060Y573880D01*
X505053D01*
X504654Y574280D01*
Y578880D01*
X505053Y579280D01*
X510060D01*
X510460Y578880D01*
D02*
G37*
G36*
X1527376Y575070D02*
Y570470D01*
X1526976Y570070D01*
X1521970D01*
X1521570Y570470D01*
Y575070D01*
X1521970Y575470D01*
X1526976D01*
X1527376Y575070D01*
D02*
G37*
G36*
X1518870D02*
Y570470D01*
X1518470Y570070D01*
X1513463D01*
X1513064Y570470D01*
Y575070D01*
X1513463Y575470D01*
X1518470D01*
X1518870Y575070D01*
D02*
G37*
G36*
X2018866Y572530D02*
Y567930D01*
X2018466Y567530D01*
X2013460D01*
X2013060Y567930D01*
Y572530D01*
X2013460Y572930D01*
X2018466D01*
X2018866Y572530D01*
D02*
G37*
G36*
X2010360D02*
Y567930D01*
X2009960Y567530D01*
X2004953D01*
X2004554Y567930D01*
Y572530D01*
X2004953Y572930D01*
X2009960D01*
X2010360Y572530D01*
D02*
G37*
G36*
X1028266Y569990D02*
Y565390D01*
X1027866Y564990D01*
X1022860D01*
X1022460Y565390D01*
Y569990D01*
X1022860Y570390D01*
X1027866D01*
X1028266Y569990D01*
D02*
G37*
G36*
X1019760D02*
Y565390D01*
X1019360Y564990D01*
X1014353D01*
X1013953Y565390D01*
Y569990D01*
X1014353Y570390D01*
X1019360D01*
X1019760Y569990D01*
D02*
G37*
G36*
X518966D02*
Y565390D01*
X518566Y564990D01*
X513560D01*
X513160Y565390D01*
Y569990D01*
X513560Y570390D01*
X518566D01*
X518966Y569990D01*
D02*
G37*
G36*
X510460D02*
Y565390D01*
X510060Y564990D01*
X505053D01*
X504654Y565390D01*
Y569990D01*
X505053Y570390D01*
X510060D01*
X510460Y569990D01*
D02*
G37*
G36*
X1846116Y567450D02*
Y562850D01*
X1845716Y562450D01*
X1840710D01*
X1840310Y562850D01*
Y567450D01*
X1840710Y567850D01*
X1845716D01*
X1846116Y567450D01*
D02*
G37*
G36*
X1837610D02*
Y562850D01*
X1837210Y562450D01*
X1832204D01*
X1831803Y562850D01*
Y567450D01*
X1832204Y567850D01*
X1837210D01*
X1837610Y567450D01*
D02*
G37*
G36*
X1458766D02*
Y562850D01*
X1458366Y562450D01*
X1453360D01*
X1452960Y562850D01*
Y567450D01*
X1453360Y567850D01*
X1458366D01*
X1458766Y567450D01*
D02*
G37*
G36*
X1450260D02*
Y562850D01*
X1449860Y562450D01*
X1444854D01*
X1444453Y562850D01*
Y567450D01*
X1444854Y567850D01*
X1449860D01*
X1450260Y567450D01*
D02*
G37*
G36*
X1527376Y566180D02*
Y561580D01*
X1526976Y561180D01*
X1521970D01*
X1521570Y561580D01*
Y566180D01*
X1521970Y566580D01*
X1526976D01*
X1527376Y566180D01*
D02*
G37*
G36*
X1518870D02*
Y561580D01*
X1518470Y561180D01*
X1513463D01*
X1513064Y561580D01*
Y566180D01*
X1513463Y566580D01*
X1518470D01*
X1518870Y566180D01*
D02*
G37*
G36*
X1951526Y564910D02*
Y560310D01*
X1951126Y559910D01*
X1946120D01*
X1945720Y560310D01*
Y564910D01*
X1946120Y565310D01*
X1951126D01*
X1951526Y564910D01*
D02*
G37*
G36*
X1943020D02*
Y560310D01*
X1942620Y559910D01*
X1937614D01*
X1937213Y560310D01*
Y564910D01*
X1937614Y565310D01*
X1942620D01*
X1943020Y564910D01*
D02*
G37*
G36*
X1344496D02*
Y560310D01*
X1344096Y559910D01*
X1339090D01*
X1338690Y560310D01*
Y564910D01*
X1339090Y565310D01*
X1344096D01*
X1344496Y564910D01*
D02*
G37*
G36*
X1335990D02*
Y560310D01*
X1335590Y559910D01*
X1330583D01*
X1330184Y560310D01*
Y564910D01*
X1330583Y565310D01*
X1335590D01*
X1335990Y564910D01*
D02*
G37*
G36*
X446576D02*
Y560310D01*
X446176Y559910D01*
X441170D01*
X440770Y560310D01*
Y564910D01*
X441170Y565310D01*
X446176D01*
X446576Y564910D01*
D02*
G37*
G36*
X438070D02*
Y560310D01*
X437670Y559910D01*
X432663D01*
X432263Y560310D01*
Y564910D01*
X432663Y565310D01*
X437670D01*
X438070Y564910D01*
D02*
G37*
G36*
X339896D02*
Y560310D01*
X339496Y559910D01*
X334490D01*
X334090Y560310D01*
Y564910D01*
X334490Y565310D01*
X339496D01*
X339896Y564910D01*
D02*
G37*
G36*
X331390D02*
Y560310D01*
X330990Y559910D01*
X325984D01*
X325583Y560310D01*
Y564910D01*
X325984Y565310D01*
X330990D01*
X331390Y564910D01*
D02*
G37*
G36*
X2019384Y563640D02*
Y559040D01*
X2018985Y558640D01*
X2013978D01*
X2013578Y559040D01*
Y563640D01*
X2013978Y564040D01*
X2018985D01*
X2019384Y563640D01*
D02*
G37*
G36*
X2010878D02*
Y559040D01*
X2010478Y558640D01*
X2005472D01*
X2005072Y559040D01*
Y563640D01*
X2005472Y564040D01*
X2010478D01*
X2010878Y563640D01*
D02*
G37*
G36*
X849166Y562370D02*
Y557770D01*
X848766Y557370D01*
X843760D01*
X843360Y557770D01*
Y562370D01*
X843760Y562770D01*
X848766D01*
X849166Y562370D01*
D02*
G37*
G36*
X840660D02*
Y557770D01*
X840260Y557370D01*
X835254D01*
X834854Y557770D01*
Y562370D01*
X835254Y562770D01*
X840260D01*
X840660Y562370D01*
D02*
G37*
G36*
X1028266Y561100D02*
Y556500D01*
X1027866Y556100D01*
X1022860D01*
X1022460Y556500D01*
Y561100D01*
X1022860Y561500D01*
X1027866D01*
X1028266Y561100D01*
D02*
G37*
G36*
X1019760D02*
Y556500D01*
X1019360Y556100D01*
X1014353D01*
X1013953Y556500D01*
Y561100D01*
X1014353Y561500D01*
X1019360D01*
X1019760Y561100D01*
D02*
G37*
G36*
X948745D02*
Y556500D01*
X948344Y556100D01*
X943338D01*
X942938Y556500D01*
Y561100D01*
X943338Y561500D01*
X948344D01*
X948745Y561100D01*
D02*
G37*
G36*
X940238D02*
Y556500D01*
X939838Y556100D01*
X934832D01*
X934432Y556500D01*
Y561100D01*
X934832Y561500D01*
X939838D01*
X940238Y561100D01*
D02*
G37*
G36*
X1550860Y557936D02*
Y552930D01*
X1550460Y552530D01*
X1545860D01*
X1545460Y552930D01*
Y557936D01*
X1545860Y558336D01*
X1550460D01*
X1550860Y557936D01*
D02*
G37*
G36*
Y549430D02*
Y544424D01*
X1550460Y544024D01*
X1545860D01*
X1545460Y544424D01*
Y549430D01*
X1545860Y549830D01*
X1550460D01*
X1550860Y549430D01*
D02*
G37*
G36*
X1045400Y548528D02*
Y543522D01*
X1045000Y543122D01*
X1040400D01*
X1040000Y543522D01*
Y548528D01*
X1040400Y548928D01*
X1045000D01*
X1045400Y548528D01*
D02*
G37*
G36*
X2048700Y542696D02*
Y537690D01*
X2048300Y537290D01*
X2043700D01*
X2043300Y537690D01*
Y542696D01*
X2043700Y543096D01*
X2048300D01*
X2048700Y542696D01*
D02*
G37*
G36*
X542450Y540156D02*
Y535150D01*
X542050Y534750D01*
X537450D01*
X537050Y535150D01*
Y540156D01*
X537450Y540556D01*
X542050D01*
X542450Y540156D01*
D02*
G37*
G36*
X1045400Y540022D02*
Y535015D01*
X1045000Y534615D01*
X1040400D01*
X1040000Y535015D01*
Y540022D01*
X1040400Y540422D01*
X1045000D01*
X1045400Y540022D01*
D02*
G37*
G36*
X2048700Y534190D02*
Y529184D01*
X2048300Y528783D01*
X2043700D01*
X2043300Y529184D01*
Y534190D01*
X2043700Y534590D01*
X2048300D01*
X2048700Y534190D01*
D02*
G37*
G36*
X542450Y531650D02*
Y526644D01*
X542050Y526244D01*
X537450D01*
X537050Y526644D01*
Y531650D01*
X537450Y532050D01*
X542050D01*
X542450Y531650D01*
D02*
G37*
G36*
X109380Y516026D02*
Y511020D01*
X108980Y510620D01*
X104380D01*
X103980Y511020D01*
Y516026D01*
X104380Y516426D01*
X108980D01*
X109380Y516026D01*
D02*
G37*
G36*
Y507520D02*
Y502514D01*
X108980Y502113D01*
X104380D01*
X103980Y502514D01*
Y507520D01*
X104380Y507920D01*
X108980D01*
X109380Y507520D01*
D02*
G37*
G36*
X2260760Y503326D02*
Y498320D01*
X2260360Y497920D01*
X2255760D01*
X2255360Y498320D01*
Y503326D01*
X2255760Y503726D01*
X2260360D01*
X2260760Y503326D01*
D02*
G37*
G36*
X1756570D02*
Y498320D01*
X1756170Y497920D01*
X1751570D01*
X1751170Y498320D01*
Y503326D01*
X1751570Y503726D01*
X1756170D01*
X1756570Y503326D01*
D02*
G37*
G36*
X1247300D02*
Y498320D01*
X1246900Y497920D01*
X1242300D01*
X1241900Y498320D01*
Y503326D01*
X1242300Y503726D01*
X1246900D01*
X1247300Y503326D01*
D02*
G37*
G36*
X746920D02*
Y498320D01*
X746520Y497920D01*
X741920D01*
X741520Y498320D01*
Y503326D01*
X741920Y503726D01*
X746520D01*
X746920Y503326D01*
D02*
G37*
G36*
X2260760Y494820D02*
Y489814D01*
X2260360Y489414D01*
X2255760D01*
X2255360Y489814D01*
Y494820D01*
X2255760Y495220D01*
X2260360D01*
X2260760Y494820D01*
D02*
G37*
G36*
X1756570D02*
Y489814D01*
X1756170Y489414D01*
X1751570D01*
X1751170Y489814D01*
Y494820D01*
X1751570Y495220D01*
X1756170D01*
X1756570Y494820D01*
D02*
G37*
G36*
X1247300D02*
Y489814D01*
X1246900Y489414D01*
X1242300D01*
X1241900Y489814D01*
Y494820D01*
X1242300Y495220D01*
X1246900D01*
X1247300Y494820D01*
D02*
G37*
G36*
X746920D02*
Y489814D01*
X746520Y489414D01*
X741920D01*
X741520Y489814D01*
Y494820D01*
X741920Y495220D01*
X746520D01*
X746920Y494820D01*
D02*
G37*
G36*
X1964850Y423316D02*
Y418310D01*
X1964450Y417910D01*
X1959850D01*
X1959450Y418310D01*
Y423316D01*
X1959850Y423717D01*
X1964450D01*
X1964850Y423316D01*
D02*
G37*
G36*
X451010D02*
Y418310D01*
X450610Y417910D01*
X446010D01*
X445610Y418310D01*
Y423316D01*
X446010Y423717D01*
X450610D01*
X451010Y423316D01*
D02*
G37*
G36*
X1167966Y422670D02*
Y418070D01*
X1167566Y417670D01*
X1162560D01*
X1162160Y418070D01*
Y422670D01*
X1162560Y423070D01*
X1167566D01*
X1167966Y422670D01*
D02*
G37*
G36*
X1159460D02*
Y418070D01*
X1159060Y417670D01*
X1154053D01*
X1153653Y418070D01*
Y422670D01*
X1154053Y423070D01*
X1159060D01*
X1159460Y422670D01*
D02*
G37*
G36*
X663746D02*
Y418070D01*
X663346Y417670D01*
X658340D01*
X657940Y418070D01*
Y422670D01*
X658340Y423070D01*
X663346D01*
X663746Y422670D01*
D02*
G37*
G36*
X655240D02*
Y418070D01*
X654840Y417670D01*
X649834D01*
X649434Y418070D01*
Y422670D01*
X649834Y423070D01*
X654840D01*
X655240Y422670D01*
D02*
G37*
G36*
X1459390Y422046D02*
Y417040D01*
X1458990Y416640D01*
X1454390D01*
X1453990Y417040D01*
Y422046D01*
X1454390Y422446D01*
X1458990D01*
X1459390Y422046D01*
D02*
G37*
G36*
X953930D02*
Y417040D01*
X953530Y416640D01*
X948930D01*
X948530Y417040D01*
Y422046D01*
X948930Y422446D01*
X953530D01*
X953930Y422046D01*
D02*
G37*
G36*
X2178886Y420130D02*
Y415530D01*
X2178486Y415130D01*
X2173480D01*
X2173080Y415530D01*
Y420130D01*
X2173480Y420530D01*
X2178486D01*
X2178886Y420130D01*
D02*
G37*
G36*
X2170380D02*
Y415530D01*
X2169980Y415130D01*
X2164973D01*
X2164574Y415530D01*
Y420130D01*
X2164973Y420530D01*
X2169980D01*
X2170380Y420130D01*
D02*
G37*
G36*
X1675936Y418860D02*
Y414260D01*
X1675536Y413860D01*
X1670530D01*
X1670130Y414260D01*
Y418860D01*
X1670530Y419260D01*
X1675536D01*
X1675936Y418860D01*
D02*
G37*
G36*
X1667430D02*
Y414260D01*
X1667030Y413860D01*
X1662023D01*
X1661624Y414260D01*
Y418860D01*
X1662023Y419260D01*
X1667030D01*
X1667430Y418860D01*
D02*
G37*
G36*
X1964850Y414810D02*
Y409804D01*
X1964450Y409403D01*
X1959850D01*
X1959450Y409804D01*
Y414810D01*
X1959850Y415210D01*
X1964450D01*
X1964850Y414810D01*
D02*
G37*
G36*
X451010D02*
Y409804D01*
X450610Y409403D01*
X446010D01*
X445610Y409804D01*
Y414810D01*
X446010Y415210D01*
X450610D01*
X451010Y414810D01*
D02*
G37*
G36*
X1459390Y413540D02*
Y408534D01*
X1458990Y408134D01*
X1454390D01*
X1453990Y408534D01*
Y413540D01*
X1454390Y413940D01*
X1458990D01*
X1459390Y413540D01*
D02*
G37*
G36*
X953930D02*
Y408534D01*
X953530Y408134D01*
X948930D01*
X948530Y408534D01*
Y413540D01*
X948930Y413940D01*
X953530D01*
X953930Y413540D01*
D02*
G37*
G36*
X1002318Y411240D02*
Y406640D01*
X1001918Y406240D01*
X996912D01*
X996512Y406640D01*
Y411240D01*
X996912Y411640D01*
X1001918D01*
X1002318Y411240D01*
D02*
G37*
G36*
X993812D02*
Y406640D01*
X993412Y406240D01*
X988405D01*
X988005Y406640D01*
Y411240D01*
X988405Y411640D01*
X993412D01*
X993812Y411240D01*
D02*
G37*
G36*
X2012486Y409970D02*
Y405370D01*
X2012086Y404970D01*
X2007080D01*
X2006680Y405370D01*
Y409970D01*
X2007080Y410370D01*
X2012086D01*
X2012486Y409970D01*
D02*
G37*
G36*
X2003980D02*
Y405370D01*
X2003580Y404970D01*
X1998573D01*
X1998174Y405370D01*
Y409970D01*
X1998573Y410370D01*
X2003580D01*
X2003980Y409970D01*
D02*
G37*
G36*
X1508296D02*
Y405370D01*
X1507896Y404970D01*
X1502890D01*
X1502490Y405370D01*
Y409970D01*
X1502890Y410370D01*
X1507896D01*
X1508296Y409970D01*
D02*
G37*
G36*
X1499790D02*
Y405370D01*
X1499390Y404970D01*
X1494384D01*
X1493983Y405370D01*
Y409970D01*
X1494384Y410370D01*
X1499390D01*
X1499790Y409970D01*
D02*
G37*
G36*
X496625D02*
Y405370D01*
X496225Y404970D01*
X491218D01*
X490818Y405370D01*
Y409970D01*
X491218Y410370D01*
X496225D01*
X496625Y409970D01*
D02*
G37*
G36*
X488118D02*
Y405370D01*
X487718Y404970D01*
X482712D01*
X482312Y405370D01*
Y409970D01*
X482712Y410370D01*
X487718D01*
X488118Y409970D01*
D02*
G37*
G36*
X1869630Y245516D02*
Y240510D01*
X1869230Y240110D01*
X1864630D01*
X1864230Y240510D01*
Y245516D01*
X1864630Y245916D01*
X1869230D01*
X1869630Y245516D01*
D02*
G37*
G36*
Y237010D02*
Y232004D01*
X1869230Y231604D01*
X1864630D01*
X1864230Y232004D01*
Y237010D01*
X1864630Y237410D01*
X1869230D01*
X1869630Y237010D01*
D02*
G37*
G36*
X353220Y235356D02*
Y230350D01*
X352820Y229950D01*
X348220D01*
X347820Y230350D01*
Y235356D01*
X348220Y235756D01*
X352820D01*
X353220Y235356D01*
D02*
G37*
G36*
X839660Y234086D02*
Y229080D01*
X839260Y228680D01*
X834660D01*
X834260Y229080D01*
Y234086D01*
X834660Y234486D01*
X839260D01*
X839660Y234086D01*
D02*
G37*
G36*
X353220Y226850D02*
Y221844D01*
X352820Y221444D01*
X348220D01*
X347820Y221844D01*
Y226850D01*
X348220Y227250D01*
X352820D01*
X353220Y226850D01*
D02*
G37*
G36*
X839660Y225580D02*
Y220574D01*
X839260Y220173D01*
X834660D01*
X834260Y220574D01*
Y225580D01*
X834660Y225980D01*
X839260D01*
X839660Y225580D01*
D02*
G37*
G36*
X1340010Y223926D02*
Y218920D01*
X1339610Y218520D01*
X1335010D01*
X1334610Y218920D01*
Y223926D01*
X1335010Y224326D01*
X1339610D01*
X1340010Y223926D01*
D02*
G37*
G36*
Y215420D02*
Y210414D01*
X1339610Y210014D01*
X1335010D01*
X1334610Y210414D01*
Y215420D01*
X1335010Y215820D01*
X1339610D01*
X1340010Y215420D01*
D02*
G37*
D20*
X1997461Y209550D02*
D03*
Y222250D02*
D03*
Y234950D02*
D03*
Y247650D02*
D03*
Y260350D02*
D03*
Y273050D02*
D03*
Y285750D02*
D03*
X1942079Y209550D02*
D03*
Y222250D02*
D03*
Y234950D02*
D03*
Y247650D02*
D03*
Y260350D02*
D03*
Y273050D02*
D03*
Y285750D02*
D03*
X1466601Y189230D02*
D03*
Y201930D02*
D03*
Y214630D02*
D03*
Y227330D02*
D03*
Y240030D02*
D03*
Y252730D02*
D03*
Y265430D02*
D03*
X1411219Y189230D02*
D03*
Y201930D02*
D03*
Y214630D02*
D03*
Y227330D02*
D03*
Y240030D02*
D03*
Y252730D02*
D03*
Y265430D02*
D03*
X967491Y196850D02*
D03*
Y209550D02*
D03*
Y222250D02*
D03*
Y234950D02*
D03*
Y247650D02*
D03*
Y260350D02*
D03*
Y273050D02*
D03*
X912109Y196850D02*
D03*
Y209550D02*
D03*
Y222250D02*
D03*
Y234950D02*
D03*
Y247650D02*
D03*
Y260350D02*
D03*
Y273050D02*
D03*
X428239Y274320D02*
D03*
Y261620D02*
D03*
Y248920D02*
D03*
Y236220D02*
D03*
Y223520D02*
D03*
Y210820D02*
D03*
Y198120D02*
D03*
X483621Y274320D02*
D03*
Y261620D02*
D03*
Y248920D02*
D03*
Y236220D02*
D03*
Y223520D02*
D03*
Y210820D02*
D03*
Y198120D02*
D03*
D21*
X932180Y404980D02*
D03*
Y417980D02*
D03*
X1436370Y404980D02*
D03*
Y417980D02*
D03*
X1879630Y229720D02*
D03*
Y242720D02*
D03*
X1943100Y406250D02*
D03*
Y419250D02*
D03*
X2152680Y404980D02*
D03*
Y417980D02*
D03*
X2232660Y509420D02*
D03*
Y496420D02*
D03*
X2150140Y524660D02*
D03*
Y511660D02*
D03*
X2132360Y525930D02*
D03*
Y512930D02*
D03*
X646460Y520850D02*
D03*
Y507850D02*
D03*
X1141760Y520850D02*
D03*
Y507850D02*
D03*
X1122680Y520850D02*
D03*
Y507850D02*
D03*
X1645950Y522120D02*
D03*
Y509120D02*
D03*
X1628396Y521750D02*
D03*
Y508750D02*
D03*
X1390650Y552300D02*
D03*
Y565300D02*
D03*
X1497330Y552300D02*
D03*
Y565300D02*
D03*
X1648490Y404980D02*
D03*
Y417980D02*
D03*
X1383030Y237340D02*
D03*
Y250340D02*
D03*
X1348740Y208130D02*
D03*
Y221130D02*
D03*
X1141760Y403710D02*
D03*
Y416710D02*
D03*
X882650Y246230D02*
D03*
Y259230D02*
D03*
X848390Y218290D02*
D03*
Y231290D02*
D03*
X381000Y549760D02*
D03*
Y562760D02*
D03*
X485140Y549610D02*
D03*
Y562610D02*
D03*
X429260Y406250D02*
D03*
Y419250D02*
D03*
X398780Y246230D02*
D03*
Y259230D02*
D03*
X363220Y218290D02*
D03*
Y231290D02*
D03*
X715010Y509420D02*
D03*
Y496420D02*
D03*
X887730Y545800D02*
D03*
Y558800D02*
D03*
X991870Y544680D02*
D03*
Y557680D02*
D03*
X589280Y772010D02*
D03*
Y785010D02*
D03*
X283210Y920900D02*
D03*
Y907900D02*
D03*
X269240Y920900D02*
D03*
Y907900D02*
D03*
X328930Y699620D02*
D03*
Y712620D02*
D03*
X387380Y819450D02*
D03*
Y806450D02*
D03*
X314960Y695660D02*
D03*
Y708660D02*
D03*
X300990Y708810D02*
D03*
Y695810D02*
D03*
X267970Y741530D02*
D03*
Y754530D02*
D03*
X342900Y699470D02*
D03*
Y712470D02*
D03*
X100330Y807870D02*
D03*
Y794870D02*
D03*
X640080Y417980D02*
D03*
Y404980D02*
D03*
X1193800Y496420D02*
D03*
Y509420D02*
D03*
X1728470Y496420D02*
D03*
Y509420D02*
D03*
X1913890Y273200D02*
D03*
Y260200D02*
D03*
D22*
X1914000Y241870D02*
D03*
X1896000D02*
D03*
X1905000Y217870D02*
D03*
X2032140Y546670D02*
D03*
X2014140D02*
D03*
X2023140Y522670D02*
D03*
X1374140Y195010D02*
D03*
X1365140Y219010D02*
D03*
X1383140D02*
D03*
X1525300Y526480D02*
D03*
X1516300Y550480D02*
D03*
X1534300D02*
D03*
X882760Y230440D02*
D03*
X864760D02*
D03*
X873760Y206440D02*
D03*
X1028950Y546100D02*
D03*
X1010950D02*
D03*
X1019950Y522100D02*
D03*
X388620Y206440D02*
D03*
X379620Y230440D02*
D03*
X397620D02*
D03*
X516780Y529720D02*
D03*
X507780Y553720D02*
D03*
X525780D02*
D03*
D23*
X2257360Y468630D02*
D03*
X2233360Y459630D02*
D03*
Y477630D02*
D03*
X1727900D02*
D03*
Y459630D02*
D03*
X1751900Y468630D02*
D03*
X1243900D02*
D03*
X1219900Y459630D02*
D03*
Y477630D02*
D03*
X718250D02*
D03*
Y459630D02*
D03*
X742250Y468630D02*
D03*
D24*
X1871860Y558800D02*
D03*
X1884860D02*
D03*
X1510180Y419100D02*
D03*
X1497180D02*
D03*
X2013100D02*
D03*
X2000100D02*
D03*
X2118240Y383540D02*
D03*
X2131240D02*
D03*
X2199490Y441960D02*
D03*
X2212490D02*
D03*
X2042310Y566420D02*
D03*
X2029310D02*
D03*
X1922660Y463550D02*
D03*
X1935660D02*
D03*
X1973460Y476250D02*
D03*
X1986460D02*
D03*
X1978540Y562610D02*
D03*
X1991540D02*
D03*
X619610Y509270D02*
D03*
X632610D02*
D03*
X1419740Y466090D02*
D03*
X1432740D02*
D03*
X1468000Y474980D02*
D03*
X1481000D02*
D03*
X1705760Y441960D02*
D03*
X1692760D02*
D03*
X1617860Y383540D02*
D03*
X1630860D02*
D03*
X1483510Y283210D02*
D03*
X1470510D02*
D03*
X1202840Y441960D02*
D03*
X1189840D02*
D03*
X1112400Y381000D02*
D03*
X1125400D02*
D03*
X984400Y293370D02*
D03*
X971400D02*
D03*
X1003450Y420370D02*
D03*
X990450D02*
D03*
X542440Y574040D02*
D03*
X529440D02*
D03*
X473860Y474980D02*
D03*
X460860D02*
D03*
X699920Y441960D02*
D03*
X686920D02*
D03*
X610750Y383540D02*
D03*
X623750D02*
D03*
X499260Y419100D02*
D03*
X486260D02*
D03*
X500530Y293370D02*
D03*
X487530D02*
D03*
X915550Y464820D02*
D03*
X928550D02*
D03*
X962690Y473710D02*
D03*
X975690D02*
D03*
X1050440Y563880D02*
D03*
X1037440D02*
D03*
X396390Y877570D02*
D03*
X383390D02*
D03*
X388470Y849630D02*
D03*
X401470D02*
D03*
X231290Y815340D02*
D03*
X218290D02*
D03*
X217020Y793750D02*
D03*
X230020D02*
D03*
X84940Y910590D02*
D03*
X97940D02*
D03*
X84940Y885190D02*
D03*
X97940D02*
D03*
X84940Y871220D02*
D03*
X97940D02*
D03*
X424180Y464820D02*
D03*
X411180D02*
D03*
X1539120Y568960D02*
D03*
X1552120D02*
D03*
X1997590Y302260D02*
D03*
X2010590D02*
D03*
D25*
X1774190Y462280D02*
D03*
Y492760D02*
D03*
X2278380Y462280D02*
D03*
Y492760D02*
D03*
X768350Y466090D02*
D03*
Y496570D02*
D03*
X1267460Y462280D02*
D03*
Y492760D02*
D03*
D26*
X1990090Y672831D02*
D03*
X1964690D02*
D03*
X1939290D02*
D03*
X1913890D02*
D03*
X1990090Y581929D02*
D03*
X1964690D02*
D03*
X1939290D02*
D03*
X1913890D02*
D03*
X1808480D02*
D03*
X1833880D02*
D03*
X1859280D02*
D03*
X1884680D02*
D03*
X1808480Y672831D02*
D03*
X1833880D02*
D03*
X1859280D02*
D03*
X1884680D02*
D03*
X1496060Y675371D02*
D03*
X1470660D02*
D03*
X1445260D02*
D03*
X1419860D02*
D03*
X1496060Y584469D02*
D03*
X1470660D02*
D03*
X1445260D02*
D03*
X1419860D02*
D03*
X991870Y665211D02*
D03*
X966470D02*
D03*
X941070D02*
D03*
X915670D02*
D03*
X991870Y574309D02*
D03*
X966470D02*
D03*
X941070D02*
D03*
X915670D02*
D03*
X886460Y666481D02*
D03*
X861060D02*
D03*
X835660D02*
D03*
X810260D02*
D03*
X886460Y575579D02*
D03*
X861060D02*
D03*
X835660D02*
D03*
X810260D02*
D03*
X483870Y670291D02*
D03*
X458470D02*
D03*
X433070D02*
D03*
X407670D02*
D03*
X483870Y579389D02*
D03*
X458470D02*
D03*
X433070D02*
D03*
X407670D02*
D03*
X379730Y670291D02*
D03*
X354330D02*
D03*
X328930D02*
D03*
X303530D02*
D03*
X379730Y579389D02*
D03*
X354330D02*
D03*
X328930D02*
D03*
X303530D02*
D03*
X1314450Y584469D02*
D03*
X1339850D02*
D03*
X1365250D02*
D03*
X1390650D02*
D03*
X1314450Y675371D02*
D03*
X1339850D02*
D03*
X1365250D02*
D03*
X1390650D02*
D03*
D27*
X1535430Y589840D02*
D03*
X1522730D02*
D03*
Y659840D02*
D03*
X1535430D02*
D03*
X1029970Y584760D02*
D03*
X1017270D02*
D03*
Y654760D02*
D03*
X1029970D02*
D03*
X523240Y594920D02*
D03*
X510540D02*
D03*
Y664920D02*
D03*
X523240D02*
D03*
X2029460Y658570D02*
D03*
X2016760D02*
D03*
Y588570D02*
D03*
X2029460D02*
D03*
D28*
X2052760Y278760D02*
D03*
Y258760D02*
D03*
Y218760D02*
D03*
Y198760D02*
D03*
X2107759D02*
D03*
Y218760D02*
D03*
Y258760D02*
D03*
Y278760D02*
D03*
X1602299D02*
D03*
Y258760D02*
D03*
Y218760D02*
D03*
Y198760D02*
D03*
X1547300D02*
D03*
Y218760D02*
D03*
Y258760D02*
D03*
Y278760D02*
D03*
X1041400D02*
D03*
Y258760D02*
D03*
Y218760D02*
D03*
Y198760D02*
D03*
X1096399D02*
D03*
Y218760D02*
D03*
Y258760D02*
D03*
Y278760D02*
D03*
X590109D02*
D03*
Y258760D02*
D03*
Y218760D02*
D03*
Y198760D02*
D03*
X535110D02*
D03*
Y218760D02*
D03*
Y258760D02*
D03*
Y278760D02*
D03*
D29*
X2039620Y407790D02*
D03*
Y359290D02*
D03*
X2081530Y407790D02*
D03*
Y359290D02*
D03*
X1583690Y410330D02*
D03*
Y361830D02*
D03*
X1539240Y410330D02*
D03*
Y361830D02*
D03*
X1073150Y406520D02*
D03*
Y358020D02*
D03*
X1029970Y406520D02*
D03*
Y358020D02*
D03*
X570230Y407790D02*
D03*
Y359290D02*
D03*
X528320Y407790D02*
D03*
Y359290D02*
D03*
D30*
X2114740Y407670D02*
D03*
X2134740Y417170D02*
D03*
Y398170D02*
D03*
X1106330Y406400D02*
D03*
X1126330Y415900D02*
D03*
Y396900D02*
D03*
X604680Y407670D02*
D03*
X624680Y417170D02*
D03*
Y398170D02*
D03*
X1631980Y398780D02*
D03*
Y417779D02*
D03*
X1611980Y408280D02*
D03*
D31*
X2197760Y458630D02*
D03*
X2216760D02*
D03*
X2207260Y478629D02*
D03*
X1185570Y458630D02*
D03*
X1204570D02*
D03*
X1195070Y478629D02*
D03*
X682650Y458630D02*
D03*
X701650D02*
D03*
X692150Y478629D02*
D03*
X1700530D02*
D03*
X1710030Y458630D02*
D03*
X1691030D02*
D03*
D32*
X59690Y511810D02*
D03*
X90170D02*
D03*
D33*
X251111Y794349D02*
D03*
Y799351D02*
D03*
Y804349D02*
D03*
Y809351D02*
D03*
Y814349D02*
D03*
Y819351D02*
D03*
Y824349D02*
D03*
Y829351D02*
D03*
Y834349D02*
D03*
Y839351D02*
D03*
Y844349D02*
D03*
Y849351D02*
D03*
Y854349D02*
D03*
Y859351D02*
D03*
Y864349D02*
D03*
Y869351D02*
D03*
X366109D02*
D03*
Y864349D02*
D03*
Y859351D02*
D03*
Y854349D02*
D03*
Y849351D02*
D03*
Y844349D02*
D03*
Y839351D02*
D03*
Y834349D02*
D03*
Y829351D02*
D03*
Y824349D02*
D03*
Y819351D02*
D03*
Y814349D02*
D03*
Y809351D02*
D03*
Y804349D02*
D03*
Y799351D02*
D03*
Y794349D02*
D03*
D34*
X271109Y889349D02*
D03*
X276111D02*
D03*
X281109D02*
D03*
X286111D02*
D03*
X291109D02*
D03*
X296111D02*
D03*
X301109D02*
D03*
X306111D02*
D03*
X311109D02*
D03*
X316111D02*
D03*
X321109D02*
D03*
X326110D02*
D03*
X331109D02*
D03*
X336110D02*
D03*
X341109D02*
D03*
X346110D02*
D03*
Y774351D02*
D03*
X341109D02*
D03*
X336110D02*
D03*
X331109D02*
D03*
X326110D02*
D03*
X321109D02*
D03*
X316111D02*
D03*
X311109D02*
D03*
X306111D02*
D03*
X301109D02*
D03*
X296111D02*
D03*
X291109D02*
D03*
X286111D02*
D03*
X281109D02*
D03*
X276111D02*
D03*
X271109D02*
D03*
D35*
X417005Y864870D02*
D03*
X454216D02*
D03*
D36*
X326390Y748340D02*
D03*
Y729940D02*
D03*
D37*
X283870Y745490D02*
D03*
X302870D02*
D03*
D38*
X293370D02*
D03*
D39*
X228170Y706120D02*
D03*
X269670D02*
D03*
D40*
X119290Y932220D02*
D03*
Y909320D02*
D03*
Y886420D02*
D03*
D41*
X177890Y909320D02*
D03*
M02*
