G04*
G04 #@! TF.GenerationSoftware,Altium Limited,Altium Designer,22.1.2 (22)*
G04*
G04 Layer_Color=8388736*
%FSLAX44Y44*%
%MOMM*%
G71*
G04*
G04 #@! TF.SameCoordinates,E8DC7784-5412-4491-ADA6-3D39AB0E1C33*
G04*
G04*
G04 #@! TF.FilePolarity,Negative*
G04*
G01*
G75*
%ADD42O,2.1396X0.6756*%
%ADD43R,0.6416X0.6673*%
%ADD44R,1.2032X1.1032*%
%ADD45R,1.3032X1.2032*%
%ADD46R,1.2032X1.3032*%
%ADD47R,1.1032X1.2032*%
%ADD48R,0.6673X0.6416*%
%ADD49R,1.8032X1.7032*%
%ADD50R,1.6266X1.8816*%
%ADD51O,1.1032X2.2032*%
%ADD52R,2.2032X1.6032*%
%ADD53R,3.4532X2.5532*%
%ADD54R,1.3516X0.8016*%
%ADD55R,0.8016X1.3516*%
%ADD56R,1.7032X1.8032*%
%ADD57R,1.2032X0.9532*%
%ADD58R,1.2332X0.9532*%
%ADD59O,2.1016X0.4016*%
%ADD60O,0.4016X2.1016*%
%ADD61R,1.6079X2.4776*%
%ADD62R,1.6732X1.2732*%
%ADD63R,0.7500X1.9000*%
%ADD64R,0.6000X1.7000*%
%ADD65R,1.4516X1.9016*%
%ADD66R,2.3532X1.1032*%
%ADD67R,2.3532X3.4532*%
%ADD68C,2.0000*%
%ADD69C,1.3532*%
%ADD70R,1.3532X1.3532*%
%ADD71C,1.7032*%
%ADD72R,1.7032X1.7032*%
%ADD73R,1.3532X1.3532*%
%ADD74R,1.7000X1.7000*%
%ADD75C,1.7000*%
%ADD76C,1.7272*%
%ADD77C,2.3032*%
%ADD78C,1.5032*%
%ADD79R,1.5032X1.5032*%
%ADD80C,3.7032*%
%ADD81R,5.7192X5.7192*%
%ADD82R,1.6032X2.2032*%
%ADD83C,2.2032*%
%ADD84R,2.2032X2.2032*%
G36*
X509397Y886996D02*
X504317Y890270D01*
X514223D01*
X509397Y886996D01*
D02*
G37*
G36*
X514350Y883704D02*
X504190D01*
Y888708D01*
X509397Y885482D01*
X514350Y888708D01*
Y883704D01*
D02*
G37*
G36*
X509397Y858594D02*
X504317Y861868D01*
X514223D01*
X509397Y858594D01*
D02*
G37*
G36*
X514350Y855302D02*
X504190D01*
Y860306D01*
X509397Y857080D01*
X514350Y860306D01*
Y855302D01*
D02*
G37*
G36*
X589407Y804446D02*
X584327Y807720D01*
X594233D01*
X589407Y804446D01*
D02*
G37*
G36*
X594360Y801154D02*
X584200D01*
Y806158D01*
X589407Y802932D01*
X594360Y806158D01*
Y801154D01*
D02*
G37*
D42*
X1997461Y209550D02*
D03*
Y222250D02*
D03*
Y234950D02*
D03*
Y247650D02*
D03*
Y260350D02*
D03*
Y273050D02*
D03*
Y285750D02*
D03*
X1942079Y209550D02*
D03*
Y222250D02*
D03*
Y234950D02*
D03*
Y247650D02*
D03*
Y260350D02*
D03*
Y273050D02*
D03*
Y285750D02*
D03*
X1466601Y189230D02*
D03*
Y201930D02*
D03*
Y214630D02*
D03*
Y227330D02*
D03*
Y240030D02*
D03*
Y252730D02*
D03*
Y265430D02*
D03*
X1411219Y189230D02*
D03*
Y201930D02*
D03*
Y214630D02*
D03*
Y227330D02*
D03*
Y240030D02*
D03*
Y252730D02*
D03*
Y265430D02*
D03*
X967491Y196850D02*
D03*
Y209550D02*
D03*
Y222250D02*
D03*
Y234950D02*
D03*
Y247650D02*
D03*
Y260350D02*
D03*
Y273050D02*
D03*
X912109Y196850D02*
D03*
Y209550D02*
D03*
Y222250D02*
D03*
Y234950D02*
D03*
Y247650D02*
D03*
Y260350D02*
D03*
Y273050D02*
D03*
X428239Y274320D02*
D03*
Y261620D02*
D03*
Y248920D02*
D03*
Y236220D02*
D03*
Y223520D02*
D03*
Y210820D02*
D03*
Y198120D02*
D03*
X483621Y274320D02*
D03*
Y261620D02*
D03*
Y248920D02*
D03*
Y236220D02*
D03*
Y223520D02*
D03*
Y210820D02*
D03*
Y198120D02*
D03*
D43*
X951230Y410962D02*
D03*
Y419618D02*
D03*
X1456690Y410962D02*
D03*
Y419618D02*
D03*
X1753870Y492242D02*
D03*
Y500898D02*
D03*
X1859280Y699018D02*
D03*
Y690362D02*
D03*
X2030730Y685048D02*
D03*
Y676392D02*
D03*
X1964690Y699018D02*
D03*
Y690362D02*
D03*
X1535430Y686318D02*
D03*
Y677662D02*
D03*
X1470660Y699018D02*
D03*
Y690362D02*
D03*
X1365250Y699018D02*
D03*
Y690362D02*
D03*
X1866930Y234432D02*
D03*
Y243088D02*
D03*
X1962150Y412232D02*
D03*
Y420888D02*
D03*
X2258060Y492242D02*
D03*
Y500898D02*
D03*
X2046000Y531612D02*
D03*
Y540268D02*
D03*
X744220Y492242D02*
D03*
Y500898D02*
D03*
X1548160Y555508D02*
D03*
Y546852D02*
D03*
X1337310Y212842D02*
D03*
Y221498D02*
D03*
X1244600Y492242D02*
D03*
Y500898D02*
D03*
X836960Y223002D02*
D03*
Y231658D02*
D03*
X539750Y529072D02*
D03*
Y537728D02*
D03*
X448310Y412232D02*
D03*
Y420888D02*
D03*
X350520Y224272D02*
D03*
Y232928D02*
D03*
X106680Y513598D02*
D03*
Y504942D02*
D03*
X1042700Y537444D02*
D03*
Y546100D02*
D03*
X861060Y692668D02*
D03*
Y684012D02*
D03*
X966470Y688858D02*
D03*
Y680202D02*
D03*
X1029970Y680720D02*
D03*
Y672064D02*
D03*
X459740Y693938D02*
D03*
Y685282D02*
D03*
X354330Y695208D02*
D03*
Y686552D02*
D03*
X523240Y681472D02*
D03*
Y690128D02*
D03*
D44*
X932180Y404980D02*
D03*
Y417980D02*
D03*
X1436370Y404980D02*
D03*
Y417980D02*
D03*
X1879630Y229720D02*
D03*
Y242720D02*
D03*
X1943100Y406250D02*
D03*
Y419250D02*
D03*
X2152680Y404980D02*
D03*
Y417980D02*
D03*
X2232660Y509420D02*
D03*
Y496420D02*
D03*
X2150140Y524660D02*
D03*
Y511660D02*
D03*
X2132360Y525930D02*
D03*
Y512930D02*
D03*
X646460Y520850D02*
D03*
Y507850D02*
D03*
X1141760Y520850D02*
D03*
Y507850D02*
D03*
X1122680Y520850D02*
D03*
Y507850D02*
D03*
X1645950Y522120D02*
D03*
Y509120D02*
D03*
X1628396Y521750D02*
D03*
Y508750D02*
D03*
X1390650Y552300D02*
D03*
Y565300D02*
D03*
X1497330Y552300D02*
D03*
Y565300D02*
D03*
X1648490Y404980D02*
D03*
Y417980D02*
D03*
X1383030Y237340D02*
D03*
Y250340D02*
D03*
X1348740Y208130D02*
D03*
Y221130D02*
D03*
X1141760Y403710D02*
D03*
Y416710D02*
D03*
X882650Y246230D02*
D03*
Y259230D02*
D03*
X848390Y218290D02*
D03*
Y231290D02*
D03*
X381000Y549760D02*
D03*
Y562760D02*
D03*
X485140Y549610D02*
D03*
Y562610D02*
D03*
X429260Y406250D02*
D03*
Y419250D02*
D03*
X398780Y246230D02*
D03*
Y259230D02*
D03*
X363220Y218290D02*
D03*
Y231290D02*
D03*
X715010Y509420D02*
D03*
Y496420D02*
D03*
X887730Y545800D02*
D03*
Y558800D02*
D03*
X991870Y544680D02*
D03*
Y557680D02*
D03*
X589280Y772010D02*
D03*
Y785010D02*
D03*
X283210Y920900D02*
D03*
Y907900D02*
D03*
X269240Y920900D02*
D03*
Y907900D02*
D03*
X328930Y699620D02*
D03*
Y712620D02*
D03*
X387380Y819450D02*
D03*
Y806450D02*
D03*
X314960Y695660D02*
D03*
Y708660D02*
D03*
X300990Y708810D02*
D03*
Y695810D02*
D03*
X267970Y741530D02*
D03*
Y754530D02*
D03*
X342900Y699470D02*
D03*
Y712470D02*
D03*
X100330Y807870D02*
D03*
Y794870D02*
D03*
X640080Y417980D02*
D03*
Y404980D02*
D03*
X1193800Y496420D02*
D03*
Y509420D02*
D03*
X1728470Y496420D02*
D03*
Y509420D02*
D03*
X1913890Y273200D02*
D03*
Y260200D02*
D03*
D45*
X1914000Y241870D02*
D03*
X1896000D02*
D03*
X1905000Y217870D02*
D03*
X2032140Y546670D02*
D03*
X2014140D02*
D03*
X2023140Y522670D02*
D03*
X1374140Y195010D02*
D03*
X1365140Y219010D02*
D03*
X1383140D02*
D03*
X1525300Y526480D02*
D03*
X1516300Y550480D02*
D03*
X1534300D02*
D03*
X882760Y230440D02*
D03*
X864760D02*
D03*
X873760Y206440D02*
D03*
X1028950Y546100D02*
D03*
X1010950D02*
D03*
X1019950Y522100D02*
D03*
X388620Y206440D02*
D03*
X379620Y230440D02*
D03*
X397620D02*
D03*
X516780Y529720D02*
D03*
X507780Y553720D02*
D03*
X525780D02*
D03*
D46*
X2257360Y468630D02*
D03*
X2233360Y459630D02*
D03*
Y477630D02*
D03*
X1727900D02*
D03*
Y459630D02*
D03*
X1751900Y468630D02*
D03*
X1243900D02*
D03*
X1219900Y459630D02*
D03*
Y477630D02*
D03*
X718250D02*
D03*
Y459630D02*
D03*
X742250Y468630D02*
D03*
D47*
X1871860Y558800D02*
D03*
X1884860D02*
D03*
X1510180Y419100D02*
D03*
X1497180D02*
D03*
X2013100D02*
D03*
X2000100D02*
D03*
X2118240Y383540D02*
D03*
X2131240D02*
D03*
X2199490Y441960D02*
D03*
X2212490D02*
D03*
X2042310Y566420D02*
D03*
X2029310D02*
D03*
X1922660Y463550D02*
D03*
X1935660D02*
D03*
X1973460Y476250D02*
D03*
X1986460D02*
D03*
X1978540Y562610D02*
D03*
X1991540D02*
D03*
X619610Y509270D02*
D03*
X632610D02*
D03*
X1419740Y466090D02*
D03*
X1432740D02*
D03*
X1468000Y474980D02*
D03*
X1481000D02*
D03*
X1705760Y441960D02*
D03*
X1692760D02*
D03*
X1617860Y383540D02*
D03*
X1630860D02*
D03*
X1483510Y283210D02*
D03*
X1470510D02*
D03*
X1202840Y441960D02*
D03*
X1189840D02*
D03*
X1112400Y381000D02*
D03*
X1125400D02*
D03*
X984400Y293370D02*
D03*
X971400D02*
D03*
X1003450Y420370D02*
D03*
X990450D02*
D03*
X542440Y574040D02*
D03*
X529440D02*
D03*
X473860Y474980D02*
D03*
X460860D02*
D03*
X699920Y441960D02*
D03*
X686920D02*
D03*
X610750Y383540D02*
D03*
X623750D02*
D03*
X499260Y419100D02*
D03*
X486260D02*
D03*
X500530Y293370D02*
D03*
X487530D02*
D03*
X915550Y464820D02*
D03*
X928550D02*
D03*
X962690Y473710D02*
D03*
X975690D02*
D03*
X1050440Y563880D02*
D03*
X1037440D02*
D03*
X396390Y877570D02*
D03*
X383390D02*
D03*
X388470Y849630D02*
D03*
X401470D02*
D03*
X231290Y815340D02*
D03*
X218290D02*
D03*
X217020Y793750D02*
D03*
X230020D02*
D03*
X84940Y910590D02*
D03*
X97940D02*
D03*
X84940Y885190D02*
D03*
X97940D02*
D03*
X84940Y871220D02*
D03*
X97940D02*
D03*
X424180Y464820D02*
D03*
X411180D02*
D03*
X1539120Y568960D02*
D03*
X1552120D02*
D03*
X1997590Y302260D02*
D03*
X2010590D02*
D03*
D48*
X1834632Y565150D02*
D03*
X1843288D02*
D03*
X1496812Y407670D02*
D03*
X1505468D02*
D03*
X2001002D02*
D03*
X2009658D02*
D03*
X2167402Y417830D02*
D03*
X2176058D02*
D03*
X1940042Y562610D02*
D03*
X1948698D02*
D03*
X1341668D02*
D03*
X1333012D02*
D03*
X1447282Y565150D02*
D03*
X1455938D02*
D03*
X1664452Y416560D02*
D03*
X1673108D02*
D03*
X1156482Y420370D02*
D03*
X1165138D02*
D03*
X990834Y408940D02*
D03*
X999490D02*
D03*
X328412Y562610D02*
D03*
X337068D02*
D03*
X435092D02*
D03*
X443748D02*
D03*
X652262Y420370D02*
D03*
X660918D02*
D03*
X485140Y407670D02*
D03*
X493796D02*
D03*
X837682Y560070D02*
D03*
X846338D02*
D03*
X937260Y558800D02*
D03*
X945916D02*
D03*
X1016782D02*
D03*
X1025438D02*
D03*
X516138Y576580D02*
D03*
X507482D02*
D03*
X516138Y567690D02*
D03*
X507482D02*
D03*
X1025438D02*
D03*
X1016782D02*
D03*
X1524548Y572770D02*
D03*
X1515892D02*
D03*
X1524548Y563880D02*
D03*
X1515892D02*
D03*
X2016038Y570230D02*
D03*
X2007382D02*
D03*
X2016556Y561340D02*
D03*
X2007900D02*
D03*
D49*
X1774190Y462280D02*
D03*
Y492760D02*
D03*
X2278380Y462280D02*
D03*
Y492760D02*
D03*
X768350Y466090D02*
D03*
Y496570D02*
D03*
X1267460Y462280D02*
D03*
Y492760D02*
D03*
D50*
X1990090Y672831D02*
D03*
X1964690D02*
D03*
X1939290D02*
D03*
X1913890D02*
D03*
X1990090Y581929D02*
D03*
X1964690D02*
D03*
X1939290D02*
D03*
X1913890D02*
D03*
X1808480D02*
D03*
X1833880D02*
D03*
X1859280D02*
D03*
X1884680D02*
D03*
X1808480Y672831D02*
D03*
X1833880D02*
D03*
X1859280D02*
D03*
X1884680D02*
D03*
X1496060Y675371D02*
D03*
X1470660D02*
D03*
X1445260D02*
D03*
X1419860D02*
D03*
X1496060Y584469D02*
D03*
X1470660D02*
D03*
X1445260D02*
D03*
X1419860D02*
D03*
X991870Y665211D02*
D03*
X966470D02*
D03*
X941070D02*
D03*
X915670D02*
D03*
X991870Y574309D02*
D03*
X966470D02*
D03*
X941070D02*
D03*
X915670D02*
D03*
X886460Y666481D02*
D03*
X861060D02*
D03*
X835660D02*
D03*
X810260D02*
D03*
X886460Y575579D02*
D03*
X861060D02*
D03*
X835660D02*
D03*
X810260D02*
D03*
X483870Y670291D02*
D03*
X458470D02*
D03*
X433070D02*
D03*
X407670D02*
D03*
X483870Y579389D02*
D03*
X458470D02*
D03*
X433070D02*
D03*
X407670D02*
D03*
X379730Y670291D02*
D03*
X354330D02*
D03*
X328930D02*
D03*
X303530D02*
D03*
X379730Y579389D02*
D03*
X354330D02*
D03*
X328930D02*
D03*
X303530D02*
D03*
X1314450Y584469D02*
D03*
X1339850D02*
D03*
X1365250D02*
D03*
X1390650D02*
D03*
X1314450Y675371D02*
D03*
X1339850D02*
D03*
X1365250D02*
D03*
X1390650D02*
D03*
D51*
X1535430Y589840D02*
D03*
X1522730D02*
D03*
Y659840D02*
D03*
X1535430D02*
D03*
X1029970Y584760D02*
D03*
X1017270D02*
D03*
Y654760D02*
D03*
X1029970D02*
D03*
X523240Y594920D02*
D03*
X510540D02*
D03*
Y664920D02*
D03*
X523240D02*
D03*
X2029460Y658570D02*
D03*
X2016760D02*
D03*
Y588570D02*
D03*
X2029460D02*
D03*
D52*
X2052760Y278760D02*
D03*
Y258760D02*
D03*
Y218760D02*
D03*
Y198760D02*
D03*
X2107759D02*
D03*
Y218760D02*
D03*
Y258760D02*
D03*
Y278760D02*
D03*
X1602299D02*
D03*
Y258760D02*
D03*
Y218760D02*
D03*
Y198760D02*
D03*
X1547300D02*
D03*
Y218760D02*
D03*
Y258760D02*
D03*
Y278760D02*
D03*
X1041400D02*
D03*
Y258760D02*
D03*
Y218760D02*
D03*
Y198760D02*
D03*
X1096399D02*
D03*
Y218760D02*
D03*
Y258760D02*
D03*
Y278760D02*
D03*
X590109D02*
D03*
Y258760D02*
D03*
Y218760D02*
D03*
Y198760D02*
D03*
X535110D02*
D03*
Y218760D02*
D03*
Y258760D02*
D03*
Y278760D02*
D03*
D53*
X2039620Y407790D02*
D03*
Y359290D02*
D03*
X2081530Y407790D02*
D03*
Y359290D02*
D03*
X1583690Y410330D02*
D03*
Y361830D02*
D03*
X1539240Y410330D02*
D03*
Y361830D02*
D03*
X1073150Y406520D02*
D03*
Y358020D02*
D03*
X1029970Y406520D02*
D03*
Y358020D02*
D03*
X570230Y407790D02*
D03*
Y359290D02*
D03*
X528320Y407790D02*
D03*
Y359290D02*
D03*
D54*
X2114740Y407670D02*
D03*
X2134740Y417170D02*
D03*
Y398170D02*
D03*
X1106330Y406400D02*
D03*
X1126330Y415900D02*
D03*
Y396900D02*
D03*
X604680Y407670D02*
D03*
X624680Y417170D02*
D03*
Y398170D02*
D03*
X1631980Y398780D02*
D03*
Y417779D02*
D03*
X1611980Y408280D02*
D03*
D55*
X2197760Y458630D02*
D03*
X2216760D02*
D03*
X2207260Y478629D02*
D03*
X1185570Y458630D02*
D03*
X1204570D02*
D03*
X1195070Y478629D02*
D03*
X682650Y458630D02*
D03*
X701650D02*
D03*
X692150Y478629D02*
D03*
X1700530D02*
D03*
X1710030Y458630D02*
D03*
X1691030D02*
D03*
D56*
X59690Y511810D02*
D03*
X90170D02*
D03*
D57*
X589280Y812038D02*
D03*
X509270Y866186D02*
D03*
Y894588D02*
D03*
D58*
X589280Y798022D02*
D03*
X509270Y852170D02*
D03*
Y880572D02*
D03*
D59*
X251111Y794349D02*
D03*
Y799351D02*
D03*
Y804349D02*
D03*
Y809351D02*
D03*
Y814349D02*
D03*
Y819351D02*
D03*
Y824349D02*
D03*
Y829351D02*
D03*
Y834349D02*
D03*
Y839351D02*
D03*
Y844349D02*
D03*
Y849351D02*
D03*
Y854349D02*
D03*
Y859351D02*
D03*
Y864349D02*
D03*
Y869351D02*
D03*
X366109D02*
D03*
Y864349D02*
D03*
Y859351D02*
D03*
Y854349D02*
D03*
Y849351D02*
D03*
Y844349D02*
D03*
Y839351D02*
D03*
Y834349D02*
D03*
Y829351D02*
D03*
Y824349D02*
D03*
Y819351D02*
D03*
Y814349D02*
D03*
Y809351D02*
D03*
Y804349D02*
D03*
Y799351D02*
D03*
Y794349D02*
D03*
D60*
X271109Y889349D02*
D03*
X276111D02*
D03*
X281109D02*
D03*
X286111D02*
D03*
X291109D02*
D03*
X296111D02*
D03*
X301109D02*
D03*
X306111D02*
D03*
X311109D02*
D03*
X316111D02*
D03*
X321109D02*
D03*
X326110D02*
D03*
X331109D02*
D03*
X336110D02*
D03*
X341109D02*
D03*
X346110D02*
D03*
Y774351D02*
D03*
X341109D02*
D03*
X336110D02*
D03*
X331109D02*
D03*
X326110D02*
D03*
X321109D02*
D03*
X316111D02*
D03*
X311109D02*
D03*
X306111D02*
D03*
X301109D02*
D03*
X296111D02*
D03*
X291109D02*
D03*
X286111D02*
D03*
X281109D02*
D03*
X276111D02*
D03*
X271109D02*
D03*
D61*
X417005Y864870D02*
D03*
X454216D02*
D03*
D62*
X326390Y748340D02*
D03*
Y729940D02*
D03*
D63*
X283870Y745490D02*
D03*
X302870D02*
D03*
D64*
X293370D02*
D03*
D65*
X228170Y706120D02*
D03*
X269670D02*
D03*
D66*
X119290Y932220D02*
D03*
Y909320D02*
D03*
Y886420D02*
D03*
D67*
X177890Y909320D02*
D03*
D68*
X23690Y357670D02*
D03*
Y407670D02*
D03*
X73690Y357670D02*
D03*
Y407670D02*
D03*
D69*
X1983770Y519430D02*
D03*
X1480850Y515620D02*
D03*
X473310D02*
D03*
X44450Y186690D02*
D03*
X113030D02*
D03*
X160050Y411480D02*
D03*
X247680Y389890D02*
D03*
X218440Y252730D02*
D03*
X975360Y513080D02*
D03*
X139700Y818750D02*
D03*
D70*
X1958770Y519430D02*
D03*
X1455850Y515620D02*
D03*
X448310D02*
D03*
X950360Y513080D02*
D03*
D71*
X476280Y92710D02*
D03*
X2079020D02*
D03*
X1554510D02*
D03*
X1003330D02*
D03*
D72*
X501680D02*
D03*
X2104420D02*
D03*
X1579910D02*
D03*
X1028730D02*
D03*
D73*
X44450Y211690D02*
D03*
X113030D02*
D03*
X160050Y361480D02*
D03*
X247680Y364890D02*
D03*
X218440Y277730D02*
D03*
X139700Y793750D02*
D03*
D74*
X99060Y289560D02*
D03*
D75*
X124460D02*
D03*
X149860D02*
D03*
D76*
X537210Y800500D02*
D03*
D77*
X562610Y863600D02*
D03*
Y838200D02*
D03*
X537210Y876300D02*
D03*
Y850900D02*
D03*
Y825500D02*
D03*
X562610Y812800D02*
D03*
D78*
X46990Y787080D02*
D03*
Y767080D02*
D03*
Y747080D02*
D03*
D79*
Y727080D02*
D03*
D80*
X2329180Y31750D02*
D03*
X33020D02*
D03*
Y929640D02*
D03*
X2332990Y927100D02*
D03*
X752158Y542386D02*
D03*
X327894Y118122D02*
D03*
X1256258Y542386D02*
D03*
X831993Y118122D02*
D03*
X1760357Y542386D02*
D03*
X1336093Y118122D02*
D03*
X2264456Y542386D02*
D03*
X1840192Y118122D02*
D03*
D81*
X418592Y336420D02*
D03*
X679450Y341960D02*
D03*
X922691Y336420D02*
D03*
X1183549Y341960D02*
D03*
X1426791Y336420D02*
D03*
X1687649Y341960D02*
D03*
X1930890Y336420D02*
D03*
X2191748Y341960D02*
D03*
D82*
X428292Y439420D02*
D03*
X448292D02*
D03*
X468292D02*
D03*
X488292D02*
D03*
X508292D02*
D03*
X528292D02*
D03*
X548292D02*
D03*
X568292D02*
D03*
X588292D02*
D03*
X608292D02*
D03*
X628292D02*
D03*
X648292D02*
D03*
X668292D02*
D03*
X932391D02*
D03*
X952391D02*
D03*
X972391D02*
D03*
X992391D02*
D03*
X1012391D02*
D03*
X1032391D02*
D03*
X1052391D02*
D03*
X1072391D02*
D03*
X1092391D02*
D03*
X1112391D02*
D03*
X1132391D02*
D03*
X1152391D02*
D03*
X1172391D02*
D03*
X1436491D02*
D03*
X1456491D02*
D03*
X1476491D02*
D03*
X1496491D02*
D03*
X1516491D02*
D03*
X1536491D02*
D03*
X1556491D02*
D03*
X1576491D02*
D03*
X1596491D02*
D03*
X1616491D02*
D03*
X1636491D02*
D03*
X1656491D02*
D03*
X1676491D02*
D03*
X1940590D02*
D03*
X1960590D02*
D03*
X1980590D02*
D03*
X2000590D02*
D03*
X2020590D02*
D03*
X2040590D02*
D03*
X2060590D02*
D03*
X2080590D02*
D03*
X2100590D02*
D03*
X2120590D02*
D03*
X2140590D02*
D03*
X2160590D02*
D03*
X2180590D02*
D03*
D83*
X2169670Y574520D02*
D03*
X2144270D02*
D03*
X2118870D02*
D03*
X607060Y574040D02*
D03*
X632460D02*
D03*
X657860D02*
D03*
X1110671Y574520D02*
D03*
X1136071D02*
D03*
X1161471D02*
D03*
X1614771D02*
D03*
X1640171D02*
D03*
X1665571D02*
D03*
D84*
X2093470D02*
D03*
X581660Y574040D02*
D03*
X1085271Y574520D02*
D03*
X1589371D02*
D03*
M02*
