G04*
G04 #@! TF.GenerationSoftware,Altium Limited,Altium Designer,22.1.2 (22)*
G04*
G04 Layer_Physical_Order=4*
G04 Layer_Color=16711680*
%FSLAX44Y44*%
%MOMM*%
G71*
G04*
G04 #@! TF.SameCoordinates,E8DC7784-5412-4491-ADA6-3D39AB0E1C33*
G04*
G04*
G04 #@! TF.FilePolarity,Positive*
G04*
G01*
G75*
%ADD68C,2.0000*%
%ADD89C,0.2500*%
%ADD90C,0.3810*%
%ADD93C,1.1500*%
%ADD94R,1.1500X1.1500*%
%ADD95C,1.5000*%
%ADD96R,1.5000X1.5000*%
%ADD97R,1.1500X1.1500*%
%ADD98R,1.6000X1.6000*%
%ADD99C,1.6000*%
%ADD100C,1.5240*%
%ADD101C,2.1000*%
%ADD102C,1.3000*%
%ADD103R,1.3000X1.3000*%
%ADD104C,3.5000*%
%ADD105R,5.5160X5.5160*%
%ADD106R,1.4000X2.0000*%
%ADD107R,2.0000X2.0000*%
%ADD108C,0.8000*%
%ADD109C,0.6000*%
%ADD110C,1.0000*%
%ADD124R,0.6350X4.2000*%
G36*
X2326614Y946150D02*
X2323497Y944859D01*
X2320215Y942666D01*
X2317424Y939875D01*
X2315231Y936592D01*
X2313720Y932945D01*
X2312950Y929074D01*
Y925126D01*
X2313720Y921255D01*
X2315231Y917607D01*
X2317424Y914325D01*
X2320215Y911534D01*
X2323497Y909341D01*
X2327144Y907830D01*
X2331016Y907060D01*
X2334964D01*
X2338835Y907830D01*
X2340824Y908654D01*
X2341880Y907948D01*
Y650240D01*
X10131D01*
X8894Y946520D01*
X9790Y947420D01*
X21273D01*
X21658Y946150D01*
X20245Y945206D01*
X17454Y942415D01*
X15261Y939133D01*
X13750Y935486D01*
X12980Y931614D01*
Y927666D01*
X13750Y923794D01*
X15261Y920147D01*
X17454Y916865D01*
X20245Y914074D01*
X23527Y911881D01*
X27174Y910370D01*
X31046Y909600D01*
X34994D01*
X38865Y910370D01*
X42512Y911881D01*
X45795Y914074D01*
X48586Y916865D01*
X50779Y920147D01*
X52290Y923794D01*
X53060Y927666D01*
Y931614D01*
X52290Y935486D01*
X50779Y939133D01*
X48586Y942415D01*
X45795Y945206D01*
X44382Y946150D01*
X44767Y947420D01*
X290166D01*
X290588Y946150D01*
X289846Y944864D01*
X289400Y943201D01*
Y941479D01*
X289128Y941124D01*
X144780D01*
X143301Y940830D01*
X142048Y939992D01*
X23967Y821912D01*
X23130Y820659D01*
X22836Y819180D01*
Y731520D01*
X23130Y730041D01*
X23967Y728788D01*
X29047Y723708D01*
X29048Y723708D01*
X30301Y722870D01*
X31780Y722576D01*
X31780Y722576D01*
X37950D01*
Y718040D01*
X56030D01*
Y736120D01*
X37950D01*
Y730304D01*
X33380D01*
X30564Y733121D01*
Y817579D01*
X73125Y860140D01*
X74111Y859331D01*
X73930Y859059D01*
X73636Y857580D01*
Y764871D01*
X59709Y750944D01*
X55197D01*
X54224Y752631D01*
X52541Y754314D01*
X50479Y755504D01*
X48180Y756120D01*
X45800D01*
X43501Y755504D01*
X41439Y754314D01*
X39756Y752631D01*
X38566Y750569D01*
X37950Y748270D01*
Y745890D01*
X38566Y743591D01*
X39756Y741529D01*
X41439Y739846D01*
X43501Y738656D01*
X45800Y738040D01*
X48180D01*
X50479Y738656D01*
X52541Y739846D01*
X54224Y741529D01*
X55197Y743216D01*
X61310D01*
X62789Y743510D01*
X64042Y744348D01*
X80232Y760537D01*
X80232Y760538D01*
X81070Y761791D01*
X81364Y763270D01*
X81364Y763270D01*
Y855979D01*
X87593Y862208D01*
X88609Y861428D01*
X88434Y861125D01*
X87750Y858572D01*
Y855928D01*
X88434Y853375D01*
X89756Y851085D01*
X91625Y849216D01*
X93915Y847894D01*
X96468Y847210D01*
X99112D01*
X101665Y847894D01*
X103955Y849216D01*
X105824Y851085D01*
X107146Y853375D01*
X107830Y855928D01*
Y858572D01*
X107146Y861125D01*
X105824Y863415D01*
X103955Y865284D01*
X101665Y866606D01*
X99112Y867290D01*
X96468D01*
X93915Y866606D01*
X93612Y866431D01*
X92832Y867447D01*
X149197Y923813D01*
X192610Y924687D01*
X193352Y923432D01*
X192574Y922085D01*
X191890Y919532D01*
Y916888D01*
X192574Y914335D01*
X193896Y912045D01*
X195765Y910176D01*
X197078Y909418D01*
Y907952D01*
X195765Y907194D01*
X193896Y905325D01*
X192574Y903035D01*
X191890Y900482D01*
Y897838D01*
X192574Y895285D01*
X193896Y892995D01*
X195765Y891126D01*
X198055Y889804D01*
X200608Y889120D01*
X203252D01*
X205805Y889804D01*
X208095Y891126D01*
X209964Y892995D01*
X211286Y895285D01*
X211970Y897838D01*
Y900482D01*
X211286Y903035D01*
X209964Y905325D01*
X208095Y907194D01*
X206782Y907952D01*
Y909418D01*
X208095Y910176D01*
X209964Y912045D01*
X211286Y914335D01*
X211970Y916888D01*
Y919532D01*
X211286Y922085D01*
X210419Y923587D01*
X211153Y924856D01*
X362916Y924509D01*
X366915Y920510D01*
X366870Y920341D01*
Y918619D01*
X367316Y916956D01*
X368177Y915464D01*
X369394Y914247D01*
X370886Y913386D01*
X372549Y912940D01*
X374271D01*
X375934Y913386D01*
X377426Y914247D01*
X378643Y915464D01*
X379504Y916956D01*
X379950Y918619D01*
Y920341D01*
X379504Y922004D01*
X378643Y923496D01*
X377426Y924713D01*
X375934Y925574D01*
X374271Y926020D01*
X372549D01*
X372380Y925975D01*
X367985Y930370D01*
X367985Y930370D01*
X367252Y931102D01*
X366635Y931515D01*
X366007Y931937D01*
X366002Y931938D01*
X365999Y931940D01*
X365269Y932085D01*
X365067Y932126D01*
X365194Y933396D01*
X384509D01*
X396125Y921780D01*
X396080Y921611D01*
Y919889D01*
X396526Y918226D01*
X397387Y916734D01*
X398604Y915517D01*
X400096Y914656D01*
X401759Y914210D01*
X403481D01*
X405144Y914656D01*
X406636Y915517D01*
X407853Y916734D01*
X408714Y918226D01*
X409160Y919889D01*
Y921611D01*
X408714Y923274D01*
X407853Y924766D01*
X406636Y925983D01*
X405144Y926844D01*
X403481Y927290D01*
X401759D01*
X401590Y927245D01*
X391532Y937302D01*
X392018Y938476D01*
X428959D01*
X448286Y919149D01*
Y893051D01*
X448134Y892963D01*
X446917Y891746D01*
X446056Y890254D01*
X445610Y888591D01*
Y886869D01*
X446056Y885206D01*
X446132Y885074D01*
X445497Y883974D01*
X394400D01*
X394232Y885244D01*
X394984Y885446D01*
X396476Y886307D01*
X397693Y887524D01*
X398554Y889016D01*
X399000Y890679D01*
Y892401D01*
X398554Y894064D01*
X397693Y895556D01*
X396476Y896773D01*
X394984Y897634D01*
X393321Y898080D01*
X391599D01*
X389936Y897634D01*
X388444Y896773D01*
X387227Y895556D01*
X386366Y894064D01*
X386203Y893456D01*
X372843D01*
X372023Y894726D01*
X372300Y895759D01*
Y897481D01*
X371854Y899144D01*
X370993Y900636D01*
X369776Y901853D01*
X368284Y902714D01*
X366621Y903160D01*
X364899D01*
X363236Y902714D01*
X361744Y901853D01*
X360527Y900636D01*
X359666Y899144D01*
X359220Y897481D01*
Y895759D01*
X359497Y894726D01*
X358677Y893456D01*
X319809D01*
X308694Y904571D01*
Y906539D01*
X308846Y906627D01*
X310063Y907844D01*
X310924Y909336D01*
X311370Y910999D01*
Y912721D01*
X310924Y914384D01*
X310063Y915876D01*
X308846Y917093D01*
X307354Y917954D01*
X305691Y918400D01*
X303969D01*
X302306Y917954D01*
X300814Y917093D01*
X299597Y915876D01*
X298736Y914384D01*
X298290Y912721D01*
Y910999D01*
X298736Y909336D01*
X299597Y907844D01*
X300814Y906627D01*
X300966Y906539D01*
Y902970D01*
X301260Y901491D01*
X302097Y900238D01*
X315475Y886860D01*
X315476Y886860D01*
X316729Y886022D01*
X318208Y885728D01*
X389024D01*
X389338Y885790D01*
X389936Y885446D01*
X390687Y885244D01*
X390520Y883974D01*
X320070D01*
X320070Y883974D01*
X318591Y883680D01*
X317337Y882842D01*
X312210Y877715D01*
X312041Y877760D01*
X310319D01*
X308656Y877314D01*
X307164Y876453D01*
X305947Y875236D01*
X305086Y873744D01*
X304640Y872081D01*
Y870359D01*
X304851Y869569D01*
X303713Y868912D01*
X301212Y871412D01*
X299959Y872250D01*
X298480Y872544D01*
X275861D01*
X275773Y872696D01*
X274556Y873913D01*
X273064Y874774D01*
X271401Y875220D01*
X269679D01*
X268016Y874774D01*
X266524Y873913D01*
X265307Y872696D01*
X264446Y871204D01*
X264000Y869541D01*
Y867819D01*
X264446Y866156D01*
X265307Y864664D01*
X266524Y863447D01*
X268016Y862586D01*
X269679Y862140D01*
X271401D01*
X273064Y862586D01*
X274556Y863447D01*
X275773Y864664D01*
X275861Y864816D01*
X296879D01*
X303368Y858328D01*
X304621Y857490D01*
X306100Y857196D01*
X319400D01*
X319568Y855926D01*
X318816Y855724D01*
X317324Y854863D01*
X316107Y853646D01*
X315246Y852154D01*
X314800Y850491D01*
Y848769D01*
X315246Y847106D01*
X316107Y845614D01*
X317324Y844397D01*
X318816Y843536D01*
X320479Y843090D01*
X322201D01*
X322370Y843135D01*
X447901Y717604D01*
X447375Y716334D01*
X437241D01*
X314866Y838708D01*
X315180Y839879D01*
Y841601D01*
X314734Y843264D01*
X313873Y844756D01*
X312656Y845973D01*
X311164Y846834D01*
X309501Y847280D01*
X307779D01*
X306116Y846834D01*
X304624Y845973D01*
X303407Y844756D01*
X302546Y843264D01*
X302100Y841601D01*
Y839879D01*
X302546Y838216D01*
X303407Y836724D01*
X304624Y835507D01*
X306116Y834646D01*
X307779Y834200D01*
X308445D01*
X432907Y709738D01*
X434161Y708900D01*
X435640Y708606D01*
X435640Y708606D01*
X454449D01*
X454537Y708454D01*
X455754Y707237D01*
X457246Y706376D01*
X458909Y705930D01*
X460631D01*
X462294Y706376D01*
X463786Y707237D01*
X465003Y708454D01*
X465864Y709946D01*
X466310Y711609D01*
Y713331D01*
X466033Y714364D01*
X466852Y715634D01*
X511052D01*
X516948Y709738D01*
X518202Y708900D01*
X519681Y708606D01*
X948479D01*
X948567Y708454D01*
X949784Y707237D01*
X951276Y706376D01*
X952939Y705930D01*
X954661D01*
X956324Y706376D01*
X957816Y707237D01*
X959033Y708454D01*
X959894Y709946D01*
X960340Y711609D01*
Y713331D01*
X959894Y714994D01*
X959033Y716486D01*
X957816Y717703D01*
X956324Y718564D01*
X954661Y719010D01*
X952939D01*
X951276Y718564D01*
X949784Y717703D01*
X948567Y716486D01*
X948479Y716334D01*
X522166D01*
X521618Y716993D01*
X521895Y718488D01*
X522206Y718667D01*
X523423Y719884D01*
X524284Y721376D01*
X524730Y723039D01*
Y724761D01*
X524284Y726424D01*
X523423Y727916D01*
X522206Y729133D01*
X520714Y729994D01*
X519051Y730440D01*
X517329D01*
X517160Y730395D01*
X390112Y857442D01*
X388859Y858280D01*
X387380Y858574D01*
X343171D01*
X343083Y858726D01*
X341866Y859943D01*
X340940Y860478D01*
X340621Y861955D01*
X344752Y866086D01*
X458169D01*
X492736Y831519D01*
Y800100D01*
X493030Y798621D01*
X493867Y797368D01*
X520772Y770463D01*
X522026Y769625D01*
X523504Y769331D01*
X575105D01*
X576584Y769625D01*
X577838Y770463D01*
X597122Y789748D01*
X597960Y791001D01*
X598254Y792480D01*
Y830580D01*
X597960Y832059D01*
X597122Y833312D01*
X589502Y840932D01*
X588249Y841770D01*
X586770Y842064D01*
X575075D01*
X574761Y843233D01*
X573045Y846207D01*
X570617Y848635D01*
X567901Y850203D01*
X567765Y850860D01*
Y850940D01*
X567901Y851597D01*
X570617Y853165D01*
X573045Y855593D01*
X574761Y858567D01*
X575650Y861883D01*
Y865317D01*
X574761Y868633D01*
X573045Y871607D01*
X570617Y874035D01*
X567643Y875751D01*
X566504Y876057D01*
Y890270D01*
X566210Y891749D01*
X565372Y893002D01*
X550132Y908242D01*
X548879Y909080D01*
X547400Y909374D01*
X515650D01*
X515650Y909374D01*
X514171Y909080D01*
X512918Y908242D01*
X512917Y908242D01*
X488649Y883974D01*
X458803D01*
X458168Y885074D01*
X458244Y885206D01*
X458690Y886869D01*
Y888591D01*
X458244Y890254D01*
X457383Y891746D01*
X456166Y892963D01*
X456014Y893051D01*
Y920750D01*
X456014Y920750D01*
X455720Y922229D01*
X454882Y923482D01*
X454882Y923483D01*
X433292Y945072D01*
X432039Y945910D01*
X430833Y946150D01*
X430958Y947420D01*
X2326361D01*
X2326614Y946150D01*
D02*
G37*
G36*
X558776Y888669D02*
Y876073D01*
X557577Y875751D01*
X554603Y874035D01*
X552175Y871607D01*
X550459Y868633D01*
X549570Y865317D01*
Y861883D01*
X550459Y858567D01*
X552175Y855593D01*
X554603Y853165D01*
X557319Y851597D01*
X557455Y850940D01*
Y850860D01*
X557319Y850203D01*
X554603Y848635D01*
X552175Y846207D01*
X550459Y843233D01*
X549570Y839917D01*
Y836483D01*
X550459Y833167D01*
X552175Y830193D01*
X554603Y827765D01*
X557319Y826197D01*
X557455Y825540D01*
Y825460D01*
X557319Y824803D01*
X554603Y823235D01*
X552175Y820807D01*
X550459Y817833D01*
X549570Y814517D01*
Y811083D01*
X550459Y807767D01*
X552175Y804793D01*
X554603Y802365D01*
X557577Y800649D01*
X560893Y799760D01*
X564327D01*
X567643Y800649D01*
X570617Y802365D01*
X573045Y804793D01*
X574761Y807767D01*
X575650Y811083D01*
Y814517D01*
X574761Y817833D01*
X573045Y820807D01*
X570617Y823235D01*
X567901Y824803D01*
X567765Y825460D01*
Y825540D01*
X567901Y826197D01*
X570617Y827765D01*
X573045Y830193D01*
X574761Y833167D01*
X575075Y834336D01*
X585169D01*
X590526Y828979D01*
Y794081D01*
X573505Y777060D01*
X525105D01*
X500464Y801701D01*
Y833120D01*
X500464Y833120D01*
X500170Y834599D01*
X499332Y835852D01*
X499332Y835853D01*
X462502Y872682D01*
X461249Y873520D01*
X459770Y873814D01*
X343151D01*
X343151Y873814D01*
X341672Y873520D01*
X340418Y872682D01*
X332660Y864924D01*
X315859D01*
X315601Y865338D01*
X315403Y866194D01*
X316413Y867204D01*
X317274Y868696D01*
X317720Y870359D01*
Y872081D01*
X317675Y872250D01*
X321671Y876246D01*
X490250D01*
X491729Y876540D01*
X492982Y877378D01*
X517251Y901646D01*
X545799D01*
X558776Y888669D01*
D02*
G37*
G36*
X331475Y856188D02*
X331310Y855571D01*
Y853849D01*
X331756Y852186D01*
X332617Y850694D01*
X333834Y849477D01*
X335326Y848616D01*
X336989Y848170D01*
X338711D01*
X340374Y848616D01*
X341866Y849477D01*
X343083Y850694D01*
X343171Y850846D01*
X385779D01*
X511695Y724930D01*
X511650Y724761D01*
Y723362D01*
X453073D01*
X327835Y848600D01*
X327880Y848769D01*
Y850491D01*
X327434Y852154D01*
X326573Y853646D01*
X325356Y854863D01*
X323864Y855724D01*
X323112Y855926D01*
X323280Y857196D01*
X330702D01*
X331475Y856188D01*
D02*
G37*
G36*
X2343150Y617220D02*
Y47780D01*
X2342442Y47487D01*
X2341880Y47366D01*
X2338672Y49509D01*
X2335025Y51020D01*
X2331154Y51790D01*
X2327206D01*
X2323335Y51020D01*
X2319687Y49509D01*
X2316405Y47316D01*
X2313614Y44525D01*
X2311421Y41242D01*
X2309910Y37596D01*
X2309140Y33724D01*
Y29776D01*
X2309910Y25905D01*
X2311421Y22257D01*
X2313614Y18975D01*
X2316405Y16184D01*
X2319687Y13991D01*
X2319796Y13946D01*
X2319549Y12700D01*
X42651D01*
X42403Y13946D01*
X42512Y13991D01*
X45795Y16184D01*
X48586Y18975D01*
X50779Y22257D01*
X52290Y25905D01*
X53060Y29776D01*
Y33724D01*
X52290Y37596D01*
X50779Y41242D01*
X48586Y44525D01*
X45795Y47316D01*
X42512Y49509D01*
X38865Y51020D01*
X34994Y51790D01*
X31046D01*
X27174Y51020D01*
X23527Y49509D01*
X20245Y47316D01*
X17454Y44525D01*
X15261Y41242D01*
X13865Y37873D01*
X12594Y38123D01*
X11285Y351535D01*
X12554Y351878D01*
X13655Y349970D01*
X15990Y347635D01*
X18850Y345985D01*
X22039Y345130D01*
X25341D01*
X28530Y345985D01*
X31390Y347635D01*
X33724Y349970D01*
X35375Y352830D01*
X36230Y356019D01*
Y359321D01*
X35375Y362510D01*
X33724Y365370D01*
X31390Y367705D01*
X28530Y369355D01*
X25341Y370210D01*
X22039D01*
X18850Y369355D01*
X15990Y367705D01*
X13655Y365370D01*
X12506Y363378D01*
X11234Y363716D01*
X11075Y401900D01*
X12343Y402243D01*
X13655Y399970D01*
X15990Y397635D01*
X18850Y395985D01*
X22039Y395130D01*
X22420D01*
Y407670D01*
Y420210D01*
X22039D01*
X18850Y419355D01*
X15990Y417705D01*
X13655Y415370D01*
X12299Y413019D01*
X11027Y413357D01*
X10164Y620130D01*
X11060Y621030D01*
X2343150D01*
Y617220D01*
D02*
G37*
%LPC*%
G36*
X250242Y906660D02*
X247598D01*
X245045Y905976D01*
X242755Y904654D01*
X240886Y902785D01*
X239564Y900495D01*
X238880Y897942D01*
Y895298D01*
X239564Y892745D01*
X240886Y890455D01*
X242755Y888586D01*
X245045Y887264D01*
X247598Y886580D01*
X250242D01*
X252795Y887264D01*
X255085Y888586D01*
X256954Y890455D01*
X258276Y892745D01*
X258960Y895298D01*
Y897942D01*
X258276Y900495D01*
X256954Y902785D01*
X255085Y904654D01*
X252795Y905976D01*
X250242Y906660D01*
D02*
G37*
G36*
X140970Y826992D02*
Y820020D01*
X147942D01*
X147425Y821950D01*
X146334Y823840D01*
X144790Y825384D01*
X142900Y826475D01*
X140970Y826992D01*
D02*
G37*
G36*
X138430D02*
X136500Y826475D01*
X134610Y825384D01*
X133066Y823840D01*
X131975Y821950D01*
X131458Y820020D01*
X138430D01*
Y826992D01*
D02*
G37*
G36*
X147942Y817480D02*
X140970D01*
Y810508D01*
X142900Y811025D01*
X144790Y812116D01*
X146334Y813660D01*
X147425Y815550D01*
X147942Y817480D01*
D02*
G37*
G36*
X138430D02*
X131458D01*
X131975Y815550D01*
X133066Y813660D01*
X134610Y812116D01*
X136500Y811025D01*
X138430Y810508D01*
Y817480D01*
D02*
G37*
G36*
X48260Y796099D02*
Y788350D01*
X56009D01*
X55414Y790569D01*
X54224Y792631D01*
X52541Y794314D01*
X50479Y795504D01*
X48260Y796099D01*
D02*
G37*
G36*
X45720D02*
X43501Y795504D01*
X41439Y794314D01*
X39756Y792631D01*
X38566Y790569D01*
X37971Y788350D01*
X45720D01*
Y796099D01*
D02*
G37*
G36*
X618542Y820300D02*
X615898D01*
X613345Y819616D01*
X611055Y818294D01*
X609186Y816425D01*
X607864Y814135D01*
X607180Y811582D01*
Y808938D01*
X607864Y806385D01*
X609186Y804095D01*
X611055Y802226D01*
X613345Y800904D01*
X615898Y800220D01*
X618542D01*
X619320Y800428D01*
X620357Y799391D01*
X619880Y797612D01*
Y794968D01*
X620564Y792415D01*
X621886Y790125D01*
X623755Y788256D01*
X626045Y786934D01*
X628598Y786250D01*
X631242D01*
X633795Y786934D01*
X636085Y788256D01*
X637954Y790125D01*
X639276Y792415D01*
X639960Y794968D01*
Y797612D01*
X639276Y800165D01*
X637954Y802455D01*
X636085Y804324D01*
X633795Y805646D01*
X631242Y806330D01*
X628598D01*
X627820Y806122D01*
X626783Y807159D01*
X627260Y808938D01*
Y811582D01*
X626576Y814135D01*
X625254Y816425D01*
X623385Y818294D01*
X621095Y819616D01*
X618542Y820300D01*
D02*
G37*
G36*
X147990Y802040D02*
X131410D01*
Y785460D01*
X147990D01*
Y802040D01*
D02*
G37*
G36*
X56009Y785810D02*
X48260D01*
Y778061D01*
X50479Y778656D01*
X52541Y779846D01*
X54224Y781529D01*
X55414Y783591D01*
X56009Y785810D01*
D02*
G37*
G36*
X45720D02*
X37971D01*
X38566Y783591D01*
X39756Y781529D01*
X41439Y779846D01*
X43501Y778656D01*
X45720Y778061D01*
Y785810D01*
D02*
G37*
G36*
X230881Y786320D02*
X229159D01*
X227496Y785874D01*
X226004Y785013D01*
X224787Y783796D01*
X223926Y782304D01*
X223480Y780641D01*
Y778919D01*
X223926Y777256D01*
X224787Y775764D01*
X226004Y774547D01*
X227496Y773686D01*
X229159Y773240D01*
X230881D01*
X232544Y773686D01*
X234036Y774547D01*
X235253Y775764D01*
X236114Y777256D01*
X236560Y778919D01*
Y780641D01*
X236114Y782304D01*
X235253Y783796D01*
X234036Y785013D01*
X232544Y785874D01*
X230881Y786320D01*
D02*
G37*
G36*
X48180Y776120D02*
X45800D01*
X43501Y775504D01*
X41439Y774314D01*
X39756Y772631D01*
X38566Y770569D01*
X37950Y768270D01*
Y765890D01*
X38566Y763591D01*
X39756Y761529D01*
X41439Y759846D01*
X43501Y758656D01*
X45800Y758040D01*
X48180D01*
X50479Y758656D01*
X52541Y759846D01*
X54224Y761529D01*
X55414Y763591D01*
X56030Y765890D01*
Y768270D01*
X55414Y770569D01*
X54224Y772631D01*
X52541Y774314D01*
X50479Y775504D01*
X48180Y776120D01*
D02*
G37*
G36*
X254052Y765690D02*
X251408D01*
X248855Y765006D01*
X246565Y763684D01*
X244696Y761815D01*
X243374Y759525D01*
X242690Y756972D01*
Y754328D01*
X243374Y751775D01*
X244696Y749485D01*
X246565Y747616D01*
X248855Y746294D01*
X251408Y745610D01*
X254052D01*
X256605Y746294D01*
X258895Y747616D01*
X260764Y749485D01*
X262086Y751775D01*
X262770Y754328D01*
Y756972D01*
X262086Y759525D01*
X260764Y761815D01*
X258895Y763684D01*
X256605Y765006D01*
X254052Y765690D01*
D02*
G37*
G36*
X1471551Y852360D02*
X1469829D01*
X1468166Y851914D01*
X1466674Y851053D01*
X1465457Y849836D01*
X1464596Y848344D01*
X1464150Y846681D01*
Y844959D01*
X1464596Y843296D01*
X1465457Y841804D01*
X1466674Y840587D01*
X1466826Y840499D01*
Y736841D01*
X1466674Y736753D01*
X1465457Y735536D01*
X1464596Y734044D01*
X1464150Y732381D01*
Y730659D01*
X1464596Y728996D01*
X1465457Y727504D01*
X1466674Y726287D01*
X1468166Y725426D01*
X1469829Y724980D01*
X1471551D01*
X1473214Y725426D01*
X1474706Y726287D01*
X1475923Y727504D01*
X1476784Y728996D01*
X1477230Y730659D01*
Y732381D01*
X1476784Y734044D01*
X1475923Y735536D01*
X1474706Y736753D01*
X1474554Y736841D01*
Y840499D01*
X1474706Y840587D01*
X1475923Y841804D01*
X1476784Y843296D01*
X1477230Y844959D01*
Y846681D01*
X1476784Y848344D01*
X1475923Y849836D01*
X1474706Y851053D01*
X1473214Y851914D01*
X1471551Y852360D01*
D02*
G37*
G36*
X345031Y730440D02*
X343309D01*
X341646Y729994D01*
X340154Y729133D01*
X338937Y727916D01*
X338076Y726424D01*
X337630Y724761D01*
Y723039D01*
X338076Y721376D01*
X338937Y719884D01*
X340154Y718667D01*
X341646Y717806D01*
X343309Y717360D01*
X345031D01*
X346694Y717806D01*
X348186Y718667D01*
X349403Y719884D01*
X350264Y721376D01*
X350710Y723039D01*
Y724761D01*
X350264Y726424D01*
X349403Y727916D01*
X348186Y729133D01*
X346694Y729994D01*
X345031Y730440D01*
D02*
G37*
G36*
X1529971Y793940D02*
X1528249D01*
X1526586Y793494D01*
X1525094Y792633D01*
X1523877Y791416D01*
X1523016Y789924D01*
X1522570Y788261D01*
Y786539D01*
X1523016Y784876D01*
X1523877Y783384D01*
X1525094Y782167D01*
X1526586Y781306D01*
X1528249Y780860D01*
X1529820D01*
X1531596Y779084D01*
Y722871D01*
X1531444Y722783D01*
X1530227Y721566D01*
X1529366Y720074D01*
X1528920Y718411D01*
Y716689D01*
X1529366Y715026D01*
X1530227Y713534D01*
X1531444Y712317D01*
X1532936Y711456D01*
X1534599Y711010D01*
X1536321D01*
X1537984Y711456D01*
X1539476Y712317D01*
X1540693Y713534D01*
X1541554Y715026D01*
X1542000Y716689D01*
Y718411D01*
X1541554Y720074D01*
X1540693Y721566D01*
X1539476Y722783D01*
X1539324Y722871D01*
Y780685D01*
X1539030Y782164D01*
X1538192Y783418D01*
X1538192Y783418D01*
X1535528Y786082D01*
X1535650Y786539D01*
Y788261D01*
X1535204Y789924D01*
X1534343Y791416D01*
X1533126Y792633D01*
X1531634Y793494D01*
X1529971Y793940D01*
D02*
G37*
G36*
X1688721Y783780D02*
X1686999D01*
X1685336Y783334D01*
X1683844Y782473D01*
X1682627Y781256D01*
X1681766Y779764D01*
X1681320Y778101D01*
Y776379D01*
X1681766Y774716D01*
X1682627Y773224D01*
X1683844Y772007D01*
X1685336Y771146D01*
X1686999Y770700D01*
X1688721D01*
X1690384Y771146D01*
X1691876Y772007D01*
X1693093Y773224D01*
X1693181Y773376D01*
X1977089D01*
X2026896Y723569D01*
Y719061D01*
X2026744Y718973D01*
X2025527Y717756D01*
X2024666Y716264D01*
X2024220Y714601D01*
Y712879D01*
X2024666Y711216D01*
X2025527Y709724D01*
X2026744Y708507D01*
X2028236Y707646D01*
X2029899Y707200D01*
X2031621D01*
X2033284Y707646D01*
X2034776Y708507D01*
X2035993Y709724D01*
X2036854Y711216D01*
X2037300Y712879D01*
Y714601D01*
X2036854Y716264D01*
X2035993Y717756D01*
X2034776Y718973D01*
X2034624Y719061D01*
Y725170D01*
X2034624Y725170D01*
X2034330Y726649D01*
X2033492Y727902D01*
X1981422Y779972D01*
X1980169Y780810D01*
X1978690Y781104D01*
X1693181D01*
X1693093Y781256D01*
X1691876Y782473D01*
X1690384Y783334D01*
X1688721Y783780D01*
D02*
G37*
G36*
X1030861Y840930D02*
X1029139D01*
X1027476Y840484D01*
X1025984Y839623D01*
X1024767Y838406D01*
X1023906Y836914D01*
X1023460Y835251D01*
Y833529D01*
X1023906Y831866D01*
X1024767Y830374D01*
X1025984Y829157D01*
X1026446Y828890D01*
Y708005D01*
X1025387Y706946D01*
X1024526Y705454D01*
X1024080Y703791D01*
Y702069D01*
X1024526Y700406D01*
X1025387Y698914D01*
X1026604Y697697D01*
X1028096Y696836D01*
X1029759Y696390D01*
X1031481D01*
X1033144Y696836D01*
X1034636Y697697D01*
X1035853Y698914D01*
X1036714Y700406D01*
X1037160Y702069D01*
Y703791D01*
X1036714Y705454D01*
X1035853Y706946D01*
X1034636Y708163D01*
X1034174Y708430D01*
Y829315D01*
X1035233Y830374D01*
X1036094Y831866D01*
X1036540Y833529D01*
Y835251D01*
X1036094Y836914D01*
X1035233Y838406D01*
X1034016Y839623D01*
X1032524Y840484D01*
X1030861Y840930D01*
D02*
G37*
G36*
X287881Y702500D02*
X286159D01*
X284496Y702054D01*
X283004Y701193D01*
X281787Y699976D01*
X280926Y698484D01*
X280480Y696821D01*
Y695099D01*
X280926Y693436D01*
X281787Y691944D01*
X283004Y690727D01*
X284496Y689866D01*
X286159Y689420D01*
X287881D01*
X289544Y689866D01*
X291036Y690727D01*
X292253Y691944D01*
X293114Y693436D01*
X293560Y695099D01*
Y696821D01*
X293114Y698484D01*
X292253Y699976D01*
X291036Y701193D01*
X289544Y702054D01*
X287881Y702500D01*
D02*
G37*
G36*
X538927Y889340D02*
X535493D01*
X532177Y888451D01*
X529203Y886735D01*
X526775Y884307D01*
X525059Y881333D01*
X524170Y878017D01*
Y874583D01*
X525059Y871267D01*
X526775Y868293D01*
X529203Y865865D01*
X531919Y864297D01*
X532055Y863640D01*
Y863560D01*
X531919Y862903D01*
X529203Y861335D01*
X526775Y858907D01*
X525059Y855933D01*
X524170Y852617D01*
Y849183D01*
X525059Y845867D01*
X526775Y842893D01*
X529203Y840465D01*
X531919Y838897D01*
X532055Y838240D01*
Y838160D01*
X531919Y837503D01*
X529203Y835935D01*
X526775Y833507D01*
X525059Y830533D01*
X524170Y827217D01*
Y826770D01*
X537210D01*
X550250D01*
Y827217D01*
X549361Y830533D01*
X547645Y833507D01*
X545217Y835935D01*
X542500Y837503D01*
X542365Y838160D01*
Y838240D01*
X542500Y838897D01*
X545217Y840465D01*
X547645Y842893D01*
X549361Y845867D01*
X550250Y849183D01*
Y852617D01*
X549361Y855933D01*
X547645Y858907D01*
X545217Y861335D01*
X542500Y862903D01*
X542365Y863560D01*
Y863640D01*
X542500Y864297D01*
X545217Y865865D01*
X547645Y868293D01*
X549361Y871267D01*
X550250Y874583D01*
Y878017D01*
X549361Y881333D01*
X547645Y884307D01*
X545217Y886735D01*
X542243Y888451D01*
X538927Y889340D01*
D02*
G37*
G36*
X550250Y824230D02*
X537210D01*
X524170D01*
Y823783D01*
X525059Y820467D01*
X526775Y817493D01*
X529203Y815065D01*
X531011Y814022D01*
Y812555D01*
X528896Y811335D01*
X526375Y808814D01*
X524593Y805726D01*
X523670Y802283D01*
Y798717D01*
X524593Y795274D01*
X526375Y792186D01*
X528896Y789665D01*
X531984Y787883D01*
X535427Y786960D01*
X538993D01*
X542436Y787883D01*
X545524Y789665D01*
X548045Y792186D01*
X549827Y795274D01*
X550750Y798717D01*
Y802283D01*
X549827Y805726D01*
X548045Y808814D01*
X545524Y811335D01*
X543409Y812555D01*
Y814022D01*
X545217Y815065D01*
X547645Y817493D01*
X549361Y820467D01*
X550250Y823783D01*
Y824230D01*
D02*
G37*
G36*
X399641Y812990D02*
X397919D01*
X396256Y812544D01*
X394764Y811683D01*
X393547Y810466D01*
X392686Y808974D01*
X392240Y807311D01*
Y805589D01*
X392686Y803926D01*
X393547Y802434D01*
X394764Y801217D01*
X396256Y800356D01*
X397919Y799910D01*
X399641D01*
X401304Y800356D01*
X402796Y801217D01*
X404013Y802434D01*
X404874Y803926D01*
X405320Y805589D01*
Y807311D01*
X404874Y808974D01*
X404013Y810466D01*
X402796Y811683D01*
X401304Y812544D01*
X399641Y812990D01*
D02*
G37*
G36*
X2182858Y589330D02*
X2158728D01*
X2157737Y589133D01*
X2157458Y588946D01*
X2157179Y589133D01*
X2156188Y589330D01*
X2133328D01*
X2132337Y589133D01*
X2132058Y588946D01*
X2131779Y589133D01*
X2130788Y589330D01*
X2109198D01*
X2108207Y589133D01*
X2107367Y588571D01*
X2105949D01*
X2105109Y589133D01*
X2104118Y589330D01*
X2083798D01*
X2082807Y589133D01*
X2081967Y588571D01*
X2081405Y587731D01*
X2081272Y587060D01*
X2080930D01*
Y561980D01*
X2081208D01*
Y549960D01*
X2052621D01*
X2051986Y551060D01*
X2052064Y551196D01*
X2052510Y552859D01*
Y554581D01*
X2052064Y556244D01*
X2051203Y557736D01*
X2049986Y558953D01*
X2048494Y559814D01*
X2046831Y560260D01*
X2045109D01*
X2043446Y559814D01*
X2041954Y558953D01*
X2040737Y557736D01*
X2039876Y556244D01*
X2039430Y554581D01*
Y552859D01*
X2039876Y551196D01*
X2039954Y551060D01*
X2039319Y549960D01*
X2023158D01*
X2022167Y549763D01*
X2021327Y549201D01*
X2020765Y548361D01*
X2020568Y547370D01*
Y479810D01*
X2020550Y479742D01*
Y477098D01*
X2020568Y477030D01*
Y455930D01*
X2020765Y454939D01*
X2021327Y454099D01*
X2022167Y453537D01*
X2023158Y453340D01*
X2038398D01*
X2039389Y453537D01*
X2040229Y454099D01*
X2041327D01*
X2042167Y453537D01*
X2043158Y453340D01*
X2058398D01*
X2059389Y453537D01*
X2059932Y453900D01*
X2060778Y454021D01*
X2061624Y453900D01*
X2062167Y453537D01*
X2063158Y453340D01*
X2078398D01*
X2079389Y453537D01*
X2079932Y453900D01*
X2080778Y454021D01*
X2081624Y453900D01*
X2082167Y453537D01*
X2083158Y453340D01*
X2098398D01*
X2099389Y453537D01*
X2100229Y454099D01*
X2100791Y454939D01*
X2100988Y455930D01*
Y504140D01*
X2120133D01*
X2120866Y502870D01*
X2120549Y502322D01*
X2120104Y500659D01*
Y498937D01*
X2120549Y497273D01*
X2121411Y495782D01*
X2122628Y494564D01*
X2124120Y493703D01*
X2124875Y493501D01*
Y486714D01*
X2124425Y486454D01*
X2122556Y484585D01*
X2121234Y482295D01*
X2120550Y479742D01*
Y477098D01*
X2121234Y474545D01*
X2122556Y472255D01*
X2124425Y470386D01*
X2124875Y470126D01*
Y454880D01*
X2136305D01*
Y470126D01*
X2136755Y470386D01*
X2138624Y472255D01*
X2139946Y474545D01*
X2140630Y477098D01*
Y479742D01*
X2139946Y482295D01*
X2138624Y484585D01*
X2136755Y486454D01*
X2136305Y486714D01*
Y493019D01*
X2137687D01*
X2139351Y493465D01*
X2140842Y494326D01*
X2142060Y495543D01*
X2142921Y497035D01*
X2143366Y498698D01*
Y500420D01*
X2142921Y502084D01*
X2142466Y502870D01*
X2143200Y504140D01*
X2182858D01*
X2183849Y504337D01*
X2184689Y504899D01*
X2185251Y505739D01*
X2185448Y506730D01*
Y518767D01*
X2186718Y519293D01*
X2186734Y519277D01*
X2188226Y518416D01*
X2189889Y517970D01*
X2191611D01*
X2193274Y518416D01*
X2194766Y519277D01*
X2195983Y520494D01*
X2196844Y521986D01*
X2197290Y523649D01*
Y525371D01*
X2196844Y527034D01*
X2195983Y528526D01*
X2194766Y529743D01*
X2193274Y530604D01*
X2191611Y531050D01*
X2189889D01*
X2188226Y530604D01*
X2186734Y529743D01*
X2186718Y529727D01*
X2185448Y530253D01*
Y586740D01*
X2185251Y587731D01*
X2184689Y588571D01*
X2183849Y589133D01*
X2182858Y589330D01*
D02*
G37*
G36*
X1678759D02*
X1654629D01*
X1653638Y589133D01*
X1653359Y588946D01*
X1653080Y589133D01*
X1652089Y589330D01*
X1629229D01*
X1628237Y589133D01*
X1627959Y588946D01*
X1627680Y589133D01*
X1626689Y589330D01*
X1605099D01*
X1604108Y589133D01*
X1603267Y588571D01*
X1601850D01*
X1601010Y589133D01*
X1600019Y589330D01*
X1579699D01*
X1578707Y589133D01*
X1577867Y588571D01*
X1577306Y587731D01*
X1577173Y587060D01*
X1576831D01*
Y561980D01*
X1577109D01*
Y549960D01*
X1519059D01*
X1518068Y549763D01*
X1517227Y549201D01*
X1516666Y548361D01*
X1516469Y547370D01*
Y479810D01*
X1516451Y479742D01*
Y477098D01*
X1516469Y477030D01*
Y455930D01*
X1516666Y454939D01*
X1517227Y454099D01*
X1518068Y453537D01*
X1519059Y453340D01*
X1534299D01*
X1535290Y453537D01*
X1536130Y454099D01*
X1537227D01*
X1538067Y453537D01*
X1539059Y453340D01*
X1554299D01*
X1555290Y453537D01*
X1555833Y453900D01*
X1556679Y454021D01*
X1557525Y453900D01*
X1558067Y453537D01*
X1559059Y453340D01*
X1574299D01*
X1575290Y453537D01*
X1575833Y453900D01*
X1576679Y454021D01*
X1577525Y453900D01*
X1578068Y453537D01*
X1579059Y453340D01*
X1594299D01*
X1595290Y453537D01*
X1596130Y454099D01*
X1596691Y454939D01*
X1596888Y455930D01*
Y504140D01*
X1616033D01*
X1616767Y502870D01*
X1616450Y502322D01*
X1616004Y500659D01*
Y498937D01*
X1616450Y497273D01*
X1617311Y495782D01*
X1618529Y494564D01*
X1620020Y493703D01*
X1620776Y493501D01*
Y486714D01*
X1620326Y486454D01*
X1618457Y484585D01*
X1617135Y482295D01*
X1616451Y479742D01*
Y477098D01*
X1617135Y474545D01*
X1618457Y472255D01*
X1620326Y470386D01*
X1620776Y470126D01*
Y454880D01*
X1632206D01*
Y470126D01*
X1632655Y470386D01*
X1634525Y472255D01*
X1635846Y474545D01*
X1636531Y477098D01*
Y479742D01*
X1635846Y482295D01*
X1634525Y484585D01*
X1632655Y486454D01*
X1632206Y486714D01*
Y493019D01*
X1633588D01*
X1635251Y493465D01*
X1636743Y494326D01*
X1637960Y495543D01*
X1638821Y497035D01*
X1639267Y498698D01*
Y500420D01*
X1638821Y502084D01*
X1638367Y502870D01*
X1639100Y504140D01*
X1678759D01*
X1679750Y504337D01*
X1680590Y504899D01*
X1681151Y505739D01*
X1681348Y506730D01*
Y511096D01*
X1682618Y511903D01*
X1683676Y511620D01*
X1685398D01*
X1687061Y512066D01*
X1688552Y512927D01*
X1689770Y514144D01*
X1690631Y515636D01*
X1691077Y517299D01*
Y519021D01*
X1690631Y520684D01*
X1689770Y522176D01*
X1688552Y523393D01*
X1687061Y524254D01*
X1685398Y524700D01*
X1683676D01*
X1682618Y524417D01*
X1681348Y525224D01*
Y586740D01*
X1681151Y587731D01*
X1680590Y588571D01*
X1679750Y589133D01*
X1678759Y589330D01*
D02*
G37*
G36*
X1174659D02*
X1150529D01*
X1149538Y589133D01*
X1149259Y588946D01*
X1148980Y589133D01*
X1147989Y589330D01*
X1125129D01*
X1124138Y589133D01*
X1123859Y588946D01*
X1123580Y589133D01*
X1122589Y589330D01*
X1100999D01*
X1100008Y589133D01*
X1099168Y588571D01*
X1097750D01*
X1096910Y589133D01*
X1095919Y589330D01*
X1075599D01*
X1074608Y589133D01*
X1073768Y588571D01*
X1073207Y587731D01*
X1073073Y587060D01*
X1072731D01*
Y561980D01*
X1073009D01*
Y549960D01*
X1014959D01*
X1013968Y549763D01*
X1013128Y549201D01*
X1012567Y548361D01*
X1012370Y547370D01*
Y479810D01*
X1012351Y479742D01*
Y477098D01*
X1012370Y477030D01*
Y455930D01*
X1012567Y454939D01*
X1013128Y454099D01*
X1013968Y453537D01*
X1014959Y453340D01*
X1030199D01*
X1031190Y453537D01*
X1032030Y454099D01*
X1033128D01*
X1033968Y453537D01*
X1034959Y453340D01*
X1050199D01*
X1051190Y453537D01*
X1051733Y453900D01*
X1052579Y454021D01*
X1053425Y453900D01*
X1053968Y453537D01*
X1054959Y453340D01*
X1070199D01*
X1071190Y453537D01*
X1071733Y453900D01*
X1072579Y454021D01*
X1073425Y453900D01*
X1073968Y453537D01*
X1074959Y453340D01*
X1090199D01*
X1091190Y453537D01*
X1092030Y454099D01*
X1092592Y454939D01*
X1092789Y455930D01*
Y504140D01*
X1111692D01*
X1112261Y502913D01*
X1111400Y501422D01*
X1110954Y499759D01*
Y498036D01*
X1111400Y496373D01*
X1112261Y494882D01*
X1113478Y493664D01*
X1114969Y492803D01*
X1116633Y492358D01*
X1116676D01*
Y486363D01*
X1115275Y485554D01*
X1113406Y483685D01*
X1112084Y481395D01*
X1111400Y478842D01*
Y476198D01*
X1112084Y473645D01*
X1113406Y471355D01*
X1115275Y469486D01*
X1116676Y468677D01*
Y454880D01*
X1128106D01*
Y469988D01*
X1129474Y471355D01*
X1130796Y473645D01*
X1131480Y476198D01*
Y478842D01*
X1130796Y481395D01*
X1129474Y483685D01*
X1128106Y485052D01*
Y492119D01*
X1128537D01*
X1130201Y492565D01*
X1131692Y493426D01*
X1132910Y494643D01*
X1133771Y496135D01*
X1134216Y497798D01*
Y499520D01*
X1133771Y501184D01*
X1132910Y502675D01*
X1132714Y502870D01*
X1133240Y504140D01*
X1174659D01*
X1175650Y504337D01*
X1176490Y504899D01*
X1177052Y505739D01*
X1177249Y506730D01*
Y528849D01*
X1178032Y529211D01*
X1178519Y529272D01*
X1179624Y528167D01*
X1181116Y527306D01*
X1182779Y526860D01*
X1184501D01*
X1186164Y527306D01*
X1187656Y528167D01*
X1188873Y529384D01*
X1189734Y530876D01*
X1190180Y532539D01*
Y534261D01*
X1189734Y535924D01*
X1188873Y537416D01*
X1187656Y538633D01*
X1186164Y539494D01*
X1184501Y539940D01*
X1182779D01*
X1181116Y539494D01*
X1179624Y538633D01*
X1178519Y537528D01*
X1178032Y537589D01*
X1177249Y537951D01*
Y586740D01*
X1177052Y587731D01*
X1176490Y588571D01*
X1175650Y589133D01*
X1174659Y589330D01*
D02*
G37*
G36*
X670560D02*
X646430D01*
X645439Y589133D01*
X645160Y588946D01*
X644881Y589133D01*
X643890Y589330D01*
X621030D01*
X620039Y589133D01*
X619760Y588946D01*
X619481Y589133D01*
X618490Y589330D01*
X596900D01*
X595909Y589133D01*
X595069Y588571D01*
X593651D01*
X592811Y589133D01*
X591820Y589330D01*
X571500D01*
X570509Y589133D01*
X569669Y588571D01*
X569107Y587731D01*
X568910Y586740D01*
X568910Y549960D01*
X547824D01*
X547189Y551060D01*
X547411Y551445D01*
X547925Y553362D01*
Y555348D01*
X547411Y557265D01*
X546418Y558985D01*
X545015Y560388D01*
X543295Y561381D01*
X541378Y561895D01*
X539392D01*
X537475Y561381D01*
X535755Y560388D01*
X534352Y558985D01*
X533359Y557265D01*
X532845Y555348D01*
Y553362D01*
X533359Y551445D01*
X533581Y551060D01*
X532946Y549960D01*
X510860D01*
X509869Y549763D01*
X509029Y549201D01*
X508467Y548361D01*
X508270Y547370D01*
Y479810D01*
X508252Y479742D01*
Y477098D01*
X508270Y477030D01*
Y455930D01*
X508467Y454939D01*
X509029Y454099D01*
X509869Y453537D01*
X510860Y453340D01*
X526100D01*
X527091Y453537D01*
X527931Y454099D01*
X529029D01*
X529869Y453537D01*
X530860Y453340D01*
X546100D01*
X547091Y453537D01*
X547634Y453900D01*
X548480Y454021D01*
X549326Y453900D01*
X549869Y453537D01*
X550860Y453340D01*
X566100D01*
X567091Y453537D01*
X567634Y453900D01*
X568480Y454021D01*
X569326Y453900D01*
X569869Y453537D01*
X570860Y453340D01*
X586100D01*
X587091Y453537D01*
X587931Y454099D01*
X588493Y454939D01*
X588690Y455930D01*
Y504140D01*
X604713D01*
X605291Y502916D01*
X604784Y502066D01*
X604007Y501960D01*
X603698Y501960D01*
X599562D01*
Y479690D01*
X604007D01*
Y495637D01*
X605277Y495977D01*
X605787Y495094D01*
X607004Y493877D01*
X608496Y493016D01*
X610159Y492570D01*
X611881D01*
X612577Y492036D01*
Y487703D01*
X611055Y486824D01*
X609186Y484955D01*
X607864Y482665D01*
X607180Y480112D01*
Y477468D01*
X607864Y474915D01*
X609186Y472625D01*
X611055Y470756D01*
X612577Y469877D01*
Y454880D01*
X624007D01*
Y471378D01*
X625254Y472625D01*
X626576Y474915D01*
X627260Y477468D01*
Y480112D01*
X626576Y482665D01*
X625254Y484955D01*
X624007Y486202D01*
Y501960D01*
X617159D01*
X616463Y503034D01*
X616928Y504140D01*
X670560D01*
X671551Y504337D01*
X672391Y504899D01*
X672953Y505739D01*
X673150Y506730D01*
Y519834D01*
X673583Y520102D01*
X674420Y520291D01*
X675434Y519277D01*
X676926Y518416D01*
X678589Y517970D01*
X680311D01*
X681974Y518416D01*
X683466Y519277D01*
X684683Y520494D01*
X685544Y521986D01*
X685990Y523649D01*
Y525371D01*
X685544Y527034D01*
X684683Y528526D01*
X683466Y529743D01*
X681974Y530604D01*
X680311Y531050D01*
X678589D01*
X676926Y530604D01*
X675434Y529743D01*
X674420Y528729D01*
X673583Y528918D01*
X673150Y529186D01*
Y586740D01*
X672953Y587731D01*
X672391Y588571D01*
X671551Y589133D01*
X670560Y589330D01*
D02*
G37*
G36*
X1548991Y589470D02*
X1547269D01*
X1545606Y589024D01*
X1544114Y588163D01*
X1542897Y586946D01*
X1542036Y585454D01*
X1541590Y583791D01*
Y582069D01*
X1542036Y580406D01*
X1542897Y578914D01*
X1544114Y577697D01*
X1545606Y576836D01*
X1547269Y576390D01*
X1548991D01*
X1550654Y576836D01*
X1552146Y577697D01*
X1553363Y578914D01*
X1554224Y580406D01*
X1554670Y582069D01*
Y583791D01*
X1554224Y585454D01*
X1553363Y586946D01*
X1552146Y588163D01*
X1550654Y589024D01*
X1548991Y589470D01*
D02*
G37*
G36*
X2039211Y585660D02*
X2037489D01*
X2035826Y585214D01*
X2034334Y584353D01*
X2033117Y583136D01*
X2032256Y581644D01*
X2031810Y579981D01*
Y578259D01*
X2032256Y576596D01*
X2033117Y575104D01*
X2034334Y573887D01*
X2035826Y573026D01*
X2037489Y572580D01*
X2039211D01*
X2040874Y573026D01*
X2042366Y573887D01*
X2043583Y575104D01*
X2044444Y576596D01*
X2044890Y578259D01*
Y579981D01*
X2044444Y581644D01*
X2043583Y583136D01*
X2042366Y584353D01*
X2040874Y585214D01*
X2039211Y585660D01*
D02*
G37*
G36*
X1047341Y583120D02*
X1045619D01*
X1043956Y582674D01*
X1042464Y581813D01*
X1041247Y580596D01*
X1040386Y579104D01*
X1039940Y577441D01*
Y575719D01*
X1040386Y574056D01*
X1041247Y572564D01*
X1042464Y571347D01*
X1043956Y570486D01*
X1045619Y570040D01*
X1047341D01*
X1049004Y570486D01*
X1050496Y571347D01*
X1051713Y572564D01*
X1052574Y574056D01*
X1053020Y575719D01*
Y577441D01*
X1052574Y579104D01*
X1051713Y580596D01*
X1050496Y581813D01*
X1049004Y582674D01*
X1047341Y583120D01*
D02*
G37*
G36*
X1999637Y578040D02*
X1997914D01*
X1996251Y577594D01*
X1994760Y576733D01*
X1993542Y575516D01*
X1992681Y574024D01*
X1992236Y572361D01*
Y570639D01*
X1992681Y568976D01*
X1993542Y567484D01*
X1994760Y566267D01*
X1996251Y565406D01*
X1997914Y564960D01*
X1999637D01*
X2001300Y565406D01*
X2002791Y566267D01*
X2004009Y567484D01*
X2004870Y568976D01*
X2005315Y570639D01*
Y572361D01*
X2004870Y574024D01*
X2004009Y575516D01*
X2002791Y576733D01*
X2001300Y577594D01*
X1999637Y578040D01*
D02*
G37*
G36*
X1406601Y571840D02*
X1404879D01*
X1403216Y571394D01*
X1401724Y570533D01*
X1400507Y569316D01*
X1399646Y567824D01*
X1399200Y566161D01*
Y564439D01*
X1399646Y562776D01*
X1400507Y561284D01*
X1401724Y560067D01*
X1403216Y559206D01*
X1404879Y558760D01*
X1406601D01*
X1408264Y559206D01*
X1409756Y560067D01*
X1410973Y561284D01*
X1411834Y562776D01*
X1412280Y564439D01*
Y566161D01*
X1411834Y567824D01*
X1410973Y569316D01*
X1409756Y570533D01*
X1408264Y571394D01*
X1406601Y571840D01*
D02*
G37*
G36*
X1855061Y571690D02*
X1853339D01*
X1851676Y571244D01*
X1850184Y570383D01*
X1848967Y569166D01*
X1848106Y567674D01*
X1847660Y566011D01*
Y564289D01*
X1848106Y562626D01*
X1848967Y561134D01*
X1850184Y559917D01*
X1851676Y559056D01*
X1853339Y558610D01*
X1855061D01*
X1856724Y559056D01*
X1858216Y559917D01*
X1859433Y561134D01*
X1860294Y562626D01*
X1860740Y564289D01*
Y566011D01*
X1860294Y567674D01*
X1859433Y569166D01*
X1858216Y570383D01*
X1856724Y571244D01*
X1855061Y571690D01*
D02*
G37*
G36*
X1467711D02*
X1465989D01*
X1464326Y571244D01*
X1462834Y570383D01*
X1461617Y569166D01*
X1460756Y567674D01*
X1460310Y566011D01*
Y564289D01*
X1460756Y562626D01*
X1461617Y561134D01*
X1462834Y559917D01*
X1464326Y559056D01*
X1465989Y558610D01*
X1467711D01*
X1469374Y559056D01*
X1470866Y559917D01*
X1472083Y561134D01*
X1472944Y562626D01*
X1473390Y564289D01*
Y566011D01*
X1472944Y567674D01*
X1472083Y569166D01*
X1470866Y570383D01*
X1469374Y571244D01*
X1467711Y571690D01*
D02*
G37*
G36*
X1961741Y570420D02*
X1960019D01*
X1958356Y569974D01*
X1956864Y569113D01*
X1955647Y567896D01*
X1954786Y566404D01*
X1954340Y564741D01*
Y563019D01*
X1954786Y561356D01*
X1955647Y559864D01*
X1956864Y558647D01*
X1958356Y557786D01*
X1960019Y557340D01*
X1961741D01*
X1963404Y557786D01*
X1964896Y558647D01*
X1966113Y559864D01*
X1966974Y561356D01*
X1967420Y563019D01*
Y564741D01*
X1966974Y566404D01*
X1966113Y567896D01*
X1964896Y569113D01*
X1963404Y569974D01*
X1961741Y570420D01*
D02*
G37*
G36*
X1486761D02*
X1485039D01*
X1483376Y569974D01*
X1481884Y569113D01*
X1480667Y567896D01*
X1479806Y566404D01*
X1479360Y564741D01*
Y563019D01*
X1479806Y561356D01*
X1480667Y559864D01*
X1481884Y558647D01*
X1483376Y557786D01*
X1485039Y557340D01*
X1486761D01*
X1488424Y557786D01*
X1489916Y558647D01*
X1491133Y559864D01*
X1491994Y561356D01*
X1492440Y563019D01*
Y564741D01*
X1491994Y566404D01*
X1491133Y567896D01*
X1489916Y569113D01*
X1488424Y569974D01*
X1486761Y570420D01*
D02*
G37*
G36*
X1318783Y569150D02*
X1317061D01*
X1315397Y568704D01*
X1313906Y567843D01*
X1312688Y566626D01*
X1311827Y565134D01*
X1311382Y563471D01*
Y561749D01*
X1311827Y560086D01*
X1312688Y558594D01*
X1313906Y557377D01*
X1315397Y556516D01*
X1317061Y556070D01*
X1318783D01*
X1320446Y556516D01*
X1321937Y557377D01*
X1323155Y558594D01*
X1324016Y560086D01*
X1324462Y561749D01*
Y563471D01*
X1324016Y565134D01*
X1323155Y566626D01*
X1321937Y567843D01*
X1320446Y568704D01*
X1318783Y569150D01*
D02*
G37*
G36*
X1900811Y565340D02*
X1899089D01*
X1897426Y564894D01*
X1895934Y564033D01*
X1894717Y562816D01*
X1893856Y561324D01*
X1893410Y559661D01*
Y557939D01*
X1893856Y556276D01*
X1894717Y554784D01*
X1895934Y553567D01*
X1897426Y552706D01*
X1899089Y552260D01*
X1900811D01*
X1902474Y552706D01*
X1903966Y553567D01*
X1905183Y554784D01*
X1906044Y556276D01*
X1906490Y557939D01*
Y559661D01*
X1906044Y561324D01*
X1905183Y562816D01*
X1903966Y564033D01*
X1902474Y564894D01*
X1900811Y565340D01*
D02*
G37*
G36*
X873351D02*
X871629D01*
X869966Y564894D01*
X868474Y564033D01*
X867257Y562816D01*
X866396Y561324D01*
X865950Y559661D01*
Y557939D01*
X866396Y556276D01*
X867257Y554784D01*
X868474Y553567D01*
X869966Y552706D01*
X871629Y552260D01*
X873351D01*
X875014Y552706D01*
X876506Y553567D01*
X877723Y554784D01*
X878584Y556276D01*
X879030Y557939D01*
Y559661D01*
X878584Y561324D01*
X877723Y562816D01*
X876506Y564033D01*
X875014Y564894D01*
X873351Y565340D01*
D02*
G37*
G36*
X397233Y565070D02*
X395247D01*
X393330Y564556D01*
X391610Y563563D01*
X390206Y562160D01*
X389214Y560440D01*
X388700Y558523D01*
Y556537D01*
X389214Y554620D01*
X390206Y552900D01*
X391610Y551497D01*
X393330Y550504D01*
X395247Y549990D01*
X397233D01*
X399150Y550504D01*
X400870Y551497D01*
X402273Y552900D01*
X403266Y554620D01*
X403780Y556537D01*
Y558523D01*
X403266Y560440D01*
X402273Y562160D01*
X400870Y563563D01*
X399150Y564556D01*
X397233Y565070D01*
D02*
G37*
G36*
X351513D02*
X349527D01*
X347610Y564556D01*
X345890Y563563D01*
X344487Y562160D01*
X343494Y560440D01*
X342980Y558523D01*
Y556537D01*
X343494Y554620D01*
X344487Y552900D01*
X345890Y551497D01*
X347610Y550504D01*
X349527Y549990D01*
X351513D01*
X353430Y550504D01*
X355150Y551497D01*
X356553Y552900D01*
X357546Y554620D01*
X358060Y556537D01*
Y558523D01*
X357546Y560440D01*
X356553Y562160D01*
X355150Y563563D01*
X353430Y564556D01*
X351513Y565070D01*
D02*
G37*
G36*
X978761Y561530D02*
X977039D01*
X975376Y561084D01*
X973884Y560223D01*
X972667Y559006D01*
X971806Y557514D01*
X971360Y555851D01*
Y554129D01*
X971806Y552466D01*
X972667Y550974D01*
X973884Y549757D01*
X975376Y548896D01*
X977039Y548450D01*
X978761D01*
X980424Y548896D01*
X981916Y549757D01*
X983133Y550974D01*
X983994Y552466D01*
X984440Y554129D01*
Y555851D01*
X983994Y557514D01*
X983133Y559006D01*
X981916Y560223D01*
X980424Y561084D01*
X978761Y561530D01*
D02*
G37*
G36*
X957171D02*
X955449D01*
X953786Y561084D01*
X952294Y560223D01*
X951077Y559006D01*
X950216Y557514D01*
X949770Y555851D01*
Y554129D01*
X950216Y552466D01*
X951077Y550974D01*
X952294Y549757D01*
X953786Y548896D01*
X955449Y548450D01*
X957171D01*
X958834Y548896D01*
X960326Y549757D01*
X961543Y550974D01*
X962404Y552466D01*
X962850Y554129D01*
Y555851D01*
X962404Y557514D01*
X961543Y559006D01*
X960326Y560223D01*
X958834Y561084D01*
X957171Y561530D01*
D02*
G37*
G36*
X457252Y567570D02*
X454608D01*
X452055Y566886D01*
X449765Y565564D01*
X447896Y563695D01*
X446574Y561405D01*
X445890Y558852D01*
Y556208D01*
X446574Y553655D01*
X447896Y551365D01*
X449765Y549496D01*
X452055Y548174D01*
X454608Y547490D01*
X457252D01*
X459805Y548174D01*
X462095Y549496D01*
X463964Y551365D01*
X465286Y553655D01*
X465970Y556208D01*
Y558852D01*
X465286Y561405D01*
X463964Y563695D01*
X462095Y565564D01*
X459805Y566886D01*
X457252Y567570D01*
D02*
G37*
G36*
X853031Y556450D02*
X851309D01*
X849646Y556004D01*
X848154Y555143D01*
X846937Y553926D01*
X846076Y552434D01*
X845630Y550771D01*
Y549049D01*
X846076Y547386D01*
X846937Y545894D01*
X848154Y544677D01*
X849646Y543816D01*
X851309Y543370D01*
X853031D01*
X854694Y543816D01*
X856186Y544677D01*
X857403Y545894D01*
X858264Y547386D01*
X858710Y549049D01*
Y550771D01*
X858264Y552434D01*
X857403Y553926D01*
X856186Y555143D01*
X854694Y556004D01*
X853031Y556450D01*
D02*
G37*
G36*
X2266430Y562426D02*
X2262482D01*
X2258611Y561656D01*
X2254964Y560145D01*
X2251682Y557952D01*
X2248890Y555160D01*
X2246697Y551878D01*
X2245186Y548231D01*
X2244416Y544360D01*
Y540412D01*
X2245186Y536540D01*
X2246697Y532893D01*
X2248890Y529611D01*
X2251682Y526820D01*
X2254964Y524627D01*
X2258611Y523116D01*
X2262482Y522346D01*
X2266430D01*
X2270302Y523116D01*
X2273949Y524627D01*
X2277231Y526820D01*
X2280022Y529611D01*
X2282216Y532893D01*
X2283726Y536540D01*
X2284496Y540412D01*
Y544360D01*
X2283726Y548231D01*
X2282216Y551878D01*
X2280022Y555160D01*
X2277231Y557952D01*
X2273949Y560145D01*
X2270302Y561656D01*
X2266430Y562426D01*
D02*
G37*
G36*
X1762331D02*
X1758383D01*
X1754512Y561656D01*
X1750864Y560145D01*
X1747582Y557952D01*
X1744791Y555160D01*
X1742598Y551878D01*
X1741087Y548231D01*
X1740317Y544360D01*
Y540412D01*
X1741087Y536540D01*
X1742598Y532893D01*
X1744791Y529611D01*
X1747582Y526820D01*
X1750864Y524627D01*
X1754512Y523116D01*
X1758383Y522346D01*
X1762331D01*
X1766202Y523116D01*
X1769849Y524627D01*
X1773132Y526820D01*
X1775923Y529611D01*
X1778116Y532893D01*
X1779627Y536540D01*
X1780397Y540412D01*
Y544360D01*
X1779627Y548231D01*
X1778116Y551878D01*
X1775923Y555160D01*
X1773132Y557952D01*
X1769849Y560145D01*
X1766202Y561656D01*
X1762331Y562426D01*
D02*
G37*
G36*
X1258231D02*
X1254284D01*
X1250412Y561656D01*
X1246765Y560145D01*
X1243483Y557952D01*
X1240692Y555160D01*
X1238498Y551878D01*
X1236988Y548231D01*
X1236218Y544360D01*
Y540412D01*
X1236988Y536540D01*
X1238498Y532893D01*
X1240692Y529611D01*
X1243483Y526820D01*
X1246765Y524627D01*
X1250412Y523116D01*
X1254284Y522346D01*
X1258231D01*
X1262103Y523116D01*
X1265750Y524627D01*
X1269032Y526820D01*
X1271824Y529611D01*
X1274017Y532893D01*
X1275527Y536540D01*
X1276298Y540412D01*
Y544360D01*
X1275527Y548231D01*
X1274017Y551878D01*
X1271824Y555160D01*
X1269032Y557952D01*
X1265750Y560145D01*
X1262103Y561656D01*
X1258231Y562426D01*
D02*
G37*
G36*
X754132D02*
X750184D01*
X746313Y561656D01*
X742666Y560145D01*
X739383Y557952D01*
X736592Y555160D01*
X734399Y551878D01*
X732888Y548231D01*
X732118Y544360D01*
Y540412D01*
X732888Y536540D01*
X734399Y532893D01*
X736592Y529611D01*
X739383Y526820D01*
X742666Y524627D01*
X746313Y523116D01*
X750184Y522346D01*
X754132D01*
X758004Y523116D01*
X761651Y524627D01*
X764933Y526820D01*
X767724Y529611D01*
X769918Y532893D01*
X771428Y536540D01*
X772198Y540412D01*
Y544360D01*
X771428Y548231D01*
X769918Y551878D01*
X767724Y555160D01*
X764933Y557952D01*
X761651Y560145D01*
X758004Y561656D01*
X754132Y562426D01*
D02*
G37*
G36*
X1957500Y527720D02*
X1950480D01*
Y520700D01*
X1957500D01*
Y527720D01*
D02*
G37*
G36*
X712061Y533590D02*
X710339D01*
X708676Y533144D01*
X707184Y532283D01*
X705967Y531066D01*
X705106Y529574D01*
X704660Y527911D01*
Y526189D01*
X705106Y524526D01*
X705967Y523034D01*
X707184Y521817D01*
X708676Y520956D01*
X710339Y520510D01*
X712061D01*
X713724Y520956D01*
X715216Y521817D01*
X716433Y523034D01*
X717294Y524526D01*
X717740Y526189D01*
Y527911D01*
X717294Y529574D01*
X716433Y531066D01*
X715216Y532283D01*
X713724Y533144D01*
X712061Y533590D01*
D02*
G37*
G36*
X2233521Y531050D02*
X2231799D01*
X2230136Y530604D01*
X2228644Y529743D01*
X2227427Y528526D01*
X2226566Y527034D01*
X2226120Y525371D01*
Y523649D01*
X2226566Y521986D01*
X2227427Y520494D01*
X2228644Y519277D01*
X2230136Y518416D01*
X2231799Y517970D01*
X2233521D01*
X2235184Y518416D01*
X2236676Y519277D01*
X2237893Y520494D01*
X2238754Y521986D01*
X2239200Y523649D01*
Y525371D01*
X2238754Y527034D01*
X2237893Y528526D01*
X2236676Y529743D01*
X2235184Y530604D01*
X2233521Y531050D01*
D02*
G37*
G36*
X1729331D02*
X1727609D01*
X1725946Y530604D01*
X1724454Y529743D01*
X1723237Y528526D01*
X1722376Y527034D01*
X1721930Y525371D01*
Y523649D01*
X1722376Y521986D01*
X1723237Y520494D01*
X1724454Y519277D01*
X1725946Y518416D01*
X1727609Y517970D01*
X1729331D01*
X1730994Y518416D01*
X1732486Y519277D01*
X1733703Y520494D01*
X1734564Y521986D01*
X1735010Y523649D01*
Y525371D01*
X1734564Y527034D01*
X1733703Y528526D01*
X1732486Y529743D01*
X1730994Y530604D01*
X1729331Y531050D01*
D02*
G37*
G36*
X1454580Y523910D02*
X1447560D01*
Y516890D01*
X1454580D01*
Y523910D01*
D02*
G37*
G36*
X456600D02*
X449580D01*
Y516890D01*
X456600D01*
Y523910D01*
D02*
G37*
G36*
X447040D02*
X440020D01*
Y516890D01*
X447040D01*
Y523910D01*
D02*
G37*
G36*
X949090Y521370D02*
X942070D01*
Y514350D01*
X949090D01*
Y521370D01*
D02*
G37*
G36*
X1957500Y518160D02*
X1950480D01*
Y511140D01*
X1957500D01*
Y518160D01*
D02*
G37*
G36*
X1245461Y522528D02*
X1243739D01*
X1242076Y522082D01*
X1240584Y521222D01*
X1239367Y520004D01*
X1238506Y518513D01*
X1238060Y516849D01*
Y515127D01*
X1238506Y513464D01*
X1239367Y511973D01*
X1240584Y510755D01*
X1242076Y509894D01*
X1243739Y509448D01*
X1245461D01*
X1247124Y509894D01*
X1248616Y510755D01*
X1249833Y511973D01*
X1250694Y513464D01*
X1251140Y515127D01*
Y516849D01*
X1250694Y518513D01*
X1249833Y520004D01*
X1248616Y521222D01*
X1247124Y522082D01*
X1245461Y522528D01*
D02*
G37*
G36*
X1454580Y514350D02*
X1447560D01*
Y507330D01*
X1454580D01*
Y514350D01*
D02*
G37*
G36*
X456600D02*
X449580D01*
Y507330D01*
X456600D01*
Y514350D01*
D02*
G37*
G36*
X2258921Y518350D02*
X2257199D01*
X2255536Y517904D01*
X2254044Y517043D01*
X2252827Y515826D01*
X2251966Y514334D01*
X2251520Y512671D01*
Y510949D01*
X2251966Y509286D01*
X2252827Y507794D01*
X2254044Y506577D01*
X2255536Y505716D01*
X2257199Y505270D01*
X2258921D01*
X2260584Y505716D01*
X2262076Y506577D01*
X2263293Y507794D01*
X2264154Y509286D01*
X2264600Y510949D01*
Y512671D01*
X2264154Y514334D01*
X2263293Y515826D01*
X2262076Y517043D01*
X2260584Y517904D01*
X2258921Y518350D01*
D02*
G37*
G36*
X1754731D02*
X1753009D01*
X1751346Y517904D01*
X1749854Y517043D01*
X1748637Y515826D01*
X1747776Y514334D01*
X1747330Y512671D01*
Y510949D01*
X1747776Y509286D01*
X1748637Y507794D01*
X1749854Y506577D01*
X1751346Y505716D01*
X1753009Y505270D01*
X1754731D01*
X1756394Y505716D01*
X1757886Y506577D01*
X1759103Y507794D01*
X1759964Y509286D01*
X1760410Y510949D01*
Y512671D01*
X1759964Y514334D01*
X1759103Y515826D01*
X1757886Y517043D01*
X1756394Y517904D01*
X1754731Y518350D01*
D02*
G37*
G36*
X949090Y511810D02*
X942070D01*
Y504790D01*
X949090D01*
Y511810D01*
D02*
G37*
G36*
X734921Y517080D02*
X733199D01*
X731536Y516634D01*
X730044Y515773D01*
X728827Y514556D01*
X727966Y513064D01*
X727520Y511401D01*
Y509679D01*
X727966Y508016D01*
X728827Y506524D01*
X730044Y505307D01*
X731536Y504446D01*
X733199Y504000D01*
X734921D01*
X736584Y504446D01*
X738076Y505307D01*
X739293Y506524D01*
X740154Y508016D01*
X740600Y509679D01*
Y511401D01*
X740154Y513064D01*
X739293Y514556D01*
X738076Y515773D01*
X736584Y516634D01*
X734921Y517080D01*
D02*
G37*
G36*
X1209751Y515960D02*
X1208029D01*
X1206366Y515514D01*
X1204874Y514653D01*
X1203657Y513436D01*
X1202796Y511944D01*
X1202350Y510281D01*
Y508559D01*
X1202796Y506896D01*
X1203657Y505404D01*
X1204874Y504187D01*
X1206366Y503326D01*
X1208029Y502880D01*
X1209751D01*
X1211414Y503326D01*
X1212906Y504187D01*
X1214123Y505404D01*
X1214984Y506896D01*
X1215430Y508559D01*
Y510281D01*
X1214984Y511944D01*
X1214123Y513436D01*
X1212906Y514653D01*
X1211414Y515514D01*
X1209751Y515960D01*
D02*
G37*
G36*
X482600Y537260D02*
X463550D01*
X462559Y537063D01*
X461719Y536501D01*
X461157Y535661D01*
X460960Y534670D01*
Y504190D01*
X461151Y503230D01*
X461157Y503198D01*
X460458Y501960D01*
X457460D01*
X457022Y502047D01*
X450458D01*
X446348Y506157D01*
X446834Y507330D01*
X447040D01*
Y514350D01*
X440020D01*
Y514144D01*
X438847Y513658D01*
X436220Y516285D01*
X434750Y517267D01*
X433016Y517612D01*
X427627D01*
X426926Y518313D01*
X425434Y519174D01*
X423771Y519620D01*
X422049D01*
X420386Y519174D01*
X418894Y518313D01*
X417677Y517096D01*
X416816Y515604D01*
X416370Y513941D01*
Y512219D01*
X416816Y510556D01*
X417677Y509064D01*
X418894Y507847D01*
X420386Y506986D01*
X422049Y506540D01*
X423771D01*
X425434Y506986D01*
X426926Y507847D01*
X427627Y508548D01*
X431138D01*
X436553Y503133D01*
X436067Y501960D01*
X432577D01*
Y491975D01*
X429023D01*
X427288Y491630D01*
X425818Y490648D01*
X424311Y489140D01*
X423319D01*
X421656Y488694D01*
X420164Y487833D01*
X418947Y486616D01*
X418086Y485124D01*
X417640Y483461D01*
Y481739D01*
X418086Y480076D01*
X418947Y478584D01*
X420164Y477367D01*
X421656Y476506D01*
X423319Y476060D01*
X425041D01*
X426704Y476506D01*
X428196Y477367D01*
X429413Y478584D01*
X430274Y480076D01*
X430720Y481739D01*
Y482731D01*
X430900Y482911D01*
X432577D01*
Y454880D01*
X444007D01*
Y494020D01*
X445180Y494506D01*
X445376Y494310D01*
X446846Y493328D01*
X448581Y492983D01*
X452577D01*
Y454880D01*
X464007D01*
Y501600D01*
X471120D01*
Y455930D01*
X471317Y454939D01*
X471879Y454099D01*
X472719Y453537D01*
X473710Y453340D01*
X482600D01*
X483591Y453537D01*
X484431Y454099D01*
X484993Y454939D01*
X485190Y455930D01*
Y534670D01*
X484993Y535661D01*
X484431Y536501D01*
X483591Y537063D01*
X482600Y537260D01*
D02*
G37*
G36*
X2176305Y501960D02*
X2171860D01*
Y479690D01*
X2176305D01*
Y501960D01*
D02*
G37*
G36*
X2169320D02*
X2164875D01*
Y479690D01*
X2169320D01*
Y501960D01*
D02*
G37*
G36*
X1108106D02*
X1103661D01*
Y479690D01*
X1108106D01*
Y501960D01*
D02*
G37*
G36*
X1101121D02*
X1096676D01*
Y479690D01*
X1101121D01*
Y501960D01*
D02*
G37*
G36*
X664007D02*
X659562D01*
Y479690D01*
X664007D01*
Y501960D01*
D02*
G37*
G36*
X657022D02*
X652577D01*
Y479690D01*
X657022D01*
Y501960D01*
D02*
G37*
G36*
X1612206D02*
X1607761D01*
Y479690D01*
X1612206D01*
Y501960D01*
D02*
G37*
G36*
X1605221D02*
X1600776D01*
Y479690D01*
X1605221D01*
Y501960D01*
D02*
G37*
G36*
X597022D02*
X592577D01*
Y479690D01*
X597022D01*
Y501960D01*
D02*
G37*
G36*
X1168106D02*
X1163661D01*
Y479690D01*
X1168106D01*
Y501960D01*
D02*
G37*
G36*
X1161121D02*
X1156676D01*
Y479690D01*
X1161121D01*
Y501960D01*
D02*
G37*
G36*
X2116305D02*
X2111860D01*
Y479690D01*
X2116305D01*
Y501960D01*
D02*
G37*
G36*
X2109320D02*
X2104875D01*
Y479690D01*
X2109320D01*
Y501960D01*
D02*
G37*
G36*
X1672206D02*
X1667761D01*
Y479690D01*
X1672206D01*
Y501960D01*
D02*
G37*
G36*
X1665221D02*
X1660776D01*
Y479690D01*
X1665221D01*
Y501960D01*
D02*
G37*
G36*
X108002Y492242D02*
X105358D01*
X102805Y491558D01*
X100515Y490236D01*
X98646Y488367D01*
X97324Y486077D01*
X96640Y483524D01*
Y480880D01*
X97324Y478327D01*
X98646Y476037D01*
X100515Y474168D01*
X102805Y472846D01*
X105358Y472162D01*
X108002D01*
X110555Y472846D01*
X112845Y474168D01*
X114714Y476037D01*
X116036Y478327D01*
X116720Y480880D01*
Y483524D01*
X116036Y486077D01*
X114714Y488367D01*
X112845Y490236D01*
X110555Y491558D01*
X108002Y492242D01*
D02*
G37*
G36*
X2176305Y477150D02*
X2171860D01*
Y454880D01*
X2176305D01*
Y477150D01*
D02*
G37*
G36*
X2169320D02*
X2164875D01*
Y454880D01*
X2169320D01*
Y477150D01*
D02*
G37*
G36*
X2156305Y501960D02*
X2144875D01*
Y454880D01*
X2156305D01*
Y501960D01*
D02*
G37*
G36*
X2116305Y477150D02*
X2111860D01*
Y454880D01*
X2116305D01*
Y477150D01*
D02*
G37*
G36*
X2109320D02*
X2104875D01*
Y454880D01*
X2109320D01*
Y477150D01*
D02*
G37*
G36*
X2016305Y501960D02*
X2004875D01*
Y454880D01*
X2016305D01*
Y501960D01*
D02*
G37*
G36*
X1956305D02*
X1944875D01*
Y488094D01*
X1940312D01*
X1938577Y487749D01*
X1937107Y486767D01*
X1937107Y486766D01*
X1935671Y485330D01*
X1934679D01*
X1933015Y484884D01*
X1931524Y484023D01*
X1930307Y482806D01*
X1929446Y481314D01*
X1929000Y479651D01*
Y477929D01*
X1929446Y476266D01*
X1930307Y474774D01*
X1931524Y473557D01*
X1933015Y472696D01*
X1934679Y472250D01*
X1936401D01*
X1938064Y472696D01*
X1939556Y473557D01*
X1940773Y474774D01*
X1941634Y476266D01*
X1942080Y477929D01*
Y478921D01*
X1942189Y479030D01*
X1944875D01*
Y454880D01*
X1956305D01*
Y501960D01*
D02*
G37*
G36*
X1672206Y477150D02*
X1667761D01*
Y454880D01*
X1672206D01*
Y477150D01*
D02*
G37*
G36*
X1665221D02*
X1660776D01*
Y454880D01*
X1665221D01*
Y477150D01*
D02*
G37*
G36*
X1652206Y501960D02*
X1640776D01*
Y454880D01*
X1652206D01*
Y501960D01*
D02*
G37*
G36*
X1612206Y477150D02*
X1607761D01*
Y454880D01*
X1612206D01*
Y477150D01*
D02*
G37*
G36*
X1605221D02*
X1600776D01*
Y454880D01*
X1605221D01*
Y477150D01*
D02*
G37*
G36*
X1512206Y501960D02*
X1500776D01*
Y454880D01*
X1512206D01*
Y501960D01*
D02*
G37*
G36*
X1452206D02*
X1440776D01*
Y490634D01*
X1437392D01*
X1435657Y490289D01*
X1434187Y489306D01*
X1434187Y489306D01*
X1432751Y487870D01*
X1431759D01*
X1430096Y487424D01*
X1428604Y486563D01*
X1427387Y485346D01*
X1426526Y483854D01*
X1426080Y482191D01*
Y480469D01*
X1426526Y478806D01*
X1427387Y477314D01*
X1428604Y476097D01*
X1430096Y475236D01*
X1431759Y474790D01*
X1433481D01*
X1435144Y475236D01*
X1436636Y476097D01*
X1437853Y477314D01*
X1438714Y478806D01*
X1439160Y480469D01*
Y481461D01*
X1439269Y481570D01*
X1440776D01*
Y454880D01*
X1452206D01*
Y501960D01*
D02*
G37*
G36*
X1168106Y477150D02*
X1163661D01*
Y454880D01*
X1168106D01*
Y477150D01*
D02*
G37*
G36*
X1161121D02*
X1156676D01*
Y454880D01*
X1161121D01*
Y477150D01*
D02*
G37*
G36*
X1148106Y501960D02*
X1136676D01*
Y454880D01*
X1148106D01*
Y501960D01*
D02*
G37*
G36*
X1108106Y477150D02*
X1103661D01*
Y454880D01*
X1108106D01*
Y477150D01*
D02*
G37*
G36*
X1101121D02*
X1096676D01*
Y454880D01*
X1101121D01*
Y477150D01*
D02*
G37*
G36*
X1008106Y501960D02*
X996676D01*
Y481485D01*
X996171Y480266D01*
Y478062D01*
X996676Y476844D01*
Y454880D01*
X1008106D01*
Y501960D01*
D02*
G37*
G36*
X948106D02*
X936676D01*
Y492398D01*
X932729D01*
X930995Y492053D01*
X929525Y491071D01*
X929525Y491071D01*
X925997Y487543D01*
X925927Y487438D01*
X925876Y487424D01*
X924384Y486563D01*
X923167Y485346D01*
X922306Y483854D01*
X921860Y482191D01*
Y480469D01*
X922306Y478806D01*
X923167Y477314D01*
X924384Y476097D01*
X925876Y475236D01*
X927539Y474790D01*
X929261D01*
X930924Y475236D01*
X932416Y476097D01*
X933633Y477314D01*
X934494Y478806D01*
X934940Y480469D01*
Y481830D01*
X935787Y482629D01*
X936047Y482764D01*
X936676Y482550D01*
Y454880D01*
X948106D01*
Y501960D01*
D02*
G37*
G36*
X664007Y477150D02*
X659562D01*
Y454880D01*
X664007D01*
Y477150D01*
D02*
G37*
G36*
X657022D02*
X652577D01*
Y454880D01*
X657022D01*
Y477150D01*
D02*
G37*
G36*
X644007Y501960D02*
X632577D01*
Y454880D01*
X644007D01*
Y501960D01*
D02*
G37*
G36*
X604007Y477150D02*
X599562D01*
Y454880D01*
X604007D01*
Y477150D01*
D02*
G37*
G36*
X597022D02*
X592577D01*
Y454880D01*
X597022D01*
Y477150D01*
D02*
G37*
G36*
X504007Y501960D02*
X492577D01*
Y454880D01*
X504007D01*
Y501960D01*
D02*
G37*
G36*
X1941451Y553910D02*
X1939729D01*
X1938066Y553464D01*
X1936574Y552603D01*
X1935357Y551386D01*
X1934496Y549894D01*
X1934050Y548231D01*
Y546509D01*
X1934496Y544846D01*
X1935357Y543354D01*
X1936574Y542137D01*
X1938066Y541276D01*
X1939729Y540830D01*
X1941451D01*
X1943114Y541276D01*
X1944606Y542137D01*
X1945307Y542838D01*
X1946333D01*
X1960277Y528893D01*
X1960040Y528320D01*
Y519430D01*
Y511140D01*
X1966058D01*
Y501960D01*
X1964875D01*
Y454880D01*
X1976305D01*
Y501845D01*
X1983593D01*
Y456174D01*
X1983790Y455183D01*
X1984352Y454343D01*
X1985192Y453782D01*
X1986183Y453585D01*
X1995073D01*
X1996064Y453782D01*
X1996904Y454343D01*
X1997466Y455183D01*
X1997663Y456174D01*
Y534914D01*
X1997466Y535905D01*
X1996904Y536746D01*
X1996064Y537307D01*
X1995073Y537504D01*
X1976023D01*
X1975032Y537307D01*
X1974192Y536746D01*
X1973631Y535905D01*
X1973433Y534914D01*
Y530215D01*
X1972260Y529729D01*
X1951415Y550575D01*
X1949944Y551557D01*
X1948210Y551902D01*
X1945307D01*
X1944606Y552603D01*
X1943114Y553464D01*
X1941451Y553910D01*
D02*
G37*
G36*
X1456311Y551370D02*
X1454589D01*
X1452926Y550924D01*
X1451434Y550063D01*
X1450217Y548846D01*
X1449356Y547354D01*
X1448910Y545691D01*
Y543969D01*
X1449356Y542306D01*
X1450217Y540814D01*
X1451434Y539597D01*
X1452926Y538736D01*
X1454589Y538290D01*
X1455581D01*
X1461958Y531912D01*
Y523910D01*
X1457120D01*
Y515620D01*
Y507330D01*
X1461958D01*
Y501960D01*
X1460776D01*
Y454880D01*
X1472206D01*
Y501600D01*
X1478660D01*
Y455930D01*
X1478857Y454939D01*
X1479419Y454099D01*
X1480259Y453537D01*
X1481250Y453340D01*
X1490140D01*
X1491131Y453537D01*
X1491971Y454099D01*
X1492533Y454939D01*
X1492730Y455930D01*
Y534670D01*
X1492533Y535661D01*
X1491971Y536501D01*
X1491131Y537063D01*
X1490140Y537260D01*
X1471090D01*
X1470099Y537063D01*
X1469788Y536855D01*
X1469695Y536994D01*
X1461990Y544699D01*
Y545691D01*
X1461544Y547354D01*
X1460683Y548846D01*
X1459466Y550063D01*
X1457974Y550924D01*
X1456311Y551370D01*
D02*
G37*
G36*
X2171050Y451960D02*
X2170130D01*
X2169780Y451960D01*
X2151400D01*
X2151050Y451960D01*
X2150130D01*
X2149780Y451960D01*
X2131400D01*
X2131050Y451960D01*
X2130130D01*
X2129780Y451960D01*
X2121860D01*
Y439420D01*
Y426880D01*
X2129780D01*
X2130130Y426880D01*
X2131050D01*
X2131400Y426880D01*
X2149780D01*
X2150130Y426880D01*
X2151050D01*
X2151400Y426880D01*
X2169780D01*
X2170130Y426880D01*
X2171050D01*
X2171400Y426880D01*
X2190130D01*
Y451960D01*
X2171400D01*
X2171050Y451960D01*
D02*
G37*
G36*
X2111050D02*
X2110130D01*
X2109780Y451960D01*
X2091400D01*
X2091050Y451960D01*
X2090130D01*
X2089780Y451960D01*
X2071400D01*
X2071050Y451960D01*
X2070130D01*
X2069780Y451960D01*
X2061860D01*
Y439420D01*
Y426880D01*
X2069780D01*
X2070130Y426880D01*
X2071050D01*
X2071400Y426880D01*
X2089780D01*
X2090130Y426880D01*
X2091050D01*
X2091400Y426880D01*
X2109780D01*
X2110130Y426880D01*
X2111050D01*
X2111400Y426880D01*
X2119320D01*
Y439420D01*
Y451960D01*
X2111400D01*
X2111050Y451960D01*
D02*
G37*
G36*
X2051050D02*
X2050130D01*
X2049780Y451960D01*
X2031400D01*
X2031050Y451960D01*
X2030130D01*
X2029780Y451960D01*
X2021860D01*
Y439420D01*
Y426880D01*
X2029780D01*
X2030130Y426880D01*
X2031050D01*
X2031400Y426880D01*
X2049780D01*
X2050130Y426880D01*
X2051050D01*
X2051400Y426880D01*
X2059320D01*
Y439420D01*
Y451960D01*
X2051400D01*
X2051050Y451960D01*
D02*
G37*
G36*
X2011050D02*
X2010130D01*
X2009780Y451960D01*
X1991400D01*
X1991050Y451960D01*
X1990130D01*
X1989780Y451960D01*
X1971400D01*
X1971050Y451960D01*
X1970130D01*
X1969780Y451960D01*
X1951400D01*
X1951050Y451960D01*
X1950130D01*
X1949780Y451960D01*
X1931050D01*
Y426880D01*
X1949780D01*
X1950130Y426880D01*
X1951050D01*
X1951400Y426880D01*
X1969780D01*
X1970130Y426880D01*
X1971050D01*
X1971400Y426880D01*
X1989780D01*
X1990130Y426880D01*
X1991050D01*
X1991400Y426880D01*
X2009780D01*
X2010130Y426880D01*
X2011050D01*
X2011400Y426880D01*
X2019320D01*
Y439420D01*
Y451960D01*
X2011400D01*
X2011050Y451960D01*
D02*
G37*
G36*
X1666951D02*
X1666031D01*
X1665681Y451960D01*
X1647301D01*
X1646951Y451960D01*
X1646031D01*
X1645681Y451960D01*
X1627301D01*
X1626951Y451960D01*
X1626031D01*
X1625681Y451960D01*
X1617760D01*
Y439420D01*
Y426880D01*
X1625681D01*
X1626031Y426880D01*
X1626951D01*
X1627301Y426880D01*
X1645681D01*
X1646031Y426880D01*
X1646951D01*
X1647301Y426880D01*
X1665681D01*
X1666031Y426880D01*
X1666951D01*
X1667301Y426880D01*
X1686031D01*
Y451960D01*
X1667301D01*
X1666951Y451960D01*
D02*
G37*
G36*
X1606951D02*
X1606031D01*
X1605681Y451960D01*
X1587301D01*
X1586951Y451960D01*
X1586031D01*
X1585681Y451960D01*
X1567301D01*
X1566951Y451960D01*
X1566031D01*
X1565681Y451960D01*
X1557761D01*
Y439420D01*
Y426880D01*
X1565681D01*
X1566031Y426880D01*
X1566951D01*
X1567301Y426880D01*
X1585681D01*
X1586031Y426880D01*
X1586951D01*
X1587301Y426880D01*
X1605681D01*
X1606031Y426880D01*
X1606951D01*
X1607301Y426880D01*
X1615220D01*
Y439420D01*
Y451960D01*
X1607301D01*
X1606951Y451960D01*
D02*
G37*
G36*
X1546951D02*
X1546031D01*
X1545681Y451960D01*
X1527301D01*
X1526951Y451960D01*
X1526031D01*
X1525681Y451960D01*
X1517760D01*
Y439420D01*
Y426880D01*
X1525681D01*
X1526031Y426880D01*
X1526951D01*
X1527301Y426880D01*
X1545681D01*
X1546031Y426880D01*
X1546951D01*
X1547301Y426880D01*
X1555221D01*
Y439420D01*
Y451960D01*
X1547301D01*
X1546951Y451960D01*
D02*
G37*
G36*
X1506951D02*
X1506031D01*
X1505681Y451960D01*
X1487301D01*
X1486951Y451960D01*
X1486031D01*
X1485681Y451960D01*
X1467301D01*
X1466951Y451960D01*
X1466031D01*
X1465681Y451960D01*
X1447301D01*
X1446951Y451960D01*
X1446031D01*
X1445681Y451960D01*
X1426951D01*
Y426880D01*
X1445681D01*
X1446031Y426880D01*
X1446951D01*
X1447301Y426880D01*
X1465681D01*
X1466031Y426880D01*
X1466951D01*
X1467301Y426880D01*
X1485681D01*
X1486031Y426880D01*
X1486951D01*
X1487301Y426880D01*
X1505681D01*
X1506031Y426880D01*
X1506951D01*
X1507301Y426880D01*
X1515220D01*
Y439420D01*
Y451960D01*
X1507301D01*
X1506951Y451960D01*
D02*
G37*
G36*
X1162851D02*
X1161931D01*
X1161581Y451960D01*
X1143201D01*
X1142851Y451960D01*
X1141931D01*
X1141581Y451960D01*
X1123201D01*
X1122851Y451960D01*
X1121931D01*
X1121581Y451960D01*
X1113661D01*
Y439420D01*
Y426880D01*
X1121581D01*
X1121931Y426880D01*
X1122851D01*
X1123201Y426880D01*
X1141581D01*
X1141931Y426880D01*
X1142851D01*
X1143201Y426880D01*
X1161581D01*
X1161931Y426880D01*
X1162851D01*
X1163201Y426880D01*
X1175884D01*
X1176224Y425610D01*
X1176212Y425603D01*
X1174995Y424386D01*
X1174134Y422894D01*
X1173688Y421231D01*
Y419509D01*
X1174134Y417846D01*
X1174995Y416354D01*
X1176212Y415137D01*
X1177704Y414276D01*
X1179367Y413830D01*
X1181089D01*
X1182753Y414276D01*
X1184244Y415137D01*
X1185461Y416354D01*
X1186322Y417846D01*
X1186768Y419509D01*
Y421231D01*
X1186322Y422894D01*
X1185461Y424386D01*
X1184244Y425603D01*
X1182753Y426464D01*
X1182752Y426464D01*
X1182671Y426494D01*
X1181931Y426880D01*
Y451960D01*
X1163201D01*
X1162851Y451960D01*
D02*
G37*
G36*
X1102851D02*
X1101931D01*
X1101581Y451960D01*
X1083201D01*
X1082851Y451960D01*
X1081931D01*
X1081581Y451960D01*
X1063201D01*
X1062851Y451960D01*
X1061931D01*
X1061581Y451960D01*
X1053661D01*
Y439420D01*
Y426880D01*
X1061581D01*
X1061931Y426880D01*
X1062851D01*
X1063201Y426880D01*
X1081581D01*
X1081931Y426880D01*
X1082851D01*
X1083201Y426880D01*
X1101581D01*
X1101931Y426880D01*
X1102851D01*
X1103201Y426880D01*
X1111121D01*
Y439420D01*
Y451960D01*
X1103201D01*
X1102851Y451960D01*
D02*
G37*
G36*
X1042851D02*
X1041931D01*
X1041581Y451960D01*
X1023201D01*
X1022851Y451960D01*
X1021931D01*
X1021581Y451960D01*
X1013661D01*
Y439420D01*
Y426880D01*
X1021581D01*
X1021931Y426880D01*
X1022851D01*
X1023201Y426880D01*
X1041581D01*
X1041931Y426880D01*
X1042851D01*
X1043201Y426880D01*
X1051121D01*
Y439420D01*
Y451960D01*
X1043201D01*
X1042851Y451960D01*
D02*
G37*
G36*
X930531Y542480D02*
X928809D01*
X927146Y542034D01*
X925654Y541173D01*
X924437Y539956D01*
X923576Y538464D01*
X923130Y536801D01*
Y535079D01*
X923576Y533416D01*
X924437Y531924D01*
X925654Y530707D01*
X927146Y529846D01*
X928809Y529400D01*
X930531D01*
X932194Y529846D01*
X933686Y530707D01*
X934387Y531408D01*
X951923D01*
X955618Y527713D01*
Y521370D01*
X951630D01*
Y513080D01*
Y504790D01*
X955618D01*
Y498486D01*
X955963Y496752D01*
X956676Y495684D01*
Y454880D01*
X968106D01*
Y499060D01*
X973170D01*
Y453390D01*
X973202Y453230D01*
X972249Y451960D01*
X963201D01*
X962851Y451960D01*
X961931D01*
X961581Y451960D01*
X943201D01*
X942851Y451960D01*
X941931D01*
X941581Y451960D01*
X922851D01*
Y426880D01*
X941581D01*
X941931Y426880D01*
X942851D01*
X943201Y426880D01*
X961581D01*
X961931Y426880D01*
X962851D01*
X963201Y426880D01*
X981931D01*
Y426880D01*
X982851D01*
Y426880D01*
X1001581D01*
X1001931Y426880D01*
X1002851D01*
X1003201Y426880D01*
X1011121D01*
Y439420D01*
Y451960D01*
X1003201D01*
X1002851Y451960D01*
X1001931D01*
X1001581Y451960D01*
X989060D01*
X988108Y453230D01*
X988140Y453390D01*
Y532130D01*
X987943Y533121D01*
X987381Y533961D01*
X986541Y534523D01*
X985550Y534720D01*
X965600D01*
X964609Y534523D01*
X963769Y533961D01*
X962220Y533929D01*
X957005Y539145D01*
X955534Y540127D01*
X953800Y540472D01*
X934387D01*
X933686Y541173D01*
X932194Y542034D01*
X930531Y542480D01*
D02*
G37*
G36*
X658752Y451960D02*
X657832D01*
X657482Y451960D01*
X639102D01*
X638752Y451960D01*
X637832D01*
X637482Y451960D01*
X619102D01*
X618752Y451960D01*
X617832D01*
X617482Y451960D01*
X609562D01*
Y439420D01*
Y426880D01*
X617482D01*
X617832Y426880D01*
X618752D01*
X619102Y426880D01*
X637482D01*
X637832Y426880D01*
X638752D01*
X639102Y426880D01*
X657482D01*
X657832Y426880D01*
X658752D01*
X659102Y426880D01*
X671296D01*
X671636Y425610D01*
X671624Y425603D01*
X670407Y424386D01*
X669546Y422894D01*
X669100Y421231D01*
Y419509D01*
X669546Y417846D01*
X670407Y416354D01*
X671624Y415137D01*
X673116Y414276D01*
X674779Y413830D01*
X676501D01*
X678164Y414276D01*
X679656Y415137D01*
X680873Y416354D01*
X681734Y417846D01*
X682180Y419509D01*
Y421231D01*
X681734Y422894D01*
X680873Y424386D01*
X679656Y425603D01*
X678782Y426108D01*
X677832Y426880D01*
Y451960D01*
X659102D01*
X658752Y451960D01*
D02*
G37*
G36*
X598752D02*
X597832D01*
X597482Y451960D01*
X579102D01*
X578752Y451960D01*
X577832D01*
X577482Y451960D01*
X559102D01*
X558752Y451960D01*
X557832D01*
X557482Y451960D01*
X549562D01*
Y439420D01*
Y426880D01*
X557482D01*
X557832Y426880D01*
X558752D01*
X559102Y426880D01*
X577482D01*
X577832Y426880D01*
X578752D01*
X579102Y426880D01*
X597482D01*
X597832Y426880D01*
X598752D01*
X599102Y426880D01*
X607022D01*
Y439420D01*
Y451960D01*
X599102D01*
X598752Y451960D01*
D02*
G37*
G36*
X538752D02*
X537832D01*
X537482Y451960D01*
X519102D01*
X518752Y451960D01*
X517832D01*
X517482Y451960D01*
X509562D01*
Y439420D01*
Y426880D01*
X517482D01*
X517832Y426880D01*
X518752D01*
X519102Y426880D01*
X537482D01*
X537832Y426880D01*
X538752D01*
X539102Y426880D01*
X547022D01*
Y439420D01*
Y451960D01*
X539102D01*
X538752Y451960D01*
D02*
G37*
G36*
X498752D02*
X497832D01*
X497482Y451960D01*
X479102D01*
X478752Y451960D01*
X477832D01*
X477482Y451960D01*
X459102D01*
X458752Y451960D01*
X457832D01*
X457482Y451960D01*
X439102D01*
X438752Y451960D01*
X437832D01*
X437482Y451960D01*
X418752D01*
Y426880D01*
X437482D01*
X437832Y426880D01*
X438752D01*
X439102Y426880D01*
X457482D01*
X457832Y426880D01*
X458752D01*
X459102Y426880D01*
X477482D01*
X477832Y426880D01*
X478752D01*
X479102Y426880D01*
X497482D01*
X497832Y426880D01*
X498752D01*
X499102Y426880D01*
X507022D01*
Y439420D01*
Y451960D01*
X499102D01*
X498752Y451960D01*
D02*
G37*
G36*
X2213351Y433410D02*
X2211629D01*
X2209966Y432964D01*
X2208474Y432103D01*
X2207257Y430886D01*
X2206396Y429394D01*
X2205950Y427731D01*
Y426009D01*
X2206396Y424346D01*
X2207257Y422854D01*
X2208474Y421637D01*
X2209966Y420776D01*
X2211629Y420330D01*
X2213351D01*
X2215014Y420776D01*
X2216506Y421637D01*
X2217723Y422854D01*
X2218584Y424346D01*
X2219030Y426009D01*
Y427731D01*
X2218584Y429394D01*
X2217723Y430886D01*
X2216506Y432103D01*
X2215014Y432964D01*
X2213351Y433410D01*
D02*
G37*
G36*
X1706621D02*
X1704899D01*
X1703236Y432964D01*
X1701744Y432103D01*
X1700527Y430886D01*
X1699666Y429394D01*
X1699220Y427731D01*
Y426009D01*
X1699666Y424346D01*
X1700527Y422854D01*
X1701744Y421637D01*
X1703236Y420776D01*
X1704899Y420330D01*
X1706621D01*
X1708284Y420776D01*
X1709776Y421637D01*
X1710993Y422854D01*
X1711854Y424346D01*
X1712300Y426009D01*
Y427731D01*
X1711854Y429394D01*
X1710993Y430886D01*
X1709776Y432103D01*
X1708284Y432964D01*
X1706621Y433410D01*
D02*
G37*
G36*
X1203701D02*
X1201979D01*
X1200316Y432964D01*
X1198824Y432103D01*
X1197607Y430886D01*
X1196746Y429394D01*
X1196300Y427731D01*
Y426009D01*
X1196746Y424346D01*
X1197607Y422854D01*
X1198824Y421637D01*
X1200316Y420776D01*
X1201979Y420330D01*
X1203701D01*
X1205364Y420776D01*
X1206856Y421637D01*
X1208073Y422854D01*
X1208934Y424346D01*
X1209380Y426009D01*
Y427731D01*
X1208934Y429394D01*
X1208073Y430886D01*
X1206856Y432103D01*
X1205364Y432964D01*
X1203701Y433410D01*
D02*
G37*
G36*
X700631Y431990D02*
X698909D01*
X697246Y431544D01*
X695754Y430683D01*
X694537Y429466D01*
X693676Y427974D01*
X693230Y426311D01*
Y424589D01*
X693676Y422926D01*
X694537Y421434D01*
X695754Y420217D01*
X697246Y419356D01*
X698909Y418910D01*
X700631D01*
X702294Y419356D01*
X703786Y420217D01*
X705003Y421434D01*
X705864Y422926D01*
X706310Y424589D01*
Y426311D01*
X705864Y427974D01*
X705003Y429466D01*
X703786Y430683D01*
X702294Y431544D01*
X700631Y431990D01*
D02*
G37*
G36*
X161320Y419722D02*
Y412750D01*
X168292D01*
X167775Y414680D01*
X166684Y416570D01*
X165140Y418114D01*
X163250Y419205D01*
X161320Y419722D01*
D02*
G37*
G36*
X158780D02*
X156850Y419205D01*
X154960Y418114D01*
X153416Y416570D01*
X152325Y414680D01*
X151808Y412750D01*
X158780D01*
Y419722D01*
D02*
G37*
G36*
X2192009Y424370D02*
X2190287D01*
X2188624Y423924D01*
X2187133Y423063D01*
X2185915Y421846D01*
X2185054Y420354D01*
X2184608Y418691D01*
Y416969D01*
X2185054Y415306D01*
X2185915Y413814D01*
X2187133Y412597D01*
X2188624Y411736D01*
X2190287Y411290D01*
X2192009D01*
X2193672Y411736D01*
X2195164Y412597D01*
X2196381Y413814D01*
X2197242Y415306D01*
X2197688Y416969D01*
Y418691D01*
X2197242Y420354D01*
X2196381Y421846D01*
X2195164Y423063D01*
X2193672Y423924D01*
X2192009Y424370D01*
D02*
G37*
G36*
X1689059Y423100D02*
X1687337D01*
X1685674Y422654D01*
X1684182Y421793D01*
X1682965Y420576D01*
X1682104Y419084D01*
X1681658Y417421D01*
Y415699D01*
X1682104Y414036D01*
X1682965Y412544D01*
X1684182Y411327D01*
X1685674Y410466D01*
X1687337Y410020D01*
X1689059D01*
X1690723Y410466D01*
X1692214Y411327D01*
X1693432Y412544D01*
X1694292Y414036D01*
X1694738Y415699D01*
Y417421D01*
X1694292Y419084D01*
X1693432Y420576D01*
X1692214Y421793D01*
X1690723Y422654D01*
X1689059Y423100D01*
D02*
G37*
G36*
X75341Y420210D02*
X74960D01*
Y408940D01*
X86230D01*
Y409321D01*
X85375Y412510D01*
X83724Y415370D01*
X81390Y417705D01*
X78530Y419355D01*
X75341Y420210D01*
D02*
G37*
G36*
X25341D02*
X24960D01*
Y408940D01*
X36230D01*
Y409321D01*
X35375Y412510D01*
X33724Y415370D01*
X31390Y417705D01*
X28530Y419355D01*
X25341Y420210D01*
D02*
G37*
G36*
X72420D02*
X72039D01*
X68850Y419355D01*
X65990Y417705D01*
X63655Y415370D01*
X62004Y412510D01*
X61150Y409321D01*
Y408940D01*
X72420D01*
Y420210D01*
D02*
G37*
G36*
X168292Y410210D02*
X161320D01*
Y403238D01*
X163250Y403755D01*
X165140Y404846D01*
X166684Y406390D01*
X167775Y408280D01*
X168292Y410210D01*
D02*
G37*
G36*
X158780D02*
X151808D01*
X152325Y408280D01*
X153416Y406390D01*
X154960Y404846D01*
X156850Y403755D01*
X158780Y403238D01*
Y410210D01*
D02*
G37*
G36*
X86230Y406400D02*
X74960D01*
Y395130D01*
X75341D01*
X78530Y395985D01*
X81390Y397635D01*
X83724Y399970D01*
X85375Y402830D01*
X86230Y406019D01*
Y406400D01*
D02*
G37*
G36*
X72420D02*
X61150D01*
Y406019D01*
X62004Y402830D01*
X63655Y399970D01*
X65990Y397635D01*
X68850Y395985D01*
X72039Y395130D01*
X72420D01*
Y406400D01*
D02*
G37*
G36*
X36230D02*
X24960D01*
Y395130D01*
X25341D01*
X28530Y395985D01*
X31390Y397635D01*
X33724Y399970D01*
X35375Y402830D01*
X36230Y406019D01*
Y406400D01*
D02*
G37*
G36*
X248950Y398132D02*
Y391160D01*
X255922D01*
X255405Y393090D01*
X254314Y394980D01*
X252770Y396524D01*
X250880Y397615D01*
X248950Y398132D01*
D02*
G37*
G36*
X246410D02*
X244480Y397615D01*
X242590Y396524D01*
X241046Y394980D01*
X239955Y393090D01*
X239438Y391160D01*
X246410D01*
Y398132D01*
D02*
G37*
G36*
X2010001Y404050D02*
X2008279D01*
X2006616Y403604D01*
X2005124Y402743D01*
X2003907Y401526D01*
X2003046Y400034D01*
X2002600Y398371D01*
Y396649D01*
X2003046Y394986D01*
X2003907Y393494D01*
X2005124Y392277D01*
X2006616Y391416D01*
X2008279Y390970D01*
X2010001D01*
X2011664Y391416D01*
X2013156Y392277D01*
X2014373Y393494D01*
X2015234Y394986D01*
X2015680Y396649D01*
Y398371D01*
X2015234Y400034D01*
X2014373Y401526D01*
X2013156Y402743D01*
X2011664Y403604D01*
X2010001Y404050D01*
D02*
G37*
G36*
X1505811D02*
X1504089D01*
X1502426Y403604D01*
X1500934Y402743D01*
X1499717Y401526D01*
X1498856Y400034D01*
X1498410Y398371D01*
Y396649D01*
X1498856Y394986D01*
X1499717Y393494D01*
X1500934Y392277D01*
X1502426Y391416D01*
X1504089Y390970D01*
X1505811D01*
X1507474Y391416D01*
X1508966Y392277D01*
X1510183Y393494D01*
X1511044Y394986D01*
X1511490Y396649D01*
Y398371D01*
X1511044Y400034D01*
X1510183Y401526D01*
X1508966Y402743D01*
X1507474Y403604D01*
X1505811Y404050D01*
D02*
G37*
G36*
X1943961Y400240D02*
X1942239D01*
X1940576Y399794D01*
X1939084Y398933D01*
X1937867Y397716D01*
X1937006Y396224D01*
X1936560Y394561D01*
Y392839D01*
X1937006Y391176D01*
X1937867Y389684D01*
X1939084Y388467D01*
X1940576Y387606D01*
X1942239Y387160D01*
X1943961D01*
X1945624Y387606D01*
X1947116Y388467D01*
X1948333Y389684D01*
X1949194Y391176D01*
X1949640Y392839D01*
Y394561D01*
X1949194Y396224D01*
X1948333Y397716D01*
X1947116Y398933D01*
X1945624Y399794D01*
X1943961Y400240D01*
D02*
G37*
G36*
X1435961Y399120D02*
X1434239D01*
X1432576Y398674D01*
X1431084Y397813D01*
X1429867Y396596D01*
X1429006Y395104D01*
X1428560Y393441D01*
Y391719D01*
X1429006Y390056D01*
X1429867Y388564D01*
X1431084Y387347D01*
X1432576Y386486D01*
X1434239Y386040D01*
X1435961D01*
X1437624Y386486D01*
X1439116Y387347D01*
X1440333Y388564D01*
X1441194Y390056D01*
X1441640Y391719D01*
Y393441D01*
X1441194Y395104D01*
X1440333Y396596D01*
X1439116Y397813D01*
X1437624Y398674D01*
X1435961Y399120D01*
D02*
G37*
G36*
X1000351Y397700D02*
X998629D01*
X996966Y397254D01*
X995474Y396393D01*
X994257Y395176D01*
X993396Y393684D01*
X992950Y392021D01*
Y390299D01*
X993396Y388636D01*
X994257Y387144D01*
X995474Y385927D01*
X996966Y385066D01*
X998629Y384620D01*
X1000351D01*
X1002014Y385066D01*
X1003506Y385927D01*
X1004723Y387144D01*
X1005584Y388636D01*
X1006030Y390299D01*
Y392021D01*
X1005584Y393684D01*
X1004723Y395176D01*
X1003506Y396393D01*
X1002014Y397254D01*
X1000351Y397700D01*
D02*
G37*
G36*
X933041Y396430D02*
X931319D01*
X929656Y395984D01*
X928164Y395123D01*
X926947Y393906D01*
X926086Y392414D01*
X925640Y390751D01*
Y389029D01*
X926086Y387366D01*
X926947Y385874D01*
X928164Y384657D01*
X929656Y383796D01*
X931319Y383350D01*
X933041D01*
X934704Y383796D01*
X936196Y384657D01*
X937413Y385874D01*
X938274Y387366D01*
X938720Y389029D01*
Y390751D01*
X938274Y392414D01*
X937413Y393906D01*
X936196Y395123D01*
X934704Y395984D01*
X933041Y396430D01*
D02*
G37*
G36*
X495352Y402470D02*
X492708D01*
X490155Y401786D01*
X487865Y400464D01*
X485996Y398595D01*
X484674Y396305D01*
X483990Y393752D01*
Y391108D01*
X484674Y388555D01*
X485996Y386265D01*
X487865Y384396D01*
X490155Y383074D01*
X492708Y382390D01*
X495352D01*
X497905Y383074D01*
X500195Y384396D01*
X502064Y386265D01*
X503386Y388555D01*
X504070Y391108D01*
Y393752D01*
X503386Y396305D01*
X502064Y398595D01*
X500195Y400464D01*
X497905Y401786D01*
X495352Y402470D01*
D02*
G37*
G36*
X255922Y388620D02*
X248950D01*
Y381648D01*
X250880Y382165D01*
X252770Y383256D01*
X254314Y384800D01*
X255405Y386690D01*
X255922Y388620D01*
D02*
G37*
G36*
X246410D02*
X239438D01*
X239955Y386690D01*
X241046Y384800D01*
X242590Y383256D01*
X244480Y382165D01*
X246410Y381648D01*
Y388620D01*
D02*
G37*
G36*
X431852Y397390D02*
X429208D01*
X426655Y396706D01*
X424365Y395384D01*
X422496Y393515D01*
X421174Y391225D01*
X420490Y388672D01*
Y386028D01*
X421174Y383475D01*
X422496Y381185D01*
X424365Y379316D01*
X426655Y377994D01*
X429208Y377310D01*
X431852D01*
X434405Y377994D01*
X436695Y379316D01*
X438564Y381185D01*
X439886Y383475D01*
X440570Y386028D01*
Y388672D01*
X439886Y391225D01*
X438564Y393515D01*
X436695Y395384D01*
X434405Y396706D01*
X431852Y397390D01*
D02*
G37*
G36*
X2131921Y374840D02*
X2130199D01*
X2128536Y374394D01*
X2127044Y373533D01*
X2125827Y372316D01*
X2124966Y370824D01*
X2124520Y369161D01*
Y367439D01*
X2124966Y365776D01*
X2125827Y364284D01*
X2127044Y363067D01*
X2128536Y362206D01*
X2130199Y361760D01*
X2131921D01*
X2133584Y362206D01*
X2135076Y363067D01*
X2136293Y364284D01*
X2137154Y365776D01*
X2137600Y367439D01*
Y369161D01*
X2137154Y370824D01*
X2136293Y372316D01*
X2135076Y373533D01*
X2133584Y374394D01*
X2131921Y374840D01*
D02*
G37*
G36*
X1126261Y372450D02*
X1124539D01*
X1122876Y372004D01*
X1121384Y371143D01*
X1120167Y369926D01*
X1119306Y368434D01*
X1118860Y366771D01*
Y365049D01*
X1119306Y363386D01*
X1120167Y361894D01*
X1121384Y360677D01*
X1122876Y359816D01*
X1124539Y359370D01*
X1126261D01*
X1127924Y359816D01*
X1129416Y360677D01*
X1130633Y361894D01*
X1131494Y363386D01*
X1131940Y365049D01*
Y366771D01*
X1131494Y368434D01*
X1130633Y369926D01*
X1129416Y371143D01*
X1127924Y372004D01*
X1126261Y372450D01*
D02*
G37*
G36*
X255970Y373180D02*
X239390D01*
Y356600D01*
X255970D01*
Y373180D01*
D02*
G37*
G36*
X168340Y369770D02*
X151760D01*
Y353190D01*
X168340D01*
Y369770D01*
D02*
G37*
G36*
X616943Y366950D02*
X614957D01*
X613040Y366436D01*
X611320Y365443D01*
X609916Y364040D01*
X608924Y362320D01*
X608410Y360403D01*
Y358417D01*
X608924Y356500D01*
X609916Y354780D01*
X611320Y353377D01*
X613040Y352384D01*
X614957Y351870D01*
X616943D01*
X618860Y352384D01*
X620580Y353377D01*
X621983Y354780D01*
X622976Y356500D01*
X623490Y358417D01*
Y360403D01*
X622976Y362320D01*
X621983Y364040D01*
X620580Y365443D01*
X618860Y366436D01*
X616943Y366950D01*
D02*
G37*
G36*
X1631541Y362140D02*
X1629819D01*
X1628156Y361694D01*
X1626664Y360833D01*
X1625447Y359616D01*
X1624586Y358124D01*
X1624140Y356461D01*
Y354739D01*
X1624586Y353076D01*
X1625447Y351584D01*
X1626664Y350367D01*
X1628156Y349506D01*
X1629819Y349060D01*
X1631541D01*
X1633204Y349506D01*
X1634696Y350367D01*
X1635913Y351584D01*
X1636774Y353076D01*
X1637220Y354739D01*
Y356461D01*
X1636774Y358124D01*
X1635913Y359616D01*
X1634696Y360833D01*
X1633204Y361694D01*
X1631541Y362140D01*
D02*
G37*
G36*
X75341Y370210D02*
X72039D01*
X68850Y369355D01*
X65990Y367705D01*
X63655Y365370D01*
X62004Y362510D01*
X61150Y359321D01*
Y356019D01*
X62004Y352830D01*
X63655Y349970D01*
X65990Y347635D01*
X68850Y345985D01*
X72039Y345130D01*
X75341D01*
X78530Y345985D01*
X81390Y347635D01*
X83724Y349970D01*
X85375Y352830D01*
X86230Y356019D01*
Y359321D01*
X85375Y362510D01*
X83724Y365370D01*
X81390Y367705D01*
X78530Y369355D01*
X75341Y370210D01*
D02*
G37*
G36*
X2221868Y372080D02*
X2161628D01*
Y311840D01*
X2221868D01*
Y372080D01*
D02*
G37*
G36*
X1717769D02*
X1657529D01*
Y311840D01*
X1717769D01*
Y372080D01*
D02*
G37*
G36*
X1213669D02*
X1153429D01*
Y311840D01*
X1213669D01*
Y372080D01*
D02*
G37*
G36*
X709570D02*
X649330D01*
Y311840D01*
X709570D01*
Y372080D01*
D02*
G37*
G36*
X1961010Y366540D02*
X1900770D01*
Y306300D01*
X1961010D01*
Y366540D01*
D02*
G37*
G36*
X1456911D02*
X1396671D01*
Y306300D01*
X1456911D01*
Y366540D01*
D02*
G37*
G36*
X952811D02*
X892571D01*
Y306300D01*
X952811D01*
Y366540D01*
D02*
G37*
G36*
X448712D02*
X388472D01*
Y306300D01*
X448712D01*
Y366540D01*
D02*
G37*
G36*
X1983361Y308800D02*
X1981639D01*
X1979975Y308354D01*
X1978484Y307493D01*
X1977267Y306276D01*
X1976405Y304784D01*
X1975960Y303121D01*
Y301399D01*
X1976405Y299736D01*
X1977267Y298244D01*
X1978484Y297027D01*
X1979975Y296166D01*
X1981639Y295720D01*
X1983361D01*
X1985024Y296166D01*
X1986516Y297027D01*
X1987733Y298244D01*
X1988594Y299736D01*
X1989040Y301399D01*
Y303121D01*
X1988594Y304784D01*
X1987733Y306276D01*
X1986516Y307493D01*
X1985024Y308354D01*
X1983361Y308800D01*
D02*
G37*
G36*
X125848Y300100D02*
X125730D01*
Y290830D01*
X135000D01*
Y290948D01*
X134282Y293628D01*
X132894Y296032D01*
X130932Y297994D01*
X128528Y299382D01*
X125848Y300100D01*
D02*
G37*
G36*
X123190D02*
X123072D01*
X120392Y299382D01*
X117988Y297994D01*
X116026Y296032D01*
X114638Y293628D01*
X113920Y290948D01*
Y290830D01*
X123190D01*
Y300100D01*
D02*
G37*
G36*
X470761Y293560D02*
X469039D01*
X467376Y293114D01*
X465884Y292253D01*
X464667Y291036D01*
X463806Y289544D01*
X463360Y287881D01*
Y286159D01*
X463806Y284496D01*
X464667Y283004D01*
X465884Y281787D01*
X467376Y280926D01*
X469039Y280480D01*
X470761D01*
X472424Y280926D01*
X473916Y281787D01*
X475133Y283004D01*
X475994Y284496D01*
X476440Y286159D01*
Y287881D01*
X475994Y289544D01*
X475133Y291036D01*
X473916Y292253D01*
X472424Y293114D01*
X470761Y293560D01*
D02*
G37*
G36*
X151248Y300100D02*
X148472D01*
X145792Y299382D01*
X143388Y297994D01*
X141426Y296032D01*
X140038Y293628D01*
X139320Y290948D01*
Y288172D01*
X140038Y285492D01*
X141426Y283088D01*
X143388Y281126D01*
X145792Y279738D01*
X148472Y279020D01*
X151248D01*
X153928Y279738D01*
X156332Y281126D01*
X158294Y283088D01*
X159682Y285492D01*
X160400Y288172D01*
Y290948D01*
X159682Y293628D01*
X158294Y296032D01*
X156332Y297994D01*
X153928Y299382D01*
X151248Y300100D01*
D02*
G37*
G36*
X135000Y288290D02*
X125730D01*
Y279020D01*
X125848D01*
X128528Y279738D01*
X130932Y281126D01*
X132894Y283088D01*
X134282Y285492D01*
X135000Y288172D01*
Y288290D01*
D02*
G37*
G36*
X123190D02*
X113920D01*
Y288172D01*
X114638Y285492D01*
X116026Y283088D01*
X117988Y281126D01*
X120392Y279738D01*
X123072Y279020D01*
X123190D01*
Y288290D01*
D02*
G37*
G36*
X109600Y300100D02*
X88520D01*
Y279020D01*
X109600D01*
Y300100D01*
D02*
G37*
G36*
X1456281Y289750D02*
X1454559D01*
X1452896Y289304D01*
X1451404Y288443D01*
X1450187Y287226D01*
X1449326Y285734D01*
X1448880Y284071D01*
Y282349D01*
X1449326Y280686D01*
X1450187Y279194D01*
X1451404Y277977D01*
X1452896Y277116D01*
X1454559Y276670D01*
X1456281D01*
X1457944Y277116D01*
X1459435Y277977D01*
X1460653Y279194D01*
X1461514Y280686D01*
X1461960Y282349D01*
Y284071D01*
X1461514Y285734D01*
X1460653Y287226D01*
X1459435Y288443D01*
X1457944Y289304D01*
X1456281Y289750D01*
D02*
G37*
G36*
X226730Y286020D02*
X210150D01*
Y269440D01*
X226730D01*
Y286020D01*
D02*
G37*
G36*
X948281Y282130D02*
X946559D01*
X944896Y281684D01*
X943404Y280823D01*
X942187Y279606D01*
X941326Y278114D01*
X940880Y276451D01*
Y274729D01*
X941326Y273066D01*
X942187Y271574D01*
X943404Y270357D01*
X944896Y269496D01*
X946559Y269050D01*
X948281D01*
X949944Y269496D01*
X951436Y270357D01*
X952653Y271574D01*
X953514Y273066D01*
X953960Y274729D01*
Y276451D01*
X953514Y278114D01*
X952653Y279606D01*
X951436Y280823D01*
X949944Y281684D01*
X948281Y282130D01*
D02*
G37*
G36*
X219710Y260972D02*
Y254000D01*
X226682D01*
X226165Y255930D01*
X225074Y257820D01*
X223530Y259364D01*
X221640Y260455D01*
X219710Y260972D01*
D02*
G37*
G36*
X217170D02*
X215240Y260455D01*
X213350Y259364D01*
X211806Y257820D01*
X210715Y255930D01*
X210198Y254000D01*
X217170D01*
Y260972D01*
D02*
G37*
G36*
X226682Y251460D02*
X219710D01*
Y244488D01*
X221640Y245005D01*
X223530Y246096D01*
X225074Y247640D01*
X226165Y249530D01*
X226682Y251460D01*
D02*
G37*
G36*
X217170D02*
X210198D01*
X210715Y249530D01*
X211806Y247640D01*
X213350Y246096D01*
X215240Y245005D01*
X217170Y244488D01*
Y251460D01*
D02*
G37*
G36*
X121320Y219980D02*
X104740D01*
Y203400D01*
X121320D01*
Y219980D01*
D02*
G37*
G36*
X52740D02*
X36160D01*
Y203400D01*
X52740D01*
Y219980D01*
D02*
G37*
G36*
X1905861Y209320D02*
X1904139D01*
X1902476Y208874D01*
X1900984Y208013D01*
X1899767Y206796D01*
X1898906Y205304D01*
X1898460Y203641D01*
Y201919D01*
X1898906Y200256D01*
X1899767Y198764D01*
X1900984Y197547D01*
X1902476Y196686D01*
X1904139Y196240D01*
X1905861D01*
X1907524Y196686D01*
X1909016Y197547D01*
X1910233Y198764D01*
X1911094Y200256D01*
X1911540Y201919D01*
Y203641D01*
X1911094Y205304D01*
X1910233Y206796D01*
X1909016Y208013D01*
X1907524Y208874D01*
X1905861Y209320D01*
D02*
G37*
G36*
X114300Y194932D02*
Y187960D01*
X121272D01*
X120755Y189890D01*
X119664Y191780D01*
X118120Y193324D01*
X116230Y194415D01*
X114300Y194932D01*
D02*
G37*
G36*
X45720D02*
Y187960D01*
X52692D01*
X52175Y189890D01*
X51084Y191780D01*
X49540Y193324D01*
X47650Y194415D01*
X45720Y194932D01*
D02*
G37*
G36*
X111760D02*
X109830Y194415D01*
X107940Y193324D01*
X106396Y191780D01*
X105305Y189890D01*
X104788Y187960D01*
X111760D01*
Y194932D01*
D02*
G37*
G36*
X43180D02*
X41250Y194415D01*
X39360Y193324D01*
X37816Y191780D01*
X36725Y189890D01*
X36208Y187960D01*
X43180D01*
Y194932D01*
D02*
G37*
G36*
X882241Y198310D02*
X880519D01*
X878856Y197864D01*
X877364Y197003D01*
X876147Y195786D01*
X875286Y194294D01*
X874840Y192631D01*
Y190909D01*
X875286Y189246D01*
X876147Y187754D01*
X877364Y186537D01*
X878856Y185676D01*
X880519Y185230D01*
X882241D01*
X883904Y185676D01*
X885396Y186537D01*
X886613Y187754D01*
X887474Y189246D01*
X887920Y190909D01*
Y192631D01*
X887474Y194294D01*
X886613Y195786D01*
X885396Y197003D01*
X883904Y197864D01*
X882241Y198310D01*
D02*
G37*
G36*
X397101D02*
X395379D01*
X393716Y197864D01*
X392224Y197003D01*
X391007Y195786D01*
X390146Y194294D01*
X389700Y192631D01*
Y190909D01*
X390146Y189246D01*
X391007Y187754D01*
X392224Y186537D01*
X393716Y185676D01*
X395379Y185230D01*
X397101D01*
X398764Y185676D01*
X400256Y186537D01*
X401473Y187754D01*
X402334Y189246D01*
X402780Y190909D01*
Y192631D01*
X402334Y194294D01*
X401473Y195786D01*
X400256Y197003D01*
X398764Y197864D01*
X397101Y198310D01*
D02*
G37*
G36*
X1386431Y195770D02*
X1384709D01*
X1383046Y195324D01*
X1381554Y194463D01*
X1380337Y193246D01*
X1379476Y191754D01*
X1379030Y190091D01*
Y188369D01*
X1379476Y186706D01*
X1380337Y185214D01*
X1381554Y183997D01*
X1383046Y183136D01*
X1384709Y182690D01*
X1386431D01*
X1388094Y183136D01*
X1389586Y183997D01*
X1390803Y185214D01*
X1391664Y186706D01*
X1392110Y188369D01*
Y190091D01*
X1391664Y191754D01*
X1390803Y193246D01*
X1389586Y194463D01*
X1388094Y195324D01*
X1386431Y195770D01*
D02*
G37*
G36*
X121272Y185420D02*
X114300D01*
Y178448D01*
X116230Y178965D01*
X118120Y180056D01*
X119664Y181600D01*
X120755Y183490D01*
X121272Y185420D01*
D02*
G37*
G36*
X52692D02*
X45720D01*
Y178448D01*
X47650Y178965D01*
X49540Y180056D01*
X51084Y181600D01*
X52175Y183490D01*
X52692Y185420D01*
D02*
G37*
G36*
X111760D02*
X104788D01*
X105305Y183490D01*
X106396Y181600D01*
X107940Y180056D01*
X109830Y178965D01*
X111760Y178448D01*
Y185420D01*
D02*
G37*
G36*
X43180D02*
X36208D01*
X36725Y183490D01*
X37816Y181600D01*
X39360Y180056D01*
X41250Y178965D01*
X43180Y178448D01*
Y185420D01*
D02*
G37*
G36*
X2021461Y221170D02*
X2019739D01*
X2018076Y220724D01*
X2016584Y219863D01*
X2015367Y218646D01*
X2014506Y217154D01*
X2014060Y215491D01*
Y213769D01*
X2014506Y212106D01*
X2015367Y210614D01*
X2016068Y209913D01*
Y205077D01*
X2000411Y189420D01*
X1999419D01*
X1997756Y188974D01*
X1996264Y188113D01*
X1995047Y186896D01*
X1994186Y185404D01*
X1993740Y183741D01*
Y182019D01*
X1994186Y180356D01*
X1995047Y178864D01*
X1996264Y177647D01*
X1997756Y176786D01*
X1999419Y176340D01*
X2001141D01*
X2002804Y176786D01*
X2004296Y177647D01*
X2005513Y178864D01*
X2006374Y180356D01*
X2006820Y182019D01*
Y183011D01*
X2023805Y199995D01*
X2024787Y201466D01*
X2025132Y203200D01*
X2025132Y203200D01*
Y209913D01*
X2025833Y210614D01*
X2026694Y212106D01*
X2027140Y213769D01*
Y215491D01*
X2026694Y217154D01*
X2025833Y218646D01*
X2024616Y219863D01*
X2023124Y220724D01*
X2021461Y221170D01*
D02*
G37*
G36*
X449171Y218630D02*
X447449D01*
X445786Y218184D01*
X444294Y217323D01*
X443077Y216106D01*
X442216Y214614D01*
X441770Y212951D01*
Y211229D01*
X442216Y209566D01*
X443077Y208074D01*
X444294Y206857D01*
X445786Y205996D01*
X447449Y205550D01*
X448441D01*
X478125Y175865D01*
X478125Y175865D01*
X479596Y174883D01*
X481330Y174538D01*
X481330Y174538D01*
X491853D01*
X492554Y173837D01*
X494046Y172976D01*
X495709Y172530D01*
X497431D01*
X499094Y172976D01*
X500586Y173837D01*
X501803Y175054D01*
X502664Y176546D01*
X503110Y178209D01*
Y179931D01*
X502664Y181594D01*
X501803Y183086D01*
X500586Y184303D01*
X499094Y185164D01*
X497431Y185610D01*
X495709D01*
X494046Y185164D01*
X492554Y184303D01*
X491853Y183602D01*
X483207D01*
X454850Y211959D01*
Y212951D01*
X454404Y214614D01*
X453543Y216106D01*
X452326Y217323D01*
X450834Y218184D01*
X449171Y218630D01*
D02*
G37*
G36*
X1446151Y207200D02*
X1444429D01*
X1442766Y206754D01*
X1441274Y205893D01*
X1440057Y204676D01*
X1439196Y203184D01*
X1438750Y201521D01*
Y200529D01*
X1409123Y170902D01*
X1400477D01*
X1399776Y171603D01*
X1398284Y172464D01*
X1396621Y172910D01*
X1394899D01*
X1393236Y172464D01*
X1391744Y171603D01*
X1390527Y170386D01*
X1389666Y168894D01*
X1389220Y167231D01*
Y165509D01*
X1389666Y163846D01*
X1390527Y162354D01*
X1391744Y161137D01*
X1393236Y160276D01*
X1394899Y159830D01*
X1396621D01*
X1398284Y160276D01*
X1399776Y161137D01*
X1400477Y161838D01*
X1411000D01*
X1412734Y162183D01*
X1414205Y163165D01*
X1445159Y194120D01*
X1446151D01*
X1447814Y194566D01*
X1449306Y195427D01*
X1450523Y196644D01*
X1451384Y198136D01*
X1451830Y199799D01*
Y201521D01*
X1451384Y203184D01*
X1450523Y204676D01*
X1449306Y205893D01*
X1447814Y206754D01*
X1446151Y207200D01*
D02*
G37*
G36*
X934341Y213550D02*
X932619D01*
X930956Y213104D01*
X929464Y212243D01*
X928247Y211026D01*
X927386Y209534D01*
X926940Y207871D01*
Y206149D01*
X927386Y204486D01*
X928247Y202994D01*
X929464Y201777D01*
X930956Y200916D01*
X932619Y200470D01*
X933611D01*
X963295Y170785D01*
X963295Y170785D01*
X964766Y169803D01*
X966500Y169458D01*
X966500Y169458D01*
X996073D01*
X996774Y168757D01*
X998266Y167896D01*
X999929Y167450D01*
X1001651D01*
X1003314Y167896D01*
X1004806Y168757D01*
X1006023Y169974D01*
X1006884Y171466D01*
X1007330Y173129D01*
Y174851D01*
X1006884Y176514D01*
X1006023Y178006D01*
X1004806Y179223D01*
X1003314Y180084D01*
X1001651Y180530D01*
X999929D01*
X998266Y180084D01*
X996774Y179223D01*
X996073Y178522D01*
X968377D01*
X940020Y206879D01*
Y207871D01*
X939574Y209534D01*
X938713Y211026D01*
X937496Y212243D01*
X936004Y213104D01*
X934341Y213550D01*
D02*
G37*
G36*
X1842166Y138162D02*
X1838218D01*
X1834347Y137392D01*
X1830700Y135881D01*
X1827417Y133688D01*
X1824626Y130896D01*
X1822433Y127614D01*
X1820922Y123967D01*
X1820152Y120095D01*
Y116148D01*
X1820922Y112276D01*
X1822433Y108629D01*
X1824626Y105347D01*
X1827417Y102556D01*
X1830700Y100363D01*
X1834347Y98852D01*
X1838218Y98082D01*
X1842166D01*
X1846038Y98852D01*
X1849685Y100363D01*
X1852967Y102556D01*
X1855758Y105347D01*
X1857951Y108629D01*
X1859462Y112276D01*
X1860232Y116148D01*
Y120095D01*
X1859462Y123967D01*
X1857951Y127614D01*
X1855758Y130896D01*
X1852967Y133688D01*
X1849685Y135881D01*
X1846038Y137392D01*
X1842166Y138162D01*
D02*
G37*
G36*
X1338067D02*
X1334119D01*
X1330247Y137392D01*
X1326600Y135881D01*
X1323318Y133688D01*
X1320527Y130896D01*
X1318334Y127614D01*
X1316823Y123967D01*
X1316053Y120095D01*
Y116148D01*
X1316823Y112276D01*
X1318334Y108629D01*
X1320527Y105347D01*
X1323318Y102556D01*
X1326600Y100363D01*
X1330247Y98852D01*
X1334119Y98082D01*
X1338067D01*
X1341938Y98852D01*
X1345585Y100363D01*
X1348868Y102556D01*
X1351659Y105347D01*
X1353852Y108629D01*
X1355363Y112276D01*
X1356133Y116148D01*
Y120095D01*
X1355363Y123967D01*
X1353852Y127614D01*
X1351659Y130896D01*
X1348868Y133688D01*
X1345585Y135881D01*
X1341938Y137392D01*
X1338067Y138162D01*
D02*
G37*
G36*
X833967D02*
X830020D01*
X826148Y137392D01*
X822501Y135881D01*
X819219Y133688D01*
X816427Y130896D01*
X814234Y127614D01*
X812724Y123967D01*
X811954Y120095D01*
Y116148D01*
X812724Y112276D01*
X814234Y108629D01*
X816427Y105347D01*
X819219Y102556D01*
X822501Y100363D01*
X826148Y98852D01*
X830020Y98082D01*
X833967D01*
X837839Y98852D01*
X841486Y100363D01*
X844768Y102556D01*
X847560Y105347D01*
X849753Y108629D01*
X851263Y112276D01*
X852033Y116148D01*
Y120095D01*
X851263Y123967D01*
X849753Y127614D01*
X847560Y130896D01*
X844768Y133688D01*
X841486Y135881D01*
X837839Y137392D01*
X833967Y138162D01*
D02*
G37*
G36*
X329868D02*
X325920D01*
X322049Y137392D01*
X318402Y135881D01*
X315119Y133688D01*
X312328Y130896D01*
X310135Y127614D01*
X308624Y123967D01*
X307854Y120095D01*
Y116148D01*
X308624Y112276D01*
X310135Y108629D01*
X312328Y105347D01*
X315119Y102556D01*
X318402Y100363D01*
X322049Y98852D01*
X325920Y98082D01*
X329868D01*
X333740Y98852D01*
X337387Y100363D01*
X340669Y102556D01*
X343460Y105347D01*
X345653Y108629D01*
X347164Y112276D01*
X347934Y116148D01*
Y120095D01*
X347164Y123967D01*
X345653Y127614D01*
X343460Y130896D01*
X340669Y133688D01*
X337387Y135881D01*
X333740Y137392D01*
X329868Y138162D01*
D02*
G37*
G36*
X2080342Y102750D02*
X2080290D01*
Y93980D01*
X2089060D01*
Y94032D01*
X2088376Y96585D01*
X2087054Y98875D01*
X2085185Y100744D01*
X2082895Y102066D01*
X2080342Y102750D01*
D02*
G37*
G36*
X1555832D02*
X1555780D01*
Y93980D01*
X1564550D01*
Y94032D01*
X1563866Y96585D01*
X1562544Y98875D01*
X1560675Y100744D01*
X1558385Y102066D01*
X1555832Y102750D01*
D02*
G37*
G36*
X1004652D02*
X1004600D01*
Y93980D01*
X1013370D01*
Y94032D01*
X1012686Y96585D01*
X1011364Y98875D01*
X1009495Y100744D01*
X1007205Y102066D01*
X1004652Y102750D01*
D02*
G37*
G36*
X477602D02*
X477550D01*
Y93980D01*
X486320D01*
Y94032D01*
X485636Y96585D01*
X484314Y98875D01*
X482445Y100744D01*
X480155Y102066D01*
X477602Y102750D01*
D02*
G37*
G36*
X1002060D02*
X1002008D01*
X999455Y102066D01*
X997165Y100744D01*
X995296Y98875D01*
X993974Y96585D01*
X993290Y94032D01*
Y93980D01*
X1002060D01*
Y102750D01*
D02*
G37*
G36*
X475010D02*
X474958D01*
X472405Y102066D01*
X470115Y100744D01*
X468246Y98875D01*
X466924Y96585D01*
X466240Y94032D01*
Y93980D01*
X475010D01*
Y102750D01*
D02*
G37*
G36*
X2077750D02*
X2077698D01*
X2075145Y102066D01*
X2072855Y100744D01*
X2070986Y98875D01*
X2069664Y96585D01*
X2068980Y94032D01*
Y93980D01*
X2077750D01*
Y102750D01*
D02*
G37*
G36*
X1553240D02*
X1553188D01*
X1550635Y102066D01*
X1548345Y100744D01*
X1546476Y98875D01*
X1545154Y96585D01*
X1544470Y94032D01*
Y93980D01*
X1553240D01*
Y102750D01*
D02*
G37*
G36*
X2114460D02*
X2094380D01*
Y82670D01*
X2114460D01*
Y102750D01*
D02*
G37*
G36*
X2089060Y91440D02*
X2080290D01*
Y82670D01*
X2080342D01*
X2082895Y83354D01*
X2085185Y84676D01*
X2087054Y86545D01*
X2088376Y88835D01*
X2089060Y91388D01*
Y91440D01*
D02*
G37*
G36*
X2077750D02*
X2068980D01*
Y91388D01*
X2069664Y88835D01*
X2070986Y86545D01*
X2072855Y84676D01*
X2075145Y83354D01*
X2077698Y82670D01*
X2077750D01*
Y91440D01*
D02*
G37*
G36*
X1589950Y102750D02*
X1569870D01*
Y82670D01*
X1589950D01*
Y102750D01*
D02*
G37*
G36*
X1564550Y91440D02*
X1555780D01*
Y82670D01*
X1555832D01*
X1558385Y83354D01*
X1560675Y84676D01*
X1562544Y86545D01*
X1563866Y88835D01*
X1564550Y91388D01*
Y91440D01*
D02*
G37*
G36*
X1553240D02*
X1544470D01*
Y91388D01*
X1545154Y88835D01*
X1546476Y86545D01*
X1548345Y84676D01*
X1550635Y83354D01*
X1553188Y82670D01*
X1553240D01*
Y91440D01*
D02*
G37*
G36*
X1038770Y102750D02*
X1018690D01*
Y82670D01*
X1038770D01*
Y102750D01*
D02*
G37*
G36*
X1013370Y91440D02*
X1004600D01*
Y82670D01*
X1004652D01*
X1007205Y83354D01*
X1009495Y84676D01*
X1011364Y86545D01*
X1012686Y88835D01*
X1013370Y91388D01*
Y91440D01*
D02*
G37*
G36*
X1002060D02*
X993290D01*
Y91388D01*
X993974Y88835D01*
X995296Y86545D01*
X997165Y84676D01*
X999455Y83354D01*
X1002008Y82670D01*
X1002060D01*
Y91440D01*
D02*
G37*
G36*
X511720Y102750D02*
X491640D01*
Y82670D01*
X511720D01*
Y102750D01*
D02*
G37*
G36*
X486320Y91440D02*
X477550D01*
Y82670D01*
X477602D01*
X480155Y83354D01*
X482445Y84676D01*
X484314Y86545D01*
X485636Y88835D01*
X486320Y91388D01*
Y91440D01*
D02*
G37*
G36*
X475010D02*
X466240D01*
Y91388D01*
X466924Y88835D01*
X468246Y86545D01*
X470115Y84676D01*
X472405Y83354D01*
X474958Y82670D01*
X475010D01*
Y91440D01*
D02*
G37*
%LPD*%
G36*
X2182858Y506730D02*
X2098398D01*
Y455930D01*
X2083158D01*
Y514350D01*
X2158728D01*
Y586740D01*
X2182858D01*
Y506730D01*
D02*
G37*
G36*
X2156188Y516890D02*
X2078398D01*
Y455930D01*
X2063158D01*
Y525780D01*
X2133328D01*
Y586740D01*
X2156188D01*
Y516890D01*
D02*
G37*
G36*
X2130788Y561340D02*
Y528320D01*
X2058398D01*
Y455930D01*
X2043158D01*
Y535940D01*
X2109198D01*
Y586740D01*
X2130788D01*
Y561340D01*
D02*
G37*
G36*
X2104118Y538480D02*
X2038398D01*
Y455930D01*
X2023158D01*
Y547370D01*
X2083798D01*
X2083798Y586740D01*
X2104118D01*
Y538480D01*
D02*
G37*
G36*
X1678759Y506730D02*
X1594299D01*
Y455930D01*
X1579059D01*
Y514350D01*
X1654629D01*
Y586740D01*
X1678759D01*
Y506730D01*
D02*
G37*
G36*
X1652089Y516890D02*
X1574299D01*
Y455930D01*
X1559059D01*
Y525780D01*
X1629229D01*
Y586740D01*
X1652089D01*
Y516890D01*
D02*
G37*
G36*
X1626689Y561340D02*
Y528320D01*
X1554299D01*
Y455930D01*
X1539059D01*
Y535940D01*
X1605099D01*
Y586740D01*
X1626689D01*
Y561340D01*
D02*
G37*
G36*
X1600019Y538480D02*
X1534299D01*
Y455930D01*
X1519059D01*
Y547370D01*
X1579699D01*
X1579699Y586740D01*
X1600019D01*
Y538480D01*
D02*
G37*
G36*
X1174659Y506730D02*
X1090199D01*
Y455930D01*
X1074959D01*
Y514350D01*
X1150529D01*
Y586740D01*
X1174659D01*
Y506730D01*
D02*
G37*
G36*
X1147989Y516890D02*
X1070199D01*
Y455930D01*
X1054959D01*
Y525780D01*
X1125129D01*
Y586740D01*
X1147989D01*
Y516890D01*
D02*
G37*
G36*
X1122589Y561340D02*
Y528320D01*
X1050199D01*
Y455930D01*
X1034959D01*
Y535940D01*
X1100999D01*
Y586740D01*
X1122589D01*
Y561340D01*
D02*
G37*
G36*
X1095919Y538480D02*
X1030199D01*
Y455930D01*
X1014959D01*
Y547370D01*
X1075599D01*
X1075599Y586740D01*
X1095919D01*
Y538480D01*
D02*
G37*
G36*
X670560Y506730D02*
X586100D01*
Y455930D01*
X570860D01*
Y514350D01*
X646430D01*
Y586740D01*
X670560D01*
Y506730D01*
D02*
G37*
G36*
X643890Y516890D02*
X566100D01*
Y455930D01*
X550860D01*
Y525780D01*
X621030D01*
Y586740D01*
X643890D01*
Y516890D01*
D02*
G37*
G36*
X618490Y561340D02*
Y528320D01*
X546100D01*
Y455930D01*
X530860D01*
Y535940D01*
X596900D01*
Y586740D01*
X618490D01*
Y561340D01*
D02*
G37*
G36*
X591820Y538480D02*
X526100D01*
Y455930D01*
X510860D01*
Y547370D01*
X571500D01*
X571500Y586740D01*
X591820D01*
Y538480D01*
D02*
G37*
G36*
X482600Y455930D02*
X473710D01*
Y504190D01*
X463550D01*
Y534670D01*
X482600D01*
Y455930D01*
D02*
G37*
G36*
X1995073Y456174D02*
X1986183D01*
Y504434D01*
X1976023D01*
Y534914D01*
X1995073D01*
Y456174D01*
D02*
G37*
G36*
X1490140Y455930D02*
X1481250D01*
Y504190D01*
X1471090D01*
Y534670D01*
X1490140D01*
Y455930D01*
D02*
G37*
G36*
X985550Y453390D02*
X975760D01*
Y501650D01*
X965600D01*
Y532130D01*
X985550D01*
Y453390D01*
D02*
G37*
D68*
X23690Y357670D02*
D03*
Y407670D02*
D03*
X73690Y357670D02*
D03*
Y407670D02*
D03*
X2169670Y574520D02*
D03*
X2144270D02*
D03*
X2118870D02*
D03*
X607060Y574040D02*
D03*
X632460D02*
D03*
X657860D02*
D03*
X1110671Y574520D02*
D03*
X1136071D02*
D03*
X1161471D02*
D03*
X1614771D02*
D03*
X1640171D02*
D03*
X1665571D02*
D03*
D89*
X203246Y928738D02*
G03*
X203140Y928738I-46J-10528D01*
G01*
X201931Y928738D02*
G03*
X201718Y928736I-2J-10528D01*
G01*
X389024Y889592D02*
X390972Y891540D01*
X318208Y889592D02*
X389024D01*
X390972Y891540D02*
X392460D01*
X304830Y902970D02*
X318208Y889592D01*
X311180Y871220D02*
X320070Y880110D01*
X490250D01*
X515650Y905510D01*
X387380Y854710D02*
X518190Y723900D01*
X337850Y854710D02*
X387380D01*
X203246Y928738D02*
X364520Y928370D01*
X365252Y927638D01*
X201931Y928738D02*
X203140Y928738D01*
X147565Y927645D02*
X201718Y928736D01*
X147558Y927638D02*
X147565Y927645D01*
X365252Y927638D02*
X373410Y919480D01*
X77500Y857580D02*
X147558Y927638D01*
X144780Y937260D02*
X291081D01*
X293029Y935312D02*
X298851D01*
X300799Y937260D01*
X26700Y819180D02*
X144780Y937260D01*
X386110D02*
X402620Y920750D01*
X300799Y937260D02*
X386110D01*
X291081D02*
X293029Y935312D01*
X26700Y731520D02*
Y819180D01*
X77500Y763270D02*
Y857580D01*
X562610Y838200D02*
X586770D01*
X594390Y830580D01*
Y792480D02*
Y830580D01*
X496600Y800100D02*
X523504Y773195D01*
X575105D01*
X594390Y792480D01*
X496600Y800100D02*
Y833120D01*
X343151Y869950D02*
X459770D01*
X496600Y833120D01*
X334261Y861060D02*
X343151Y869950D01*
X306100Y861060D02*
X334261D01*
X298480Y868680D02*
X306100Y861060D01*
X270540Y868680D02*
X298480D01*
X295940Y942340D02*
X430560D01*
X452150Y920750D01*
X304830Y902970D02*
Y911860D01*
X515650Y905510D02*
X547400D01*
X61310Y747080D02*
X77500Y763270D01*
X46990Y747080D02*
X61310D01*
X31780Y726440D02*
X46350D01*
X46990Y727080D01*
X26700Y731520D02*
X31780Y726440D01*
X452150Y887730D02*
Y920750D01*
X562610Y863600D02*
X562640Y863630D01*
Y890270D01*
X547400Y905510D02*
X562640Y890270D01*
X2030760Y713740D02*
Y725170D01*
X1978690Y777240D02*
X2030760Y725170D01*
X1687860Y777240D02*
X1978690D01*
X1529110Y787035D02*
Y787400D01*
X1535460Y717550D02*
Y780685D01*
X1529110Y787035D02*
X1535460Y780685D01*
X1030000Y834390D02*
X1030310Y834080D01*
Y703240D02*
X1030620Y702930D01*
X1030310Y703240D02*
Y834080D01*
X1470690Y731520D02*
Y845820D01*
X519681Y712470D02*
X953800D01*
X512653Y719498D02*
X519681Y712470D01*
X451472Y719498D02*
X512653D01*
X321340Y849630D02*
X451472Y719498D01*
X435640Y712470D02*
X459770D01*
X308640Y839470D02*
X435640Y712470D01*
X308640Y839470D02*
Y840740D01*
D90*
X1395760Y166370D02*
X1411000D01*
X1445290Y200660D01*
X2000280Y182880D02*
X2020600Y203200D01*
Y214630D01*
X1940590Y547370D02*
X1948210D01*
X1970590Y524990D01*
Y478420D02*
Y524990D01*
X960150Y498486D02*
X962391Y496245D01*
X960150Y498486D02*
Y529590D01*
X953800Y535940D02*
X960150Y529590D01*
X962391Y478420D02*
Y496245D01*
X1940312Y483562D02*
X1949411D01*
X1935540Y478790D02*
X1940312Y483562D01*
X1432620Y481330D02*
X1437392Y486102D01*
X1445221D01*
X1446491Y478420D02*
Y484832D01*
X1445221Y486102D02*
X1446491Y484832D01*
X1455450Y544830D02*
X1466491Y533789D01*
Y478420D02*
Y533789D01*
X929670Y535940D02*
X953800D01*
X933480Y207010D02*
X966500Y173990D01*
X1000790D01*
X942391Y478420D02*
Y486596D01*
X929202Y482132D02*
Y484338D01*
X941121Y487866D02*
X942391Y486596D01*
X932729Y487866D02*
X941121D01*
X929202Y484338D02*
X932729Y487866D01*
X928400Y481330D02*
X929202Y482132D01*
X448310Y212090D02*
X481330Y179070D01*
X496570D01*
X498292Y478420D02*
X498649Y478777D01*
X458292Y478420D02*
Y496245D01*
X457022Y497515D02*
X458292Y496245D01*
X448581Y497515D02*
X457022D01*
X433016Y513080D02*
X448581Y497515D01*
X422910Y513080D02*
X433016D01*
X438292Y478420D02*
Y486173D01*
X437022Y487443D02*
X438292Y486173D01*
X429023Y487443D02*
X437022D01*
X424180Y482600D02*
X429023Y487443D01*
D93*
X1983770Y519430D02*
D03*
X1480850Y515620D02*
D03*
X473310D02*
D03*
X44450Y186690D02*
D03*
X113030D02*
D03*
X160050Y411480D02*
D03*
X247680Y389890D02*
D03*
X218440Y252730D02*
D03*
X975360Y513080D02*
D03*
X139700Y818750D02*
D03*
D94*
X1958770Y519430D02*
D03*
X1455850Y515620D02*
D03*
X448310D02*
D03*
X950360Y513080D02*
D03*
D95*
X476280Y92710D02*
D03*
X2079020D02*
D03*
X1554510D02*
D03*
X1003330D02*
D03*
X2292330Y888990D02*
D03*
X2317330Y838990D02*
D03*
X2292330Y788990D02*
D03*
X2317330Y738990D02*
D03*
X2292330Y688990D02*
D03*
X2242330Y888990D02*
D03*
X2267330Y838990D02*
D03*
X2242330Y788990D02*
D03*
X2267330Y738990D02*
D03*
X2242330Y688990D02*
D03*
X2192330Y888990D02*
D03*
X2217330Y838990D02*
D03*
X2192330Y788990D02*
D03*
X2217330Y738990D02*
D03*
X2192330Y688990D02*
D03*
X2142330Y888990D02*
D03*
X2167330Y838990D02*
D03*
X2142330Y788990D02*
D03*
X2167330Y738990D02*
D03*
X2142330Y688990D02*
D03*
X2092330Y888990D02*
D03*
X2117330Y838990D02*
D03*
X2092330Y788990D02*
D03*
X2117330Y738990D02*
D03*
X2092330Y688990D02*
D03*
X2042330Y888990D02*
D03*
X2067330Y838990D02*
D03*
X2042330Y788990D02*
D03*
X2067330Y738990D02*
D03*
X1992330Y888990D02*
D03*
X2017330Y838990D02*
D03*
X1992330Y788990D02*
D03*
X1942330Y888990D02*
D03*
X1967330Y838990D02*
D03*
X1892330Y888990D02*
D03*
X1917330Y838990D02*
D03*
Y738990D02*
D03*
X1842330Y888990D02*
D03*
X1867330Y738990D02*
D03*
X1792330Y888990D02*
D03*
X1742330D02*
D03*
X1767330Y738990D02*
D03*
X1742330Y688990D02*
D03*
X1692330Y888990D02*
D03*
X1717330Y738990D02*
D03*
X1692330Y688990D02*
D03*
X1642330Y888990D02*
D03*
X1667330Y738990D02*
D03*
X1642330Y688990D02*
D03*
X1592330Y888990D02*
D03*
X1617330Y738990D02*
D03*
X1592330Y688990D02*
D03*
X1542330Y888990D02*
D03*
X1567330Y738990D02*
D03*
X1492330Y888990D02*
D03*
X1517330Y738990D02*
D03*
X1417330Y838990D02*
D03*
Y738990D02*
D03*
X1342330Y888990D02*
D03*
X1367330Y838990D02*
D03*
X1292330Y888990D02*
D03*
X1317330Y838990D02*
D03*
X1242330Y888990D02*
D03*
X1267330Y838990D02*
D03*
X1242330Y688990D02*
D03*
X1192330Y888990D02*
D03*
X1217330Y838990D02*
D03*
X1192330Y688990D02*
D03*
X1142330Y888990D02*
D03*
X1167330Y838990D02*
D03*
X1142330Y688990D02*
D03*
X1092330Y888990D02*
D03*
X1117330Y838990D02*
D03*
X1092330Y688990D02*
D03*
X1042330Y888990D02*
D03*
X1067330Y838990D02*
D03*
X942330Y788990D02*
D03*
X917330Y838990D02*
D03*
X892330Y788990D02*
D03*
X867330Y838990D02*
D03*
X842330Y788990D02*
D03*
X817330Y838990D02*
D03*
X792330Y788990D02*
D03*
Y688990D02*
D03*
X767330Y838990D02*
D03*
X742330Y788990D02*
D03*
Y688990D02*
D03*
X717330Y838990D02*
D03*
X692330Y788990D02*
D03*
Y688990D02*
D03*
X667330Y838990D02*
D03*
X642330Y688990D02*
D03*
X617330Y838990D02*
D03*
X592330Y688990D02*
D03*
X542330D02*
D03*
X217330Y738990D02*
D03*
X167330Y838990D02*
D03*
Y738990D02*
D03*
X142330Y688990D02*
D03*
X117330Y838990D02*
D03*
Y738990D02*
D03*
X92330Y688990D02*
D03*
X42330D02*
D03*
X328930Y651510D02*
D03*
X2317330Y588990D02*
D03*
Y488990D02*
D03*
Y388990D02*
D03*
X2292330Y338990D02*
D03*
X2317330Y288990D02*
D03*
X2292330Y238990D02*
D03*
X2317330Y188990D02*
D03*
X2292330Y138990D02*
D03*
X2317330Y88990D02*
D03*
X2267330Y588990D02*
D03*
Y388990D02*
D03*
Y288990D02*
D03*
X2242330Y238990D02*
D03*
X2267330Y188990D02*
D03*
X2242330Y138990D02*
D03*
X2267330Y88990D02*
D03*
X2242330Y38990D02*
D03*
X2217330Y588990D02*
D03*
Y288990D02*
D03*
X2192330Y238990D02*
D03*
X2217330Y188990D02*
D03*
X2192330Y138990D02*
D03*
X2217330Y88990D02*
D03*
X2192330Y38990D02*
D03*
X2167330Y188990D02*
D03*
X2142330Y138990D02*
D03*
X2167330Y88990D02*
D03*
X2142330Y38990D02*
D03*
X2092330Y138990D02*
D03*
Y38990D02*
D03*
X2042330Y138990D02*
D03*
Y38990D02*
D03*
X1992330Y138990D02*
D03*
X2017330Y88990D02*
D03*
X1992330Y38990D02*
D03*
X1942330Y138990D02*
D03*
X1967330Y88990D02*
D03*
X1942330Y38990D02*
D03*
X1892330Y138990D02*
D03*
X1917330Y88990D02*
D03*
X1892330Y38990D02*
D03*
X1842330Y438990D02*
D03*
Y338990D02*
D03*
Y38990D02*
D03*
X1817330Y488990D02*
D03*
Y388990D02*
D03*
X1792330Y338990D02*
D03*
X1817330Y288990D02*
D03*
X1792330Y238990D02*
D03*
X1817330Y188990D02*
D03*
X1792330Y138990D02*
D03*
Y38990D02*
D03*
X1767330Y588990D02*
D03*
Y388990D02*
D03*
X1742330Y338990D02*
D03*
X1767330Y288990D02*
D03*
X1742330Y238990D02*
D03*
X1767330Y188990D02*
D03*
X1742330Y138990D02*
D03*
X1767330Y88990D02*
D03*
X1742330Y38990D02*
D03*
X1717330Y588990D02*
D03*
Y288990D02*
D03*
X1692330Y238990D02*
D03*
X1717330Y188990D02*
D03*
X1692330Y138990D02*
D03*
X1717330Y88990D02*
D03*
X1692330Y38990D02*
D03*
X1642330Y238990D02*
D03*
X1667330Y188990D02*
D03*
X1642330Y138990D02*
D03*
X1667330Y88990D02*
D03*
X1642330Y38990D02*
D03*
X1592330Y138990D02*
D03*
X1617330Y88990D02*
D03*
X1592330Y38990D02*
D03*
X1542330Y138990D02*
D03*
Y38990D02*
D03*
X1492330Y138990D02*
D03*
X1517330Y88990D02*
D03*
X1492330Y38990D02*
D03*
X1442330Y138990D02*
D03*
X1467330Y88990D02*
D03*
X1442330Y38990D02*
D03*
X1417330Y88990D02*
D03*
X1392330Y38990D02*
D03*
X1342330Y438990D02*
D03*
X1367330Y88990D02*
D03*
X1342330Y38990D02*
D03*
X1317330Y488990D02*
D03*
Y388990D02*
D03*
X1292330Y338990D02*
D03*
X1317330Y288990D02*
D03*
X1292330Y238990D02*
D03*
Y138990D02*
D03*
Y38990D02*
D03*
X1267330Y588990D02*
D03*
Y388990D02*
D03*
X1242330Y338990D02*
D03*
X1267330Y288990D02*
D03*
X1242330Y238990D02*
D03*
X1267330Y188990D02*
D03*
X1242330Y138990D02*
D03*
X1267330Y88990D02*
D03*
X1242330Y38990D02*
D03*
X1217330Y588990D02*
D03*
Y288990D02*
D03*
X1192330Y238990D02*
D03*
X1217330Y188990D02*
D03*
X1192330Y138990D02*
D03*
X1217330Y88990D02*
D03*
X1192330Y38990D02*
D03*
X1167330Y288990D02*
D03*
X1142330Y238990D02*
D03*
X1167330Y188990D02*
D03*
X1142330Y138990D02*
D03*
X1167330Y88990D02*
D03*
X1142330Y38990D02*
D03*
X1092330Y138990D02*
D03*
X1117330Y88990D02*
D03*
X1092330Y38990D02*
D03*
X1042330Y138990D02*
D03*
X1067330Y88990D02*
D03*
X1042330Y38990D02*
D03*
X992330Y138990D02*
D03*
Y38990D02*
D03*
X942330Y138990D02*
D03*
X967330Y88990D02*
D03*
X942330Y38990D02*
D03*
X892330Y138990D02*
D03*
X917330Y88990D02*
D03*
X892330Y38990D02*
D03*
X867330Y88990D02*
D03*
X842330Y38990D02*
D03*
X817330Y488990D02*
D03*
Y388990D02*
D03*
X792330Y338990D02*
D03*
X817330Y288990D02*
D03*
X792330Y238990D02*
D03*
X817330Y188990D02*
D03*
X792330Y138990D02*
D03*
Y38990D02*
D03*
X767330Y588990D02*
D03*
Y388990D02*
D03*
X742330Y338990D02*
D03*
X767330Y288990D02*
D03*
X742330Y238990D02*
D03*
X767330Y188990D02*
D03*
X742330Y138990D02*
D03*
X767330Y88990D02*
D03*
X742330Y38990D02*
D03*
X717330Y588990D02*
D03*
Y288990D02*
D03*
X692330Y238990D02*
D03*
X717330Y188990D02*
D03*
X692330Y138990D02*
D03*
X717330Y88990D02*
D03*
X692330Y38990D02*
D03*
X667330Y288990D02*
D03*
X642330Y238990D02*
D03*
X667330Y188990D02*
D03*
X642330Y138990D02*
D03*
X667330Y88990D02*
D03*
X642330Y38990D02*
D03*
X592330Y138990D02*
D03*
X617330Y88990D02*
D03*
X592330Y38990D02*
D03*
X542330Y138990D02*
D03*
X567330Y88990D02*
D03*
X542330Y38990D02*
D03*
X492330Y138990D02*
D03*
Y38990D02*
D03*
X442330Y138990D02*
D03*
Y38990D02*
D03*
X392330Y138990D02*
D03*
X417330Y88990D02*
D03*
X392330Y38990D02*
D03*
X342330Y438990D02*
D03*
X367330Y388990D02*
D03*
X342330Y338990D02*
D03*
X367330Y288990D02*
D03*
Y88990D02*
D03*
X342330Y38990D02*
D03*
X317330Y488990D02*
D03*
X292330Y438990D02*
D03*
X317330Y388990D02*
D03*
X292330Y338990D02*
D03*
X317330Y288990D02*
D03*
X292330Y238990D02*
D03*
X317330Y188990D02*
D03*
X292330Y38990D02*
D03*
X267330Y588990D02*
D03*
X242330Y538990D02*
D03*
X267330Y488990D02*
D03*
X242330Y438990D02*
D03*
X267330Y288990D02*
D03*
Y188990D02*
D03*
X242330Y138990D02*
D03*
X267330Y88990D02*
D03*
X242330Y38990D02*
D03*
X217330Y588990D02*
D03*
X192330Y538990D02*
D03*
X217330Y488990D02*
D03*
X192330Y438990D02*
D03*
X217330Y188990D02*
D03*
X192330Y138990D02*
D03*
X217330Y88990D02*
D03*
X192330Y38990D02*
D03*
X167330Y588990D02*
D03*
X142330Y538990D02*
D03*
X167330Y488990D02*
D03*
X142330Y438990D02*
D03*
X167330Y188990D02*
D03*
X142330Y138990D02*
D03*
X167330Y88990D02*
D03*
X142330Y38990D02*
D03*
X117330Y588990D02*
D03*
X92330Y438990D02*
D03*
Y138990D02*
D03*
X117330Y88990D02*
D03*
X92330Y38990D02*
D03*
X67330Y588990D02*
D03*
X42330Y538990D02*
D03*
Y438990D02*
D03*
Y138990D02*
D03*
X67330Y88990D02*
D03*
X405130Y483870D02*
D03*
X430530Y387350D02*
D03*
X449580Y394970D02*
D03*
X494030Y392430D02*
D03*
X455930Y557530D02*
D03*
X303530Y556649D02*
D03*
X106680Y482202D02*
D03*
X33140Y511810D02*
D03*
X2011680Y688340D02*
D03*
X1939290Y698380D02*
D03*
X1833880Y695571D02*
D03*
X1517650Y687070D02*
D03*
X1446530Y700920D02*
D03*
X1339850Y698111D02*
D03*
X433070Y693031D02*
D03*
X941070Y687951D02*
D03*
X835660Y689221D02*
D03*
X1010920Y680720D02*
D03*
X636270Y778510D02*
D03*
X629920Y796290D02*
D03*
X617220Y810260D02*
D03*
X95250Y826770D02*
D03*
X421625Y836945D02*
D03*
X454660Y838200D02*
D03*
X387350Y833120D02*
D03*
X205430Y706120D02*
D03*
X292100Y726440D02*
D03*
X250190Y736600D02*
D03*
X252730Y755650D02*
D03*
X226487Y878599D02*
D03*
X248920Y896620D02*
D03*
X246380Y915670D02*
D03*
X201930Y918210D02*
D03*
Y899160D02*
D03*
X100240Y929830D02*
D03*
X82550Y929640D02*
D03*
X55880Y868680D02*
D03*
Y885190D02*
D03*
X97790Y857250D02*
D03*
X273050Y800100D02*
D03*
X215900Y834390D02*
D03*
X193040Y801370D02*
D03*
X2130590Y478420D02*
D03*
X1626491D02*
D03*
X617220Y478790D02*
D03*
X1121440Y477520D02*
D03*
X2090590Y478420D02*
D03*
X2070590D02*
D03*
X2050590D02*
D03*
X2030590D02*
D03*
X1586491D02*
D03*
X1566491D02*
D03*
X1546491D02*
D03*
X1526491D02*
D03*
X1082391D02*
D03*
X1062391D02*
D03*
X1042391D02*
D03*
X1022391D02*
D03*
X518292D02*
D03*
X538292D02*
D03*
X578292D02*
D03*
X558292D02*
D03*
D96*
X501680Y92710D02*
D03*
X2104420D02*
D03*
X1579910D02*
D03*
X1028730D02*
D03*
D97*
X44450Y211690D02*
D03*
X113030D02*
D03*
X160050Y361480D02*
D03*
X247680Y364890D02*
D03*
X218440Y277730D02*
D03*
X139700Y793750D02*
D03*
D98*
X99060Y289560D02*
D03*
D99*
X124460D02*
D03*
X149860D02*
D03*
D100*
X537210Y800500D02*
D03*
D101*
X562610Y863600D02*
D03*
Y838200D02*
D03*
X537210Y876300D02*
D03*
Y850900D02*
D03*
Y825500D02*
D03*
X562610Y812800D02*
D03*
D102*
X46990Y787080D02*
D03*
Y767080D02*
D03*
Y747080D02*
D03*
D103*
Y727080D02*
D03*
D104*
X2329180Y31750D02*
D03*
X33020D02*
D03*
Y929640D02*
D03*
X2332990Y927100D02*
D03*
X752158Y542386D02*
D03*
X327894Y118122D02*
D03*
X1256258Y542386D02*
D03*
X831993Y118122D02*
D03*
X1760357Y542386D02*
D03*
X1336093Y118122D02*
D03*
X2264456Y542386D02*
D03*
X1840192Y118122D02*
D03*
D105*
X418592Y336420D02*
D03*
X679450Y341960D02*
D03*
X922691Y336420D02*
D03*
X1183549Y341960D02*
D03*
X1426791Y336420D02*
D03*
X1687649Y341960D02*
D03*
X1930890Y336420D02*
D03*
X2191748Y341960D02*
D03*
D106*
X428292Y439420D02*
D03*
X448292D02*
D03*
X468292D02*
D03*
X488292D02*
D03*
X508292D02*
D03*
X528292D02*
D03*
X548292D02*
D03*
X568292D02*
D03*
X588292D02*
D03*
X608292D02*
D03*
X628292D02*
D03*
X648292D02*
D03*
X668292D02*
D03*
X932391D02*
D03*
X952391D02*
D03*
X972391D02*
D03*
X992391D02*
D03*
X1012391D02*
D03*
X1032391D02*
D03*
X1052391D02*
D03*
X1072391D02*
D03*
X1092391D02*
D03*
X1112391D02*
D03*
X1132391D02*
D03*
X1152391D02*
D03*
X1172391D02*
D03*
X1436491D02*
D03*
X1456491D02*
D03*
X1476491D02*
D03*
X1496491D02*
D03*
X1516491D02*
D03*
X1536491D02*
D03*
X1556491D02*
D03*
X1576491D02*
D03*
X1596491D02*
D03*
X1616491D02*
D03*
X1636491D02*
D03*
X1656491D02*
D03*
X1676491D02*
D03*
X1940590D02*
D03*
X1960590D02*
D03*
X1980590D02*
D03*
X2000590D02*
D03*
X2020590D02*
D03*
X2040590D02*
D03*
X2060590D02*
D03*
X2080590D02*
D03*
X2100590D02*
D03*
X2120590D02*
D03*
X2140590D02*
D03*
X2160590D02*
D03*
X2180590D02*
D03*
D107*
X2093470Y574520D02*
D03*
X581660Y574040D02*
D03*
X1085271Y574520D02*
D03*
X1589371D02*
D03*
D108*
X230020Y779780D02*
D03*
X398780Y806450D02*
D03*
X337820Y791210D02*
D03*
X358140Y762000D02*
D03*
X342900Y739140D02*
D03*
X314960Y684530D02*
D03*
X330200Y688340D02*
D03*
X342900D02*
D03*
X287020Y695960D02*
D03*
X344170Y723900D02*
D03*
X506730Y684530D02*
D03*
X542290Y588010D02*
D03*
X810260Y593090D02*
D03*
X1630680Y355600D02*
D03*
X1616560Y369720D02*
D03*
X1244600Y515988D02*
D03*
X2014220Y533400D02*
D03*
X2045970Y553720D02*
D03*
X2038350Y579120D02*
D03*
X2056130Y566420D02*
D03*
X2211070Y533400D02*
D03*
X2190750Y524510D02*
D03*
X2191148Y417830D02*
D03*
X2152680Y389890D02*
D03*
X2115820Y368300D02*
D03*
X2131060D02*
D03*
X2258060Y511810D02*
D03*
X2232660Y524510D02*
D03*
X2233360Y444540D02*
D03*
X2212490Y426870D02*
D03*
X1982500Y302260D02*
D03*
X1922660Y478640D02*
D03*
X1877060Y212090D02*
D03*
X1860550Y219710D02*
D03*
X1905000Y202780D02*
D03*
X1942079Y194460D02*
D03*
X2024380Y294640D02*
D03*
X2009140Y397510D02*
D03*
X1943100Y393700D02*
D03*
X1962150Y397142D02*
D03*
X1978540Y547520D02*
D03*
X1960880Y563880D02*
D03*
X1998775Y571500D02*
D03*
X1913890Y600710D02*
D03*
X1808480Y562610D02*
D03*
X1899950Y558800D02*
D03*
X1871860Y543710D02*
D03*
X1854200Y565150D02*
D03*
X1723390Y439420D02*
D03*
X1426210Y193040D02*
D03*
X1330960Y198120D02*
D03*
X1348740Y193040D02*
D03*
X1385570Y189230D02*
D03*
X1455420Y283210D02*
D03*
X1483510Y298300D02*
D03*
X1507490Y538480D02*
D03*
X1564640Y577850D02*
D03*
X1390650Y537210D02*
D03*
X1295400Y582930D02*
D03*
X1424940Y563880D02*
D03*
X1317922Y562610D02*
D03*
X1405740Y565300D02*
D03*
X1485900Y563880D02*
D03*
X1466850Y565150D02*
D03*
X1548130Y582930D02*
D03*
X2126644Y499798D02*
D03*
X2136826Y499559D02*
D03*
X1622545Y499798D02*
D03*
X1632727Y499559D02*
D03*
X1127676Y498659D02*
D03*
X1117494Y498898D02*
D03*
X1728470Y524510D02*
D03*
X1753870Y511810D02*
D03*
X1211580Y551180D02*
D03*
X1711960Y537210D02*
D03*
X1684537Y518160D02*
D03*
X1705760Y426870D02*
D03*
X1688198Y416560D02*
D03*
X1647190Y391160D02*
D03*
X1504950Y397510D02*
D03*
X1456690Y395872D02*
D03*
X1435100Y392580D02*
D03*
X1404650Y466090D02*
D03*
X1183640Y533400D02*
D03*
X1208890Y509420D02*
D03*
X1111250Y368450D02*
D03*
X1125400Y365910D02*
D03*
X1141760Y388620D02*
D03*
X1180228Y420370D02*
D03*
X1219900Y444540D02*
D03*
X1202840Y426870D02*
D03*
X836960Y207912D02*
D03*
X848390Y203200D02*
D03*
X897019Y196850D02*
D03*
X881380Y191770D02*
D03*
X947420Y275590D02*
D03*
X999490Y293370D02*
D03*
Y391160D02*
D03*
X932180Y389890D02*
D03*
X951230Y393182D02*
D03*
X1046480Y576580D02*
D03*
X1051560Y553720D02*
D03*
X995680Y529590D02*
D03*
X956310Y554990D02*
D03*
X977900D02*
D03*
X872490Y558800D02*
D03*
X852170Y549910D02*
D03*
X914400Y558800D02*
D03*
X887730Y528020D02*
D03*
X915550Y482600D02*
D03*
X611020Y499110D02*
D03*
X504190Y280670D02*
D03*
X469900Y287020D02*
D03*
X415290Y187960D02*
D03*
X334160Y224272D02*
D03*
X363220Y201930D02*
D03*
X396240Y191770D02*
D03*
X679450Y524510D02*
D03*
X734060Y510540D02*
D03*
X711200Y527050D02*
D03*
X717550Y444500D02*
D03*
X699770Y425450D02*
D03*
X675640Y420370D02*
D03*
X640080Y389890D02*
D03*
X598170Y375920D02*
D03*
X365760Y896620D02*
D03*
X345440Y842010D02*
D03*
X326390Y793750D02*
D03*
X2020600Y214630D02*
D03*
X2000280Y182880D02*
D03*
X1395760Y166370D02*
D03*
X1445290Y200660D02*
D03*
X1455450Y544830D02*
D03*
X929670Y535940D02*
D03*
X1940590Y547370D02*
D03*
X1935540Y478790D02*
D03*
X1432620Y481330D02*
D03*
X1000790Y173990D02*
D03*
X933480Y207010D02*
D03*
X337850Y854710D02*
D03*
X311180Y871220D02*
D03*
X270540Y868680D02*
D03*
X295940Y942340D02*
D03*
X304830Y911860D02*
D03*
X392460Y891540D02*
D03*
X452150Y887730D02*
D03*
X402620Y920750D02*
D03*
X373410Y919480D02*
D03*
X2030760Y713740D02*
D03*
X1687860Y777240D02*
D03*
X1529110Y787400D02*
D03*
X1535460Y717550D02*
D03*
X1030620Y702930D02*
D03*
X1030000Y834390D02*
D03*
X1470690Y731520D02*
D03*
Y845820D02*
D03*
X321340Y849630D02*
D03*
X308640Y840740D02*
D03*
X518190Y723900D02*
D03*
X953800Y712470D02*
D03*
X459770D02*
D03*
X928400Y481330D02*
D03*
X496570Y179070D02*
D03*
X448310Y212090D02*
D03*
X422910Y513080D02*
D03*
X424180Y482600D02*
D03*
D109*
X2033428Y324552D02*
D03*
Y341062D02*
D03*
X2048668D02*
D03*
Y324552D02*
D03*
X2075338D02*
D03*
X2090578D02*
D03*
Y341062D02*
D03*
X2075338Y339792D02*
D03*
X1584960Y325120D02*
D03*
X1529291Y325367D02*
D03*
Y341877D02*
D03*
X1544531D02*
D03*
Y325367D02*
D03*
X1571201D02*
D03*
X1586441Y341877D02*
D03*
X1571201Y340607D02*
D03*
X1066800Y340360D02*
D03*
X1082040Y341630D02*
D03*
Y325120D02*
D03*
X1066800D02*
D03*
X1040130D02*
D03*
Y341630D02*
D03*
X1024890D02*
D03*
Y325120D02*
D03*
X562610Y323850D02*
D03*
X577850Y325120D02*
D03*
X579120Y341630D02*
D03*
X562610D02*
D03*
X520700D02*
D03*
X537210D02*
D03*
X535940Y325120D02*
D03*
X520700Y323850D02*
D03*
X1606550Y480060D02*
D03*
X2110590Y478420D02*
D03*
X1102391D02*
D03*
X2150590D02*
D03*
X2170590D02*
D03*
X2010590D02*
D03*
X1666491D02*
D03*
X1646491D02*
D03*
X1506491D02*
D03*
X1142391D02*
D03*
X1162391D02*
D03*
X1001712Y479164D02*
D03*
X498292Y478420D02*
D03*
X438292D02*
D03*
X598292D02*
D03*
X658292D02*
D03*
X638292D02*
D03*
D110*
X615950Y359410D02*
D03*
X408940Y599440D02*
D03*
X381000Y534670D02*
D03*
X396240Y557530D02*
D03*
X350520D02*
D03*
X540385Y554355D02*
D03*
X499110Y537210D02*
D03*
D124*
X438292Y478420D02*
D03*
X458292D02*
D03*
X478292D02*
D03*
X498292D02*
D03*
X518292D02*
D03*
X538292D02*
D03*
X558292D02*
D03*
X578292D02*
D03*
X598292D02*
D03*
X618292D02*
D03*
X638292D02*
D03*
X658292D02*
D03*
X942391D02*
D03*
X962391D02*
D03*
X982391D02*
D03*
X1002391D02*
D03*
X1022391D02*
D03*
X1042391D02*
D03*
X1062391D02*
D03*
X1082391D02*
D03*
X1102391D02*
D03*
X1122391D02*
D03*
X1142391D02*
D03*
X1162391D02*
D03*
X1446491D02*
D03*
X1466491D02*
D03*
X1486491D02*
D03*
X1506491D02*
D03*
X1526491D02*
D03*
X1546491D02*
D03*
X1566491D02*
D03*
X1586491D02*
D03*
X1606491D02*
D03*
X1626491D02*
D03*
X1646491D02*
D03*
X1666491D02*
D03*
X1950590D02*
D03*
X1970590D02*
D03*
X1990590D02*
D03*
X2010590D02*
D03*
X2030590D02*
D03*
X2050590D02*
D03*
X2070590D02*
D03*
X2090590D02*
D03*
X2110590D02*
D03*
X2130590D02*
D03*
X2150590D02*
D03*
X2170590D02*
D03*
M02*
