G04*
G04 #@! TF.GenerationSoftware,Altium Limited,Altium Designer,22.1.2 (22)*
G04*
G04 Layer_Physical_Order=3*
G04 Layer_Color=128*
%FSLAX44Y44*%
%MOMM*%
G71*
G04*
G04 #@! TF.SameCoordinates,E8DC7784-5412-4491-ADA6-3D39AB0E1C33*
G04*
G04*
G04 #@! TF.FilePolarity,Negative*
G04*
G01*
G75*
%ADD14C,0.6000*%
%ADD91C,1.0000*%
%ADD111C,1.0160*%
%ADD112C,2.0000*%
%ADD113C,2.0160*%
%ADD114C,1.7660*%
%ADD115C,1.9160*%
%ADD116C,2.1160*%
%ADD117C,3.2160*%
%ADD118C,2.5160*%
%ADD119C,1.8660*%
%ADD120C,4.0160*%
%ADD121C,5.5160*%
%ADD122C,1.4160*%
%ADD123C,1.6160*%
G36*
X200509Y638810D02*
X2106930Y638810D01*
X2107941D01*
X2109808Y638037D01*
X2111237Y636608D01*
X2112010Y634740D01*
Y632719D01*
X2111237Y630852D01*
X2109808Y629423D01*
X2107941Y628650D01*
X2106930D01*
X200509Y628768D01*
X199498D01*
X197631Y629542D01*
X196202Y630971D01*
X195429Y632838D01*
Y634859D01*
X196202Y636726D01*
X197631Y638155D01*
X199498Y638928D01*
X200509D01*
Y638810D01*
D02*
G37*
G36*
X2575634Y759321D02*
X2577023D01*
X2578551Y759182D01*
X2581746Y758766D01*
X2581884D01*
X2582440Y758627D01*
X2583273Y758488D01*
X2584246Y758349D01*
X2585357Y758071D01*
X2586607Y757654D01*
X2588968Y756960D01*
X2589106D01*
X2589523Y756821D01*
X2590079Y756543D01*
X2590773Y756404D01*
X2592440Y755710D01*
X2594106Y754877D01*
X2594245D01*
X2594384Y754738D01*
X2595218Y754182D01*
X2596190Y753627D01*
X2596884Y752932D01*
X2597023Y752793D01*
X2597301Y752377D01*
X2597718Y751543D01*
X2598134Y750571D01*
X2598273Y750293D01*
Y749877D01*
X2598412Y749460D01*
Y748766D01*
X2598551Y747932D01*
Y747099D01*
Y745988D01*
Y745849D01*
Y745710D01*
Y745016D01*
X2598412Y744044D01*
X2598273Y743071D01*
Y742932D01*
X2598134Y742377D01*
X2597995Y741682D01*
X2597856Y740988D01*
Y740849D01*
X2597718Y740571D01*
X2597440Y740294D01*
X2597162Y740016D01*
X2597023Y739877D01*
X2596329Y739738D01*
X2596190D01*
X2595634Y739877D01*
X2594801Y740155D01*
X2593690Y740710D01*
X2593551D01*
X2593412Y740849D01*
X2592995Y741127D01*
X2592440Y741405D01*
X2591051Y742238D01*
X2589106Y743071D01*
X2588968D01*
X2588551Y743349D01*
X2587995Y743488D01*
X2587162Y743905D01*
X2586190Y744182D01*
X2585079Y744599D01*
X2583690Y745016D01*
X2582301Y745432D01*
X2582162D01*
X2581607Y745571D01*
X2580773Y745849D01*
X2579662Y745988D01*
X2578273Y746266D01*
X2576746Y746405D01*
X2574940Y746544D01*
X2572023D01*
X2571051Y746405D01*
X2569662Y746266D01*
X2568134Y745988D01*
X2566329Y745710D01*
X2564662Y745155D01*
X2562857Y744460D01*
X2562718Y744321D01*
X2562162Y744044D01*
X2561190Y743627D01*
X2560218Y743071D01*
X2558968Y742238D01*
X2557579Y741266D01*
X2556329Y740155D01*
X2555079Y738905D01*
X2554940Y738766D01*
X2554524Y738349D01*
X2553968Y737516D01*
X2553274Y736544D01*
X2552440Y735294D01*
X2551607Y733905D01*
X2550774Y732238D01*
X2550079Y730433D01*
Y730155D01*
X2549801Y729599D01*
X2549524Y728488D01*
X2549246Y727238D01*
X2548968Y725572D01*
X2548690Y723627D01*
X2548551Y721544D01*
X2548413Y719322D01*
Y719183D01*
Y719044D01*
Y718211D01*
X2548551Y716961D01*
X2548690Y715294D01*
X2548829Y713488D01*
X2549107Y711544D01*
X2549524Y709461D01*
X2550079Y707516D01*
X2550218Y707238D01*
X2550357Y706683D01*
X2550774Y705711D01*
X2551329Y704600D01*
X2552162Y703211D01*
X2552996Y701822D01*
X2553968Y700433D01*
X2555079Y699044D01*
X2555218Y698905D01*
X2555635Y698488D01*
X2556329Y697933D01*
X2557301Y697100D01*
X2558412Y696266D01*
X2559662Y695433D01*
X2561051Y694600D01*
X2562718Y693905D01*
X2562857D01*
X2563551Y693627D01*
X2564384Y693350D01*
X2565634Y693072D01*
X2567024Y692794D01*
X2568690Y692516D01*
X2570634Y692377D01*
X2572579Y692239D01*
X2573551D01*
X2574246Y692377D01*
X2575912Y692516D01*
X2577857Y692794D01*
X2577996D01*
X2578273Y692933D01*
X2578829Y693072D01*
X2579523Y693211D01*
X2581051Y693766D01*
X2582718Y694600D01*
Y712655D01*
X2567718D01*
X2567301Y712794D01*
X2566746Y713211D01*
X2566190Y713905D01*
Y714044D01*
X2566051Y714183D01*
Y714461D01*
X2565912Y715016D01*
X2565774Y715572D01*
Y716405D01*
X2565634Y717377D01*
Y718488D01*
Y718627D01*
Y718766D01*
Y719461D01*
Y720433D01*
X2565774Y721266D01*
Y721544D01*
X2565912Y721961D01*
X2566051Y722655D01*
X2566190Y723210D01*
Y723349D01*
X2566329Y723627D01*
X2566607Y723905D01*
X2566884Y724183D01*
X2567024Y724322D01*
X2567162Y724460D01*
X2567440Y724599D01*
X2594662D01*
X2595218Y724460D01*
X2595773Y724183D01*
X2595912D01*
X2596329Y723905D01*
X2596745Y723627D01*
X2597162Y723210D01*
X2597301Y723072D01*
X2597440Y722794D01*
X2597718Y722238D01*
X2597995Y721544D01*
X2598134Y721405D01*
X2598273Y720988D01*
X2598412Y720294D01*
Y719461D01*
Y688489D01*
Y688350D01*
Y688211D01*
X2598273Y687377D01*
X2598134Y686405D01*
X2597718Y685294D01*
X2597579Y685155D01*
X2597162Y684600D01*
X2596329Y683905D01*
X2595079Y683211D01*
X2594940D01*
X2594801Y683072D01*
X2594245Y682933D01*
X2593690Y682794D01*
X2592162Y682239D01*
X2590218Y681544D01*
X2590079D01*
X2589801Y681405D01*
X2589106Y681266D01*
X2588412Y681128D01*
X2587579Y680850D01*
X2586468Y680711D01*
X2584246Y680294D01*
X2584107D01*
X2583690Y680155D01*
X2583134D01*
X2582301Y680016D01*
X2581329Y679878D01*
X2580357Y679739D01*
X2577996Y679461D01*
X2577440D01*
X2576884Y679322D01*
X2576051D01*
X2575079Y679183D01*
X2574107D01*
X2571746Y679044D01*
X2570218D01*
X2569384Y679183D01*
X2568412D01*
X2566190Y679322D01*
X2563551Y679739D01*
X2560774Y680155D01*
X2557857Y680850D01*
X2555079Y681683D01*
X2554940D01*
X2554801Y681822D01*
X2554385Y681961D01*
X2553829Y682239D01*
X2552440Y682794D01*
X2550774Y683628D01*
X2548829Y684739D01*
X2546746Y685989D01*
X2544663Y687516D01*
X2542579Y689322D01*
X2542301Y689600D01*
X2541746Y690294D01*
X2540774Y691266D01*
X2539663Y692794D01*
X2538413Y694600D01*
X2537163Y696683D01*
X2535913Y699044D01*
X2534802Y701683D01*
Y701822D01*
X2534663Y701961D01*
X2534524Y702377D01*
X2534385Y702933D01*
X2534246Y703627D01*
X2533968Y704461D01*
X2533552Y706544D01*
X2532996Y709044D01*
X2532579Y711822D01*
X2532302Y715016D01*
X2532163Y718349D01*
Y718488D01*
Y718766D01*
Y719322D01*
Y720016D01*
X2532302Y720849D01*
Y721822D01*
X2532579Y724044D01*
X2532857Y726683D01*
X2533274Y729599D01*
X2533968Y732516D01*
X2534940Y735433D01*
Y735571D01*
X2535079Y735710D01*
X2535218Y736127D01*
X2535496Y736683D01*
X2536190Y738071D01*
X2537024Y739877D01*
X2538274Y741960D01*
X2539663Y744044D01*
X2541329Y746266D01*
X2543135Y748349D01*
X2543413Y748627D01*
X2544107Y749182D01*
X2545218Y750155D01*
X2546746Y751404D01*
X2548551Y752793D01*
X2550774Y754043D01*
X2553274Y755432D01*
X2555912Y756543D01*
X2556051D01*
X2556190Y756682D01*
X2556607Y756821D01*
X2557301Y756960D01*
X2557996Y757238D01*
X2558829Y757516D01*
X2560774Y758071D01*
X2563274Y758488D01*
X2566051Y759043D01*
X2569246Y759321D01*
X2572579Y759460D01*
X2574384D01*
X2575634Y759321D01*
D02*
G37*
G36*
X2454525Y758210D02*
X2455636Y758071D01*
X2455914D01*
X2456469Y757932D01*
X2457164Y757793D01*
X2457719Y757516D01*
X2457858D01*
X2458136Y757377D01*
X2458553Y757099D01*
X2458830Y756682D01*
X2458969D01*
X2459108Y756404D01*
X2459247Y756127D01*
Y755710D01*
Y685850D01*
Y685572D01*
Y685016D01*
X2458969Y684183D01*
X2458692Y683350D01*
X2458553Y683211D01*
X2458414Y682794D01*
X2457997Y682239D01*
X2457442Y681544D01*
X2457303Y681405D01*
X2456886Y681128D01*
X2456330Y680850D01*
X2455497Y680572D01*
X2455358D01*
X2454803Y680433D01*
X2454108Y680294D01*
X2445358D01*
X2444108Y680433D01*
X2442858Y680711D01*
X2442581Y680850D01*
X2441886Y680989D01*
X2441053Y681544D01*
X2440081Y682100D01*
X2439803Y682378D01*
X2439247Y682933D01*
X2438553Y683905D01*
X2437581Y685155D01*
Y685294D01*
X2437442Y685572D01*
X2437164Y685989D01*
X2436886Y686544D01*
X2436053Y688072D01*
X2434942Y690016D01*
X2415497Y726405D01*
X2415359Y726544D01*
X2415220Y726960D01*
X2414942Y727655D01*
X2414386Y728488D01*
X2413970Y729460D01*
X2413275Y730710D01*
X2412025Y733349D01*
X2411886Y733488D01*
X2411748Y734044D01*
X2411470Y734738D01*
X2411053Y735710D01*
X2410498Y736821D01*
X2410081Y738071D01*
X2408970Y740710D01*
X2408831D01*
Y740571D01*
Y740016D01*
X2408970Y739044D01*
Y737933D01*
X2409109Y736683D01*
Y735155D01*
X2409248Y731960D01*
Y731821D01*
Y731266D01*
Y730433D01*
X2409386Y729322D01*
Y727933D01*
Y726544D01*
Y723210D01*
Y682516D01*
Y682378D01*
Y682239D01*
X2409248Y681822D01*
X2408970Y681405D01*
X2408692Y681128D01*
X2408414Y680989D01*
X2407859Y680711D01*
X2407720D01*
X2407303Y680572D01*
X2406609Y680433D01*
X2405636Y680294D01*
X2405359D01*
X2404664Y680155D01*
X2403553Y680016D01*
X2400914D01*
X2399803Y680155D01*
X2398692Y680294D01*
X2398414D01*
X2397859Y680433D01*
X2397164Y680572D01*
X2396470Y680711D01*
X2396331D01*
X2396053Y680850D01*
X2395775Y681128D01*
X2395498Y681405D01*
Y681544D01*
X2395359Y681822D01*
X2395220Y682516D01*
Y752377D01*
Y752516D01*
Y752793D01*
X2395359Y753349D01*
Y753904D01*
X2395914Y755293D01*
X2396192Y755988D01*
X2396748Y756543D01*
X2396887Y756682D01*
X2397025Y756821D01*
X2397859Y757377D01*
X2399109Y757793D01*
X2399942Y758071D01*
X2410498D01*
X2411748Y757932D01*
X2412998Y757654D01*
X2413136D01*
X2413275Y757516D01*
X2413970Y757377D01*
X2414942Y756960D01*
X2415775Y756266D01*
X2416053Y756127D01*
X2416609Y755710D01*
X2417303Y754877D01*
X2418136Y753766D01*
X2418275Y753488D01*
X2418831Y752654D01*
X2419525Y751543D01*
X2420359Y749877D01*
X2435636Y721544D01*
Y721405D01*
X2435914Y721127D01*
X2436053Y720572D01*
X2436470Y719877D01*
X2437164Y718211D01*
X2438136Y716405D01*
Y716266D01*
X2438414Y715988D01*
X2438692Y715433D01*
X2438970Y714877D01*
X2439803Y713211D01*
X2440636Y711405D01*
Y711266D01*
X2440914Y710988D01*
X2441053Y710433D01*
X2441469Y709877D01*
X2442164Y708350D01*
X2442997Y706544D01*
Y706405D01*
X2443275Y706127D01*
X2443414Y705711D01*
X2443831Y705016D01*
X2444525Y703627D01*
X2445358Y701822D01*
Y701961D01*
Y702516D01*
Y703350D01*
X2445219Y704461D01*
Y705850D01*
Y707238D01*
X2445081Y710572D01*
Y710850D01*
Y711405D01*
Y712238D01*
Y713349D01*
Y714738D01*
Y716127D01*
Y719183D01*
Y755710D01*
Y755849D01*
Y755988D01*
X2445358Y756682D01*
X2445497Y756821D01*
X2445636Y756960D01*
X2446053Y757238D01*
X2446608Y757516D01*
X2446747Y757654D01*
X2447164Y757793D01*
X2447858Y757932D01*
X2448831Y758071D01*
X2449108D01*
X2449803Y758210D01*
X2450914Y758349D01*
X2453553D01*
X2454525Y758210D01*
D02*
G37*
G36*
X2841603Y758349D02*
X2842853Y758210D01*
X2843131D01*
X2843687Y758071D01*
X2844381Y757793D01*
X2844937Y757377D01*
X2845076Y757238D01*
X2845215Y756821D01*
X2845353Y756266D01*
X2845215Y755432D01*
Y755154D01*
X2845076Y754599D01*
X2844798Y753488D01*
X2844381Y752099D01*
X2821187Y683072D01*
Y682933D01*
X2821048Y682516D01*
X2820354Y681405D01*
X2820215Y681266D01*
X2820076Y681128D01*
X2819520Y680850D01*
X2818826Y680572D01*
X2818687D01*
X2817993Y680433D01*
X2817020Y680294D01*
X2815770Y680155D01*
X2814521D01*
X2812993Y680016D01*
X2808271D01*
X2806882Y680155D01*
X2804937D01*
X2803965Y680294D01*
X2803826D01*
X2803271Y680433D01*
X2802576D01*
X2802021Y680572D01*
X2801882D01*
X2801604Y680711D01*
X2800771Y680989D01*
X2800632Y681128D01*
X2800493Y681266D01*
X2799937Y681961D01*
Y682100D01*
X2799798Y682378D01*
X2799521Y683211D01*
X2776327Y752238D01*
Y752377D01*
X2776188Y752654D01*
X2775910Y753488D01*
X2775632Y754460D01*
X2775493Y755571D01*
Y755849D01*
Y756266D01*
X2775632Y756821D01*
X2776049Y757377D01*
X2776188Y757516D01*
X2776604Y757793D01*
X2777438Y758071D01*
X2778549Y758210D01*
X2778826D01*
X2779243Y758349D01*
X2780632D01*
X2781465Y758488D01*
X2786743D01*
X2787993Y758349D01*
X2788271D01*
X2788826Y758210D01*
X2789660Y758071D01*
X2790354Y757793D01*
X2790493D01*
X2790771Y757654D01*
X2791187Y757377D01*
X2791465Y756960D01*
X2791604Y756821D01*
X2791743Y756543D01*
X2791882Y756127D01*
X2792160Y755432D01*
X2811187Y695572D01*
X2829798Y755154D01*
Y755293D01*
X2829937Y755849D01*
X2830215Y756266D01*
X2830354Y756821D01*
X2830493Y756960D01*
X2830631Y757238D01*
X2831048Y757516D01*
X2831604Y757793D01*
X2831743Y757932D01*
X2832298Y758071D01*
X2832993Y758210D01*
X2834104Y758349D01*
X2834798D01*
X2835353Y758488D01*
X2840076D01*
X2841603Y758349D01*
D02*
G37*
G36*
X2899242Y757932D02*
X2899519Y757654D01*
X2899658D01*
X2899797Y757377D01*
X2899936Y757099D01*
X2900214Y756543D01*
Y756404D01*
X2900353Y756127D01*
X2900492Y755432D01*
X2900630Y754738D01*
Y754599D01*
X2900769Y753904D01*
X2900908Y753071D01*
Y751821D01*
Y751682D01*
Y751543D01*
Y750849D01*
X2900769Y749877D01*
X2900630Y748905D01*
Y748766D01*
X2900492Y748210D01*
X2900353Y747655D01*
X2900214Y746960D01*
Y746821D01*
X2900075Y746544D01*
X2899797Y746266D01*
X2899519Y745988D01*
X2899242Y745849D01*
X2898547Y745710D01*
X2870909D01*
Y726822D01*
X2894659D01*
X2895075Y726683D01*
X2895353Y726405D01*
X2895492D01*
X2895630Y726127D01*
X2895769Y725849D01*
X2896047Y725433D01*
Y725294D01*
X2896186Y724877D01*
X2896325Y724322D01*
X2896464Y723488D01*
Y723349D01*
X2896603Y722794D01*
X2896742Y721822D01*
Y720711D01*
Y720572D01*
Y720433D01*
Y719738D01*
X2896603Y718766D01*
X2896464Y717794D01*
Y717655D01*
X2896325Y717099D01*
X2896186Y716544D01*
X2896047Y715988D01*
Y715849D01*
X2895909Y715572D01*
X2895630Y715294D01*
X2895353Y715016D01*
X2895075Y714877D01*
X2894380Y714738D01*
X2870909D01*
Y692794D01*
X2899103D01*
X2899519Y692655D01*
X2899797Y692377D01*
X2899936D01*
X2900075Y692100D01*
X2900214Y691822D01*
X2900492Y691266D01*
Y691127D01*
X2900630Y690850D01*
X2900769Y690155D01*
X2900908Y689461D01*
Y689322D01*
X2901047Y688627D01*
X2901186Y687794D01*
Y686544D01*
Y686405D01*
Y686266D01*
Y685572D01*
X2901047Y684600D01*
X2900908Y683628D01*
Y683489D01*
X2900769Y682933D01*
X2900630Y682378D01*
X2900492Y681683D01*
Y681544D01*
X2900353Y681266D01*
X2900075Y680989D01*
X2899797Y680711D01*
X2899519Y680572D01*
X2898825Y680433D01*
X2859520D01*
X2858687Y680572D01*
X2857575Y680850D01*
X2856465Y681544D01*
X2856325Y681822D01*
X2855909Y682378D01*
X2855353Y683628D01*
X2855215Y684322D01*
Y685294D01*
Y753071D01*
Y753210D01*
Y753488D01*
X2855353Y753904D01*
Y754599D01*
X2855770Y755710D01*
X2856048Y756404D01*
X2856465Y756821D01*
X2856742Y756960D01*
X2857437Y757516D01*
X2858409Y757932D01*
X2859798Y758071D01*
X2898825D01*
X2899242Y757932D01*
D02*
G37*
G36*
X2520219D02*
X2520496Y757654D01*
X2520635D01*
X2520774Y757377D01*
X2520913Y757099D01*
X2521191Y756543D01*
Y756404D01*
X2521330Y756127D01*
X2521469Y755432D01*
X2521607Y754738D01*
Y754599D01*
X2521746Y753904D01*
X2521885Y753071D01*
Y751821D01*
Y751682D01*
Y751543D01*
Y750849D01*
X2521746Y749877D01*
X2521607Y748905D01*
Y748766D01*
X2521469Y748210D01*
X2521330Y747655D01*
X2521191Y746960D01*
Y746821D01*
X2521052Y746544D01*
X2520774Y746266D01*
X2520496Y745988D01*
X2520219Y745849D01*
X2519524Y745710D01*
X2491886D01*
Y726822D01*
X2515635D01*
X2516052Y726683D01*
X2516330Y726405D01*
X2516469D01*
X2516607Y726127D01*
X2516746Y725849D01*
X2517024Y725433D01*
Y725294D01*
X2517163Y724877D01*
X2517302Y724322D01*
X2517441Y723488D01*
Y723349D01*
X2517580Y722794D01*
X2517719Y721822D01*
Y720711D01*
Y720572D01*
Y720433D01*
Y719738D01*
X2517580Y718766D01*
X2517441Y717794D01*
Y717655D01*
X2517302Y717099D01*
X2517163Y716544D01*
X2517024Y715988D01*
Y715849D01*
X2516885Y715572D01*
X2516607Y715294D01*
X2516330Y715016D01*
X2516052Y714877D01*
X2515357Y714738D01*
X2491886D01*
Y692794D01*
X2520080D01*
X2520496Y692655D01*
X2520774Y692377D01*
X2520913D01*
X2521052Y692100D01*
X2521191Y691822D01*
X2521469Y691266D01*
Y691127D01*
X2521607Y690850D01*
X2521746Y690155D01*
X2521885Y689461D01*
Y689322D01*
X2522024Y688627D01*
X2522163Y687794D01*
Y686544D01*
Y686405D01*
Y686266D01*
Y685572D01*
X2522024Y684600D01*
X2521885Y683628D01*
Y683489D01*
X2521746Y682933D01*
X2521607Y682378D01*
X2521469Y681683D01*
Y681544D01*
X2521330Y681266D01*
X2521052Y680989D01*
X2520774Y680711D01*
X2520496Y680572D01*
X2519802Y680433D01*
X2480497D01*
X2479663Y680572D01*
X2478552Y680850D01*
X2477441Y681544D01*
X2477302Y681822D01*
X2476886Y682378D01*
X2476330Y683628D01*
X2476191Y684322D01*
Y685294D01*
Y753071D01*
Y753210D01*
Y753488D01*
X2476330Y753904D01*
Y754599D01*
X2476747Y755710D01*
X2477025Y756404D01*
X2477441Y756821D01*
X2477719Y756960D01*
X2478413Y757516D01*
X2479386Y757932D01*
X2480775Y758071D01*
X2519802D01*
X2520219Y757932D01*
D02*
G37*
G36*
X2760215Y758349D02*
X2761465Y758210D01*
X2761743D01*
X2762299Y758071D01*
X2763132Y757932D01*
X2763827Y757793D01*
X2763965D01*
X2764382Y757654D01*
X2764799Y757377D01*
X2765215Y756960D01*
X2765354Y756821D01*
X2765493Y756682D01*
X2765632Y756266D01*
Y755849D01*
Y682516D01*
Y682378D01*
Y682100D01*
X2765493Y681683D01*
X2765215Y681266D01*
X2765077D01*
X2764938Y680989D01*
X2764521Y680850D01*
X2763827Y680572D01*
X2763688D01*
X2763271Y680433D01*
X2762438D01*
X2761465Y680294D01*
X2761188D01*
X2760493Y680155D01*
X2759243Y680016D01*
X2756327D01*
X2755077Y680155D01*
X2753827Y680294D01*
X2753549D01*
X2752993Y680433D01*
X2752160D01*
X2751327Y680572D01*
X2751188D01*
X2750910Y680711D01*
X2750493Y680989D01*
X2750077Y681266D01*
Y681405D01*
X2749938Y681683D01*
X2749799Y682516D01*
Y755849D01*
Y755988D01*
Y756266D01*
X2750077Y756960D01*
X2750216Y757099D01*
X2750355Y757238D01*
X2750910Y757516D01*
X2751466Y757793D01*
X2751605D01*
X2752160Y757932D01*
X2752855Y758071D01*
X2753827Y758210D01*
X2754105D01*
X2754938Y758349D01*
X2756049Y758488D01*
X2758965D01*
X2760215Y758349D01*
D02*
G37*
G36*
X2738966Y757932D02*
X2739243Y757654D01*
X2739383D01*
X2739521Y757377D01*
X2739660Y757099D01*
X2739938Y756543D01*
Y756404D01*
X2740077Y755988D01*
X2740216Y755432D01*
X2740355Y754599D01*
Y754321D01*
X2740493Y753766D01*
X2740633Y752793D01*
Y751543D01*
Y751404D01*
Y751266D01*
Y750432D01*
X2740493Y749460D01*
X2740355Y748488D01*
Y748349D01*
X2740216Y747794D01*
X2740077Y747238D01*
X2739938Y746544D01*
Y746405D01*
X2739799Y746127D01*
X2739243Y745432D01*
X2738966Y745294D01*
X2738271Y745155D01*
X2718827D01*
Y682516D01*
Y682378D01*
Y682100D01*
X2718688Y681683D01*
X2718411Y681266D01*
X2718271D01*
X2718133Y680989D01*
X2717716Y680850D01*
X2717021Y680572D01*
X2716883D01*
X2716466Y680433D01*
X2715633D01*
X2714661Y680294D01*
X2714383D01*
X2713688Y680155D01*
X2712438Y680016D01*
X2709522D01*
X2708272Y680155D01*
X2707022Y680294D01*
X2706744D01*
X2706188Y680433D01*
X2705355D01*
X2704522Y680572D01*
X2704383D01*
X2704105Y680711D01*
X2703688Y680989D01*
X2703272Y681266D01*
Y681405D01*
X2703133Y681683D01*
X2702994Y682516D01*
Y745155D01*
X2683133D01*
X2682439Y745432D01*
Y745571D01*
X2682161Y745710D01*
X2681744Y746544D01*
Y746682D01*
X2681606Y747099D01*
X2681466Y747655D01*
X2681328Y748488D01*
Y748766D01*
Y749321D01*
X2681189Y750293D01*
Y751543D01*
Y751682D01*
Y751821D01*
Y752654D01*
Y753627D01*
X2681328Y754599D01*
Y754877D01*
X2681466Y755293D01*
X2681606Y755988D01*
X2681744Y756543D01*
Y756682D01*
X2681883Y756960D01*
X2682161Y757377D01*
X2682439Y757654D01*
X2682578Y757793D01*
X2682716Y757932D01*
X2682994Y758071D01*
X2738549D01*
X2738966Y757932D01*
D02*
G37*
G36*
X2647439Y758349D02*
X2648689D01*
X2649522Y758210D01*
X2650495Y758071D01*
X2651467Y757793D01*
X2651606D01*
X2652161Y757516D01*
X2652717Y757238D01*
X2653134Y756821D01*
X2653272Y756682D01*
X2653411Y756404D01*
X2653828Y755849D01*
X2654106Y755154D01*
X2678133Y686266D01*
Y686128D01*
X2678272Y685850D01*
X2678550Y685016D01*
X2678828Y683905D01*
X2678966Y682794D01*
Y682655D01*
Y682100D01*
Y681544D01*
X2678550Y680989D01*
X2678411Y680850D01*
X2677994Y680711D01*
X2677300Y680433D01*
X2676189Y680294D01*
X2675911D01*
X2675494Y680155D01*
X2674939D01*
X2673550Y680016D01*
X2668272D01*
X2666744Y680155D01*
X2666467D01*
X2665772Y680294D01*
X2664939D01*
X2664106Y680433D01*
X2663967D01*
X2663689Y680572D01*
X2663272Y680850D01*
X2662856Y681128D01*
Y681266D01*
X2662717Y681544D01*
X2662300Y682378D01*
X2657161Y698211D01*
X2627856D01*
X2622995Y682794D01*
Y682655D01*
X2622856Y682378D01*
X2622301Y681405D01*
X2622162Y681266D01*
X2622023Y681128D01*
X2621606Y680850D01*
X2621051Y680572D01*
X2620912D01*
X2620495Y680433D01*
X2619662Y680294D01*
X2618551Y680155D01*
X2617440D01*
X2616190Y680016D01*
X2612856D01*
X2611467Y680155D01*
X2610078Y680294D01*
X2609801D01*
X2609245Y680433D01*
X2608551Y680711D01*
X2607856Y680989D01*
X2607717Y681128D01*
X2607578Y681544D01*
X2607440Y682100D01*
Y682933D01*
Y683211D01*
X2607717Y683766D01*
X2607995Y684878D01*
X2608412Y686266D01*
X2632439Y755293D01*
Y755432D01*
X2632578Y755849D01*
X2632856Y756404D01*
X2633134Y756821D01*
X2633273Y756960D01*
X2633550Y757238D01*
X2633967Y757516D01*
X2634662Y757793D01*
X2634800Y757932D01*
X2635495Y758071D01*
X2636328Y758210D01*
X2637578Y758349D01*
X2638412D01*
X2638967Y758488D01*
X2646467D01*
X2647439Y758349D01*
D02*
G37*
G36*
X2427164Y663378D02*
X2428136Y663239D01*
X2428414D01*
X2428970Y663100D01*
X2429664Y662961D01*
X2430358Y662822D01*
X2430497D01*
X2430775Y662683D01*
X2431192Y662406D01*
X2431470Y661989D01*
X2431608Y661850D01*
X2431747Y661711D01*
X2431886Y661294D01*
Y660878D01*
X2430497Y634212D01*
Y634073D01*
Y633795D01*
X2430220Y632962D01*
X2429942Y632684D01*
X2429664Y632545D01*
X2429247Y632267D01*
X2429108D01*
X2428831Y632128D01*
X2428275Y631989D01*
X2427581Y631851D01*
X2426886D01*
X2426053Y631712D01*
X2423136D01*
X2422303Y631851D01*
X2422164D01*
X2421747Y631989D01*
X2420636Y632267D01*
X2420497D01*
X2420359Y632406D01*
X2419803Y632962D01*
Y633100D01*
X2419664Y633378D01*
X2419525Y634212D01*
X2418136Y660878D01*
Y661017D01*
Y661294D01*
X2418414Y661989D01*
X2418553Y662128D01*
X2418692Y662267D01*
X2419525Y662822D01*
X2419664D01*
X2420081Y662961D01*
X2420775Y663100D01*
X2421747Y663239D01*
X2422025D01*
X2422720Y663378D01*
X2423692Y663517D01*
X2426053D01*
X2427164Y663378D01*
D02*
G37*
G36*
X2404109D02*
X2405914Y663239D01*
X2406748Y663100D01*
X2407442Y662822D01*
X2407581D01*
X2407720Y662683D01*
X2408275Y662267D01*
X2408692Y661711D01*
X2408970Y661294D01*
Y660878D01*
X2407442Y634212D01*
Y634073D01*
Y633795D01*
X2407164Y632962D01*
X2406886Y632684D01*
X2406609Y632545D01*
X2406192Y632267D01*
X2406053D01*
X2405775Y632128D01*
X2405220Y631989D01*
X2404525Y631851D01*
X2403831D01*
X2402998Y631712D01*
X2400220D01*
X2399387Y631851D01*
X2399248D01*
X2398831Y631989D01*
X2397720Y632267D01*
X2397581D01*
X2397303Y632406D01*
X2397025Y632684D01*
X2396748Y632962D01*
Y633100D01*
X2396609Y633378D01*
X2396470Y634212D01*
X2395220Y660878D01*
Y661017D01*
Y661294D01*
Y661711D01*
X2395359Y661989D01*
X2395498Y662128D01*
X2395637Y662267D01*
X2396053Y662544D01*
X2396609Y662822D01*
X2396748D01*
X2397164Y662961D01*
X2397859Y663100D01*
X2398692Y663239D01*
X2398970D01*
X2399664Y663378D01*
X2400637Y663517D01*
X2403275D01*
X2404109Y663378D01*
D02*
G37*
G36*
X2701466Y657267D02*
X2702578Y657128D01*
X2702855D01*
X2703411Y656989D01*
X2704105Y656850D01*
X2704661Y656572D01*
X2704799D01*
X2705077Y656433D01*
X2705494Y656156D01*
X2705772Y655739D01*
X2705911D01*
X2706049Y655461D01*
X2706188Y655183D01*
Y654767D01*
Y584907D01*
Y584629D01*
Y584073D01*
X2705911Y583240D01*
X2705633Y582407D01*
X2705494Y582268D01*
X2705355Y581851D01*
X2704938Y581296D01*
X2704383Y580601D01*
X2704244Y580462D01*
X2703828Y580184D01*
X2703272Y579907D01*
X2702438Y579629D01*
X2702299D01*
X2701744Y579490D01*
X2701049Y579351D01*
X2692300D01*
X2691050Y579490D01*
X2689800Y579768D01*
X2689522Y579907D01*
X2688828Y580046D01*
X2687994Y580601D01*
X2687022Y581157D01*
X2686744Y581434D01*
X2686189Y581990D01*
X2685494Y582962D01*
X2684522Y584212D01*
Y584351D01*
X2684383Y584629D01*
X2684106Y585046D01*
X2683828Y585601D01*
X2682994Y587129D01*
X2681883Y589073D01*
X2662439Y625462D01*
X2662300Y625601D01*
X2662161Y626017D01*
X2661884Y626712D01*
X2661328Y627545D01*
X2660911Y628517D01*
X2660217Y629767D01*
X2658967Y632406D01*
X2658828Y632545D01*
X2658689Y633100D01*
X2658411Y633795D01*
X2657995Y634767D01*
X2657439Y635878D01*
X2657022Y637128D01*
X2655911Y639767D01*
X2655772D01*
Y639628D01*
Y639073D01*
X2655911Y638100D01*
Y636989D01*
X2656050Y635739D01*
Y634212D01*
X2656189Y631017D01*
Y630878D01*
Y630323D01*
Y629489D01*
X2656328Y628378D01*
Y626989D01*
Y625601D01*
Y622267D01*
Y581573D01*
Y581434D01*
Y581296D01*
X2656189Y580879D01*
X2655911Y580462D01*
X2655634Y580184D01*
X2655356Y580046D01*
X2654800Y579768D01*
X2654661D01*
X2654245Y579629D01*
X2653550Y579490D01*
X2652578Y579351D01*
X2652300D01*
X2651606Y579212D01*
X2650495Y579073D01*
X2647856D01*
X2646745Y579212D01*
X2645634Y579351D01*
X2645356D01*
X2644800Y579490D01*
X2644106Y579629D01*
X2643411Y579768D01*
X2643272D01*
X2642995Y579907D01*
X2642717Y580184D01*
X2642439Y580462D01*
Y580601D01*
X2642300Y580879D01*
X2642161Y581573D01*
Y651433D01*
Y651572D01*
Y651850D01*
X2642300Y652406D01*
Y652961D01*
X2642856Y654350D01*
X2643134Y655045D01*
X2643689Y655600D01*
X2643828Y655739D01*
X2643967Y655878D01*
X2644800Y656433D01*
X2646050Y656850D01*
X2646884Y657128D01*
X2657439D01*
X2658689Y656989D01*
X2659939Y656711D01*
X2660078D01*
X2660217Y656572D01*
X2660911Y656433D01*
X2661884Y656017D01*
X2662717Y655322D01*
X2662994Y655183D01*
X2663550Y654767D01*
X2664244Y653933D01*
X2665078Y652822D01*
X2665217Y652545D01*
X2665772Y651711D01*
X2666467Y650600D01*
X2667300Y648934D01*
X2682578Y620601D01*
Y620462D01*
X2682856Y620184D01*
X2682994Y619628D01*
X2683411Y618934D01*
X2684106Y617267D01*
X2685078Y615462D01*
Y615323D01*
X2685356Y615045D01*
X2685633Y614490D01*
X2685911Y613934D01*
X2686744Y612267D01*
X2687578Y610462D01*
Y610323D01*
X2687855Y610045D01*
X2687994Y609490D01*
X2688411Y608934D01*
X2689105Y607406D01*
X2689939Y605601D01*
Y605462D01*
X2690216Y605184D01*
X2690355Y604767D01*
X2690772Y604073D01*
X2691466Y602684D01*
X2692300Y600879D01*
Y601017D01*
Y601573D01*
Y602406D01*
X2692161Y603517D01*
Y604906D01*
Y606295D01*
X2692022Y609628D01*
Y609906D01*
Y610462D01*
Y611295D01*
Y612406D01*
Y613795D01*
Y615184D01*
Y618240D01*
Y654767D01*
Y654906D01*
Y655045D01*
X2692300Y655739D01*
X2692439Y655878D01*
X2692578Y656017D01*
X2692994Y656295D01*
X2693550Y656572D01*
X2693689Y656711D01*
X2694105Y656850D01*
X2694800Y656989D01*
X2695772Y657128D01*
X2696050D01*
X2696744Y657267D01*
X2697855Y657406D01*
X2700494D01*
X2701466Y657267D01*
D02*
G37*
G36*
X2767160Y656989D02*
X2767438Y656711D01*
X2767577D01*
X2767715Y656433D01*
X2767854Y656156D01*
X2768132Y655600D01*
Y655461D01*
X2768271Y655183D01*
X2768410Y654489D01*
X2768549Y653795D01*
Y653656D01*
X2768688Y652961D01*
X2768827Y652128D01*
Y650878D01*
Y650739D01*
Y650600D01*
Y649906D01*
X2768688Y648934D01*
X2768549Y647961D01*
Y647822D01*
X2768410Y647267D01*
X2768271Y646711D01*
X2768132Y646017D01*
Y645878D01*
X2767993Y645600D01*
X2767715Y645322D01*
X2767438Y645045D01*
X2767160Y644906D01*
X2766465Y644767D01*
X2738827D01*
Y625878D01*
X2762577D01*
X2762993Y625739D01*
X2763271Y625462D01*
X2763410D01*
X2763549Y625184D01*
X2763688Y624906D01*
X2763965Y624489D01*
Y624351D01*
X2764104Y623934D01*
X2764243Y623378D01*
X2764382Y622545D01*
Y622406D01*
X2764521Y621851D01*
X2764660Y620878D01*
Y619767D01*
Y619628D01*
Y619490D01*
Y618795D01*
X2764521Y617823D01*
X2764382Y616851D01*
Y616712D01*
X2764243Y616156D01*
X2764104Y615601D01*
X2763965Y615045D01*
Y614906D01*
X2763827Y614628D01*
X2763549Y614351D01*
X2763271Y614073D01*
X2762993Y613934D01*
X2762299Y613795D01*
X2738827D01*
Y591851D01*
X2767021D01*
X2767438Y591712D01*
X2767715Y591434D01*
X2767854D01*
X2767993Y591157D01*
X2768132Y590879D01*
X2768410Y590323D01*
Y590184D01*
X2768549Y589907D01*
X2768688Y589212D01*
X2768827Y588518D01*
Y588379D01*
X2768965Y587684D01*
X2769104Y586851D01*
Y585601D01*
Y585462D01*
Y585323D01*
Y584629D01*
X2768965Y583657D01*
X2768827Y582684D01*
Y582546D01*
X2768688Y581990D01*
X2768549Y581434D01*
X2768410Y580740D01*
Y580601D01*
X2768271Y580323D01*
X2767993Y580046D01*
X2767715Y579768D01*
X2767438Y579629D01*
X2766743Y579490D01*
X2727438D01*
X2726605Y579629D01*
X2725494Y579907D01*
X2724383Y580601D01*
X2724244Y580879D01*
X2723827Y581434D01*
X2723271Y582684D01*
X2723133Y583379D01*
Y584351D01*
Y652128D01*
Y652267D01*
Y652545D01*
X2723271Y652961D01*
Y653656D01*
X2723688Y654767D01*
X2723966Y655461D01*
X2724383Y655878D01*
X2724660Y656017D01*
X2725355Y656572D01*
X2726327Y656989D01*
X2727716Y657128D01*
X2766743D01*
X2767160Y656989D01*
D02*
G37*
G36*
X2526191Y657406D02*
X2527441Y657267D01*
X2527718D01*
X2528274Y657128D01*
X2529107Y656989D01*
X2529802Y656850D01*
X2529941D01*
X2530357Y656711D01*
X2530774Y656433D01*
X2531191Y656017D01*
X2531329Y655878D01*
X2531468Y655739D01*
X2531607Y655322D01*
Y654906D01*
Y592545D01*
X2556329D01*
X2556746Y592407D01*
X2557024Y592129D01*
X2557162D01*
X2557301Y591851D01*
X2557440Y591573D01*
X2557718Y591018D01*
Y590879D01*
X2557857Y590462D01*
X2557996Y589907D01*
X2558135Y589073D01*
Y588795D01*
X2558274Y588240D01*
X2558412Y587268D01*
Y586018D01*
Y585879D01*
Y585740D01*
Y584907D01*
X2558274Y583934D01*
X2558135Y582962D01*
Y582823D01*
X2557996Y582268D01*
X2557857Y581573D01*
X2557718Y580879D01*
Y580740D01*
X2557579Y580462D01*
X2557024Y579768D01*
X2556885D01*
X2556746Y579629D01*
X2555912Y579490D01*
X2520080D01*
X2519246Y579629D01*
X2518135Y579907D01*
X2517024Y580601D01*
X2516885Y580879D01*
X2516469Y581434D01*
X2515913Y582684D01*
X2515774Y583379D01*
Y584351D01*
Y654906D01*
Y655045D01*
Y655322D01*
X2516052Y656017D01*
X2516191Y656156D01*
X2516330Y656295D01*
X2516746Y656572D01*
X2517302Y656850D01*
X2517441D01*
X2517996Y656989D01*
X2518830Y657128D01*
X2519802Y657267D01*
X2520080D01*
X2520913Y657406D01*
X2522024Y657545D01*
X2524941D01*
X2526191Y657406D01*
D02*
G37*
G36*
X2600634D02*
X2601884D01*
X2602718Y657267D01*
X2603690Y657128D01*
X2604662Y656850D01*
X2604801D01*
X2605356Y656572D01*
X2605912Y656295D01*
X2606328Y655878D01*
X2606467Y655739D01*
X2606606Y655461D01*
X2607023Y654906D01*
X2607301Y654211D01*
X2631328Y585323D01*
Y585184D01*
X2631467Y584907D01*
X2631745Y584073D01*
X2632023Y582962D01*
X2632162Y581851D01*
Y581712D01*
Y581157D01*
Y580601D01*
X2631745Y580046D01*
X2631606Y579907D01*
X2631189Y579768D01*
X2630495Y579490D01*
X2629384Y579351D01*
X2629106D01*
X2628689Y579212D01*
X2628134D01*
X2626745Y579073D01*
X2621467D01*
X2619940Y579212D01*
X2619662D01*
X2618967Y579351D01*
X2618134D01*
X2617301Y579490D01*
X2617162D01*
X2616884Y579629D01*
X2616467Y579907D01*
X2616051Y580184D01*
Y580323D01*
X2615912Y580601D01*
X2615495Y581434D01*
X2610356Y597267D01*
X2581051D01*
X2576190Y581851D01*
Y581712D01*
X2576051Y581434D01*
X2575496Y580462D01*
X2575357Y580323D01*
X2575218Y580184D01*
X2574801Y579907D01*
X2574246Y579629D01*
X2574107D01*
X2573690Y579490D01*
X2572857Y579351D01*
X2571746Y579212D01*
X2570634D01*
X2569384Y579073D01*
X2566051D01*
X2564662Y579212D01*
X2563274Y579351D01*
X2562996D01*
X2562440Y579490D01*
X2561746Y579768D01*
X2561051Y580046D01*
X2560912Y580184D01*
X2560774Y580601D01*
X2560635Y581157D01*
Y581990D01*
Y582268D01*
X2560912Y582823D01*
X2561190Y583934D01*
X2561607Y585323D01*
X2585634Y654350D01*
Y654489D01*
X2585773Y654906D01*
X2586051Y655461D01*
X2586329Y655878D01*
X2586468Y656017D01*
X2586745Y656295D01*
X2587162Y656572D01*
X2587856Y656850D01*
X2587995Y656989D01*
X2588690Y657128D01*
X2589523Y657267D01*
X2590773Y657406D01*
X2591606D01*
X2592162Y657545D01*
X2599662D01*
X2600634Y657406D01*
D02*
G37*
G36*
X2477441Y656989D02*
X2479247Y656850D01*
X2479663D01*
X2480219Y656711D01*
X2480913Y656572D01*
X2481747Y656433D01*
X2482858Y656295D01*
X2485219Y655878D01*
X2485358D01*
X2485775Y655739D01*
X2486469Y655600D01*
X2487441Y655322D01*
X2488413Y655045D01*
X2489663Y654628D01*
X2492163Y653378D01*
X2492302Y653239D01*
X2492719Y653100D01*
X2493413Y652683D01*
X2494247Y652128D01*
X2496330Y650600D01*
X2498274Y648656D01*
X2498413Y648517D01*
X2498691Y648100D01*
X2499108Y647545D01*
X2499663Y646850D01*
X2500358Y645878D01*
X2500913Y644628D01*
X2501608Y643378D01*
X2502163Y641989D01*
Y641850D01*
X2502441Y641295D01*
X2502580Y640600D01*
X2502858Y639489D01*
X2503135Y638239D01*
X2503274Y636850D01*
X2503552Y635184D01*
Y633517D01*
Y633378D01*
Y633239D01*
Y632406D01*
X2503413Y631156D01*
X2503274Y629628D01*
X2502997Y627823D01*
X2502719Y625878D01*
X2502163Y623795D01*
X2501469Y621851D01*
X2501330Y621573D01*
X2501052Y621017D01*
X2500635Y620045D01*
X2499941Y618934D01*
X2499108Y617545D01*
X2498135Y616156D01*
X2496885Y614767D01*
X2495497Y613378D01*
X2495358Y613240D01*
X2494802Y612823D01*
X2493969Y612128D01*
X2492858Y611434D01*
X2491469Y610601D01*
X2489802Y609628D01*
X2487997Y608795D01*
X2485913Y608101D01*
X2485636D01*
X2484941Y607823D01*
X2483691Y607545D01*
X2482163Y607267D01*
X2480219Y606990D01*
X2477858Y606712D01*
X2475358Y606573D01*
X2472580Y606434D01*
X2466191D01*
Y581573D01*
Y581434D01*
Y581157D01*
X2466053Y580740D01*
X2465775Y580323D01*
X2465636D01*
X2465497Y580046D01*
X2465080Y579907D01*
X2464386Y579629D01*
X2464247D01*
X2463830Y579490D01*
X2462997D01*
X2462025Y579351D01*
X2461747D01*
X2460914Y579212D01*
X2459803Y579073D01*
X2456886D01*
X2455636Y579212D01*
X2454386Y579351D01*
X2454108D01*
X2453553Y579490D01*
X2452719D01*
X2451886Y579629D01*
X2451747D01*
X2451469Y579768D01*
X2451053Y580046D01*
X2450636Y580323D01*
Y580462D01*
X2450497Y580740D01*
X2450358Y581573D01*
Y651433D01*
Y651572D01*
Y651850D01*
X2450497Y652406D01*
Y652961D01*
X2450914Y654350D01*
X2451747Y655600D01*
X2451886Y655739D01*
X2452025Y655878D01*
X2452858Y656433D01*
X2453969Y656850D01*
X2454803Y657128D01*
X2475636D01*
X2477441Y656989D01*
D02*
G37*
G36*
X2745355Y563407D02*
X2746327Y563268D01*
X2746605D01*
X2747160Y563129D01*
X2747855Y562990D01*
X2748549Y562851D01*
X2748688D01*
X2748966Y562712D01*
X2749382Y562435D01*
X2749660Y562018D01*
X2749799Y561879D01*
X2749938Y561740D01*
X2750077Y561324D01*
Y560907D01*
X2748688Y534240D01*
Y534102D01*
Y533824D01*
X2748410Y532991D01*
X2748132Y532713D01*
X2747855Y532574D01*
X2747438Y532296D01*
X2747299D01*
X2747021Y532157D01*
X2746466Y532018D01*
X2745771Y531880D01*
X2745077D01*
X2744243Y531741D01*
X2741327D01*
X2740493Y531880D01*
X2740355D01*
X2739938Y532018D01*
X2738827Y532296D01*
X2738688D01*
X2738549Y532435D01*
X2737993Y532991D01*
Y533129D01*
X2737855Y533407D01*
X2737716Y534240D01*
X2736327Y560907D01*
Y561046D01*
Y561324D01*
X2736605Y562018D01*
X2736743Y562157D01*
X2736883Y562296D01*
X2737716Y562851D01*
X2737855D01*
X2738271Y562990D01*
X2738966Y563129D01*
X2739938Y563268D01*
X2740216D01*
X2740910Y563407D01*
X2741883Y563546D01*
X2744243D01*
X2745355Y563407D01*
D02*
G37*
G36*
X2722299D02*
X2724105Y563268D01*
X2724938Y563129D01*
X2725633Y562851D01*
X2725771D01*
X2725910Y562712D01*
X2726466Y562296D01*
X2726883Y561740D01*
X2727160Y561324D01*
Y560907D01*
X2725633Y534240D01*
Y534102D01*
Y533824D01*
X2725355Y532991D01*
X2725077Y532713D01*
X2724799Y532574D01*
X2724383Y532296D01*
X2724244D01*
X2723966Y532157D01*
X2723411Y532018D01*
X2722716Y531880D01*
X2722021D01*
X2721188Y531741D01*
X2718411D01*
X2717577Y531880D01*
X2717438D01*
X2717021Y532018D01*
X2715911Y532296D01*
X2715772D01*
X2715494Y532435D01*
X2715216Y532713D01*
X2714938Y532991D01*
Y533129D01*
X2714799Y533407D01*
X2714661Y534240D01*
X2713411Y560907D01*
Y561046D01*
Y561324D01*
Y561740D01*
X2713549Y562018D01*
X2713688Y562157D01*
X2713827Y562296D01*
X2714244Y562574D01*
X2714799Y562851D01*
X2714938D01*
X2715355Y562990D01*
X2716049Y563129D01*
X2716883Y563268D01*
X2717161D01*
X2717855Y563407D01*
X2718827Y563546D01*
X2721466D01*
X2722299Y563407D01*
D02*
G37*
G36*
X2571051Y557435D02*
X2572718Y557296D01*
X2572996D01*
X2573829Y557157D01*
X2574662Y556879D01*
X2575218Y556463D01*
X2575357Y556324D01*
X2575496Y556046D01*
X2575634Y555490D01*
X2575496Y554657D01*
Y554379D01*
X2575218Y553824D01*
X2574801Y552713D01*
X2574246Y551324D01*
X2552996Y508963D01*
Y481602D01*
Y481463D01*
Y481186D01*
X2552857Y480769D01*
X2552579Y480352D01*
X2552440D01*
X2552301Y480075D01*
X2551885Y479936D01*
X2551190Y479658D01*
X2551051D01*
X2550635Y479519D01*
X2549801D01*
X2548829Y479380D01*
X2548551D01*
X2547857Y479241D01*
X2546607Y479102D01*
X2543690D01*
X2542440Y479241D01*
X2541190Y479380D01*
X2540913D01*
X2540357Y479519D01*
X2539524D01*
X2538690Y479658D01*
X2538552D01*
X2538274Y479797D01*
X2537857Y480075D01*
X2537440Y480352D01*
Y480491D01*
X2537302Y480769D01*
X2537163Y481602D01*
Y508963D01*
X2515913Y551324D01*
Y551463D01*
X2515774Y551740D01*
X2515219Y552574D01*
X2514802Y553685D01*
X2514385Y554657D01*
Y554935D01*
Y555351D01*
Y555907D01*
X2514663Y556463D01*
X2514802Y556601D01*
X2515219Y556879D01*
X2516052Y557157D01*
X2517163Y557296D01*
X2517580D01*
X2517996Y557435D01*
X2519246D01*
X2520219Y557574D01*
X2525496D01*
X2526885Y557435D01*
X2527163D01*
X2527857Y557296D01*
X2528691Y557157D01*
X2529524Y556879D01*
X2529663D01*
X2530079Y556740D01*
X2530496Y556463D01*
X2530913Y556046D01*
X2531052Y555907D01*
X2531191Y555629D01*
X2531468Y555213D01*
X2531885Y554657D01*
X2540357Y535629D01*
Y535490D01*
X2540635Y535213D01*
X2540774Y534657D01*
X2541190Y533824D01*
X2541468Y532991D01*
X2541885Y532018D01*
X2542857Y529796D01*
Y529657D01*
X2543135Y529241D01*
X2543274Y528685D01*
X2543690Y527852D01*
X2543968Y526880D01*
X2544385Y525768D01*
X2545357Y523268D01*
X2545496D01*
Y523407D01*
X2545635Y523824D01*
X2545913Y524518D01*
X2546190Y525352D01*
X2546607Y526324D01*
X2547024Y527435D01*
X2547857Y529657D01*
Y529796D01*
X2548135Y530213D01*
X2548274Y530768D01*
X2548690Y531602D01*
X2549385Y533407D01*
X2550218Y535490D01*
X2558829Y554379D01*
Y554518D01*
X2558968Y554935D01*
X2559246Y555490D01*
X2559524Y555907D01*
X2559662Y556046D01*
X2559801Y556324D01*
X2560218Y556601D01*
X2560774Y556879D01*
X2560912Y557018D01*
X2561468Y557157D01*
X2562301Y557296D01*
X2563274Y557435D01*
X2563551D01*
X2564384Y557574D01*
X2569384D01*
X2571051Y557435D01*
D02*
G37*
G36*
X2629523Y557018D02*
X2629800Y556740D01*
X2629939D01*
X2630078Y556463D01*
X2630217Y556185D01*
X2630495Y555629D01*
Y555490D01*
X2630634Y555213D01*
X2630773Y554518D01*
X2630912Y553824D01*
Y553685D01*
X2631050Y552990D01*
X2631189Y552157D01*
Y550907D01*
Y550768D01*
Y550629D01*
Y549935D01*
X2631050Y548963D01*
X2630912Y547990D01*
Y547851D01*
X2630773Y547296D01*
X2630634Y546740D01*
X2630495Y546046D01*
Y545907D01*
X2630356Y545629D01*
X2630078Y545351D01*
X2629800Y545074D01*
X2629523Y544935D01*
X2628828Y544796D01*
X2601190D01*
Y525907D01*
X2624939D01*
X2625356Y525768D01*
X2625634Y525491D01*
X2625773D01*
X2625912Y525213D01*
X2626050Y524935D01*
X2626328Y524518D01*
Y524380D01*
X2626467Y523963D01*
X2626606Y523407D01*
X2626745Y522574D01*
Y522435D01*
X2626884Y521880D01*
X2627023Y520907D01*
Y519796D01*
Y519657D01*
Y519519D01*
Y518824D01*
X2626884Y517852D01*
X2626745Y516880D01*
Y516741D01*
X2626606Y516185D01*
X2626467Y515630D01*
X2626328Y515074D01*
Y514935D01*
X2626189Y514657D01*
X2625912Y514380D01*
X2625634Y514102D01*
X2625356Y513963D01*
X2624662Y513824D01*
X2601190D01*
Y491880D01*
X2629384D01*
X2629800Y491741D01*
X2630078Y491463D01*
X2630217D01*
X2630356Y491185D01*
X2630495Y490908D01*
X2630773Y490352D01*
Y490213D01*
X2630912Y489935D01*
X2631050Y489241D01*
X2631189Y488547D01*
Y488408D01*
X2631328Y487713D01*
X2631467Y486880D01*
Y485630D01*
Y485491D01*
Y485352D01*
Y484658D01*
X2631328Y483686D01*
X2631189Y482713D01*
Y482575D01*
X2631050Y482019D01*
X2630912Y481463D01*
X2630773Y480769D01*
Y480630D01*
X2630634Y480352D01*
X2630356Y480075D01*
X2630078Y479797D01*
X2629800Y479658D01*
X2629106Y479519D01*
X2589801D01*
X2588968Y479658D01*
X2587856Y479936D01*
X2586745Y480630D01*
X2586607Y480908D01*
X2586190Y481463D01*
X2585634Y482713D01*
X2585496Y483408D01*
Y484380D01*
Y552157D01*
Y552296D01*
Y552574D01*
X2585634Y552990D01*
Y553685D01*
X2586051Y554796D01*
X2586329Y555490D01*
X2586745Y555907D01*
X2587023Y556046D01*
X2587718Y556601D01*
X2588690Y557018D01*
X2590079Y557157D01*
X2629106D01*
X2629523Y557018D01*
D02*
G37*
G36*
X2405636Y557435D02*
X2406886Y557296D01*
X2407164D01*
X2407720Y557157D01*
X2408553Y557018D01*
X2409248Y556879D01*
X2409386D01*
X2409803Y556740D01*
X2410220Y556463D01*
X2410636Y556046D01*
X2410775Y555907D01*
X2410914Y555768D01*
X2411053Y555351D01*
Y554935D01*
Y492574D01*
X2435775D01*
X2436192Y492435D01*
X2436470Y492158D01*
X2436608D01*
X2436747Y491880D01*
X2436886Y491602D01*
X2437164Y491047D01*
Y490908D01*
X2437303Y490491D01*
X2437442Y489935D01*
X2437581Y489102D01*
Y488824D01*
X2437720Y488269D01*
X2437858Y487297D01*
Y486047D01*
Y485908D01*
Y485769D01*
Y484936D01*
X2437720Y483963D01*
X2437581Y482991D01*
Y482852D01*
X2437442Y482297D01*
X2437303Y481602D01*
X2437164Y480908D01*
Y480769D01*
X2437025Y480491D01*
X2436470Y479797D01*
X2436331D01*
X2436192Y479658D01*
X2435358Y479519D01*
X2399525D01*
X2398692Y479658D01*
X2397581Y479936D01*
X2396470Y480630D01*
X2396331Y480908D01*
X2395914Y481463D01*
X2395359Y482713D01*
X2395220Y483408D01*
Y484380D01*
Y554935D01*
Y555074D01*
Y555351D01*
X2395498Y556046D01*
X2395637Y556185D01*
X2395775Y556324D01*
X2396192Y556601D01*
X2396748Y556879D01*
X2396887D01*
X2397442Y557018D01*
X2398275Y557157D01*
X2399248Y557296D01*
X2399525D01*
X2400359Y557435D01*
X2401470Y557574D01*
X2404387D01*
X2405636Y557435D01*
D02*
G37*
G36*
X2675217Y557018D02*
X2675633D01*
X2676467Y556879D01*
X2677578Y556740D01*
X2678828Y556601D01*
X2679106D01*
X2679661Y556463D01*
X2680494Y556324D01*
X2681606Y556185D01*
X2682994Y555768D01*
X2684383Y555490D01*
X2687300Y554379D01*
X2687439Y554240D01*
X2687994Y554101D01*
X2688689Y553685D01*
X2689522Y553268D01*
X2691605Y551879D01*
X2693689Y550074D01*
X2693828Y549935D01*
X2694105Y549657D01*
X2694661Y549101D01*
X2695216Y548407D01*
X2695772Y547435D01*
X2696466Y546463D01*
X2697716Y543963D01*
Y543824D01*
X2697994Y543268D01*
X2698133Y542574D01*
X2698411Y541602D01*
X2698688Y540352D01*
X2698828Y538963D01*
X2699105Y537435D01*
Y535768D01*
Y535629D01*
Y535074D01*
Y534379D01*
X2698966Y533407D01*
X2698828Y532296D01*
X2698688Y531046D01*
X2697994Y528546D01*
Y528407D01*
X2697855Y527991D01*
X2697578Y527435D01*
X2697300Y526602D01*
X2696328Y524796D01*
X2695078Y522852D01*
X2694939Y522713D01*
X2694800Y522435D01*
X2694383Y522019D01*
X2693828Y521324D01*
X2692300Y519935D01*
X2690355Y518407D01*
X2690216Y518269D01*
X2689939Y518130D01*
X2689244Y517713D01*
X2688550Y517435D01*
X2687578Y516880D01*
X2686466Y516463D01*
X2683966Y515491D01*
X2684106D01*
X2684244Y515352D01*
X2685078Y514935D01*
X2686189Y514241D01*
X2687300Y513408D01*
X2687439D01*
X2687578Y513269D01*
X2688272Y512574D01*
X2689105Y511741D01*
X2690078Y510491D01*
Y510352D01*
X2690355Y510213D01*
X2690911Y509380D01*
X2691744Y508130D01*
X2692578Y506602D01*
Y506463D01*
X2692855Y506185D01*
X2692994Y505769D01*
X2693411Y505213D01*
X2694105Y503685D01*
X2695078Y501741D01*
X2701605Y486463D01*
Y486325D01*
X2701744Y486047D01*
X2702022Y485213D01*
X2702438Y483963D01*
X2702716Y482991D01*
X2702855Y482852D01*
X2702994Y482436D01*
X2703133Y481880D01*
Y481463D01*
Y481325D01*
Y481047D01*
X2702855Y480352D01*
X2702578Y480075D01*
X2702161Y479936D01*
X2701605Y479658D01*
X2701466D01*
X2700911Y479519D01*
X2700078Y479380D01*
X2698966Y479241D01*
X2697716D01*
X2696328Y479102D01*
X2691466D01*
X2690216Y479241D01*
X2689939D01*
X2689383Y479380D01*
X2688689Y479519D01*
X2687855Y479658D01*
X2687716D01*
X2687439Y479797D01*
X2687022Y480075D01*
X2686605Y480352D01*
Y480491D01*
X2686466Y480769D01*
X2686328Y481186D01*
X2686189Y481741D01*
X2679106Y498963D01*
Y499102D01*
X2678828Y499519D01*
X2678689Y500074D01*
X2678272Y500769D01*
X2677578Y502435D01*
X2676606Y504102D01*
Y504241D01*
X2676467Y504519D01*
X2676189Y504935D01*
X2675911Y505491D01*
X2675078Y506741D01*
X2673967Y507991D01*
Y508130D01*
X2673689Y508269D01*
X2672994Y508824D01*
X2672022Y509658D01*
X2670633Y510352D01*
X2670494D01*
X2670356Y510491D01*
X2669939Y510630D01*
X2669383Y510769D01*
X2667994Y511046D01*
X2666189Y511185D01*
X2661328D01*
Y481602D01*
Y481463D01*
Y481186D01*
X2661189Y480769D01*
X2660911Y480352D01*
X2660772D01*
X2660634Y480075D01*
X2660217Y479936D01*
X2659522Y479658D01*
X2659384D01*
X2658967Y479519D01*
X2658134D01*
X2657161Y479380D01*
X2656884D01*
X2656050Y479241D01*
X2654939Y479102D01*
X2652022D01*
X2650772Y479241D01*
X2649522Y479380D01*
X2649245D01*
X2648689Y479519D01*
X2647856D01*
X2647022Y479658D01*
X2646884D01*
X2646606Y479797D01*
X2646189Y480075D01*
X2645772Y480352D01*
Y480491D01*
X2645634Y480769D01*
X2645495Y481602D01*
Y552157D01*
Y552296D01*
Y552574D01*
X2645634Y552990D01*
Y553685D01*
X2646050Y554796D01*
X2646328Y555490D01*
X2646745Y555907D01*
X2647022Y556046D01*
X2647717Y556601D01*
X2648689Y557018D01*
X2650078Y557157D01*
X2673689D01*
X2675217Y557018D01*
D02*
G37*
G36*
X2480080Y557435D02*
X2481330D01*
X2482163Y557296D01*
X2483136Y557157D01*
X2484108Y556879D01*
X2484247D01*
X2484802Y556601D01*
X2485358Y556324D01*
X2485775Y555907D01*
X2485913Y555768D01*
X2486052Y555490D01*
X2486469Y554935D01*
X2486747Y554240D01*
X2510774Y485352D01*
Y485213D01*
X2510913Y484936D01*
X2511191Y484102D01*
X2511469Y482991D01*
X2511608Y481880D01*
Y481741D01*
Y481186D01*
Y480630D01*
X2511191Y480075D01*
X2511052Y479936D01*
X2510635Y479797D01*
X2509941Y479519D01*
X2508830Y479380D01*
X2508552D01*
X2508135Y479241D01*
X2507580D01*
X2506191Y479102D01*
X2500913D01*
X2499385Y479241D01*
X2499108D01*
X2498413Y479380D01*
X2497580D01*
X2496747Y479519D01*
X2496608D01*
X2496330Y479658D01*
X2495913Y479936D01*
X2495497Y480213D01*
Y480352D01*
X2495358Y480630D01*
X2494941Y481463D01*
X2489802Y497296D01*
X2460497D01*
X2455636Y481880D01*
Y481741D01*
X2455497Y481463D01*
X2454942Y480491D01*
X2454803Y480352D01*
X2454664Y480213D01*
X2454247Y479936D01*
X2453692Y479658D01*
X2453553D01*
X2453136Y479519D01*
X2452303Y479380D01*
X2451192Y479241D01*
X2450080D01*
X2448831Y479102D01*
X2445497D01*
X2444108Y479241D01*
X2442719Y479380D01*
X2442442D01*
X2441886Y479519D01*
X2441192Y479797D01*
X2440497Y480075D01*
X2440358Y480213D01*
X2440220Y480630D01*
X2440081Y481186D01*
Y482019D01*
Y482297D01*
X2440358Y482852D01*
X2440636Y483963D01*
X2441053Y485352D01*
X2465080Y554379D01*
Y554518D01*
X2465219Y554935D01*
X2465497Y555490D01*
X2465775Y555907D01*
X2465914Y556046D01*
X2466191Y556324D01*
X2466608Y556601D01*
X2467303Y556879D01*
X2467441Y557018D01*
X2468136Y557157D01*
X2468969Y557296D01*
X2470219Y557435D01*
X2471052D01*
X2471608Y557574D01*
X2479108D01*
X2480080Y557435D01*
D02*
G37*
%LPC*%
G36*
X2642439Y743349D02*
X2631467Y710294D01*
X2653411D01*
X2642439Y743349D01*
D02*
G37*
G36*
X2595634Y642406D02*
X2584662Y609351D01*
X2606606D01*
X2595634Y642406D01*
D02*
G37*
G36*
X2474664Y644906D02*
X2466191D01*
Y618656D01*
X2474525D01*
X2475358Y618795D01*
X2477441Y619073D01*
X2479525Y619628D01*
X2479663D01*
X2479941Y619767D01*
X2480358Y620045D01*
X2480913Y620323D01*
X2482302Y621156D01*
X2483552Y622406D01*
X2483691Y622545D01*
X2483830Y622684D01*
X2484108Y623101D01*
X2484525Y623656D01*
X2485358Y625045D01*
X2486052Y626712D01*
Y626851D01*
X2486191Y627128D01*
X2486330Y627684D01*
X2486608Y628378D01*
X2486747Y629212D01*
X2486886Y630184D01*
X2487024Y632406D01*
Y632545D01*
Y633100D01*
X2486886Y633795D01*
Y634767D01*
X2486330Y636989D01*
X2486052Y638100D01*
X2485497Y639073D01*
Y639212D01*
X2485219Y639489D01*
X2484941Y640045D01*
X2484525Y640600D01*
X2483413Y641850D01*
X2482025Y642961D01*
X2481886D01*
X2481608Y643100D01*
X2481191Y643378D01*
X2480636Y643656D01*
X2479247Y644072D01*
X2477580Y644489D01*
X2477441D01*
X2477163Y644628D01*
X2476747D01*
X2476052Y644767D01*
X2474664Y644906D01*
D02*
G37*
G36*
X2670078Y545074D02*
X2661328D01*
Y522991D01*
X2670494D01*
X2671189Y523130D01*
X2673133Y523268D01*
X2675078Y523685D01*
X2675217D01*
X2675494Y523824D01*
X2675911Y523963D01*
X2676606Y524241D01*
X2677856Y524935D01*
X2679244Y525907D01*
X2679383Y526046D01*
X2679522Y526185D01*
X2680216Y526880D01*
X2681050Y528130D01*
X2681744Y529518D01*
Y529657D01*
X2681883Y529935D01*
X2682022Y530352D01*
X2682300Y530907D01*
X2682578Y532296D01*
X2682716Y534102D01*
Y534240D01*
Y534796D01*
X2682578Y535490D01*
X2682439Y536324D01*
X2682022Y538546D01*
X2681466Y539657D01*
X2680911Y540629D01*
X2680772Y540768D01*
X2680633Y541046D01*
X2680216Y541463D01*
X2679522Y542157D01*
X2678828Y542713D01*
X2677856Y543268D01*
X2676606Y543963D01*
X2675217Y544379D01*
X2675078D01*
X2674522Y544518D01*
X2673689Y544657D01*
X2672578Y544796D01*
X2672300D01*
X2671467Y544935D01*
X2670078Y545074D01*
D02*
G37*
G36*
X2475080Y542435D02*
X2464108Y509380D01*
X2486052D01*
X2475080Y542435D01*
D02*
G37*
%LPD*%
D14*
X2110468Y364490D02*
Y378460D01*
X1932668D02*
X2110468D01*
X1932668D02*
Y417558D01*
X2019572D01*
Y390888D02*
Y417558D01*
Y390888D02*
X2110468D01*
Y424180D01*
X1606369Y363039D02*
Y381181D01*
X1422581D02*
X1606369D01*
X1422581D02*
Y423999D01*
X1519101D01*
Y392611D02*
Y423999D01*
Y392611D02*
X1606369D01*
Y424180D01*
X1102289Y350592D02*
Y367140D01*
X1102269Y367121D02*
X1102308Y367159D01*
X1102269Y313690D02*
Y364490D01*
X956219Y313690D02*
X1102269D01*
X1102308Y367159D02*
Y379821D01*
X917031D02*
X1102308D01*
X917031D02*
Y419009D01*
X1012281D01*
Y389981D02*
Y419009D01*
Y389981D02*
X1102269D01*
Y424180D01*
X599440Y314960D02*
Y377190D01*
X419100D02*
X599440D01*
X419100D02*
Y406400D01*
X510540D01*
Y388620D02*
Y406400D01*
Y388620D02*
X598170D01*
Y402590D01*
Y424180D01*
X510540Y547370D02*
X552450D01*
X510540Y463550D02*
Y547370D01*
X552450D02*
Y598170D01*
X487680Y546100D02*
X496570D01*
X499110Y543560D01*
Y535940D02*
Y543560D01*
X2203450Y515620D02*
Y631190D01*
X2141220Y515620D02*
X2203450D01*
X2141220D02*
Y539750D01*
X2186940D01*
Y548640D01*
Y594360D01*
X2178050D02*
X2186940D01*
X1780540Y591820D02*
X1786890D01*
Y585470D02*
Y591820D01*
X1677670Y529590D02*
Y591820D01*
X1634490Y529590D02*
X1677670D01*
X1634490Y506730D02*
Y529590D01*
Y506730D02*
X1697990D01*
Y591820D01*
X1783080D01*
X1786890Y552450D02*
Y585470D01*
X1564640Y591820D02*
X1677670D01*
X1296670Y593090D02*
X1300480Y589280D01*
X1280160Y593090D02*
X1296670D01*
X1174750Y530860D02*
Y593090D01*
X1131570Y530860D02*
X1174750D01*
X1131570Y508000D02*
Y530860D01*
Y508000D02*
X1195070D01*
Y593090D01*
X1280160D01*
X1056640D02*
X1174750D01*
X698500Y598170D02*
X783590D01*
X698500Y513080D02*
Y598170D01*
X635000Y513080D02*
X698500D01*
X635000D02*
Y535940D01*
X678180D01*
Y598170D01*
X783590Y544830D02*
Y598170D01*
X552450D02*
X678180D01*
X2110468Y313690D02*
Y364490D01*
X1964418Y313690D02*
X2110468D01*
X1964418Y289560D02*
Y313690D01*
X1893570Y289560D02*
X1964418D01*
X1893570Y181610D02*
Y289560D01*
Y181610D02*
X2138408D01*
X2159998Y203200D02*
Y364490D01*
X2138408Y181610D02*
X2159998Y203200D01*
X1606369Y313690D02*
Y364490D01*
X1460319Y313690D02*
X1606369D01*
X1460319Y289560D02*
Y313690D01*
X1357630Y289560D02*
X1460319D01*
X1357630Y181610D02*
Y289560D01*
Y181610D02*
X1634309D01*
X1655899Y203200D02*
Y364490D01*
X1634309Y181610D02*
X1655899Y203200D01*
X956219Y289560D02*
Y313690D01*
X850900Y289560D02*
X956219D01*
X850900Y181610D02*
Y289560D01*
Y181610D02*
X1130209D01*
X1151799Y203200D02*
Y364490D01*
X1130209Y181610D02*
X1151799Y203200D01*
X626110Y181610D02*
X647700Y203200D01*
Y364490D01*
X377190Y181610D02*
X626110D01*
X377190D02*
Y289560D01*
X452120D01*
Y313690D01*
X598170D01*
X254962Y557838D02*
X280670Y532130D01*
X325120Y546100D02*
X487680Y546100D01*
X280670Y320040D02*
Y532130D01*
X135890Y320040D02*
X280670D01*
X325120Y261620D02*
Y546100D01*
X135890Y261620D02*
X325120D01*
X135890D02*
Y320040D01*
X2092960Y594360D02*
X2178050D01*
X2071370D02*
X2092960D01*
X2061210Y584200D02*
X2071370Y594360D01*
X2061210Y537210D02*
Y584200D01*
X2054860Y530860D02*
X2061210Y537210D01*
X2044700Y530860D02*
X2054860D01*
X2029460Y515620D02*
X2044700Y530860D01*
X2029460Y471170D02*
Y515620D01*
Y471170D02*
X2033270Y467360D01*
X2222500D01*
X2237468Y452392D01*
Y450850D02*
Y452392D01*
X2005330Y452120D02*
X2006600Y450850D01*
X2091418D01*
X2005330Y452120D02*
Y544830D01*
X1997710Y552450D02*
X2005330Y544830D01*
X1786890Y552450D02*
X1997710D01*
X1564640Y543560D02*
Y591820D01*
X1527810Y543560D02*
X1564640D01*
X1513840Y529590D02*
X1527810Y543560D01*
X1513840Y476250D02*
Y529590D01*
Y476250D02*
X1521460Y468630D01*
X1715770D01*
X1733369Y451031D01*
Y450850D02*
Y451031D01*
X1502410Y450850D02*
X1587319D01*
X1496060Y457200D02*
X1502410Y450850D01*
X1496060Y457200D02*
Y547370D01*
X1492250Y551180D02*
X1496060Y547370D01*
X1300480Y551180D02*
X1492250D01*
X1300480D02*
Y589280D01*
X1056640Y539750D02*
Y593090D01*
X1052830Y535940D02*
X1056640Y539750D01*
X1026160Y535940D02*
X1052830D01*
X1023620Y533400D02*
X1026160Y535940D01*
X1023620Y463550D02*
Y533400D01*
Y463550D02*
X1024981Y462189D01*
X1229269D01*
Y452120D02*
Y462189D01*
X1083219Y424180D02*
Y445861D01*
X1076960Y452120D02*
X1083219Y445861D01*
X1004570Y452120D02*
X1076960D01*
X1004570D02*
Y544830D01*
X783590D02*
X1004570D01*
X510540Y463550D02*
X725170D01*
Y450850D02*
Y463550D01*
X499110Y450850D02*
X579120D01*
X499110D02*
Y535940D01*
X254962Y557838D02*
Y629423D01*
X2091418Y424180D02*
Y450850D01*
Y424180D02*
X2110468D01*
X2159998Y364490D02*
Y406400D01*
X2237468D01*
Y450850D01*
X1587319Y424180D02*
Y450850D01*
Y424180D02*
X1606369D01*
X1655899Y364490D02*
Y406400D01*
X1733369D01*
Y450850D01*
X1083219Y424180D02*
X1102269D01*
X1151799Y364490D02*
Y406400D01*
X1229269D01*
Y452120D01*
X725170Y406400D02*
Y450850D01*
X647700Y406400D02*
X725170D01*
X647700Y364490D02*
Y406400D01*
X579120Y424180D02*
X598170D01*
X579120D02*
Y450850D01*
X0Y758190D02*
X3810Y754380D01*
X158750D01*
Y807720D01*
X107950D02*
X158750D01*
X107950D02*
Y848360D01*
X140970D01*
Y897890D01*
X69850D02*
X140970D01*
X69850Y789940D02*
Y897890D01*
Y779780D02*
Y789940D01*
X2540Y779780D02*
X69850D01*
D91*
X153670Y289560D02*
G03*
X153670Y289560I-3810J0D01*
G01*
X102870D02*
G03*
X102870Y289560I-3810J0D01*
G01*
X104140Y769590D02*
G03*
X104140Y769590I-3810J0D01*
G01*
X2134400Y478420D02*
G03*
X2134400Y478420I-3810J0D01*
G01*
X1630301D02*
G03*
X1630301Y478420I-3810J0D01*
G01*
X1125250Y477520D02*
G03*
X1125250Y477520I-3810J0D01*
G01*
X621030Y478790D02*
G03*
X621030Y478790I-3810J0D01*
G01*
D111*
X200509Y628768D02*
X2106930Y628650D01*
X200509Y638810D02*
Y638928D01*
Y638810D02*
X2106930Y638810D01*
X2107941D01*
X2109808Y638037D01*
X2111237Y636608D01*
X2112010Y634740D01*
Y632719D02*
Y634740D01*
X2111237Y630852D02*
X2112010Y632719D01*
X2109808Y629423D02*
X2111237Y630852D01*
X2107941Y628650D02*
X2109808Y629423D01*
X2106930Y628650D02*
X2107941D01*
X199498Y628768D02*
X200509D01*
X197631Y629542D02*
X199498Y628768D01*
X196202Y630971D02*
X197631Y629542D01*
X195429Y632838D02*
X196202Y630971D01*
X195429Y632838D02*
Y634859D01*
X196202Y636726D01*
X197631Y638155D01*
X199498Y638928D01*
X200509D01*
X0Y0D02*
X2360930D01*
X2360930Y957580D02*
X2360930Y0D01*
X-0Y957580D02*
X2360930D01*
X-0D02*
X0Y0D01*
D112*
X7620Y635000D02*
X248920Y635000D01*
X2059940Y633730D02*
X2354580D01*
D113*
X23690Y407670D02*
D03*
X73690D02*
D03*
D114*
X1958770Y519430D02*
D03*
X1455850Y515620D02*
D03*
X448310D02*
D03*
X44450Y186690D02*
D03*
X113030D02*
D03*
X160050Y411480D02*
D03*
X247680Y389890D02*
D03*
X218440Y252730D02*
D03*
X950360Y513080D02*
D03*
X139700Y818750D02*
D03*
D115*
X476280Y92710D02*
D03*
X2079020D02*
D03*
X1554510D02*
D03*
X1003330D02*
D03*
X428292Y439420D02*
D03*
X448292D02*
D03*
X468292D02*
D03*
X488292D02*
D03*
X508292D02*
D03*
X528292D02*
D03*
X548292D02*
D03*
X568292D02*
D03*
X608292D02*
D03*
X628292D02*
D03*
X648292D02*
D03*
X668292D02*
D03*
X932391D02*
D03*
X952391D02*
D03*
X972391D02*
D03*
X992391D02*
D03*
X1012391D02*
D03*
X1032391D02*
D03*
X1052391D02*
D03*
X1072391D02*
D03*
X1112391D02*
D03*
X1132391D02*
D03*
X1152391D02*
D03*
X1172391D02*
D03*
X1436491D02*
D03*
X1456491D02*
D03*
X1476491D02*
D03*
X1496491D02*
D03*
X1516491D02*
D03*
X1536491D02*
D03*
X1556491D02*
D03*
X1576491D02*
D03*
X1616491D02*
D03*
X1636491D02*
D03*
X1656491D02*
D03*
X1676491D02*
D03*
X2169670Y574520D02*
D03*
X2144270D02*
D03*
X2118870D02*
D03*
X2093470D02*
D03*
X1940590Y439420D02*
D03*
X1960590D02*
D03*
X1980590D02*
D03*
X2000590D02*
D03*
X2020590D02*
D03*
X2040590D02*
D03*
X2060590D02*
D03*
X2080590D02*
D03*
X2120590D02*
D03*
X2140590D02*
D03*
X2160590D02*
D03*
X2180590D02*
D03*
X581660Y574040D02*
D03*
X607060D02*
D03*
X632460D02*
D03*
X657860D02*
D03*
X1085271Y574520D02*
D03*
X1110671D02*
D03*
X1136071D02*
D03*
X1161471D02*
D03*
X1589371D02*
D03*
X1614771D02*
D03*
X1640171D02*
D03*
X1665571D02*
D03*
D116*
X99060Y289560D02*
D03*
X124460D02*
D03*
X149860D02*
D03*
D117*
X537210Y800500D02*
D03*
D118*
X562610Y863600D02*
D03*
Y838200D02*
D03*
X537210Y876300D02*
D03*
Y850900D02*
D03*
Y825500D02*
D03*
X562610Y812800D02*
D03*
D119*
X46990Y787080D02*
D03*
Y747080D02*
D03*
Y727080D02*
D03*
D120*
X2329180Y31750D02*
D03*
X33020D02*
D03*
Y929640D02*
D03*
X2332990Y927100D02*
D03*
X752158Y542386D02*
D03*
X327894Y118122D02*
D03*
X1256258Y542386D02*
D03*
X831993Y118122D02*
D03*
X1760357Y542386D02*
D03*
X1336093Y118122D02*
D03*
X2264456Y542386D02*
D03*
X1840192Y118122D02*
D03*
D121*
X418592Y336420D02*
D03*
X679450Y341960D02*
D03*
X922691Y336420D02*
D03*
X1183549Y341960D02*
D03*
X1426791Y336420D02*
D03*
X1687649Y341960D02*
D03*
X1930890Y336420D02*
D03*
X2191748Y341960D02*
D03*
D122*
X337820Y791210D02*
D03*
X358140Y762000D02*
D03*
X342900Y739140D02*
D03*
X314960Y684530D02*
D03*
X330200Y688340D02*
D03*
X342900D02*
D03*
X2033428Y324552D02*
D03*
Y341062D02*
D03*
X2048668D02*
D03*
Y324552D02*
D03*
X2075338D02*
D03*
X2090578D02*
D03*
Y341062D02*
D03*
X2075338Y339792D02*
D03*
X1584960Y325120D02*
D03*
X1529291Y325367D02*
D03*
Y341877D02*
D03*
X1544531D02*
D03*
Y325367D02*
D03*
X1571201D02*
D03*
X1586441Y341877D02*
D03*
X1571201Y340607D02*
D03*
X1066800Y340360D02*
D03*
X1082040Y341630D02*
D03*
Y325120D02*
D03*
X1066800D02*
D03*
X1040130D02*
D03*
Y341630D02*
D03*
X1024890D02*
D03*
Y325120D02*
D03*
X562610Y323850D02*
D03*
X577850Y325120D02*
D03*
X579120Y341630D02*
D03*
X562610D02*
D03*
X520700D02*
D03*
X537210D02*
D03*
X535940Y325120D02*
D03*
X520700Y323850D02*
D03*
X506730Y684530D02*
D03*
X542290Y588010D02*
D03*
X810260Y593090D02*
D03*
X1616560Y369720D02*
D03*
X1606550Y480060D02*
D03*
X2014220Y533400D02*
D03*
X2056130Y566420D02*
D03*
X2110590Y478420D02*
D03*
X2211070Y533400D02*
D03*
X2152680Y389890D02*
D03*
X2115820Y368300D02*
D03*
X2233360Y444540D02*
D03*
X1922660Y478640D02*
D03*
X1877060Y212090D02*
D03*
X1860550Y219710D02*
D03*
X1942079Y194460D02*
D03*
X2024380Y294640D02*
D03*
X1962150Y397142D02*
D03*
X1978540Y547520D02*
D03*
X1913890Y600710D02*
D03*
X1808480Y562610D02*
D03*
X1871860Y543710D02*
D03*
X1723390Y439420D02*
D03*
X1426210Y193040D02*
D03*
X1330960Y198120D02*
D03*
X1348740Y193040D02*
D03*
X1483510Y298300D02*
D03*
X1507490Y538480D02*
D03*
X1564640Y577850D02*
D03*
X1390650Y537210D02*
D03*
X1295400Y582930D02*
D03*
X1424940Y563880D02*
D03*
X1211580Y551180D02*
D03*
X1711960Y537210D02*
D03*
X1647190Y391160D02*
D03*
X1456690Y395872D02*
D03*
X1404650Y466090D02*
D03*
X1102391Y478420D02*
D03*
X1111250Y368450D02*
D03*
X1141760Y388620D02*
D03*
X1219900Y444540D02*
D03*
X836960Y207912D02*
D03*
X848390Y203200D02*
D03*
X897019Y196850D02*
D03*
X999490Y293370D02*
D03*
X951230Y393182D02*
D03*
X1051560Y553720D02*
D03*
X995680Y529590D02*
D03*
X914400Y558800D02*
D03*
X887730Y528020D02*
D03*
X915550Y482600D02*
D03*
X504190Y280670D02*
D03*
X415290Y187960D02*
D03*
X334160Y224272D02*
D03*
X363220Y201930D02*
D03*
X717550Y444500D02*
D03*
X640080Y389890D02*
D03*
X598170Y375920D02*
D03*
X345440Y842010D02*
D03*
X326390Y793750D02*
D03*
X2020600Y214630D02*
D03*
X2000280Y182880D02*
D03*
X2130590Y478420D02*
D03*
X2150590D02*
D03*
X2170590D02*
D03*
X2010590D02*
D03*
X1395760Y166370D02*
D03*
X1445290Y200660D02*
D03*
X1666491Y478420D02*
D03*
X1646491D02*
D03*
X1626491D02*
D03*
X1455450Y544830D02*
D03*
X929670Y535940D02*
D03*
X1506491Y478420D02*
D03*
X1940590Y547370D02*
D03*
X1935540Y478790D02*
D03*
X1432620Y481330D02*
D03*
X1000790Y173990D02*
D03*
X933480Y207010D02*
D03*
X1142391Y478420D02*
D03*
X1162391D02*
D03*
X617220Y478790D02*
D03*
X1121440Y477520D02*
D03*
X1001712Y479164D02*
D03*
X337850Y854710D02*
D03*
X311180Y871220D02*
D03*
X270540Y868680D02*
D03*
X295940Y942340D02*
D03*
X304830Y911860D02*
D03*
X392460Y891540D02*
D03*
X452150Y887730D02*
D03*
X402620Y920750D02*
D03*
X373410Y919480D02*
D03*
X2030760Y713740D02*
D03*
X1687860Y777240D02*
D03*
X1529110Y787400D02*
D03*
X1535460Y717550D02*
D03*
X1030620Y702930D02*
D03*
X1030000Y834390D02*
D03*
X1470690Y731520D02*
D03*
Y845820D02*
D03*
X321340Y849630D02*
D03*
X308640Y840740D02*
D03*
X518190Y723900D02*
D03*
X953800Y712470D02*
D03*
X459770D02*
D03*
X928400Y481330D02*
D03*
X2090590Y478420D02*
D03*
X2070590D02*
D03*
X2050590D02*
D03*
X2030590D02*
D03*
X1586491D02*
D03*
X1566491D02*
D03*
X1546491D02*
D03*
X1526491D02*
D03*
X1082391D02*
D03*
X1062391D02*
D03*
X1042391D02*
D03*
X1022391D02*
D03*
X496570Y179070D02*
D03*
X448310Y212090D02*
D03*
X498292Y478420D02*
D03*
X438292D02*
D03*
X598292D02*
D03*
X658292D02*
D03*
X638292D02*
D03*
X422910Y513080D02*
D03*
X424180Y482600D02*
D03*
D123*
X2292330Y888990D02*
D03*
X2317330Y838990D02*
D03*
X2292330Y788990D02*
D03*
X2317330Y738990D02*
D03*
X2292330Y688990D02*
D03*
X2242330Y888990D02*
D03*
X2267330Y838990D02*
D03*
X2242330Y788990D02*
D03*
X2267330Y738990D02*
D03*
X2242330Y688990D02*
D03*
X2192330Y888990D02*
D03*
X2217330Y838990D02*
D03*
X2192330Y788990D02*
D03*
X2217330Y738990D02*
D03*
X2192330Y688990D02*
D03*
X2142330Y888990D02*
D03*
X2167330Y838990D02*
D03*
X2142330Y788990D02*
D03*
X2167330Y738990D02*
D03*
X2142330Y688990D02*
D03*
X2092330Y888990D02*
D03*
X2117330Y838990D02*
D03*
X2092330Y788990D02*
D03*
X2117330Y738990D02*
D03*
X2092330Y688990D02*
D03*
X2042330Y888990D02*
D03*
X2067330Y838990D02*
D03*
X2042330Y788990D02*
D03*
X2067330Y738990D02*
D03*
X1992330Y888990D02*
D03*
X2017330Y838990D02*
D03*
X1992330Y788990D02*
D03*
X1942330Y888990D02*
D03*
X1967330Y838990D02*
D03*
X1892330Y888990D02*
D03*
X1917330Y838990D02*
D03*
Y738990D02*
D03*
X1842330Y888990D02*
D03*
X1867330Y738990D02*
D03*
X1792330Y888990D02*
D03*
X1742330D02*
D03*
X1767330Y738990D02*
D03*
X1742330Y688990D02*
D03*
X1692330Y888990D02*
D03*
X1717330Y738990D02*
D03*
X1692330Y688990D02*
D03*
X1642330Y888990D02*
D03*
X1667330Y738990D02*
D03*
X1642330Y688990D02*
D03*
X1592330Y888990D02*
D03*
X1617330Y738990D02*
D03*
X1592330Y688990D02*
D03*
X1542330Y888990D02*
D03*
X1567330Y738990D02*
D03*
X1492330Y888990D02*
D03*
X1517330Y738990D02*
D03*
X1417330Y838990D02*
D03*
Y738990D02*
D03*
X1342330Y888990D02*
D03*
X1367330Y838990D02*
D03*
X1292330Y888990D02*
D03*
X1317330Y838990D02*
D03*
X1242330Y888990D02*
D03*
X1267330Y838990D02*
D03*
X1242330Y688990D02*
D03*
X1192330Y888990D02*
D03*
X1217330Y838990D02*
D03*
X1192330Y688990D02*
D03*
X1142330Y888990D02*
D03*
X1167330Y838990D02*
D03*
X1142330Y688990D02*
D03*
X1092330Y888990D02*
D03*
X1117330Y838990D02*
D03*
X1092330Y688990D02*
D03*
X1042330Y888990D02*
D03*
X1067330Y838990D02*
D03*
X942330Y788990D02*
D03*
X917330Y838990D02*
D03*
X892330Y788990D02*
D03*
X867330Y838990D02*
D03*
X842330Y788990D02*
D03*
X817330Y838990D02*
D03*
X792330Y788990D02*
D03*
Y688990D02*
D03*
X767330Y838990D02*
D03*
X742330Y788990D02*
D03*
Y688990D02*
D03*
X717330Y838990D02*
D03*
X692330Y788990D02*
D03*
Y688990D02*
D03*
X667330Y838990D02*
D03*
X642330Y688990D02*
D03*
X617330Y838990D02*
D03*
X592330Y688990D02*
D03*
X542330D02*
D03*
X217330Y738990D02*
D03*
X167330Y838990D02*
D03*
Y738990D02*
D03*
X142330Y688990D02*
D03*
X117330Y838990D02*
D03*
Y738990D02*
D03*
X92330Y688990D02*
D03*
X42330D02*
D03*
X328930Y651510D02*
D03*
X2317330Y588990D02*
D03*
Y488990D02*
D03*
Y388990D02*
D03*
X2292330Y338990D02*
D03*
X2317330Y288990D02*
D03*
X2292330Y238990D02*
D03*
X2317330Y188990D02*
D03*
X2292330Y138990D02*
D03*
X2317330Y88990D02*
D03*
X2267330Y588990D02*
D03*
Y388990D02*
D03*
Y288990D02*
D03*
X2242330Y238990D02*
D03*
X2267330Y188990D02*
D03*
X2242330Y138990D02*
D03*
X2267330Y88990D02*
D03*
X2242330Y38990D02*
D03*
X2217330Y588990D02*
D03*
Y288990D02*
D03*
X2192330Y238990D02*
D03*
X2217330Y188990D02*
D03*
X2192330Y138990D02*
D03*
X2217330Y88990D02*
D03*
X2192330Y38990D02*
D03*
X2167330Y188990D02*
D03*
X2142330Y138990D02*
D03*
X2167330Y88990D02*
D03*
X2142330Y38990D02*
D03*
X2092330Y138990D02*
D03*
Y38990D02*
D03*
X2042330Y138990D02*
D03*
Y38990D02*
D03*
X1992330Y138990D02*
D03*
X2017330Y88990D02*
D03*
X1992330Y38990D02*
D03*
X1942330Y138990D02*
D03*
X1967330Y88990D02*
D03*
X1942330Y38990D02*
D03*
X1892330Y138990D02*
D03*
X1917330Y88990D02*
D03*
X1892330Y38990D02*
D03*
X1842330Y438990D02*
D03*
Y338990D02*
D03*
Y38990D02*
D03*
X1817330Y488990D02*
D03*
Y388990D02*
D03*
X1792330Y338990D02*
D03*
X1817330Y288990D02*
D03*
X1792330Y238990D02*
D03*
X1817330Y188990D02*
D03*
X1792330Y138990D02*
D03*
Y38990D02*
D03*
X1767330Y588990D02*
D03*
Y388990D02*
D03*
X1742330Y338990D02*
D03*
X1767330Y288990D02*
D03*
X1742330Y238990D02*
D03*
X1767330Y188990D02*
D03*
X1742330Y138990D02*
D03*
X1767330Y88990D02*
D03*
X1742330Y38990D02*
D03*
X1717330Y588990D02*
D03*
Y288990D02*
D03*
X1692330Y238990D02*
D03*
X1717330Y188990D02*
D03*
X1692330Y138990D02*
D03*
X1717330Y88990D02*
D03*
X1692330Y38990D02*
D03*
X1642330Y238990D02*
D03*
X1667330Y188990D02*
D03*
X1642330Y138990D02*
D03*
X1667330Y88990D02*
D03*
X1642330Y38990D02*
D03*
X1592330Y138990D02*
D03*
X1617330Y88990D02*
D03*
X1592330Y38990D02*
D03*
X1542330Y138990D02*
D03*
Y38990D02*
D03*
X1492330Y138990D02*
D03*
X1517330Y88990D02*
D03*
X1492330Y38990D02*
D03*
X1442330Y138990D02*
D03*
X1467330Y88990D02*
D03*
X1442330Y38990D02*
D03*
X1417330Y88990D02*
D03*
X1392330Y38990D02*
D03*
X1342330Y438990D02*
D03*
X1367330Y88990D02*
D03*
X1342330Y38990D02*
D03*
X1317330Y488990D02*
D03*
Y388990D02*
D03*
X1292330Y338990D02*
D03*
X1317330Y288990D02*
D03*
X1292330Y238990D02*
D03*
Y138990D02*
D03*
Y38990D02*
D03*
X1267330Y588990D02*
D03*
Y388990D02*
D03*
X1242330Y338990D02*
D03*
X1267330Y288990D02*
D03*
X1242330Y238990D02*
D03*
X1267330Y188990D02*
D03*
X1242330Y138990D02*
D03*
X1267330Y88990D02*
D03*
X1242330Y38990D02*
D03*
X1217330Y588990D02*
D03*
Y288990D02*
D03*
X1192330Y238990D02*
D03*
X1217330Y188990D02*
D03*
X1192330Y138990D02*
D03*
X1217330Y88990D02*
D03*
X1192330Y38990D02*
D03*
X1167330Y288990D02*
D03*
X1142330Y238990D02*
D03*
X1167330Y188990D02*
D03*
X1142330Y138990D02*
D03*
X1167330Y88990D02*
D03*
X1142330Y38990D02*
D03*
X1092330Y138990D02*
D03*
X1117330Y88990D02*
D03*
X1092330Y38990D02*
D03*
X1042330Y138990D02*
D03*
X1067330Y88990D02*
D03*
X1042330Y38990D02*
D03*
X992330Y138990D02*
D03*
Y38990D02*
D03*
X942330Y138990D02*
D03*
X967330Y88990D02*
D03*
X942330Y38990D02*
D03*
X892330Y138990D02*
D03*
X917330Y88990D02*
D03*
X892330Y38990D02*
D03*
X867330Y88990D02*
D03*
X842330Y38990D02*
D03*
X817330Y488990D02*
D03*
Y388990D02*
D03*
X792330Y338990D02*
D03*
X817330Y288990D02*
D03*
X792330Y238990D02*
D03*
X817330Y188990D02*
D03*
X792330Y138990D02*
D03*
Y38990D02*
D03*
X767330Y588990D02*
D03*
Y388990D02*
D03*
X742330Y338990D02*
D03*
X767330Y288990D02*
D03*
X742330Y238990D02*
D03*
X767330Y188990D02*
D03*
X742330Y138990D02*
D03*
X767330Y88990D02*
D03*
X742330Y38990D02*
D03*
X717330Y588990D02*
D03*
Y288990D02*
D03*
X692330Y238990D02*
D03*
X717330Y188990D02*
D03*
X692330Y138990D02*
D03*
X717330Y88990D02*
D03*
X692330Y38990D02*
D03*
X667330Y288990D02*
D03*
X642330Y238990D02*
D03*
X667330Y188990D02*
D03*
X642330Y138990D02*
D03*
X667330Y88990D02*
D03*
X642330Y38990D02*
D03*
X592330Y138990D02*
D03*
X617330Y88990D02*
D03*
X592330Y38990D02*
D03*
X542330Y138990D02*
D03*
X567330Y88990D02*
D03*
X542330Y38990D02*
D03*
X492330Y138990D02*
D03*
Y38990D02*
D03*
X442330Y138990D02*
D03*
Y38990D02*
D03*
X392330Y138990D02*
D03*
X417330Y88990D02*
D03*
X392330Y38990D02*
D03*
X342330Y438990D02*
D03*
X367330Y388990D02*
D03*
X342330Y338990D02*
D03*
X367330Y288990D02*
D03*
Y88990D02*
D03*
X342330Y38990D02*
D03*
X317330Y488990D02*
D03*
X292330Y438990D02*
D03*
X317330Y388990D02*
D03*
X292330Y338990D02*
D03*
X317330Y288990D02*
D03*
X292330Y238990D02*
D03*
X317330Y188990D02*
D03*
X292330Y38990D02*
D03*
X267330Y588990D02*
D03*
X242330Y538990D02*
D03*
X267330Y488990D02*
D03*
X242330Y438990D02*
D03*
X267330Y288990D02*
D03*
Y188990D02*
D03*
X242330Y138990D02*
D03*
X267330Y88990D02*
D03*
X242330Y38990D02*
D03*
X217330Y588990D02*
D03*
X192330Y538990D02*
D03*
X217330Y488990D02*
D03*
X192330Y438990D02*
D03*
X217330Y188990D02*
D03*
X192330Y138990D02*
D03*
X217330Y88990D02*
D03*
X192330Y38990D02*
D03*
X167330Y588990D02*
D03*
X142330Y538990D02*
D03*
X167330Y488990D02*
D03*
X142330Y438990D02*
D03*
X167330Y188990D02*
D03*
X142330Y138990D02*
D03*
X167330Y88990D02*
D03*
X142330Y38990D02*
D03*
X117330Y588990D02*
D03*
X92330Y438990D02*
D03*
Y138990D02*
D03*
X117330Y88990D02*
D03*
X92330Y38990D02*
D03*
X67330Y588990D02*
D03*
X42330Y538990D02*
D03*
Y438990D02*
D03*
Y138990D02*
D03*
X67330Y88990D02*
D03*
X405130Y483870D02*
D03*
X449580Y394970D02*
D03*
X408940Y599440D02*
D03*
X381000Y534670D02*
D03*
X499110Y537210D02*
D03*
X303530Y556649D02*
D03*
X33140Y511810D02*
D03*
X2011680Y688340D02*
D03*
X1939290Y698380D02*
D03*
X1833880Y695571D02*
D03*
X1517650Y687070D02*
D03*
X1446530Y700920D02*
D03*
X1339850Y698111D02*
D03*
X433070Y693031D02*
D03*
X941070Y687951D02*
D03*
X835660Y689221D02*
D03*
X1010920Y680720D02*
D03*
X636270Y778510D02*
D03*
X95250Y826770D02*
D03*
X421625Y836945D02*
D03*
X454660Y838200D02*
D03*
X387350Y833120D02*
D03*
X205430Y706120D02*
D03*
X292100Y726440D02*
D03*
X250190Y736600D02*
D03*
X226487Y878599D02*
D03*
X246380Y915670D02*
D03*
X100240Y929830D02*
D03*
X82550Y929640D02*
D03*
X55880Y868680D02*
D03*
Y885190D02*
D03*
X273050Y800100D02*
D03*
X215900Y834390D02*
D03*
X193040Y801370D02*
D03*
X518292Y478420D02*
D03*
X538292D02*
D03*
X578292D02*
D03*
X558292D02*
D03*
M02*
