G04*
G04 #@! TF.GenerationSoftware,Altium Limited,Altium Designer,22.1.2 (22)*
G04*
G04 Layer_Color=32896*
%FSLAX44Y44*%
%MOMM*%
G71*
G04*
G04 #@! TF.SameCoordinates,E8DC7784-5412-4491-ADA6-3D39AB0E1C33*
G04*
G04*
G04 #@! TF.FilePolarity,Positive*
G04*
G01*
G75*
%ADD10C,0.3000*%
%ADD11C,0.5080*%
%ADD19C,0.1000*%
%ADD126C,0.1270*%
D10*
X303100Y142825D02*
G03*
X352688Y93419I24794J-24703D01*
G01*
X776861Y517592D02*
G03*
X727455Y567180I-24703J24794D01*
G01*
X807199Y142825D02*
G03*
X856788Y93419I24794J-24703D01*
G01*
X1280961Y517592D02*
G03*
X1231554Y567180I-24703J24794D01*
G01*
X1311299Y142825D02*
G03*
X1360887Y93419I24794J-24703D01*
G01*
X1785060Y517592D02*
G03*
X1735654Y567180I-24703J24794D01*
G01*
X1815398Y142825D02*
G03*
X1864986Y93419I24794J-24703D01*
G01*
X2289160Y517592D02*
G03*
X2239753Y567180I-24703J24794D01*
G01*
X740004Y130276D02*
Y480869D01*
X352688Y93418D02*
X389411Y130276D01*
X740004D01*
X303100Y142825D02*
X340004Y179865D01*
Y530276D02*
X690415D01*
X727455Y567180D01*
X740004Y480869D02*
X776861Y517592D01*
X340004Y179865D02*
Y530276D01*
X1244103Y130276D02*
Y480869D01*
X856788Y93418D02*
X893510Y130276D01*
X1244103D01*
X807199Y142825D02*
X844103Y179865D01*
Y530276D02*
X1194515D01*
X1231554Y567180D01*
X1244103Y480869D02*
X1280961Y517592D01*
X844103Y179865D02*
Y530276D01*
X1748203Y130276D02*
Y480869D01*
X1360887Y93418D02*
X1397609Y130276D01*
X1748203D01*
X1311299Y142825D02*
X1348203Y179865D01*
Y530276D02*
X1698614D01*
X1735654Y567180D01*
X1748203Y480869D02*
X1785060Y517592D01*
X1348203Y179865D02*
Y530276D01*
X2252302Y130276D02*
Y480869D01*
X1864986Y93418D02*
X1901709Y130276D01*
X2252302D01*
X1815398Y142825D02*
X1852302Y179865D01*
Y530276D02*
X2202713D01*
X2239753Y567180D01*
X2252302Y480869D02*
X2289160Y517592D01*
X1852302Y179865D02*
Y530276D01*
D11*
X77500Y456720D02*
G03*
X77500Y456720I-3810J0D01*
G01*
D19*
X787654Y590960D02*
Y585962D01*
X786654Y584962D01*
X784655D01*
X783655Y585962D01*
Y590960D01*
X777657Y584962D02*
X781656D01*
X777657Y588961D01*
Y589960D01*
X778657Y590960D01*
X780656D01*
X781656Y589960D01*
X775658Y584962D02*
X773659D01*
X774658D01*
Y590960D01*
X775658Y589960D01*
X1291844Y590960D02*
Y585962D01*
X1290844Y584962D01*
X1288845D01*
X1287845Y585962D01*
Y590960D01*
X1285846Y584962D02*
X1283846D01*
X1284846D01*
Y590960D01*
X1285846Y589960D01*
X1276849Y590960D02*
X1280847D01*
Y587961D01*
X1278848Y588961D01*
X1277849D01*
X1276849Y587961D01*
Y585962D01*
X1277849Y584962D01*
X1279848D01*
X1280847Y585962D01*
X1795780Y590960D02*
Y585962D01*
X1794780Y584962D01*
X1792781D01*
X1791781Y585962D01*
Y590960D01*
X1789782Y585962D02*
X1788782Y584962D01*
X1786783D01*
X1785783Y585962D01*
Y589960D01*
X1786783Y590960D01*
X1788782D01*
X1789782Y589960D01*
Y588961D01*
X1788782Y587961D01*
X1785783D01*
X2299970Y590960D02*
Y585962D01*
X2298970Y584962D01*
X2296971D01*
X2295971Y585962D01*
Y590960D01*
X2293972Y589960D02*
X2292972Y590960D01*
X2290973D01*
X2289973Y589960D01*
Y588961D01*
X2290973Y587961D01*
X2291973D01*
X2290973D01*
X2289973Y586961D01*
Y585962D01*
X2290973Y584962D01*
X2292972D01*
X2293972Y585962D01*
D126*
X685818Y285992D02*
Y304604D01*
X384398Y285992D02*
X685818D01*
X384398D02*
Y315798D01*
X682770Y514858D02*
X684548Y381254D01*
X384398Y315230D02*
Y515230D01*
X1189917Y285992D02*
Y304604D01*
X888497Y285992D02*
X1189917D01*
X888497D02*
Y315798D01*
X1186869Y514858D02*
X1188647Y381254D01*
X888497Y315230D02*
Y515230D01*
X1694017Y285992D02*
Y304604D01*
X1392597Y285992D02*
X1694017D01*
X1392597D02*
Y315798D01*
X1690969Y514858D02*
X1692747Y381254D01*
X1392597Y315230D02*
Y515230D01*
X2198116Y285992D02*
Y304604D01*
X1896696Y285992D02*
X2198116D01*
X1896696D02*
Y315798D01*
X2195068Y514858D02*
X2196846Y381254D01*
X1896696Y315230D02*
Y515230D01*
M02*
