G04*
G04 #@! TF.GenerationSoftware,Altium Limited,Altium Designer,22.1.2 (22)*
G04*
G04 Layer_Color=8388736*
%FSLAX44Y44*%
%MOMM*%
G71*
G04*
G04 #@! TF.SameCoordinates,E8DC7784-5412-4491-ADA6-3D39AB0E1C33*
G04*
G04*
G04 #@! TF.FilePolarity,Positive*
G04*
G01*
G75*
%ADD10C,0.3000*%
%ADD12C,0.2540*%
%ADD13C,0.2000*%
G36*
X573609Y277759D02*
Y197759D01*
X551609D01*
Y199759D01*
Y277759D01*
Y279759D01*
X573609D01*
Y277759D01*
D02*
G37*
G36*
X1079899D02*
Y197759D01*
X1057899D01*
Y199759D01*
Y277759D01*
Y279759D01*
X1079899D01*
Y277759D01*
D02*
G37*
G36*
X1585799D02*
Y197759D01*
X1563799D01*
Y199759D01*
Y277759D01*
Y279759D01*
X1585799D01*
Y277759D01*
D02*
G37*
G36*
X2091259D02*
Y197759D01*
X2069259D01*
Y199759D01*
Y277759D01*
Y279759D01*
X2091259D01*
Y277759D01*
D02*
G37*
%LPC*%
G36*
X571609D02*
X553609D01*
Y199759D01*
X571609D01*
Y277759D01*
D02*
G37*
%LPD*%
G36*
X568609Y256759D02*
X555609D01*
Y272759D01*
X568609D01*
Y256759D01*
D02*
G37*
%LPC*%
G36*
X1077899Y277759D02*
X1059899D01*
Y199759D01*
X1077899D01*
Y277759D01*
D02*
G37*
%LPD*%
G36*
X1074899Y256759D02*
X1061899D01*
Y272759D01*
X1074899D01*
Y256759D01*
D02*
G37*
%LPC*%
G36*
X1583799Y277759D02*
X1565799D01*
Y199759D01*
X1583799D01*
Y277759D01*
D02*
G37*
%LPD*%
G36*
X1580799Y256759D02*
X1567799D01*
Y272759D01*
X1580799D01*
Y256759D01*
D02*
G37*
%LPC*%
G36*
X2089259Y277759D02*
X2071259D01*
Y199759D01*
X2089259D01*
Y277759D01*
D02*
G37*
%LPD*%
G36*
X2086259Y256759D02*
X2073259D01*
Y272759D01*
X2086259D01*
Y256759D01*
D02*
G37*
D10*
X1937271Y285750D02*
G03*
X1937271Y285750I-1501J0D01*
G01*
X1991591Y683379D02*
G03*
X1991591Y683379I-1501J0D01*
G01*
X1886181D02*
G03*
X1886181Y683379I-1501J0D01*
G01*
X1497561Y685919D02*
G03*
X1497561Y685919I-1501J0D01*
G01*
X1406411Y265430D02*
G03*
X1406411Y265430I-1501J0D01*
G01*
X907301Y273050D02*
G03*
X907301Y273050I-1501J0D01*
G01*
X993371Y675759D02*
G03*
X993371Y675759I-1501J0D01*
G01*
X887961Y677029D02*
G03*
X887961Y677029I-1501J0D01*
G01*
X485371Y680839D02*
G03*
X485371Y680839I-1501J0D01*
G01*
X381231D02*
G03*
X381231Y680839I-1501J0D01*
G01*
X423431Y274320D02*
G03*
X423431Y274320I-1501J0D01*
G01*
X1392151Y685919D02*
G03*
X1392151Y685919I-1501J0D01*
G01*
D12*
X2060259Y228759D02*
X2070259Y238759D01*
X2060259Y248760D02*
X2070259Y238759D01*
X1554799Y248760D02*
X1564799Y238759D01*
X1554799Y228759D02*
X1564799Y238759D01*
X1048899Y228759D02*
X1058899Y238759D01*
X1048899Y248760D02*
X1058899Y238759D01*
X542609Y248760D02*
X552609Y238759D01*
X542609Y228759D02*
X552609Y238759D01*
D13*
X2140341Y396669D02*
G03*
X2140341Y396669I-1001J0D01*
G01*
X1131931Y395399D02*
G03*
X1131931Y395399I-1001J0D01*
G01*
X630281Y396669D02*
G03*
X630281Y396669I-1001J0D01*
G01*
X1637581Y397279D02*
G03*
X1637581Y397279I-1001J0D01*
G01*
M02*
