G04*
G04 #@! TF.GenerationSoftware,Altium Limited,Altium Designer,22.1.2 (22)*
G04*
G04 Layer_Color=128*
%FSLAX44Y44*%
%MOMM*%
G71*
G04*
G04 #@! TF.SameCoordinates,E8DC7784-5412-4491-ADA6-3D39AB0E1C33*
G04*
G04*
G04 #@! TF.FilePolarity,Positive*
G04*
G01*
G75*
%ADD124R,0.6350X4.2000*%
D124*
X438292Y478420D02*
D03*
X458292D02*
D03*
X478292D02*
D03*
X498292D02*
D03*
X518292D02*
D03*
X538292D02*
D03*
X558292D02*
D03*
X578292D02*
D03*
X598292D02*
D03*
X618292D02*
D03*
X638292D02*
D03*
X658292D02*
D03*
X942391D02*
D03*
X962391D02*
D03*
X982391D02*
D03*
X1002391D02*
D03*
X1022391D02*
D03*
X1042391D02*
D03*
X1062391D02*
D03*
X1082391D02*
D03*
X1102391D02*
D03*
X1122391D02*
D03*
X1142391D02*
D03*
X1162391D02*
D03*
X1446491D02*
D03*
X1466491D02*
D03*
X1486491D02*
D03*
X1506491D02*
D03*
X1526491D02*
D03*
X1546491D02*
D03*
X1566491D02*
D03*
X1586491D02*
D03*
X1606491D02*
D03*
X1626491D02*
D03*
X1646491D02*
D03*
X1666491D02*
D03*
X1950590D02*
D03*
X1970590D02*
D03*
X1990590D02*
D03*
X2010590D02*
D03*
X2030590D02*
D03*
X2050590D02*
D03*
X2070590D02*
D03*
X2090590D02*
D03*
X2110590D02*
D03*
X2130590D02*
D03*
X2150590D02*
D03*
X2170590D02*
D03*
M02*
