G04*
G04 #@! TF.GenerationSoftware,Altium Limited,Altium Designer,22.1.2 (22)*
G04*
G04 Layer_Color=32768*
%FSLAX44Y44*%
%MOMM*%
G71*
G04*
G04 #@! TF.SameCoordinates,E8DC7784-5412-4491-ADA6-3D39AB0E1C33*
G04*
G04*
G04 #@! TF.FilePolarity,Positive*
G04*
G01*
G75*
%ADD19C,0.1000*%
%ADD127C,0.0254*%
%ADD128C,0.0508*%
%ADD129C,0.0800*%
%ADD130C,0.0025*%
D19*
X927180Y411480D02*
X937180D01*
X932180Y406480D02*
Y416480D01*
X1873360Y558800D02*
X1883360D01*
X1878360Y553800D02*
Y563800D01*
X1431370Y411480D02*
X1441370D01*
X1436370Y406480D02*
Y416480D01*
X1498680Y419100D02*
X1508680D01*
X1503680Y414100D02*
Y424100D01*
X1526540Y624918D02*
X1529080D01*
Y622300D02*
Y624918D01*
X1528971Y624840D02*
X1531620D01*
X1528952D02*
Y627380D01*
X1879630Y231220D02*
Y241220D01*
X1874630Y236220D02*
X1884630D01*
X2080260Y238760D02*
X2087880D01*
X2072640D02*
X2080260D01*
Y228600D02*
Y238760D01*
Y247650D01*
X1938100Y412750D02*
X1948100D01*
X1943100Y407750D02*
Y417750D01*
X2001600Y419100D02*
X2011600D01*
X2006600Y414100D02*
Y424100D01*
X2034620Y383540D02*
X2044620D01*
X2039620Y378540D02*
Y388540D01*
X2076530Y383540D02*
X2086530D01*
X2081530Y378540D02*
Y388540D01*
X2119740Y383540D02*
X2129740D01*
X2124740Y378540D02*
Y388540D01*
X2152680Y406480D02*
Y416480D01*
X2147680Y411480D02*
X2157680D01*
X2227660Y502920D02*
X2237660D01*
X2232660Y497920D02*
Y507920D01*
X2200990Y441960D02*
X2210990D01*
X2205990Y436960D02*
Y446960D01*
X2202260Y468630D02*
X2212260D01*
X2207260Y463630D02*
Y473630D01*
X2145140Y518160D02*
X2155140D01*
X2150140Y513160D02*
Y523160D01*
X2132360Y514430D02*
Y524430D01*
X2127360Y519430D02*
X2137360D01*
X2030810Y566420D02*
X2040810D01*
X2035810Y561420D02*
Y571420D01*
X1924160Y463550D02*
X1934160D01*
X1929160Y458550D02*
Y468550D01*
X1974960Y476250D02*
X1984960D01*
X1979960Y471250D02*
Y481250D01*
X1980040Y562610D02*
X1990040D01*
X1985040Y557610D02*
Y567610D01*
X626110Y504270D02*
Y514270D01*
X621110Y509270D02*
X631110D01*
X641460Y514350D02*
X651460D01*
X646460Y509350D02*
Y519350D01*
X1136760Y514350D02*
X1146760D01*
X1141760Y509350D02*
Y519350D01*
X1122680Y509350D02*
Y519350D01*
X1117680Y514350D02*
X1127680D01*
X1640950Y515620D02*
X1650950D01*
X1645950Y510620D02*
Y520620D01*
X1628396Y510250D02*
Y520250D01*
X1623396Y515250D02*
X1633396D01*
X1390650Y553800D02*
Y563800D01*
X1385650Y558800D02*
X1395650D01*
X1497330Y553800D02*
Y563800D01*
X1492330Y558800D02*
X1502330D01*
X1421240Y466090D02*
X1431240D01*
X1426240Y461090D02*
Y471090D01*
X1469500Y474980D02*
X1479500D01*
X1474500Y469980D02*
Y479980D01*
X1699260Y436960D02*
Y446960D01*
X1694260Y441960D02*
X1704260D01*
X1648490Y406480D02*
Y416480D01*
X1643490Y411480D02*
X1653490D01*
X1619360Y383540D02*
X1629360D01*
X1624360Y378540D02*
Y388540D01*
X1578690Y386080D02*
X1588690D01*
X1583690Y381080D02*
Y391080D01*
X1534240Y386080D02*
X1544240D01*
X1539240Y381080D02*
Y391080D01*
X1574800Y238760D02*
Y247650D01*
Y228600D02*
Y238760D01*
X1567180D02*
X1574800D01*
X1582420D01*
X1472010Y283210D02*
X1482010D01*
X1477010Y278210D02*
Y288210D01*
X1378030Y243840D02*
X1388030D01*
X1383030Y238840D02*
Y248840D01*
X1348740Y209630D02*
Y219630D01*
X1343740Y214630D02*
X1353740D01*
X1190070Y468630D02*
X1200070D01*
X1195070Y463630D02*
Y473630D01*
X1196340Y436960D02*
Y446960D01*
X1191340Y441960D02*
X1201340D01*
X1141760Y405210D02*
Y415210D01*
X1136760Y410210D02*
X1146760D01*
X1113900Y381000D02*
X1123900D01*
X1118900Y376000D02*
Y386000D01*
X877650Y252730D02*
X887650D01*
X882650Y247730D02*
Y257730D01*
X848390Y219790D02*
Y229790D01*
X843390Y224790D02*
X853390D01*
X972900Y293370D02*
X982900D01*
X977900Y288370D02*
Y298370D01*
X1068900Y238760D02*
X1076520D01*
X1061280D02*
X1068900D01*
Y228600D02*
Y238760D01*
Y247650D01*
X1068150Y382270D02*
X1078150D01*
X1073150Y377270D02*
Y387270D01*
X1024970Y382270D02*
X1034970D01*
X1029970Y377270D02*
Y387270D01*
X991950Y420370D02*
X1001950D01*
X996950Y415370D02*
Y425370D01*
X381000Y551260D02*
Y561260D01*
X376000Y556260D02*
X386000D01*
X485140Y551110D02*
Y561110D01*
X480140Y556110D02*
X490140D01*
X530940Y574040D02*
X540940D01*
X535940Y569040D02*
Y579040D01*
X467360Y469980D02*
Y479980D01*
X462360Y474980D02*
X472360D01*
X687150Y468630D02*
X697150D01*
X692150Y463630D02*
Y473630D01*
X693420Y436960D02*
Y446960D01*
X688420Y441960D02*
X698420D01*
X612250Y383540D02*
X622250D01*
X617250Y378540D02*
Y388540D01*
X565230Y383540D02*
X575230D01*
X570230Y378540D02*
Y388540D01*
X523320Y383540D02*
X533320D01*
X528320Y378540D02*
Y388540D01*
X487760Y419100D02*
X497760D01*
X492760Y414100D02*
Y424100D01*
X424260Y412750D02*
X434260D01*
X429260Y407750D02*
Y417750D01*
X562610Y238760D02*
Y247650D01*
Y228600D02*
Y238760D01*
X554990D02*
X562610D01*
X570230D01*
X489030Y293370D02*
X499030D01*
X494030Y288370D02*
Y298370D01*
X393780Y252730D02*
X403780D01*
X398780Y247730D02*
Y257730D01*
X363220Y219790D02*
Y229790D01*
X358220Y224790D02*
X368220D01*
X710010Y502920D02*
X720010D01*
X715010Y497920D02*
Y507920D01*
X887730Y547300D02*
Y557300D01*
X882730Y552300D02*
X892730D01*
X917050Y464820D02*
X927050D01*
X922050Y459820D02*
Y469820D01*
X964190Y473710D02*
X974190D01*
X969190Y468710D02*
Y478710D01*
X991870Y546180D02*
Y556180D01*
X986870Y551180D02*
X996870D01*
X1038940Y563880D02*
X1048940D01*
X1043940Y558880D02*
Y568880D01*
X1021080Y619838D02*
X1023620D01*
Y617220D02*
Y619838D01*
X1023511Y619760D02*
X1026160D01*
X1023492D02*
Y622300D01*
X514350Y629998D02*
X516890D01*
Y627380D02*
Y629998D01*
X516781Y629920D02*
X519430D01*
X516762D02*
Y632460D01*
X589280Y773510D02*
Y783510D01*
X584280Y778510D02*
X594280D01*
X308610Y826850D02*
Y836850D01*
X303610Y831850D02*
X313610D01*
X283210Y909400D02*
Y919400D01*
X278210Y914400D02*
X288210D01*
X269240Y909400D02*
Y919400D01*
X264240Y914400D02*
X274240D01*
X430610Y864870D02*
X440610D01*
X435610Y859870D02*
Y869870D01*
X384890Y877570D02*
X394890D01*
X389890Y872570D02*
Y882570D01*
X394970Y844630D02*
Y854630D01*
X389970Y849630D02*
X399970D01*
X328930Y701120D02*
Y711120D01*
X323930Y706120D02*
X333930D01*
X387380Y807950D02*
Y817950D01*
X382380Y812950D02*
X392380D01*
X321390Y739140D02*
X331390D01*
X326390Y734140D02*
Y744140D01*
X314960Y697160D02*
Y707160D01*
X309960Y702160D02*
X319960D01*
X295990Y702310D02*
X305990D01*
X300990Y697310D02*
Y707310D01*
X293448Y745490D02*
Y748030D01*
X290830Y745490D02*
X293448D01*
X293370Y742950D02*
Y745599D01*
Y745618D02*
X295910D01*
X267970Y743030D02*
Y753030D01*
X262970Y748030D02*
X272970D01*
X248920Y701120D02*
Y711120D01*
X243920Y706120D02*
X253920D01*
X224790Y810340D02*
Y820340D01*
X219790Y815340D02*
X229790D01*
X218520Y793750D02*
X228520D01*
X223520Y788750D02*
Y798750D01*
X342900Y700970D02*
Y710970D01*
X337900Y705970D02*
X347900D01*
X100330Y796370D02*
Y806370D01*
X95330Y801370D02*
X105330D01*
X143590Y909320D02*
X153590D01*
X148590Y904320D02*
Y914320D01*
X86440Y910590D02*
X96440D01*
X91440Y905590D02*
Y915590D01*
X86440Y885190D02*
X96440D01*
X91440Y880190D02*
Y890190D01*
X86440Y871220D02*
X96440D01*
X91440Y866220D02*
Y876220D01*
X417680Y459820D02*
Y469820D01*
X412680Y464820D02*
X422680D01*
X635080Y411480D02*
X645080D01*
X640080Y406480D02*
Y416480D01*
X1193800Y497920D02*
Y507920D01*
X1188800Y502920D02*
X1198800D01*
X1728470Y497920D02*
Y507920D01*
X1723470Y502920D02*
X1733470D01*
X1700530Y463630D02*
Y473630D01*
X1695530Y468630D02*
X1705530D01*
X1545620Y563960D02*
Y573960D01*
X1540620Y568960D02*
X1550620D01*
X1913890Y261700D02*
Y271700D01*
X1908890Y266700D02*
X1918890D01*
X2004090Y297260D02*
Y307260D01*
X1999090Y302260D02*
X2009090D01*
X2022982Y623570D02*
Y626110D01*
X2023001Y623570D02*
X2025650D01*
X2023110Y621030D02*
Y623648D01*
X2020570D02*
X2023110D01*
D127*
X2124740Y405130D02*
Y410210D01*
X2122200Y407670D02*
X2127280D01*
X1116330Y403860D02*
Y408940D01*
X1113790Y406400D02*
X1118870D01*
X614680Y405130D02*
Y410210D01*
X612140Y407670D02*
X617220D01*
X1619440Y408280D02*
X1624520D01*
X1621980Y405740D02*
Y410820D01*
D128*
X1969770Y247650D02*
X1980998D01*
X1958542D02*
X1969770D01*
Y236422D02*
Y247650D01*
Y258878D01*
X1951990Y627380D02*
X1963218D01*
X1940762D02*
X1951990D01*
Y638608D01*
Y616152D02*
Y627380D01*
X1846580Y616152D02*
Y627380D01*
Y638608D01*
X1835352Y627380D02*
X1846580D01*
X1857808D01*
X1457960Y629920D02*
X1469188D01*
X1446732D02*
X1457960D01*
Y641148D01*
Y618692D02*
Y629920D01*
X1438910Y227330D02*
X1450138D01*
X1427682D02*
X1438910D01*
Y216102D02*
Y227330D01*
Y238558D01*
X939800Y234950D02*
X951028D01*
X928572D02*
X939800D01*
Y223722D02*
Y234950D01*
Y246178D01*
X953770Y619760D02*
X964998D01*
X942542D02*
X953770D01*
Y630988D01*
Y608532D02*
Y619760D01*
X848360Y621030D02*
X859588D01*
X837132D02*
X848360D01*
Y632258D01*
Y609802D02*
Y621030D01*
X445770Y624840D02*
X456998D01*
X434542D02*
X445770D01*
Y636068D01*
Y613612D02*
Y624840D01*
X341630D02*
X352858D01*
X330402D02*
X341630D01*
Y636068D01*
Y613612D02*
Y624840D01*
X455930Y236220D02*
Y247448D01*
Y224992D02*
Y236220D01*
X444702D02*
X455930D01*
X467158D01*
X1352550Y618692D02*
Y629920D01*
Y641148D01*
X1341322Y629920D02*
X1352550D01*
X1363778D01*
D129*
X951236Y413611D02*
Y416969D01*
X949557Y415290D02*
X952915D01*
X1837281Y565144D02*
X1840639D01*
X1838960Y563465D02*
Y566823D01*
X1456696Y413611D02*
Y416969D01*
X1455017Y415290D02*
X1458375D01*
X1499461Y407664D02*
X1502819D01*
X1501140Y405985D02*
Y409343D01*
X1753876Y494891D02*
Y498249D01*
X1752197Y496570D02*
X1755555D01*
X1859274Y693011D02*
Y696369D01*
X1857595Y694690D02*
X1860953D01*
X2030724Y679041D02*
Y682399D01*
X2029045Y680720D02*
X2032403D01*
X1964684Y693011D02*
Y696369D01*
X1963005Y694690D02*
X1966363D01*
X1535424Y680311D02*
Y683669D01*
X1533745Y681990D02*
X1537103D01*
X1470654Y693011D02*
Y696369D01*
X1468975Y694690D02*
X1472333D01*
X1365244Y693011D02*
Y696369D01*
X1363565Y694690D02*
X1366923D01*
X1866936Y237081D02*
Y240439D01*
X1865257Y238760D02*
X1868615D01*
X1962156Y414881D02*
Y418239D01*
X1960477Y416560D02*
X1963835D01*
X2003651Y407664D02*
X2007009D01*
X2005330Y405985D02*
Y409343D01*
X2170051Y417824D02*
X2173409D01*
X2171730Y416145D02*
Y419503D01*
X2258066Y494891D02*
Y498249D01*
X2256387Y496570D02*
X2259745D01*
X2046006Y534261D02*
Y537619D01*
X2044327Y535940D02*
X2047685D01*
X1942691Y562604D02*
X1946049D01*
X1944370Y560925D02*
Y564283D01*
X744226Y494891D02*
Y498249D01*
X742547Y496570D02*
X745905D01*
X1335661Y562616D02*
X1339019D01*
X1337340Y560937D02*
Y564295D01*
X1546487Y551180D02*
X1549845D01*
X1548166Y549501D02*
Y552859D01*
X1449931Y565144D02*
X1453289D01*
X1451610Y563465D02*
Y566823D01*
X1667101Y416554D02*
X1670459D01*
X1668780Y414875D02*
Y418233D01*
X1337316Y215491D02*
Y218849D01*
X1335637Y217170D02*
X1338995D01*
X1244606Y494891D02*
Y498249D01*
X1242927Y496570D02*
X1246285D01*
X1159131Y420364D02*
X1162489D01*
X1160810Y418685D02*
Y422043D01*
X836966Y225651D02*
Y229009D01*
X835287Y227330D02*
X838645D01*
X993483Y408934D02*
X996841D01*
X995162Y407255D02*
Y410613D01*
X331061Y562604D02*
X334419D01*
X332740Y560925D02*
Y564283D01*
X437741Y562604D02*
X441099D01*
X439420Y560925D02*
Y564283D01*
X539756Y531721D02*
Y535079D01*
X538077Y533400D02*
X541435D01*
X654911Y420364D02*
X658269D01*
X656590Y418685D02*
Y422043D01*
X487789Y407664D02*
X491147D01*
X489468Y405985D02*
Y409343D01*
X448316Y414881D02*
Y418239D01*
X446637Y416560D02*
X449995D01*
X350526Y226921D02*
Y230279D01*
X348847Y228600D02*
X352205D01*
X106674Y507591D02*
Y510949D01*
X104995Y509270D02*
X108353D01*
X840331Y560064D02*
X843689D01*
X842010Y558385D02*
Y561743D01*
X939909Y558794D02*
X943267D01*
X941588Y557115D02*
Y560473D01*
X1019431Y558794D02*
X1022789D01*
X1021110Y557115D02*
Y560473D01*
X1042706Y540093D02*
Y543451D01*
X1041027Y541772D02*
X1044385D01*
X861054Y686661D02*
Y690019D01*
X859375Y688340D02*
X862733D01*
X966464Y682851D02*
Y686209D01*
X964785Y684530D02*
X968143D01*
X1029964Y674713D02*
Y678071D01*
X1028285Y676392D02*
X1031643D01*
X459734Y687931D02*
Y691289D01*
X458055Y689610D02*
X461413D01*
X354324Y689201D02*
Y692559D01*
X352645Y690880D02*
X356003D01*
X521555Y685800D02*
X524913D01*
X523234Y684121D02*
Y687479D01*
X511810Y574895D02*
Y578253D01*
X510131Y576574D02*
X513489D01*
X511810Y566005D02*
Y569363D01*
X510131Y567684D02*
X513489D01*
X1021110Y566005D02*
Y569363D01*
X1019431Y567684D02*
X1022789D01*
X1520220Y571085D02*
Y574443D01*
X1518541Y572764D02*
X1521899D01*
X1520220Y562195D02*
Y565553D01*
X1518541Y563874D02*
X1521899D01*
X2011710Y568545D02*
Y571903D01*
X2010031Y570224D02*
X2013389D01*
X2012228Y559655D02*
Y563013D01*
X2010549Y561334D02*
X2013907D01*
D130*
X297750Y749715D02*
X297755Y749720D01*
M02*
